<svg xmlns="http://www.w3.org/2000/svg" xml:space="preserve" width="696" height="303" style="fill-rule:evenodd;clip-rule:evenodd;stroke-linejoin:round;stroke-miterlimit:1.5">
<path d="M0 0h696v303H0z" style="fill:none"/>
<path d="M86 51c0-4.415-3.585-8-8-8H10c-4.415 0-8 3.585-8 8v64c0 4.415 3.585 8 8 8h68c4.415 0 8-3.585 8-8V51Z" style="fill:#fff"/>
<path d="M86 51c0-4.415-3.585-8-8-8H10c-4.415 0-8 3.585-8 8v64c0 4.415 3.585 8 8 8h68c4.415 0 8-3.585 8-8V51Zm-2 0v64c0 3.311-2.689 6-6 6H10c-3.311 0-6-2.689-6-6V51c0-3.311 2.689-6 6-6h68c3.311 0 6 2.689 6 6Z" style="fill:#7f8292"/>
<path d="m13.423 94.295-.103-4.375h1.299l-.102 4.375h-1.094Zm2.666 0-.103-4.375h1.299l-.102 4.375h-1.094ZM22.932 99.764c-.54 0-1-.016-1.381-.048a7.19 7.19 0 0 1-1.039-.157l.136-1.092c.474.075.892.13 1.254.166.361.037.705.055 1.03.055.812 0 1.402-.083 1.769-.248.367-.166.55-.431.55-.795 0-.254-.075-.453-.226-.597-.152-.145-.39-.257-.715-.338l-1.647-.417c-.711-.179-1.229-.41-1.554-.692-.325-.283-.488-.681-.488-1.194 0-.762.3-1.312.899-1.652.599-.341 1.567-.511 2.902-.511a11.212 11.212 0 0 1 1.859.137l-.125 1.034a21.282 21.282 0 0 0-.974-.075c-.279-.014-.546-.02-.801-.02-.892 0-1.538.082-1.938.246-.4.164-.601.43-.601.797 0 .231.093.413.277.546.185.133.477.249.876.348l1.32.321c.753.181 1.301.427 1.644.74.342.313.514.749.514 1.308 0 .749-.28 1.293-.84 1.631-.56.338-1.46.507-2.701.507ZM33.008 99.764c-1.016 0-1.759-.234-2.226-.701-.468-.467-.702-1.198-.702-2.193v-1.208h1.18v1.162c0 .64.15 1.11.45 1.412.3.301.778.452 1.435.452.246 0 .495-.012.747-.037.252-.025.528-.059.827-.102l.135 1.051a10.313 10.313 0 0 1-1.846.164Zm-2.928-3.555v-6.016h1.18v6.016h-1.18Zm-1.953-2.775v-1.053h6.453v1.053h-6.453ZM39.272 96.51l-.424-2.27h.533c.125-1.33.814-1.996 2.067-1.996.76 0 1.312.214 1.655.643.343.428.514 1.121.514 2.078h-1.176c0-.599-.094-1.03-.284-1.294-.189-.265-.496-.397-.919-.397-.66 0-1.153.281-1.478.842-.326.561-.488 1.359-.488 2.394Zm-2.874 3.117v-1.053h4.786v1.053h-4.786Zm1.694 0v-7.246h.952l.228 2.078v5.168h-1.18Zm-1.42-6.193v-1.053h2.231l.091 1.053h-2.322ZM47.99 99.627v-6.863h1.18v6.863h-1.18Zm-2.842 0v-1.053h2.981v1.053h-2.981Zm3.883 0v-1.053h2.448v1.053h-2.448Zm-3.472-6.193v-1.053h3.611v1.053h-3.611Zm2.961-2.418a.87.87 0 0 1-.636-.264.866.866 0 0 1-.266-.635c0-.251.089-.465.266-.64a.868.868 0 0 1 .637-.263c.25 0 .464.087.639.263a.872.872 0 0 1 .263.64.87.87 0 0 1-.263.635.87.87 0 0 1-.64.264ZM58.023 99.627v-4.726c0-.506-.133-.896-.399-1.17-.266-.274-.637-.411-1.114-.411-1.282 0-1.923.741-1.923 2.224l-.429-1.851h.538c.071-.487.274-.851.607-1.09.334-.239.805-.359 1.414-.359.792 0 1.404.233 1.837.697.433.465.649 1.122.649 1.969v4.717h-1.18Zm-4.617 0v-7.246h1.071l.11 1.531v5.715h-1.181ZM61.705 102.895l-.055-1.085 2.256-.073c.807-.027 1.394-.251 1.763-.672.368-.421.554-1.042.557-1.862v-5.245l.114-1.577h1.066v6.603c0 1.29-.29 2.242-.869 2.857-.58.614-1.502.943-2.767.985l-2.065.069Zm2.304-3.131c-.948 0-1.667-.313-2.157-.937-.49-.624-.735-1.542-.735-2.755 0-1.258.246-2.21.738-2.857.493-.647 1.215-.971 2.167-.971.607 0 1.095.135 1.467.403.371.269.596.653.673 1.151h.533l-.469 2.03c0-.838-.166-1.473-.498-1.906-.332-.432-.82-.648-1.464-.648-.647 0-1.137.236-1.471.708-.333.471-.5 1.168-.5 2.09 0 .875.167 1.538.501 1.987.335.45.826.675 1.475.675.642 0 1.129-.216 1.46-.649.331-.432.497-1.066.497-1.903l.492 2h-.604c-.068.494-.282.881-.642 1.161-.36.281-.848.421-1.463.421ZM70.845 94.295l-.103-4.375h1.299l-.103 4.375h-1.093Zm2.666 0-.103-4.375h1.299l-.103 4.375h-1.093Z" style="fill:#4d4f5a;fill-rule:nonzero"/>
<path d="M10.748 60.95h1.711v-6.835h.082l2.751 6.806h1.276l2.746-6.782h.092v6.811h1.711v-9.9h-2.18l-2.949 7.193h-.116l-2.944-7.193h-2.18v9.9ZM25.898 53.428c-1.861 0-2.992.957-3.118 2.214h1.687c.131-.531.604-.884 1.383-.884.875 0 1.344.425 1.344 1.155l.005.599c-.324.015-1.383.063-1.9.097-1.378.092-2.766.58-2.766 2.258 0 1.46 1.074 2.233 2.49 2.233 1.165 0 1.861-.551 2.18-1.17h.058v1.02h1.668v-4.965c0-1.977-1.624-2.557-3.031-2.557Zm-.43 6.391c-.73 0-1.252-.334-1.252-.976 0-.648.522-.996 1.353-1.059a50.225 50.225 0 0 1 1.63-.111l.004.614c0 .831-.676 1.532-1.735 1.532ZM32.323 60.95v-4.375c0-.938.715-1.61 1.677-1.61.29 0 .658.054.812.102v-1.6a4.309 4.309 0 0 0-.633-.048c-.846 0-1.561.483-1.832 1.343h-.077v-1.237h-1.687v7.425h1.74ZM42.596 60.95l-3.056-4.225 2.882-3.2h-2.031l-2.678 2.987h-.121V51.05h-1.74v9.9h1.74v-2.499l.638-.682 2.287 3.181h2.079ZM45.922 61.081c1.276 0 1.846-.759 2.127-1.301h.101v1.17h1.707v-9.9h-1.741v3.698h-.067c-.266-.532-.812-1.32-2.123-1.32-1.721 0-3.069 1.344-3.069 3.819 0 2.442 1.315 3.834 3.065 3.834Zm.478-1.426c-1.155 0-1.769-1.02-1.769-2.417 0-1.388.599-2.379 1.769-2.379 1.131 0 1.76.933 1.76 2.379 0 1.445-.638 2.417-1.76 2.417ZM54.86 61.095c2.171 0 3.553-1.532 3.553-3.828 0-2.302-1.382-3.839-3.553-3.839-2.17 0-3.558 1.537-3.558 3.839 0 2.296 1.388 3.828 3.558 3.828Zm.005-1.392c-1.209 0-1.803-1.083-1.803-2.441 0-1.359.594-2.456 1.803-2.456 1.189 0 1.784 1.097 1.784 2.456 0 1.358-.595 2.441-1.784 2.441ZM62.924 60.95l1.397-5.032h.096l1.402 5.032h1.808l2.103-7.425h-1.774l-1.295 5.202h-.068l-1.339-5.202h-1.76l-1.334 5.231h-.068l-1.31-5.231h-1.774l2.103 7.425h1.813ZM72.587 56.599c0-1.078.653-1.696 1.576-1.696.909 0 1.451.594 1.451 1.585v4.462h1.74v-4.728c0-1.779-1.01-2.794-2.543-2.794-1.112 0-1.871.527-2.209 1.359h-.092v-1.262h-1.663v7.425h1.74v-4.351Z" style="fill-rule:nonzero"/>
<path d="M8 67.5h72" style="fill:none;stroke:#7f8292;stroke-width:1px"/>
<path d="M570 10c0-4.415-3.585-8-8-8H134c-4.415 0-8 3.585-8 8v283c0 4.415 3.585 8 8 8h428c4.415 0 8-3.585 8-8V10Z" style="fill:#fff"/>
<path d="M570 10c0-4.415-3.585-8-8-8H134c-4.415 0-8 3.585-8 8v283c0 4.415 3.585 8 8 8h428c4.415 0 8-3.585 8-8V10Z" style="fill:#c0c2ca;fill-opacity:.3"/>
<path d="M570 10c0-4.415-3.585-8-8-8H134c-4.415 0-8 3.585-8 8v283c0 4.415 3.585 8 8 8h428c4.415 0 8-3.585 8-8V10Zm-2 0v283c0 3.311-2.689 6-6 6H134c-3.311 0-6-2.689-6-6V10c0-3.311 2.689-6 6-6h428c3.311 0 6 2.689 6 6Z" style="fill:#7f8292"/>
<path d="M320 51c0-4.415-3.585-8-8-8h-68c-4.415 0-8 3.585-8 8v64c0 4.415 3.585 8 8 8h68c4.415 0 8-3.585 8-8V51Z" style="fill:#fff"/>
<path d="M320 51c0-4.415-3.585-8-8-8h-68c-4.415 0-8 3.585-8 8v64c0 4.415 3.585 8 8 8h68c4.415 0 8-3.585 8-8V51Zm-2 0v64c0 3.311-2.689 6-6 6h-68c-3.311 0-6-2.689-6-6V51c0-3.311 2.689-6 6-6h68c3.311 0 6 2.688 6 6Z" style="fill:#7f8292"/>
<path d="m284 79-25 14M278 79l26 14M264 95l-18 14M262 95v14M260 95l18 14M302 95l-9 14M300 95l9 14" style="fill:none;stroke:#a0a0a0;stroke-width:1px"/>
<path d="m284 79-25 14M278 79l26 14M264 95l-18 14M262 95v14M260 95l18 14M302 95l-9 14M300 95l9 14" style="fill:none;stroke:#d80303;stroke-opacity:.5;stroke-width:1px"/>
<path d="M287 76a2 2 0 0 0-2-2h-8a2 2 0 0 0-2 2v4a2 2 0 0 0 2 2h8a2 2 0 0 0 2-2v-4ZM268 92a2 2 0 0 0-2-2h-8a2 2 0 0 0-2 2v4a2 2 0 0 0 2 2h8a2 2 0 0 0 2-2v-4ZM254 108a2 2 0 0 0-2-2h-8a2 2 0 0 0-2 2v4a2 2 0 0 0 2 2h8a2 2 0 0 0 2-2v-4ZM268 108a2 2 0 0 0-2-2h-8a2 2 0 0 0-2 2v4a2 2 0 0 0 2 2h8a2 2 0 0 0 2-2v-4ZM282 108a2 2 0 0 0-2-2h-8a2 2 0 0 0-2 2v4a2 2 0 0 0 2 2h8a2 2 0 0 0 2-2v-4ZM300 108a2 2 0 0 0-2-2h-8a2 2 0 0 0-2 2v4a2 2 0 0 0 2 2h8a2 2 0 0 0 2-2v-4ZM314 108a2 2 0 0 0-2-2h-8a2 2 0 0 0-2 2v4a2 2 0 0 0 2 2h8a2 2 0 0 0 2-2v-4ZM307 92a2 2 0 0 0-2-2h-8a2 2 0 0 0-2 2v4a2 2 0 0 0 2 2h8a2 2 0 0 0 2-2v-4Z" style="fill:#fff"/>
<path d="M287 76a2 2 0 0 0-2-2h-8a2 2 0 0 0-2 2v4a2 2 0 0 0 2 2h8a2 2 0 0 0 2-2v-4ZM268 92a2 2 0 0 0-2-2h-8a2 2 0 0 0-2 2v4a2 2 0 0 0 2 2h8a2 2 0 0 0 2-2v-4ZM254 108a2 2 0 0 0-2-2h-8a2 2 0 0 0-2 2v4a2 2 0 0 0 2 2h8a2 2 0 0 0 2-2v-4ZM268 108a2 2 0 0 0-2-2h-8a2 2 0 0 0-2 2v4a2 2 0 0 0 2 2h8a2 2 0 0 0 2-2v-4ZM282 108a2 2 0 0 0-2-2h-8a2 2 0 0 0-2 2v4a2 2 0 0 0 2 2h8a2 2 0 0 0 2-2v-4ZM300 108a2 2 0 0 0-2-2h-8a2 2 0 0 0-2 2v4a2 2 0 0 0 2 2h8a2 2 0 0 0 2-2v-4ZM314 108a2 2 0 0 0-2-2h-8a2 2 0 0 0-2 2v4a2 2 0 0 0 2 2h8a2 2 0 0 0 2-2v-4ZM307 92a2 2 0 0 0-2-2h-8a2 2 0 0 0-2 2v4a2 2 0 0 0 2 2h8a2 2 0 0 0 2-2v-4Z" style="fill:#d80303;fill-opacity:.3"/>
<path d="M260.261 60.95v-4.52c0-.918.614-1.537 1.368-1.537.744 0 1.252.498 1.252 1.267v4.79h1.706v-4.641c0-.831.493-1.416 1.349-1.416.711 0 1.272.416 1.272 1.339v4.718h1.745v-4.984c0-1.658-.962-2.538-2.321-2.538-1.078 0-1.9.532-2.233 1.359h-.078c-.28-.842-1-1.359-2.006-1.359-.991 0-1.73.508-2.04 1.359h-.092v-1.262h-1.663v7.425h1.741ZM273.376 61.081c1.276 0 1.847-.759 2.127-1.301h.102v1.17h1.706v-9.9h-1.74v3.698h-.068c-.266-.532-.812-1.32-2.122-1.32-1.721 0-3.07 1.344-3.07 3.819 0 2.442 1.315 3.834 3.065 3.834Zm.479-1.426c-1.156 0-1.77-1.02-1.77-2.417 0-1.388.6-2.379 1.77-2.379 1.131 0 1.759.933 1.759 2.379 0 1.445-.638 2.417-1.759 2.417ZM282.092 53.428c-1.861 0-2.992.957-3.118 2.214h1.687c.131-.531.605-.884 1.383-.884.875 0 1.344.425 1.344 1.155l.005.599c-.324.015-1.383.063-1.9.097-1.378.092-2.765.58-2.765 2.258 0 1.46 1.073 2.233 2.489 2.233 1.165 0 1.861-.551 2.18-1.17h.058v1.02h1.668v-4.965c0-1.977-1.624-2.557-3.031-2.557Zm-.43 6.391c-.73 0-1.252-.334-1.252-.976 0-.648.522-.996 1.353-1.059a50.418 50.418 0 0 1 1.63-.111l.004.614c0 .831-.676 1.532-1.735 1.532ZM292.631 55.642c-.126-1.348-1.218-2.214-2.988-2.214-1.817 0-3.002.899-2.997 2.272-.005 1.064.711 1.784 2.084 2.069l1.199.252c.739.159 1.073.435 1.078.865-.005.551-.552.894-1.393.894-.812 0-1.305-.314-1.416-.942h-1.765c.174 1.416 1.291 2.257 3.186 2.257 1.939 0 3.157-.967 3.162-2.364-.005-1.058-.687-1.711-2.084-2.011l-1.262-.27c-.754-.174-1.058-.46-1.058-.851 0-.503.546-.875 1.29-.875.74 0 1.204.362 1.311.918h1.653ZM297.151 59.587c-.445-.01-.798-.155-.798-.87v-3.848h1.46v-1.344h-1.46v-1.779h-1.74v1.779h-1.054v1.344h1.054v4.138c-.005 1.397 1.005 2.045 2.316 2.045.444 0 .778-.039.986-.073v-1.426c-.218.015-.561.039-.764.034Z" style="fill-rule:nonzero"/>
<path d="M242 67.5h72" style="fill:none;stroke:#7f8292;stroke-width:1px"/>
<path d="M512 51c0-4.415-3.585-8-8-8h-68c-4.415 0-8 3.585-8 8v64c0 4.415 3.585 8 8 8h68c4.415 0 8-3.585 8-8V51Z" style="fill:#fff"/>
<path d="M512 51c0-4.415-3.585-8-8-8h-68c-4.415 0-8 3.585-8 8v64c0 4.415 3.585 8 8 8h68c4.415 0 8-3.585 8-8V51Zm-2 0v64c0 3.311-2.689 6-6 6h-68c-3.311 0-6-2.689-6-6V51c0-3.311 2.689-6 6-6h68c3.311 0 6 2.689 6 6Z" style="fill:#7f8292"/>
<path d="m476 79-25 14M470 79l26 14M456 95l-18 14M454 95v14M452 95l18 14M494 95l-9 14M492 95l9 14" style="fill:none;stroke:#a0a0a0;stroke-width:1px"/>
<path d="m476 79-25 14M470 79l26 14M456 95l-18 14M454 95v14M452 95l18 14M494 95l-9 14M492 95l9 14" style="fill:none;stroke:#d80303;stroke-opacity:.5;stroke-width:1px"/>
<path d="M479 76a2 2 0 0 0-2-2h-8a2 2 0 0 0-2 2v4a2 2 0 0 0 2 2h8a2 2 0 0 0 2-2v-4ZM460 92a2 2 0 0 0-2-2h-8a2 2 0 0 0-2 2v4a2 2 0 0 0 2 2h8a2 2 0 0 0 2-2v-4ZM446 108a2 2 0 0 0-2-2h-8a2 2 0 0 0-2 2v4a2 2 0 0 0 2 2h8a2 2 0 0 0 2-2v-4ZM460 108a2 2 0 0 0-2-2h-8a2 2 0 0 0-2 2v4a2 2 0 0 0 2 2h8a2 2 0 0 0 2-2v-4ZM474 108a2 2 0 0 0-2-2h-8a2 2 0 0 0-2 2v4a2 2 0 0 0 2 2h8a2 2 0 0 0 2-2v-4ZM492 108a2 2 0 0 0-2-2h-8a2 2 0 0 0-2 2v4a2 2 0 0 0 2 2h8a2 2 0 0 0 2-2v-4ZM506 108a2 2 0 0 0-2-2h-8a2 2 0 0 0-2 2v4a2 2 0 0 0 2 2h8a2 2 0 0 0 2-2v-4ZM499 92a2 2 0 0 0-2-2h-8a2 2 0 0 0-2 2v4a2 2 0 0 0 2 2h8a2 2 0 0 0 2-2v-4Z" style="fill:#fff"/>
<path d="M479 76a2 2 0 0 0-2-2h-8a2 2 0 0 0-2 2v4a2 2 0 0 0 2 2h8a2 2 0 0 0 2-2v-4ZM460 92a2 2 0 0 0-2-2h-8a2 2 0 0 0-2 2v4a2 2 0 0 0 2 2h8a2 2 0 0 0 2-2v-4ZM446 108a2 2 0 0 0-2-2h-8a2 2 0 0 0-2 2v4a2 2 0 0 0 2 2h8a2 2 0 0 0 2-2v-4ZM460 108a2 2 0 0 0-2-2h-8a2 2 0 0 0-2 2v4a2 2 0 0 0 2 2h8a2 2 0 0 0 2-2v-4ZM474 108a2 2 0 0 0-2-2h-8a2 2 0 0 0-2 2v4a2 2 0 0 0 2 2h8a2 2 0 0 0 2-2v-4ZM492 108a2 2 0 0 0-2-2h-8a2 2 0 0 0-2 2v4a2 2 0 0 0 2 2h8a2 2 0 0 0 2-2v-4ZM506 108a2 2 0 0 0-2-2h-8a2 2 0 0 0-2 2v4a2 2 0 0 0 2 2h8a2 2 0 0 0 2-2v-4ZM499 92a2 2 0 0 0-2-2h-8a2 2 0 0 0-2 2v4a2 2 0 0 0 2 2h8a2 2 0 0 0 2-2v-4Z" style="fill:#d80303;fill-opacity:.3"/>
<path d="M452.261 60.95v-4.52c0-.918.614-1.537 1.368-1.537.744 0 1.252.498 1.252 1.267v4.79h1.706v-4.641c0-.831.493-1.416 1.349-1.416.711 0 1.272.416 1.272 1.339v4.718h1.745v-4.984c0-1.658-.962-2.538-2.321-2.538-1.078 0-1.9.532-2.233 1.359h-.078c-.28-.842-1-1.359-2.006-1.359-.991 0-1.73.508-2.04 1.359h-.092v-1.262h-1.663v7.425h1.741ZM465.376 61.081c1.276 0 1.847-.759 2.127-1.301h.102v1.17h1.706v-9.9h-1.74v3.698h-.068c-.266-.532-.812-1.32-2.122-1.32-1.721 0-3.07 1.344-3.07 3.819 0 2.442 1.315 3.834 3.065 3.834Zm.479-1.426c-1.156 0-1.77-1.02-1.77-2.417 0-1.388.6-2.379 1.77-2.379 1.131 0 1.759.933 1.759 2.379 0 1.445-.638 2.417-1.759 2.417ZM474.092 53.428c-1.861 0-2.992.957-3.118 2.214h1.687c.131-.531.605-.884 1.383-.884.875 0 1.344.425 1.344 1.155l.005.599c-.324.015-1.383.063-1.9.097-1.378.092-2.765.58-2.765 2.258 0 1.46 1.073 2.233 2.489 2.233 1.165 0 1.861-.551 2.18-1.17h.058v1.02h1.668v-4.965c0-1.977-1.624-2.557-3.031-2.557Zm-.43 6.391c-.73 0-1.252-.334-1.252-.976 0-.648.522-.996 1.353-1.059a50.418 50.418 0 0 1 1.63-.111l.004.614c0 .831-.676 1.532-1.735 1.532ZM484.631 55.642c-.126-1.348-1.218-2.214-2.988-2.214-1.817 0-3.002.899-2.997 2.272-.005 1.064.711 1.784 2.084 2.069l1.199.252c.739.159 1.073.435 1.078.865-.005.551-.552.894-1.393.894-.812 0-1.305-.314-1.416-.942h-1.765c.174 1.416 1.291 2.257 3.186 2.257 1.939 0 3.157-.967 3.162-2.364-.005-1.058-.687-1.711-2.084-2.011l-1.262-.27c-.754-.174-1.058-.46-1.058-.851 0-.503.546-.875 1.29-.875.74 0 1.204.362 1.311.918h1.653ZM489.151 59.587c-.445-.01-.798-.155-.798-.87v-3.848h1.46v-1.344h-1.46v-1.779h-1.74v1.779h-1.054v1.344h1.054v4.138c-.005 1.397 1.005 2.045 2.316 2.045.444 0 .778-.039.986-.073v-1.426c-.218.015-.561.039-.764.034Z" style="fill-rule:nonzero"/>
<path d="M434 67.5h72" style="fill:none;stroke:#7f8292;stroke-width:1px"/>
<path d="M268 211c0-4.415-3.585-8-8-8h-68c-4.415 0-8 3.585-8 8v64c0 4.415 3.585 8 8 8h68c4.415 0 8-3.585 8-8v-64Z" style="fill:#fff"/>
<path d="M268 211c0-4.415-3.585-8-8-8h-68c-4.415 0-8 3.585-8 8v64c0 4.415 3.585 8 8 8h68c4.415 0 8-3.585 8-8v-64Zm-2 0v64c0 3.311-2.689 6-6 6h-68c-3.311 0-6-2.689-6-6v-64c0-3.311 2.689-6 6-6h68c3.311 0 6 2.688 6 6Z" style="fill:#7f8292"/>
<path d="m232 239-25 14M226 239l26 14M212 255l-18 14M210 255v14M208 255l18 14M250 255l-9 14M248 255l9 14" style="fill:none;stroke:gray;stroke-width:1px"/>
<path d="m232 239-25 14M226 239l26 14M212 255l-18 14M210 255v14M208 255l18 14M250 255l-9 14M248 255l9 14" style="fill:none;stroke:#d8a303;stroke-opacity:.5;stroke-width:1px"/>
<path d="M235 236a2 2 0 0 0-2-2h-8a2 2 0 0 0-2 2v4a2 2 0 0 0 2 2h8a2 2 0 0 0 2-2v-4ZM216 252a2 2 0 0 0-2-2h-8a2 2 0 0 0-2 2v4a2 2 0 0 0 2 2h8a2 2 0 0 0 2-2v-4ZM202 268a2 2 0 0 0-2-2h-8a2 2 0 0 0-2 2v4a2 2 0 0 0 2 2h8a2 2 0 0 0 2-2v-4ZM216 268a2 2 0 0 0-2-2h-8a2 2 0 0 0-2 2v4a2 2 0 0 0 2 2h8a2 2 0 0 0 2-2v-4ZM230 268a2 2 0 0 0-2-2h-8a2 2 0 0 0-2 2v4a2 2 0 0 0 2 2h8a2 2 0 0 0 2-2v-4ZM248 268a2 2 0 0 0-2-2h-8a2 2 0 0 0-2 2v4a2 2 0 0 0 2 2h8a2 2 0 0 0 2-2v-4ZM262 268a2 2 0 0 0-2-2h-8a2 2 0 0 0-2 2v4a2 2 0 0 0 2 2h8a2 2 0 0 0 2-2v-4ZM255 252a2 2 0 0 0-2-2h-8a2 2 0 0 0-2 2v4a2 2 0 0 0 2 2h8a2 2 0 0 0 2-2v-4Z" style="fill:#fff"/>
<path d="M235 236a2 2 0 0 0-2-2h-8a2 2 0 0 0-2 2v4a2 2 0 0 0 2 2h8a2 2 0 0 0 2-2v-4ZM216 252a2 2 0 0 0-2-2h-8a2 2 0 0 0-2 2v4a2 2 0 0 0 2 2h8a2 2 0 0 0 2-2v-4ZM202 268a2 2 0 0 0-2-2h-8a2 2 0 0 0-2 2v4a2 2 0 0 0 2 2h8a2 2 0 0 0 2-2v-4ZM216 268a2 2 0 0 0-2-2h-8a2 2 0 0 0-2 2v4a2 2 0 0 0 2 2h8a2 2 0 0 0 2-2v-4ZM230 268a2 2 0 0 0-2-2h-8a2 2 0 0 0-2 2v4a2 2 0 0 0 2 2h8a2 2 0 0 0 2-2v-4ZM248 268a2 2 0 0 0-2-2h-8a2 2 0 0 0-2 2v4a2 2 0 0 0 2 2h8a2 2 0 0 0 2-2v-4ZM262 268a2 2 0 0 0-2-2h-8a2 2 0 0 0-2 2v4a2 2 0 0 0 2 2h8a2 2 0 0 0 2-2v-4ZM255 252a2 2 0 0 0-2-2h-8a2 2 0 0 0-2 2v4a2 2 0 0 0 2 2h8a2 2 0 0 0 2-2v-4Z" style="fill:#d8a303;fill-opacity:.4"/>
<path d="M214.429 216.599c0-1.078.672-1.696 1.61-1.696.923 0 1.465.58 1.465 1.585v4.462h1.74v-4.728c0-1.798-1.02-2.794-2.557-2.794-1.141 0-1.861.517-2.205 1.359h-.091v-3.737h-1.702v9.9h1.74v-4.351ZM223.924 213.428c-1.862 0-2.993.957-3.118 2.214h1.687c.13-.531.604-.884 1.382-.884.875 0 1.344.425 1.344 1.155l.005.599c-.324.015-1.382.063-1.9.097-1.378.092-2.765.58-2.765 2.258 0 1.46 1.073 2.233 2.49 2.233 1.165 0 1.861-.551 2.18-1.17h.058v1.02h1.668v-4.965c0-1.977-1.625-2.557-3.031-2.557Zm-.431 6.391c-.73 0-1.252-.334-1.252-.976 0-.648.522-.996 1.354-1.059a50.36 50.36 0 0 1 1.629-.111l.005.614c0 .831-.677 1.532-1.736 1.532ZM234.462 215.642c-.125-1.348-1.218-2.214-2.987-2.214-1.818 0-3.002.899-2.997 2.272-.005 1.064.71 1.784 2.083 2.069l1.199.252c.74.159 1.073.435 1.078.865-.005.551-.551.894-1.392.894-.812 0-1.305-.314-1.417-.942h-1.764c.174 1.416 1.291 2.257 3.186 2.257 1.938 0 3.156-.967 3.161-2.364-.005-1.058-.686-1.711-2.083-2.011l-1.262-.27c-.754-.174-1.059-.46-1.059-.851 0-.503.546-.875 1.291-.875.74 0 1.204.362 1.31.918h1.653ZM238.982 219.587c-.444-.01-.797-.155-.797-.87v-3.848h1.46v-1.344h-1.46v-1.779h-1.741v1.779h-1.053v1.344h1.053v4.138c-.004 1.397 1.006 2.045 2.316 2.045.445 0 .778-.039.986-.073v-1.426c-.217.015-.561.039-.764.034Z" style="fill-rule:nonzero"/>
<path d="M190 227.5h72" style="fill:none;stroke:#7f8292;stroke-width:1px"/>
<path d="M460 211c0-4.415-3.585-8-8-8h-68c-4.415 0-8 3.585-8 8v64c0 4.415 3.585 8 8 8h68c4.415 0 8-3.585 8-8v-64Z" style="fill:#fff"/>
<path d="M460 211c0-4.415-3.585-8-8-8h-68c-4.415 0-8 3.585-8 8v64c0 4.415 3.585 8 8 8h68c4.415 0 8-3.585 8-8v-64Zm-2 0v64c0 3.311-2.689 6-6 6h-68c-3.311 0-6-2.689-6-6v-64c0-3.311 2.689-6 6-6h68c3.311 0 6 2.689 6 6Z" style="fill:#7f8292"/>
<path d="m424 239-25 14M418 239l26 14M404 255l-18 14M402 255v14M400 255l18 14M442 255l-9 14M440 255l9 14" style="fill:none;stroke:gray;stroke-width:1px"/>
<path d="m424 239-25 14M418 239l26 14M404 255l-18 14M402 255v14M400 255l18 14M442 255l-9 14M440 255l9 14" style="fill:none;stroke:#d8a303;stroke-opacity:.5;stroke-width:1px"/>
<path d="M427 236a2 2 0 0 0-2-2h-8a2 2 0 0 0-2 2v4a2 2 0 0 0 2 2h8a2 2 0 0 0 2-2v-4ZM408 252a2 2 0 0 0-2-2h-8a2 2 0 0 0-2 2v4a2 2 0 0 0 2 2h8a2 2 0 0 0 2-2v-4ZM394 268a2 2 0 0 0-2-2h-8a2 2 0 0 0-2 2v4a2 2 0 0 0 2 2h8a2 2 0 0 0 2-2v-4ZM408 268a2 2 0 0 0-2-2h-8a2 2 0 0 0-2 2v4a2 2 0 0 0 2 2h8a2 2 0 0 0 2-2v-4ZM422 268a2 2 0 0 0-2-2h-8a2 2 0 0 0-2 2v4a2 2 0 0 0 2 2h8a2 2 0 0 0 2-2v-4ZM440 268a2 2 0 0 0-2-2h-8a2 2 0 0 0-2 2v4a2 2 0 0 0 2 2h8a2 2 0 0 0 2-2v-4ZM454 268a2 2 0 0 0-2-2h-8a2 2 0 0 0-2 2v4a2 2 0 0 0 2 2h8a2 2 0 0 0 2-2v-4ZM447 252a2 2 0 0 0-2-2h-8a2 2 0 0 0-2 2v4a2 2 0 0 0 2 2h8a2 2 0 0 0 2-2v-4Z" style="fill:#fff"/>
<path d="M427 236a2 2 0 0 0-2-2h-8a2 2 0 0 0-2 2v4a2 2 0 0 0 2 2h8a2 2 0 0 0 2-2v-4ZM408 252a2 2 0 0 0-2-2h-8a2 2 0 0 0-2 2v4a2 2 0 0 0 2 2h8a2 2 0 0 0 2-2v-4ZM394 268a2 2 0 0 0-2-2h-8a2 2 0 0 0-2 2v4a2 2 0 0 0 2 2h8a2 2 0 0 0 2-2v-4ZM408 268a2 2 0 0 0-2-2h-8a2 2 0 0 0-2 2v4a2 2 0 0 0 2 2h8a2 2 0 0 0 2-2v-4ZM422 268a2 2 0 0 0-2-2h-8a2 2 0 0 0-2 2v4a2 2 0 0 0 2 2h8a2 2 0 0 0 2-2v-4ZM440 268a2 2 0 0 0-2-2h-8a2 2 0 0 0-2 2v4a2 2 0 0 0 2 2h8a2 2 0 0 0 2-2v-4ZM454 268a2 2 0 0 0-2-2h-8a2 2 0 0 0-2 2v4a2 2 0 0 0 2 2h8a2 2 0 0 0 2-2v-4ZM447 252a2 2 0 0 0-2-2h-8a2 2 0 0 0-2 2v4a2 2 0 0 0 2 2h8a2 2 0 0 0 2-2v-4Z" style="fill:#d8a303;fill-opacity:.4"/>
<path d="M406.429 216.599c0-1.078.672-1.696 1.61-1.696.923 0 1.465.58 1.465 1.585v4.462h1.74v-4.728c0-1.798-1.02-2.794-2.557-2.794-1.141 0-1.861.517-2.205 1.359h-.091v-3.737h-1.702v9.9h1.74v-4.351ZM415.924 213.428c-1.862 0-2.993.957-3.118 2.214h1.687c.13-.531.604-.884 1.382-.884.875 0 1.344.425 1.344 1.155l.005.599c-.324.015-1.382.063-1.9.097-1.378.092-2.765.58-2.765 2.258 0 1.46 1.073 2.233 2.49 2.233 1.165 0 1.861-.551 2.18-1.17h.058v1.02h1.668v-4.965c0-1.977-1.625-2.557-3.031-2.557Zm-.431 6.391c-.73 0-1.252-.334-1.252-.976 0-.648.522-.996 1.354-1.059a50.36 50.36 0 0 1 1.629-.111l.005.614c0 .831-.677 1.532-1.736 1.532ZM426.462 215.642c-.125-1.348-1.218-2.214-2.987-2.214-1.818 0-3.002.899-2.997 2.272-.005 1.064.71 1.784 2.083 2.069l1.199.252c.74.159 1.073.435 1.078.865-.005.551-.551.894-1.392.894-.812 0-1.305-.314-1.417-.942h-1.764c.174 1.416 1.291 2.257 3.186 2.257 1.938 0 3.156-.967 3.161-2.364-.005-1.058-.686-1.711-2.083-2.011l-1.262-.27c-.754-.174-1.059-.46-1.059-.851 0-.503.546-.875 1.291-.875.74 0 1.204.362 1.31.918h1.653ZM430.982 219.587c-.444-.01-.797-.155-.797-.87v-3.848h1.46v-1.344h-1.46v-1.779h-1.741v1.779h-1.053v1.344h1.053v4.138c-.004 1.397 1.006 2.045 2.316 2.045.445 0 .778-.039.986-.073v-1.426c-.217.015-.561.039-.764.034Z" style="fill-rule:nonzero"/>
<path d="M382 227.5h72" style="fill:none;stroke:#7f8292;stroke-width:1px"/>
<path d="M296.752 19.95v-4.375c0-.938.716-1.61 1.678-1.61.29 0 .657.054.812.102v-1.6a4.334 4.334 0 0 0-.634-.048c-.846 0-1.561.483-1.832 1.343h-.077v-1.237h-1.687v7.425h1.74ZM306.628 16.18c0-2.611-1.571-3.752-3.393-3.752-2.122 0-3.51 1.562-3.51 3.853 0 2.325 1.368 3.814 3.606 3.814 1.726 0 2.911-.846 3.225-2.132h-1.702c-.227.445-.744.779-1.503.779-1.131 0-1.881-.75-1.9-2.026h5.177v-.536Zm-5.172-.643c.053-.948.759-1.75 1.808-1.75 1.005 0 1.687.739 1.692 1.75h-3.5ZM311.008 12.428c-1.861 0-2.992.957-3.118 2.214h1.687c.131-.531.605-.884 1.383-.884.875 0 1.344.425 1.344 1.155l.005.599c-.324.015-1.383.063-1.9.097-1.378.092-2.765.58-2.765 2.258 0 1.46 1.073 2.233 2.489 2.233 1.165 0 1.861-.551 2.181-1.17h.058v1.02h1.667v-4.965c0-1.977-1.624-2.557-3.031-2.557Zm-.43 6.391c-.73 0-1.252-.334-1.252-.976 0-.648.522-.996 1.354-1.059a50.168 50.168 0 0 1 1.629-.111l.005.614c0 .831-.677 1.532-1.736 1.532ZM318.932 20.095c1.861 0 3.05-1.107 3.171-2.673h-1.658c-.155.798-.73 1.252-1.499 1.252-1.102 0-1.813-.909-1.813-2.436 0-1.504.725-2.408 1.813-2.408.841 0 1.359.542 1.499 1.257h1.658c-.116-1.6-1.378-2.659-3.186-2.659-2.17 0-3.543 1.571-3.543 3.839 0 2.248 1.339 3.828 3.558 3.828ZM326.459 18.587c-.445-.01-.798-.155-.798-.87v-3.848h1.46v-1.344h-1.46v-1.779h-1.74v1.779h-1.054v1.344h1.054v4.138c-.005 1.397 1.005 2.045 2.315 2.045.445 0 .779-.039.986-.073v-1.426c-.217.015-.56.039-.763.034ZM328.267 15.106h4.452v1.436h-4.452zM336.18 19.95v-4.52c0-.918.614-1.537 1.368-1.537.745 0 1.252.498 1.252 1.267v4.79h1.707v-4.641c0-.831.493-1.416 1.349-1.416.71 0 1.271.416 1.271 1.339v4.718h1.745v-4.984c0-1.658-.962-2.538-2.32-2.538-1.078 0-1.9.532-2.234 1.359h-.077c-.28-.842-1.001-1.359-2.006-1.359-.991 0-1.731.508-2.04 1.359h-.092v-1.262h-1.663v7.425h1.74ZM349.552 12.428c-1.861 0-2.993.957-3.118 2.214h1.687c.13-.531.604-.884 1.382-.884.875 0 1.344.425 1.344 1.155l.005.599c-.324.015-1.382.063-1.9.097-1.377.092-2.765.58-2.765 2.258 0 1.46 1.073 2.233 2.49 2.233 1.165 0 1.861-.551 2.18-1.17h.058v1.02h1.668v-4.965c0-1.977-1.624-2.557-3.031-2.557Zm-.43 6.391c-.73 0-1.253-.334-1.253-.976 0-.648.523-.996 1.354-1.059a50.36 50.36 0 0 1 1.629-.111l.005.614c0 .831-.677 1.532-1.735 1.532ZM355.977 19.95v-4.375c0-.938.715-1.61 1.677-1.61.29 0 .657.054.812.102v-1.6a4.32 4.32 0 0 0-.633-.048c-.846 0-1.562.483-1.832 1.343h-.078v-1.237h-1.687v7.425h1.741ZM366.249 19.95l-3.055-4.225 2.881-3.2h-2.03l-2.678 2.987h-.121V10.05h-1.74v9.9h1.74v-2.499l.638-.682 2.287 3.181h2.078ZM369.575 20.081c1.277 0 1.847-.759 2.127-1.301h.102v1.17h1.706v-9.9h-1.74v3.698h-.068c-.266-.532-.812-1.32-2.122-1.32-1.721 0-3.07 1.344-3.07 3.819 0 2.442 1.315 3.834 3.065 3.834Zm.479-1.426c-1.156 0-1.769-1.02-1.769-2.417 0-1.388.599-2.379 1.769-2.379 1.131 0 1.76.933 1.76 2.379 0 1.445-.639 2.417-1.76 2.417ZM378.514 20.095c2.17 0 3.553-1.532 3.553-3.828 0-2.302-1.383-3.839-3.553-3.839-2.171 0-3.558 1.537-3.558 3.839 0 2.296 1.387 3.828 3.558 3.828Zm.005-1.392c-1.209 0-1.804-1.083-1.804-2.441 0-1.359.595-2.456 1.804-2.456 1.189 0 1.783 1.097 1.783 2.456 0 1.358-.594 2.441-1.783 2.441ZM386.577 19.95l1.397-5.032h.097l1.402 5.032h1.808l2.103-7.425h-1.774l-1.296 5.202h-.067l-1.34-5.202h-1.759l-1.334 5.231h-.068l-1.31-5.231h-1.774l2.103 7.425h1.812ZM396.241 15.599c0-1.078.653-1.696 1.576-1.696.909 0 1.45.594 1.45 1.585v4.462h1.741v-4.728c0-1.779-1.011-2.794-2.543-2.794-1.112 0-1.871.527-2.209 1.359h-.092v-1.262h-1.663v7.425h1.74v-4.351Z" style="fill-rule:nonzero"/>
<path d="M132 26.5h432" style="fill:none;stroke:#7f8292;stroke-width:1px"/>
<path d="M694 211c0-4.415-3.585-8-8-8h-68c-4.415 0-8 3.585-8 8v64c0 4.415 3.585 8 8 8h68c4.415 0 8-3.585 8-8v-64Z" style="fill:#fff"/>
<path d="M694 211c0-4.415-3.585-8-8-8h-68c-4.415 0-8 3.585-8 8v64c0 4.415 3.585 8 8 8h68c4.415 0 8-3.585 8-8v-64Zm-2 0v64c0 3.311-2.689 6-6 6h-68c-3.311 0-6-2.689-6-6v-64c0-3.311 2.689-6 6-6h68c3.311 0 6 2.689 6 6Z" style="fill:#7f8292"/>
<path d="m649.012 270.922-15.996-7.717v-1.969l15.996-7.716v1.757l-14.625 6.873v.141l14.625 6.873v1.758ZM654.988 270.922v-1.758l14.625-6.873v-.141l-14.625-6.873v-1.757l15.996 7.716v1.969l-15.996 7.717Z" style="fill:#61dafb;fill-rule:nonzero"/>
<path d="M.606 0 .452-.28C.536-.314.58-.385.58-.481c0-.135-.087-.226-.25-.226H.066V0h.127v-.259h.132L.463 0h.143ZM.311-.601c.096 0 .139.045.139.12s-.043.116-.138.116H.193v-.236h.118Z" style="fill-rule:nonzero" transform="matrix(14 0 0 14 633.473 220.95)"/>
<path d="M.53-.269c0-.187-.112-.268-.242-.268-.152 0-.251.111-.251.275 0 .166.098.272.258.272.123 0 .208-.06.23-.152H.404C.387-.11.35-.086.296-.086.215-.086.162-.14.161-.231H.53v-.038ZM.161-.315A.128.128 0 0 1 .29-.44c.072 0 .121.053.121.125h-.25Z" style="fill-rule:nonzero" transform="matrix(14 0 0 14 642.102 220.95)"/>
<path d="M.276-.537c-.133 0-.214.068-.223.158h.12c.01-.038.044-.063.099-.063.063 0 .096.03.096.082v.043a22.12 22.12 0 0 0-.135.007c-.099.006-.198.041-.198.161 0 .104.077.16.178.16.083 0 .133-.04.156-.084h.004V0h.119v-.355c0-.141-.116-.182-.216-.182Zm-.031.456c-.052 0-.09-.024-.09-.07 0-.046.038-.071.097-.075.025-.003.094-.007.116-.008l.001.044c0 .059-.049.109-.124.109Z" style="fill-rule:nonzero" transform="matrix(14 0 0 14 650.049 220.95)"/>
<path d="M.291.01c.133 0 .218-.079.227-.191H.4c-.012.057-.053.09-.108.09-.078 0-.129-.065-.129-.174 0-.108.052-.172.129-.172.061 0 .098.039.108.09h.118C.51-.462.42-.537.29-.537c-.155 0-.253.112-.253.274 0 .16.096.273.254.273Z" style="fill-rule:nonzero" transform="matrix(14 0 0 14 657.75 220.95)"/>
<path d="M.277-.097C.245-.098.22-.108.22-.16v-.274h.104V-.53H.22v-.127H.095v.127H.02v.096h.075v.295c0 .1.072.146.166.146a.51.51 0 0 0 .07-.005V-.1l-.054.003Z" style="fill-rule:nonzero" transform="matrix(14 0 0 14 665.485 220.95)"/>
<path d="M.528 0v-.107H.193v-.194h.308v-.106H.193V-.6h.332v-.107H.066V0h.462Z" style="fill-rule:nonzero" transform="matrix(14 0 0 14 622.001 234.95)"/>
<path d="M.06-.707h.124V0H.06z" style="fill-rule:nonzero" transform="matrix(14 0 0 14 630.147 234.95)"/>
<path d="M.53-.269c0-.187-.112-.268-.242-.268-.152 0-.251.111-.251.275 0 .166.098.272.258.272.123 0 .208-.06.23-.152H.404C.387-.11.35-.086.296-.086.215-.086.162-.14.161-.231H.53v-.038ZM.161-.315A.128.128 0 0 1 .29-.44c.072 0 .121.053.121.125h-.25Z" style="fill-rule:nonzero" transform="matrix(14 0 0 14 633.565 234.95)"/>
<path d="M.184 0v-.323c0-.065.044-.11.098-.11.053 0 .09.036.09.091V0h.121v-.331c0-.06.036-.102.097-.102.051 0 .091.03.091.096V0h.124v-.356c0-.118-.068-.181-.165-.181-.078 0-.136.038-.16.097H.474C.454-.5.403-.537.331-.537a.147.147 0 0 0-.146.097H.179v-.09H.06V0h.124Z" style="fill-rule:nonzero" transform="matrix(14 0 0 14 641.512 234.95)"/>
<path d="M.53-.269c0-.187-.112-.268-.242-.268-.152 0-.251.111-.251.275 0 .166.098.272.258.272.123 0 .208-.06.23-.152H.404C.387-.11.35-.086.296-.086.215-.086.162-.14.161-.231H.53v-.038ZM.161-.315A.128.128 0 0 1 .29-.44c.072 0 .121.053.121.125h-.25Z" style="fill-rule:nonzero" transform="matrix(14 0 0 14 653.607 234.95)"/>
<path d="M.184-.311c0-.077.047-.121.113-.121.065 0 .104.042.104.113V0h.124v-.338c0-.127-.072-.199-.182-.199C.264-.537.21-.5.185-.44H.179v-.09H.06V0h.124v-.311Z" style="fill-rule:nonzero" transform="matrix(14 0 0 14 661.555 234.95)"/>
<path d="M.277-.097C.245-.098.22-.108.22-.16v-.274h.104V-.53H.22v-.127H.095v.127H.02v.096h.075v.295c0 .1.072.146.166.146a.51.51 0 0 0 .07-.005V-.1l-.054.003Z" style="fill-rule:nonzero" transform="matrix(14 0 0 14 669.725 234.95)"/>
<path d="M.478-.379C.469-.475.391-.537.265-.537c-.13 0-.215.064-.214.162-.001.076.051.127.149.148l.085.018c.053.011.077.031.077.062 0 .039-.039.063-.099.063-.058 0-.093-.022-.101-.067H.036C.048-.05.128.01.263.01c.139 0 .226-.069.226-.168C.489-.234.44-.281.34-.302L.25-.321C.196-.334.174-.354.174-.382c0-.036.039-.063.093-.063.052 0 .086.026.093.066h.118Z" style="fill-rule:nonzero" transform="matrix(14 0 0 14 674.656 234.95)"/>
<path d="M616 241.5h72" style="fill:none;stroke:#7f8292;stroke-width:1px"/>
<path d="m218 77 18 6-18 6V77Z" style="fill:#7f8292"/>
<path d="M86 83h135.6" style="fill:none;stroke:#7f8292;stroke-width:4px"/>
<path d="m410 77 18 6-18 6V77Z" style="fill:#7f8292"/>
<path d="M320 83h93.6" style="fill:none;stroke:#7f8292;stroke-width:4px"/>
<path d="m166 237 18 6-18 6v-12Z" style="fill:#7f8292"/>
<path d="M512 83h32v80H152v80h17.6" style="fill:none;stroke:#7f8292;stroke-width:4px"/>
<path d="m358 237 18 6-18 6v-12Z" style="fill:#7f8292"/>
<path d="M268 243h93.6" style="fill:none;stroke:#7f8292;stroke-width:4px"/>
<path d="m592 237 18 6-18 6v-12Z" style="fill:#7f8292"/>
<path d="M460 243h135.6" style="fill:none;stroke:#7f8292;stroke-width:4px"/>
<path d="M209 73c0-3.863-3.137-7-7-7h-58c-3.863 0-7 3.137-7 7v20c0 3.863 3.137 7 7 7h58c3.863 0 7-3.137 7-7V73Z" style="fill:#fff"/>
<path d="M210 73c0-4.415-3.585-8-8-8h-58c-4.415 0-8 3.585-8 8v20c0 4.415 3.585 8 8 8h58c4.415 0 8-3.585 8-8V73Z" style="fill:#c0c2ca;fill-opacity:.5"/>
<path d="M210 73c0-4.415-3.585-8-8-8h-58c-4.415 0-8 3.585-8 8v20c0 4.415 3.585 8 8 8h58c4.415 0 8-3.585 8-8V73Zm-2 0v20c0 3.311-2.689 6-6 6h-58c-3.311 0-6-2.689-6-6V73c0-3.311 2.689-6 6-6h58c3.311 0 6 2.689 6 6Z" style="fill:#7f8292"/>
<path d="M152.749 87.95v-4.375c0-.938.716-1.61 1.678-1.61.29 0 .657.054.812.102v-1.6a4.32 4.32 0 0 0-.633-.048c-.846 0-1.562.483-1.833 1.343h-.077v-1.237h-1.687v7.425h1.74ZM162.626 84.18c0-2.611-1.571-3.752-3.394-3.752-2.122 0-3.51 1.562-3.51 3.853 0 2.325 1.368 3.814 3.607 3.814 1.726 0 2.91-.846 3.224-2.132h-1.701c-.228.445-.745.779-1.504.779-1.131 0-1.88-.75-1.9-2.026h5.178v-.536Zm-5.173-.643c.053-.948.759-1.75 1.808-1.75 1.006 0 1.687.739 1.692 1.75h-3.5ZM165.729 87.95v-4.52c0-.918.614-1.537 1.368-1.537.745 0 1.252.498 1.252 1.267v4.79h1.707v-4.641c0-.831.493-1.416 1.349-1.416.71 0 1.271.416 1.271 1.339v4.718h1.745v-4.984c0-1.658-.962-2.538-2.32-2.538-1.078 0-1.9.532-2.234 1.359h-.077c-.28-.842-1.001-1.359-2.006-1.359-.991 0-1.731.508-2.04 1.359h-.092v-1.262h-1.663v7.425h1.74ZM179.101 80.428c-1.861 0-2.993.957-3.118 2.214h1.687c.13-.531.604-.884 1.382-.884.875 0 1.344.425 1.344 1.155l.005.599c-.324.015-1.382.063-1.9.097-1.377.092-2.765.58-2.765 2.258 0 1.46 1.073 2.233 2.49 2.233 1.165 0 1.861-.551 2.18-1.17h.058v1.02h1.668v-4.965c0-1.977-1.624-2.557-3.031-2.557Zm-.43 6.391c-.73 0-1.252-.334-1.252-.976 0-.648.522-.996 1.353-1.059a50.36 50.36 0 0 1 1.629-.111l.005.614c0 .831-.677 1.532-1.735 1.532ZM185.526 87.95v-4.375c0-.938.715-1.61 1.677-1.61.29 0 .657.054.812.102v-1.6a4.32 4.32 0 0 0-.633-.048c-.846 0-1.562.483-1.832 1.343h-.078v-1.237h-1.687v7.425h1.741ZM195.798 87.95l-3.055-4.225 2.881-3.2h-2.03l-2.678 2.987h-.121V78.05h-1.74v9.9h1.74v-2.499l.638-.682 2.287 3.181h2.078Z" style="fill-rule:nonzero"/>
<path d="M401 73c0-3.863-3.137-7-7-7h-58c-3.863 0-7 3.137-7 7v20c0 3.863 3.137 7 7 7h58c3.863 0 7-3.137 7-7V73Z" style="fill:#fff"/>
<path d="M402 73c0-4.415-3.585-8-8-8h-58c-4.415 0-8 3.585-8 8v20c0 4.415 3.585 8 8 8h58c4.415 0 8-3.585 8-8V73Z" style="fill:#c0c2ca;fill-opacity:.5"/>
<path d="M402 73c0-4.415-3.585-8-8-8h-58c-4.415 0-8 3.585-8 8v20c0 4.415 3.585 8 8 8h58c4.415 0 8-3.585 8-8V73Zm-2 0v20c0 3.311-2.689 6-6 6h-58c-3.311 0-6-2.689-6-6V73c0-3.311 2.689-6 6-6h58c3.311 0 6 2.689 6 6Z" style="fill:#7f8292"/>
<path d="M.184 0v-.312c0-.067.051-.115.12-.115.021 0 .047.003.058.007v-.115a.319.319 0 0 0-.045-.003.133.133 0 0 0-.131.096H.181V-.53H.06V0h.124Z" style="fill-rule:nonzero" transform="matrix(14 0 0 14 342.168 80.95)"/>
<path d="M.53-.269c0-.187-.112-.268-.242-.268-.152 0-.251.111-.251.275 0 .166.098.272.258.272.123 0 .208-.06.23-.152H.404C.387-.11.35-.086.296-.086.215-.086.162-.14.161-.231H.53v-.038ZM.161-.315A.128.128 0 0 1 .29-.44c.072 0 .121.053.121.125h-.25Z" style="fill-rule:nonzero" transform="matrix(14 0 0 14 347.2 80.95)"/>
<path d="M.184 0v-.323c0-.065.044-.11.098-.11.053 0 .09.036.09.091V0h.121v-.331c0-.06.036-.102.097-.102.051 0 .091.03.091.096V0h.124v-.356c0-.118-.068-.181-.165-.181-.078 0-.136.038-.16.097H.474C.454-.5.403-.537.331-.537a.147.147 0 0 0-.146.097H.179v-.09H.06V0h.124Z" style="fill-rule:nonzero" transform="matrix(14 0 0 14 355.148 80.95)"/>
<path d="M.276-.537c-.133 0-.214.068-.223.158h.12c.01-.038.044-.063.099-.063.063 0 .096.03.096.082v.043a22.12 22.12 0 0 0-.135.007c-.099.006-.198.041-.198.161 0 .104.077.16.178.16.083 0 .133-.04.156-.084h.004V0h.119v-.355c0-.141-.116-.182-.216-.182Zm-.031.456c-.052 0-.09-.024-.09-.07 0-.046.038-.071.097-.075.025-.003.094-.007.116-.008l.001.044c0 .059-.049.109-.124.109Z" style="fill-rule:nonzero" transform="matrix(14 0 0 14 367.243 80.95)"/>
<path d="M.184 0v-.312c0-.067.051-.115.12-.115.021 0 .047.003.058.007v-.115a.319.319 0 0 0-.045-.003.133.133 0 0 0-.131.096H.181V-.53H.06V0h.124Z" style="fill-rule:nonzero" transform="matrix(14 0 0 14 374.944 80.95)"/>
<path d="M.542 0 .324-.302.529-.53H.384l-.191.213H.184v-.39H.06V0h.124v-.179L.23-.227.393 0h.149Z" style="fill-rule:nonzero" transform="matrix(14 0 0 14 380.213 80.95)"/>
<path d="M.106-.554v.082h.649v-.082H.638v-.135H.76V-.77H.102v.081h.121v.135H.106Zm.225 0v-.135h.198v.135H.331Zm-.302.223h.805v-.086H.029v.086Zm.704.269v-.209H.124v.079h.502v.055H.125v.216h.633v-.081H.231v-.06h.502Z" style="fill-rule:nonzero" transform="matrix(14 0 0 14 340.79 94.95)"/>
<path d="M.66-.471H.508v.089H.66v.47h.108v-.884H.66v.325Zm-.491.075h.289v-.323H.059v.088h.293v.148H.061v.364h.071c.152 0 .27-.005.401-.028L.525-.236a2.043 2.043 0 0 1-.356.026v-.186Z" style="fill-rule:nonzero" transform="matrix(14 0 0 14 352.895 94.95)"/>
<path d="M.624-.61c-.001.114-.001.242-.035.416l.11.009C.731-.371.731-.492.731-.61v-.1H.114v.088h.51v.012Zm-.595.576h.805v-.089H.029v.089Z" style="fill-rule:nonzero" transform="matrix(14 0 0 14 365 94.95)"/>
<path d="M.655-.795v.638h.109v-.638H.655Zm-.372.5c.134 0 .238-.091.238-.222 0-.128-.104-.22-.238-.22s-.238.092-.238.22c0 .131.104.222.238.222ZM.151-.517c0-.076.057-.125.132-.125.074 0 .131.049.131.125 0 .079-.057.127-.131.127-.075 0-.132-.048-.132-.127Zm.139.295H.18V.07h.609v-.088H.29v-.204Z" style="fill-rule:nonzero" transform="matrix(14 0 0 14 377.105 94.95)"/>
<path d="M411 153c0-3.863-3.137-7-7-7H300c-3.863 0-7 3.137-7 7v20c0 3.863 3.137 7 7 7h104c3.863 0 7-3.137 7-7v-20Z" style="fill:#fff"/>
<path d="M412 153c0-4.415-3.585-8-8-8H300c-4.415 0-8 3.585-8 8v20c0 4.415 3.585 8 8 8h104c4.415 0 8-3.585 8-8v-20Z" style="fill:#c0c2ca;fill-opacity:.5"/>
<path d="M412 153c0-4.415-3.585-8-8-8H300c-4.415 0-8 3.585-8 8v20c0 4.415 3.585 8 8 8h104c4.415 0 8-3.585 8-8v-20Zm-2 0v20c0 3.311-2.689 6-6 6H300c-3.311 0-6-2.689-6-6v-20c0-3.311 2.689-6 6-6h104c3.311 0 6 2.689 6 6Z" style="fill:#7f8292"/>
<path d="M306.345 167.95v-4.375c0-.938.716-1.61 1.678-1.61.29 0 .657.054.812.102v-1.6a4.32 4.32 0 0 0-.633-.048c-.846 0-1.562.483-1.833 1.343h-.077v-1.237h-1.687v7.425h1.74ZM316.222 164.18c0-2.611-1.571-3.752-3.394-3.752-2.122 0-3.51 1.562-3.51 3.853 0 2.325 1.368 3.814 3.607 3.814 1.726 0 2.91-.846 3.224-2.132h-1.701c-.228.445-.745.779-1.504.779-1.131 0-1.88-.75-1.9-2.026h5.178v-.536Zm-5.173-.643c.053-.948.759-1.75 1.808-1.75 1.006 0 1.687.739 1.692 1.75h-3.5ZM319.325 167.95v-4.52c0-.918.614-1.537 1.368-1.537.745 0 1.252.498 1.252 1.267v4.79h1.707v-4.641c0-.831.493-1.416 1.349-1.416.71 0 1.271.416 1.271 1.339v4.718h1.745v-4.984c0-1.658-.962-2.538-2.32-2.538-1.078 0-1.9.532-2.234 1.359h-.077c-.28-.842-1.001-1.359-2.006-1.359-.991 0-1.731.508-2.04 1.359h-.092v-1.262h-1.663v7.425h1.74ZM332.697 160.428c-1.861 0-2.993.957-3.118 2.214h1.687c.13-.531.604-.884 1.382-.884.875 0 1.344.425 1.344 1.155l.005.599c-.324.015-1.382.063-1.9.097-1.377.092-2.765.58-2.765 2.258 0 1.46 1.073 2.233 2.49 2.233 1.165 0 1.861-.551 2.18-1.17h.058v1.02h1.668v-4.965c0-1.977-1.624-2.557-3.031-2.557Zm-.43 6.391c-.73 0-1.252-.334-1.252-.976 0-.648.522-.996 1.353-1.059a50.36 50.36 0 0 1 1.629-.111l.005.614c0 .831-.677 1.532-1.735 1.532ZM339.122 167.95v-4.375c0-.938.715-1.61 1.677-1.61.29 0 .657.054.812.102v-1.6a4.32 4.32 0 0 0-.633-.048c-.846 0-1.562.483-1.832 1.343h-.078v-1.237h-1.687v7.425h1.741ZM349.394 167.95l-3.055-4.225 2.881-3.2h-2.03l-2.678 2.987h-.121v-5.462h-1.74v9.9h1.74v-2.499l.638-.682 2.287 3.181h2.078ZM349.931 163.106h4.452v1.436h-4.452zM357.845 167.95v-4.375c0-.938.715-1.61 1.677-1.61.29 0 .658.054.812.102v-1.6a4.32 4.32 0 0 0-.633-.048c-.846 0-1.561.483-1.832 1.343h-.078v-1.237h-1.687v7.425h1.741ZM367.721 164.18c0-2.611-1.571-3.752-3.394-3.752-2.122 0-3.509 1.562-3.509 3.853 0 2.325 1.368 3.814 3.606 3.814 1.726 0 2.91-.846 3.224-2.132h-1.701c-.227.445-.745.779-1.504.779-1.131 0-1.88-.75-1.899-2.026h5.177v-.536Zm-5.173-.643c.054-.948.759-1.75 1.808-1.75 1.006 0 1.688.739 1.692 1.75h-3.5ZM370.825 163.599c0-1.078.672-1.696 1.609-1.696.924 0 1.465.58 1.465 1.585v4.462h1.74v-4.728c0-1.798-1.02-2.794-2.557-2.794-1.141 0-1.861.517-2.204 1.359h-.092v-3.737h-1.702v9.9h1.741v-4.351ZM378.076 170.735c1.397 0 2.18-.696 2.606-1.881l2.978-8.329h-1.852l-1.726 5.612h-.077l-1.716-5.612h-1.847l2.698 7.58-.155.396c-.295.793-.648.827-1.073.827-.228 0-.522-.005-.735-.024l-.005 1.397c.227.024.556.034.904.034ZM386.492 170.735v-3.955h.073c.275.542.851 1.301 2.132 1.301 1.745 0 3.055-1.392 3.055-3.834 0-2.475-1.344-3.819-3.06-3.819-1.315 0-1.861.788-2.127 1.32h-.106v-1.223h-1.707v10.21h1.74Zm-.033-6.497c0-1.446.618-2.379 1.754-2.379 1.17 0 1.77.991 1.77 2.379 0 1.397-.609 2.417-1.77 2.417-1.126 0-1.754-.972-1.754-2.417ZM399.714 164.18c0-2.611-1.571-3.752-3.394-3.752-2.122 0-3.509 1.562-3.509 3.853 0 2.325 1.368 3.814 3.606 3.814 1.726 0 2.91-.846 3.225-2.132h-1.702c-.227.445-.745.779-1.504.779-1.131 0-1.88-.75-1.899-2.026h5.177v-.536Zm-5.173-.643c.054-.948.759-1.75 1.808-1.75 1.006 0 1.688.739 1.692 1.75h-3.5Z" style="fill-rule:nonzero"/>
<path d="M349 233c0-3.863-3.137-7-7-7h-58c-3.863 0-7 3.137-7 7v20c0 3.863 3.137 7 7 7h58c3.863 0 7-3.137 7-7v-20Z" style="fill:#fff"/>
<path d="M350 233c0-4.415-3.585-8-8-8h-58c-4.415 0-8 3.585-8 8v20c0 4.415 3.585 8 8 8h58c4.415 0 8-3.585 8-8v-20Z" style="fill:#c0c2ca;fill-opacity:.5"/>
<path d="M350 233c0-4.415-3.585-8-8-8h-58c-4.415 0-8 3.585-8 8v20c0 4.415 3.585 8 8 8h58c4.415 0 8-3.585 8-8v-20Zm-2 0v20c0 3.311-2.689 6-6 6h-58c-3.311 0-6-2.689-6-6v-20c0-3.311 2.689-6 6-6h58c3.311 0 6 2.689 6 6Z" style="fill:#7f8292"/>
<path d="M.184 0v-.312c0-.067.051-.115.12-.115.021 0 .047.003.058.007v-.115a.319.319 0 0 0-.045-.003.133.133 0 0 0-.131.096H.181V-.53H.06V0h.124Z" style="fill-rule:nonzero" transform="matrix(14 0 0 14 290.513 240.95)"/>
<path d="M.53-.269c0-.187-.112-.268-.242-.268-.152 0-.251.111-.251.275 0 .166.098.272.258.272.123 0 .208-.06.23-.152H.404C.387-.11.35-.086.296-.086.215-.086.162-.14.161-.231H.53v-.038ZM.161-.315A.128.128 0 0 1 .29-.44c.072 0 .121.053.121.125h-.25Z" style="fill-rule:nonzero" transform="matrix(14 0 0 14 295.546 240.95)"/>
<path d="M.184-.311c0-.077.048-.121.115-.121.066 0 .105.041.105.113V0h.124v-.338c0-.128-.073-.199-.182-.199-.082 0-.133.037-.158.097H.182v-.267H.06V0h.124v-.311Z" style="fill-rule:nonzero" transform="matrix(14 0 0 14 303.493 240.95)"/>
<path d="M.135.199C.234.199.29.149.321.065L.533-.53H.401l-.123.401H.272L.15-.53H.018l.193.541L.2.039C.179.096.153.098.123.098L.07.097v.099a.58.58 0 0 0 .065.003Z" style="fill-rule:nonzero" transform="matrix(14 0 0 14 311.441 240.95)"/>
<path d="M.184.199v-.283H.19c.019.039.06.093.152.093C.467.009.56-.09.56-.265c0-.176-.096-.272-.218-.272a.158.158 0 0 0-.152.094H.182V-.53H.06v.729h.124ZM.182-.265c0-.103.044-.17.125-.17.084 0 .127.071.127.17 0 .1-.044.172-.127.172-.08 0-.125-.069-.125-.172Z" style="fill-rule:nonzero" transform="matrix(14 0 0 14 319.161 240.95)"/>
<path d="M.53-.269c0-.187-.112-.268-.242-.268-.152 0-.251.111-.251.275 0 .166.098.272.258.272.123 0 .208-.06.23-.152H.404C.387-.11.35-.086.296-.086.215-.086.162-.14.161-.231H.53v-.038ZM.161-.315A.128.128 0 0 1 .29-.44c.072 0 .121.053.121.125h-.25Z" style="fill-rule:nonzero" transform="matrix(14 0 0 14 327.539 240.95)"/>
<path d="M.106-.554v.082h.649v-.082H.638v-.135H.76V-.77H.102v.081h.121v.135H.106Zm.225 0v-.135h.198v.135H.331Zm-.302.223h.805v-.086H.029v.086Zm.704.269v-.209H.124v.079h.502v.055H.125v.216h.633v-.081H.231v-.06h.502Z" style="fill-rule:nonzero" transform="matrix(14 0 0 14 288.79 254.95)"/>
<path d="M.66-.471H.508v.089H.66v.47h.108v-.884H.66v.325Zm-.491.075h.289v-.323H.059v.088h.293v.148H.061v.364h.071c.152 0 .27-.005.401-.028L.525-.236a2.043 2.043 0 0 1-.356.026v-.186Z" style="fill-rule:nonzero" transform="matrix(14 0 0 14 300.895 254.95)"/>
<path d="M.624-.61c-.001.114-.001.242-.035.416l.11.009C.731-.371.731-.492.731-.61v-.1H.114v.088h.51v.012Zm-.595.576h.805v-.089H.029v.089Z" style="fill-rule:nonzero" transform="matrix(14 0 0 14 313 254.95)"/>
<path d="M.655-.795v.638h.109v-.638H.655Zm-.372.5c.134 0 .238-.091.238-.222 0-.128-.104-.22-.238-.22s-.238.092-.238.22c0 .131.104.222.238.222ZM.151-.517c0-.076.057-.125.132-.125.074 0 .131.049.131.125 0 .079-.057.127-.131.127-.075 0-.132-.048-.132-.127Zm.139.295H.18V.07h.609v-.088H.29v-.204Z" style="fill-rule:nonzero" transform="matrix(14 0 0 14 325.105 254.95)"/>
<path d="M559 233c0-3.863-3.137-7-7-7h-76c-3.863 0-7 3.137-7 7v20c0 3.863 3.137 7 7 7h76c3.863 0 7-3.137 7-7v-20Z" style="fill:#fff"/>
<path d="M560 233c0-4.415-3.585-8-8-8h-76c-4.415 0-8 3.585-8 8v20c0 4.415 3.585 8 8 8h76c4.415 0 8-3.585 8-8v-20Z" style="fill:#c0c2ca;fill-opacity:.5"/>
<path d="M560 233c0-4.415-3.585-8-8-8h-76c-4.415 0-8 3.585-8 8v20c0 4.415 3.585 8 8 8h76c4.415 0 8-3.585 8-8v-20Zm-2 0v20c0 3.311-2.689 6-6 6h-76c-3.311 0-6-2.689-6-6v-20c0-3.311 2.689-6 6-6h76c3.311 0 6 2.688 6 6Z" style="fill:#7f8292"/>
<path d="M.291.01c.133 0 .218-.079.227-.191H.4c-.012.057-.053.09-.108.09-.078 0-.129-.065-.129-.174 0-.108.052-.172.129-.172.061 0 .098.039.108.09h.118C.51-.462.42-.537.29-.537c-.155 0-.253.112-.253.274 0 .16.096.273.254.273Z" style="fill-rule:nonzero" transform="matrix(14 0 0 14 473.46 240.95)"/>
<path d="M.291.01c.155 0 .254-.109.254-.273 0-.164-.099-.274-.254-.274s-.254.11-.254.274c0 .164.099.273.254.273Zm.001-.099c-.087 0-.129-.077-.129-.174 0-.097.042-.176.129-.176.085 0 .127.079.127.176 0 .097-.042.174-.127.174Z" style="fill-rule:nonzero" transform="matrix(14 0 0 14 481.195 240.95)"/>
<path d="M.184 0v-.323c0-.065.044-.11.098-.11.053 0 .09.036.09.091V0h.121v-.331c0-.06.036-.102.097-.102.051 0 .091.03.091.096V0h.124v-.356c0-.118-.068-.181-.165-.181-.078 0-.136.038-.16.097H.474C.454-.5.403-.537.331-.537a.147.147 0 0 0-.146.097H.179v-.09H.06V0h.124Z" style="fill-rule:nonzero" transform="matrix(14 0 0 14 489.35 240.95)"/>
<path d="M.184.199v-.283H.19c.019.039.06.093.152.093C.467.009.56-.09.56-.265c0-.176-.096-.272-.218-.272a.158.158 0 0 0-.152.094H.182V-.53H.06v.729h.124ZM.182-.265c0-.103.044-.17.125-.17.084 0 .127.071.127.17 0 .1-.044.172-.127.172-.08 0-.125-.069-.125-.172Z" style="fill-rule:nonzero" transform="matrix(14 0 0 14 501.445 240.95)"/>
<path d="M.291.01c.155 0 .254-.109.254-.273 0-.164-.099-.274-.254-.274s-.254.11-.254.274c0 .164.099.273.254.273Zm.001-.099c-.087 0-.129-.077-.129-.174 0-.097.042-.176.129-.176.085 0 .127.079.127.176 0 .097-.042.174-.127.174Z" style="fill-rule:nonzero" transform="matrix(14 0 0 14 509.823 240.95)"/>
<path d="M.184-.311c0-.077.047-.121.113-.121.065 0 .104.042.104.113V0h.124v-.338c0-.127-.072-.199-.182-.199C.264-.537.21-.5.185-.44H.179v-.09H.06V0h.124v-.311Z" style="fill-rule:nonzero" transform="matrix(14 0 0 14 517.979 240.95)"/>
<path d="M.53-.269c0-.187-.112-.268-.242-.268-.152 0-.251.111-.251.275 0 .166.098.272.258.272.123 0 .208-.06.23-.152H.404C.387-.11.35-.086.296-.086.215-.086.162-.14.161-.231H.53v-.038ZM.161-.315A.128.128 0 0 1 .29-.44c.072 0 .121.053.121.125h-.25Z" style="fill-rule:nonzero" transform="matrix(14 0 0 14 526.148 240.95)"/>
<path d="M.184-.311c0-.077.047-.121.113-.121.065 0 .104.042.104.113V0h.124v-.338c0-.127-.072-.199-.182-.199C.264-.537.21-.5.185-.44H.179v-.09H.06V0h.124v-.311Z" style="fill-rule:nonzero" transform="matrix(14 0 0 14 534.096 240.95)"/>
<path d="M.277-.097C.245-.098.22-.108.22-.16v-.274h.104V-.53H.22v-.127H.095v.127H.02v.096h.075v.295c0 .1.072.146.166.146a.51.51 0 0 0 .07-.005V-.1l-.054.003Z" style="fill-rule:nonzero" transform="matrix(14 0 0 14 542.266 240.95)"/>
<path d="M.478-.379C.469-.475.391-.537.265-.537c-.13 0-.215.064-.214.162-.001.076.051.127.149.148l.085.018c.053.011.077.031.077.062 0 .039-.039.063-.099.063-.058 0-.093-.022-.101-.067H.036C.048-.05.128.01.263.01c.139 0 .226-.069.226-.168C.489-.234.44-.281.34-.302L.25-.321C.196-.334.174-.354.174-.382c0-.036.039-.063.093-.063.052 0 .086.026.093.066h.118Z" style="fill-rule:nonzero" transform="matrix(14 0 0 14 547.197 240.95)"/>
<path d="M.184.199v-.283H.19c.019.039.06.093.152.093C.467.009.56-.09.56-.265c0-.176-.096-.272-.218-.272a.158.158 0 0 0-.152.094H.182V-.53H.06v.729h.124ZM.182-.265c0-.103.044-.17.125-.17.084 0 .127.071.127.17 0 .1-.044.172-.127.172-.08 0-.125-.069-.125-.172Z" style="fill-rule:nonzero" transform="matrix(14 0 0 14 499.028 254.95)"/>
<path d="M.184 0v-.312c0-.067.051-.115.12-.115.021 0 .047.003.058.007v-.115a.319.319 0 0 0-.045-.003.133.133 0 0 0-.131.096H.181V-.53H.06V0h.124Z" style="fill-rule:nonzero" transform="matrix(14 0 0 14 507.406 254.95)"/>
<path d="M.291.01c.155 0 .254-.109.254-.273 0-.164-.099-.274-.254-.274s-.254.11-.254.274c0 .164.099.273.254.273Zm.001-.099c-.087 0-.129-.077-.129-.174 0-.097.042-.176.129-.176.085 0 .127.079.127.176 0 .097-.042.174-.127.174Z" style="fill-rule:nonzero" transform="matrix(14 0 0 14 512.439 254.95)"/>
<path d="M.184.199v-.283H.19c.019.039.06.093.152.093C.467.009.56-.09.56-.265c0-.176-.096-.272-.218-.272a.158.158 0 0 0-.152.094H.182V-.53H.06v.729h.124ZM.182-.265c0-.103.044-.17.125-.17.084 0 .127.071.127.17 0 .1-.044.172-.127.172-.08 0-.125-.069-.125-.172Z" style="fill-rule:nonzero" transform="matrix(14 0 0 14 520.594 254.95)"/>
</svg>
