<svg xmlns="http://www.w3.org/2000/svg" xml:space="preserve" width="696" height="200" style="fill-rule:evenodd;clip-rule:evenodd;stroke-linejoin:round;stroke-miterlimit:1.5">
<path d="M0 0h696v200H0z" style="fill:none"/>
<clipPath id="a">
<path d="M0 0h696v200H0z"/>
</clipPath>
<g clip-path="url(#a)">
<path d="M86 50c0-4.415-3.585-8-8-8H10c-4.415 0-8 3.585-8 8v64c0 4.415 3.585 8 8 8h68c4.415 0 8-3.585 8-8V50Z" style="fill:#fff"/>
<path d="M86 50c0-4.415-3.585-8-8-8H10c-4.415 0-8 3.585-8 8v64c0 4.415 3.585 8 8 8h68c4.415 0 8-3.585 8-8V50Zm-2 0v64c0 3.311-2.689 6-6 6H10c-3.311 0-6-2.689-6-6V50c0-3.311 2.689-6 6-6h68c3.311 0 6 2.689 6 6Z" style="fill:#7f8292"/>
<path d="M28.243 77.05h1.774v9.901h-1.774zM33.522 82.599c0-1.078.652-1.696 1.576-1.696.909 0 1.45.594 1.45 1.585v4.462h1.74v-4.728c0-1.779-1.01-2.794-2.542-2.794-1.112 0-1.871.527-2.21 1.359h-.092v-1.262h-1.663v7.425h1.741v-4.351ZM41.692 89.735V85.78h.072c.276.542.851 1.301 2.132 1.301 1.745 0 3.055-1.392 3.055-3.834 0-2.475-1.344-3.819-3.06-3.819-1.315 0-1.861.788-2.127 1.32h-.106v-1.223h-1.707v10.21h1.741Zm-.034-6.497c0-1.446.619-2.379 1.755-2.379 1.17 0 1.769.991 1.769 2.379 0 1.397-.609 2.417-1.769 2.417-1.127 0-1.755-.972-1.755-2.417ZM53.062 83.827c.005 1.141-.812 1.697-1.586 1.697-.846 0-1.407-.594-1.407-1.537v-4.462h-1.74v4.728c0 1.784 1.015 2.794 2.475 2.794 1.117 0 1.895-.585 2.234-1.412h.077v1.315h1.682v-7.425h-1.735v4.302ZM59.511 85.587c-.445-.01-.798-.155-.798-.87v-3.848h1.46v-1.344h-1.46v-1.779h-1.74v1.779h-1.054v1.344h1.054v4.138c-.005 1.397 1.005 2.045 2.315 2.045.445 0 .779-.039.987-.073v-1.426c-.218.015-.561.039-.764.034Z" style="fill-rule:nonzero"/>
<path d="M390 50c0-4.415-3.585-8-8-8h-68c-4.415 0-8 3.585-8 8v64c0 4.415 3.585 8 8 8h68c4.415 0 8-3.585 8-8V50Z" style="fill:#fff"/>
<path d="M390 50c0-4.415-3.585-8-8-8h-68c-4.415 0-8 3.585-8 8v64c0 4.415 3.585 8 8 8h68c4.415 0 8-3.585 8-8V50Zm-2 0v64c0 3.311-2.689 6-6 6h-68c-3.311 0-6-2.689-6-6V50c0-3.311 2.689-6 6-6h68c3.311 0 6 2.689 6 6Z" style="fill:#7f8292"/>
<path d="m354 78-25 14M348 78l26 14M334 94l-18 14M332 94v14M330 94l18 14M372 94l-9 14M370 94l9 14" style="fill:none;stroke:#a0a0a0;stroke-width:1px"/>
<path d="m354 78-25 14M348 78l26 14M334 94l-18 14M332 94v14M330 94l18 14M372 94l-9 14M370 94l9 14" style="fill:none;stroke:#0366d6;stroke-opacity:.5;stroke-width:1px"/>
<path d="M357 75a2 2 0 0 0-2-2h-8a2 2 0 0 0-2 2v4a2 2 0 0 0 2 2h8a2 2 0 0 0 2-2v-4ZM338 91a2 2 0 0 0-2-2h-8a2 2 0 0 0-2 2v4a2 2 0 0 0 2 2h8a2 2 0 0 0 2-2v-4ZM324 107a2 2 0 0 0-2-2h-8a2 2 0 0 0-2 2v4a2 2 0 0 0 2 2h8a2 2 0 0 0 2-2v-4ZM338 107a2 2 0 0 0-2-2h-8a2 2 0 0 0-2 2v4a2 2 0 0 0 2 2h8a2 2 0 0 0 2-2v-4ZM352 107a2 2 0 0 0-2-2h-8a2 2 0 0 0-2 2v4a2 2 0 0 0 2 2h8a2 2 0 0 0 2-2v-4ZM370 107a2 2 0 0 0-2-2h-8a2 2 0 0 0-2 2v4a2 2 0 0 0 2 2h8a2 2 0 0 0 2-2v-4ZM384 107a2 2 0 0 0-2-2h-8a2 2 0 0 0-2 2v4a2 2 0 0 0 2 2h8a2 2 0 0 0 2-2v-4ZM377 91a2 2 0 0 0-2-2h-8a2 2 0 0 0-2 2v4a2 2 0 0 0 2 2h8a2 2 0 0 0 2-2v-4Z" style="fill:#fff"/>
<path d="M357 75a2 2 0 0 0-2-2h-8a2 2 0 0 0-2 2v4a2 2 0 0 0 2 2h8a2 2 0 0 0 2-2v-4ZM338 91a2 2 0 0 0-2-2h-8a2 2 0 0 0-2 2v4a2 2 0 0 0 2 2h8a2 2 0 0 0 2-2v-4ZM324 107a2 2 0 0 0-2-2h-8a2 2 0 0 0-2 2v4a2 2 0 0 0 2 2h8a2 2 0 0 0 2-2v-4ZM338 107a2 2 0 0 0-2-2h-8a2 2 0 0 0-2 2v4a2 2 0 0 0 2 2h8a2 2 0 0 0 2-2v-4ZM352 107a2 2 0 0 0-2-2h-8a2 2 0 0 0-2 2v4a2 2 0 0 0 2 2h8a2 2 0 0 0 2-2v-4ZM370 107a2 2 0 0 0-2-2h-8a2 2 0 0 0-2 2v4a2 2 0 0 0 2 2h8a2 2 0 0 0 2-2v-4ZM384 107a2 2 0 0 0-2-2h-8a2 2 0 0 0-2 2v4a2 2 0 0 0 2 2h8a2 2 0 0 0 2-2v-4ZM377 91a2 2 0 0 0-2-2h-8a2 2 0 0 0-2 2v4a2 2 0 0 0 2 2h8a2 2 0 0 0 2-2v-4Z" style="fill:#0366d6;fill-opacity:.3"/>
<path d="M337.512 56.827c.005 1.141-.812 1.697-1.586 1.697-.846 0-1.406-.594-1.406-1.537v-4.462h-1.741v4.728c0 1.784 1.016 2.794 2.475 2.794 1.117 0 1.896-.585 2.234-1.412h.077v1.315h1.683v-7.425h-1.736v4.302ZM342.67 55.599c0-1.078.653-1.696 1.576-1.696.909 0 1.45.594 1.45 1.585v4.462h1.741v-4.728c0-1.779-1.011-2.794-2.543-2.794-1.112 0-1.871.527-2.209 1.359h-.092v-1.262h-1.663v7.425h1.74v-4.351ZM349.975 51.466c.546 0 1.005-.42 1.005-.943 0-.526-.459-.947-1.005-.947-.561 0-1.015.421-1.015.947 0 .523.454.943 1.015.943Zm.865 8.484v-7.425h-1.74v7.425h1.74ZM358.372 54.642c-.126-1.348-1.218-2.214-2.988-2.214-1.817 0-3.002.899-2.997 2.272-.005 1.064.711 1.784 2.084 2.069l1.199.252c.739.159 1.073.435 1.078.865-.005.551-.552.894-1.393.894-.812 0-1.305-.314-1.416-.942h-1.765c.174 1.416 1.291 2.257 3.186 2.257 1.939 0 3.157-.967 3.162-2.364-.005-1.058-.687-1.711-2.084-2.011l-1.262-.27c-.754-.174-1.058-.46-1.058-.851 0-.503.546-.875 1.29-.875.74 0 1.204.362 1.311.918h1.653ZM362.892 58.587c-.445-.01-.798-.155-.798-.87v-3.848h1.46v-1.344h-1.46v-1.779h-1.74v1.779H359.3v1.344h1.054v4.138c-.005 1.397 1.005 2.045 2.316 2.045.444 0 .778-.039.986-.073v-1.426c-.218.015-.561.039-.764.034Z" style="fill-rule:nonzero"/>
<path d="M312 66.5h72" style="fill:none;stroke:#7f8292;stroke-width:1px"/>
<path d="M694 50c0-4.415-3.585-8-8-8h-68c-4.415 0-8 3.585-8 8v64c0 4.415 3.585 8 8 8h68c4.415 0 8-3.585 8-8V50Z" style="fill:#fff"/>
<path d="M694 50c0-4.415-3.585-8-8-8h-68c-4.415 0-8 3.585-8 8v64c0 4.415 3.585 8 8 8h68c4.415 0 8-3.585 8-8V50Zm-2 0v64c0 3.311-2.689 6-6 6h-68c-3.311 0-6-2.689-6-6V50c0-3.311 2.689-6 6-6h68c3.311 0 6 2.689 6 6Z" style="fill:#7f8292"/>
<path d="M639.165 82c0-3.2-1.953-5.086-4.544-5.086-2.606 0-4.544 1.886-4.544 5.086 0 3.191 1.938 5.086 4.544 5.086 2.591 0 4.544-1.886 4.544-5.086Zm-1.793 0c0 2.262-1.137 3.485-2.751 3.485-1.62 0-2.756-1.223-2.756-3.485 0-2.262 1.136-3.485 2.756-3.485 1.614 0 2.751 1.223 2.751 3.485ZM645.401 83.827c.005 1.141-.812 1.697-1.585 1.697-.846 0-1.407-.594-1.407-1.537v-4.462h-1.74v4.728c0 1.784 1.015 2.794 2.475 2.794 1.116 0 1.895-.585 2.233-1.412h.077v1.315h1.683v-7.425h-1.736v4.302ZM651.85 85.587c-.445-.01-.798-.155-.798-.87v-3.848h1.46v-1.344h-1.46v-1.779h-1.74v1.779h-1.054v1.344h1.054v4.138c-.005 1.397 1.006 2.045 2.316 2.045.445 0 .778-.039.986-.073v-1.426c-.218.015-.561.039-.764.034ZM655.602 89.735V85.78h.072c.276.542.851 1.301 2.132 1.301 1.745 0 3.055-1.392 3.055-3.834 0-2.475-1.344-3.819-3.06-3.819-1.315 0-1.861.788-2.127 1.32h-.106v-1.223h-1.707v10.21h1.741Zm-.034-6.497c0-1.446.618-2.379 1.755-2.379 1.169 0 1.769.991 1.769 2.379 0 1.397-.609 2.417-1.769 2.417-1.127 0-1.755-.972-1.755-2.417ZM666.972 83.827c.005 1.141-.812 1.697-1.586 1.697-.846 0-1.407-.594-1.407-1.537v-4.462h-1.74v4.728c0 1.784 1.015 2.794 2.475 2.794 1.117 0 1.895-.585 2.234-1.412h.077v1.315h1.682v-7.425h-1.735v4.302ZM673.421 85.587c-.445-.01-.798-.155-.798-.87v-3.848h1.46v-1.344h-1.46v-1.779h-1.74v1.779h-1.054v1.344h1.054v4.138c-.005 1.397 1.005 2.045 2.315 2.045.445 0 .779-.039.986-.073v-1.426c-.217.015-.56.039-.763.034Z" style="fill-rule:nonzero"/>
<path d="m288 76 18 6-18 6V76Z" style="fill:#7f8292"/>
<path d="M86 82h205.6M342 122v40" style="fill:none;stroke:#7f8292;stroke-width:4px"/>
<path d="m348 140 6-18 6 18h-12Z" style="fill:#7f8292"/>
<path d="M354 162v-25.6" style="fill:none;stroke:#7f8292;stroke-width:4px"/>
<path d="m592 76 18 6-18 6V76Z" style="fill:#7f8292"/>
<path d="M390 82h205.6" style="fill:none;stroke:#7f8292;stroke-width:4px"/>
<path d="M246 72c0-3.863-3.137-7-7-7H135c-3.863 0-7 3.137-7 7v20c0 3.863 3.137 7 7 7h104c3.863 0 7-3.137 7-7V72Z" style="fill:#fff"/>
<path d="M247 72c0-4.415-3.585-8-8-8H135c-4.415 0-8 3.585-8 8v20c0 4.415 3.585 8 8 8h104c4.415 0 8-3.585 8-8V72Z" style="fill:#c0c2ca;fill-opacity:.3"/>
<path d="M247 72c0-4.415-3.585-8-8-8H135c-4.415 0-8 3.585-8 8v20c0 4.415 3.585 8 8 8h104c4.415 0 8-3.585 8-8V72Zm-2 0v20c0 3.311-2.689 6-6 6H135c-3.311 0-6-2.689-6-6V72c0-3.311 2.689-6 6-6h104c3.311 0 6 2.689 6 6Z" style="fill:#7f8292"/>
<path d="M166.904 77.05v9.9h1.774V83.6h1.905c2.286 0 3.514-1.373 3.514-3.273 0-1.89-1.213-3.277-3.49-3.277h-3.703Zm1.774 5.085v-3.596h1.658c1.344 0 1.944.734 1.944 1.788s-.6 1.808-1.934 1.808h-1.668ZM178.347 79.428c-1.862 0-2.993.957-3.118 2.214h1.687c.13-.531.604-.884 1.382-.884.875 0 1.344.425 1.344 1.155l.005.599c-.324.015-1.382.063-1.9.097-1.378.092-2.765.58-2.765 2.258 0 1.46 1.073 2.233 2.49 2.233 1.165 0 1.861-.551 2.18-1.17h.058v1.02h1.668v-4.965c0-1.977-1.625-2.557-3.031-2.557Zm-.431 6.391c-.73 0-1.252-.334-1.252-.976 0-.648.522-.996 1.354-1.059a50.36 50.36 0 0 1 1.629-.111l.005.614c0 .831-.677 1.532-1.736 1.532ZM184.771 86.95v-4.375c0-.938.716-1.61 1.678-1.61.29 0 .657.054.812.102v-1.6a4.32 4.32 0 0 0-.633-.048c-.846 0-1.562.483-1.832 1.343h-.078v-1.237h-1.687v7.425h1.74ZM194.155 81.642c-.126-1.348-1.219-2.214-2.988-2.214-1.818 0-3.002.899-2.997 2.272-.005 1.064.711 1.784 2.083 2.069l1.199.252c.74.159 1.074.435 1.078.865-.004.551-.551.894-1.392.894-.812 0-1.305-.314-1.416-.942h-1.765c.174 1.416 1.291 2.257 3.186 2.257 1.938 0 3.157-.967 3.162-2.364-.005-1.058-.687-1.711-2.084-2.011l-1.262-.27c-.754-.174-1.058-.46-1.058-.851 0-.503.546-.875 1.29-.875.74 0 1.204.362 1.31.918h1.654ZM202.228 83.18c0-2.611-1.571-3.752-3.394-3.752-2.122 0-3.509 1.562-3.509 3.853 0 2.325 1.368 3.814 3.606 3.814 1.726 0 2.91-.846 3.224-2.132h-1.701c-.227.445-.745.779-1.504.779-1.131 0-1.88-.75-1.9-2.026h5.178v-.536Zm-5.173-.643c.053-.948.759-1.75 1.808-1.75 1.006 0 1.687.739 1.692 1.75h-3.5ZM205.331 86.95v-4.375c0-.938.716-1.61 1.678-1.61.29 0 .657.054.812.102v-1.6a4.32 4.32 0 0 0-.633-.048c-.846 0-1.562.483-1.832 1.343h-.078v-1.237h-1.687v7.425h1.74Z" style="fill-rule:nonzero"/>
<path d="M550 72c0-3.863-3.137-7-7-7H439c-3.863 0-7 3.137-7 7v20c0 3.863 3.137 7 7 7h104c3.863 0 7-3.137 7-7V72Z" style="fill:#fff"/>
<path d="M551 72c0-4.415-3.585-8-8-8H439c-4.415 0-8 3.585-8 8v20c0 4.415 3.585 8 8 8h104c4.415 0 8-3.585 8-8V72Z" style="fill:#c0c2ca;fill-opacity:.3"/>
<path d="M551 72c0-4.415-3.585-8-8-8H439c-4.415 0-8 3.585-8 8v20c0 4.415 3.585 8 8 8h104c4.415 0 8-3.585 8-8V72Zm-2 0v20c0 3.311-2.689 6-6 6H439c-3.311 0-6-2.689-6-6V72c0-3.311 2.689-6 6-6h104c3.311 0 6 2.689 6 6Z" style="fill:#7f8292"/>
<path d="M471.047 80.39c-.31-2.204-2.002-3.476-4.187-3.476-2.591 0-4.53 1.886-4.53 5.086 0 3.191 1.915 5.086 4.53 5.086 2.345 0 3.911-1.518 4.187-3.409l-1.804-.009c-.232 1.16-1.179 1.817-2.364 1.817-1.604 0-2.76-1.208-2.76-3.485 0-2.238 1.146-3.485 2.77-3.485 1.204 0 2.151.686 2.354 1.875h1.804ZM475.736 87.095c2.17 0 3.553-1.532 3.553-3.828 0-2.302-1.383-3.839-3.553-3.839-2.171 0-3.558 1.537-3.558 3.839 0 2.296 1.387 3.828 3.558 3.828Zm.005-1.392c-1.209 0-1.804-1.083-1.804-2.441 0-1.359.595-2.456 1.804-2.456 1.189 0 1.784 1.097 1.784 2.456 0 1.358-.595 2.441-1.784 2.441ZM482.393 86.95v-4.52c0-.918.614-1.537 1.368-1.537.744 0 1.252.498 1.252 1.267v4.79h1.706v-4.641c0-.831.493-1.416 1.349-1.416.711 0 1.271.416 1.271 1.339v4.718h1.746v-4.984c0-1.658-.962-2.538-2.321-2.538-1.078 0-1.9.532-2.233 1.359h-.078c-.28-.842-1-1.359-2.006-1.359-.991 0-1.73.508-2.04 1.359h-.092v-1.262h-1.663v7.425h1.741ZM494.488 89.735V85.78h.072c.276.542.851 1.301 2.132 1.301 1.745 0 3.056-1.392 3.056-3.834 0-2.475-1.344-3.819-3.061-3.819-1.314 0-1.861.788-2.127 1.32h-.106v-1.223h-1.706v10.21h1.74Zm-.034-6.497c0-1.446.619-2.379 1.755-2.379 1.17 0 1.769.991 1.769 2.379 0 1.397-.609 2.417-1.769 2.417-1.126 0-1.755-.972-1.755-2.417ZM502 78.466c.547 0 1.006-.42 1.006-.943 0-.526-.459-.947-1.006-.947-.56 0-1.015.421-1.015.947 0 .523.455.943 1.015.943Zm.866 8.484v-7.425h-1.741v7.425h1.741ZM504.543 77.05h1.74v9.901h-1.74zM514.545 83.18c0-2.611-1.571-3.752-3.393-3.752-2.123 0-3.51 1.562-3.51 3.853 0 2.325 1.368 3.814 3.606 3.814 1.726 0 2.91-.846 3.225-2.132h-1.702c-.227.445-.744.779-1.503.779-1.132 0-1.881-.75-1.9-2.026h5.177v-.536Zm-5.172-.643c.053-.948.759-1.75 1.808-1.75 1.005 0 1.687.739 1.692 1.75h-3.5ZM517.649 86.95v-4.375c0-.938.715-1.61 1.677-1.61.29 0 .658.054.812.102v-1.6a4.309 4.309 0 0 0-.633-.048c-.846 0-1.561.483-1.832 1.343h-.077v-1.237h-1.688v7.425h1.741Z" style="fill-rule:nonzero"/>
<path d="M407 170c0-3.863-3.137-7-7-7H296c-3.863 0-7 3.137-7 7v20c0 3.863 3.137 7 7 7h104c3.863 0 7-3.137 7-7v-20Z" style="fill:#fff"/>
<path d="M408 170c0-4.415-3.585-8-8-8H296c-4.415 0-8 3.585-8 8v20c0 4.415 3.585 8 8 8h104c4.415 0 8-3.585 8-8v-20Z" style="fill:#c0c2ca;fill-opacity:.3"/>
<path d="M408 170c0-4.415-3.585-8-8-8H296c-4.415 0-8 3.585-8 8v20c0 4.415 3.585 8 8 8h104c4.415 0 8-3.585 8-8v-20Zm-2 0v20c0 3.311-2.689 6-6 6H296c-3.311 0-6-2.689-6-6v-20c0-3.311 2.689-6 6-6h104c3.311 0 6 2.689 6 6Z" style="fill:#7f8292"/>
<path d="M307.929 176.548v8.402h1.769v-8.402h3.055v-1.498h-7.884v1.498h3.06ZM315.045 184.95v-4.375c0-.938.715-1.61 1.677-1.61.29 0 .658.054.813.102v-1.6a4.334 4.334 0 0 0-.634-.048c-.846 0-1.561.483-1.832 1.343h-.077v-1.237h-1.687v7.425h1.74ZM321.455 177.428c-1.861 0-2.992.957-3.118 2.214h1.687c.131-.531.604-.884 1.383-.884.875 0 1.344.425 1.344 1.155l.005.599c-.324.015-1.383.063-1.9.097-1.378.092-2.766.58-2.766 2.258 0 1.46 1.074 2.233 2.49 2.233 1.165 0 1.861-.551 2.18-1.17h.058v1.02h1.668v-4.965c0-1.977-1.624-2.557-3.031-2.557Zm-.43 6.391c-.73 0-1.252-.334-1.252-.976 0-.648.522-.996 1.353-1.059a50.225 50.225 0 0 1 1.63-.111l.004.614c0 .831-.676 1.532-1.735 1.532ZM327.88 180.599c0-1.078.652-1.696 1.576-1.696.909 0 1.45.594 1.45 1.585v4.462h1.74v-4.728c0-1.779-1.01-2.794-2.542-2.794-1.112 0-1.871.527-2.21 1.359h-.092v-1.262h-1.662v7.425h1.74v-4.351ZM340.164 179.642c-.126-1.348-1.219-2.214-2.988-2.214-1.818 0-3.002.899-2.997 2.272-.005 1.064.711 1.784 2.083 2.069l1.199.252c.74.159 1.074.435 1.078.865-.004.551-.551.894-1.392.894-.812 0-1.305-.314-1.416-.942h-1.765c.174 1.416 1.291 2.257 3.186 2.257 1.938 0 3.157-.967 3.162-2.364-.005-1.058-.687-1.711-2.084-2.011l-1.262-.27c-.754-.174-1.058-.46-1.058-.851 0-.503.546-.875 1.29-.875.74 0 1.204.362 1.31.918h1.654ZM344.925 176.026c.126 0 .339.01.619.044v-1.373a5.28 5.28 0 0 0-1.102-.111c-1.426 0-2.316.788-2.316 2.233v.706h-1.107v1.344h1.107v6.081h1.741v-6.081h1.532v-1.344h-1.532v-.551c0-.667.353-.948 1.058-.948ZM349.615 185.095c2.17 0 3.553-1.532 3.553-3.828 0-2.302-1.383-3.839-3.553-3.839-2.171 0-3.558 1.537-3.558 3.839 0 2.296 1.387 3.828 3.558 3.828Zm.004-1.392c-1.208 0-1.803-1.083-1.803-2.441 0-1.359.595-2.456 1.803-2.456 1.19 0 1.784 1.097 1.784 2.456 0 1.358-.594 2.441-1.784 2.441ZM356.271 184.95v-4.375c0-.938.716-1.61 1.678-1.61.29 0 .657.054.812.102v-1.6a4.32 4.32 0 0 0-.633-.048c-.846 0-1.562.483-1.832 1.343h-.078v-1.237h-1.687v7.425h1.74ZM361.541 184.95v-4.52c0-.918.614-1.537 1.368-1.537.744 0 1.252.498 1.252 1.267v4.79h1.706v-4.641c0-.831.493-1.416 1.349-1.416.711 0 1.272.416 1.272 1.339v4.718h1.745v-4.984c0-1.658-.962-2.538-2.321-2.538-1.078 0-1.9.532-2.233 1.359h-.077c-.281-.842-1.001-1.359-2.007-1.359-.991 0-1.73.508-2.04 1.359h-.092v-1.262H359.8v7.425h1.741ZM378.48 181.18c0-2.611-1.571-3.752-3.394-3.752-2.122 0-3.509 1.562-3.509 3.853 0 2.325 1.368 3.814 3.606 3.814 1.726 0 2.91-.846 3.224-2.132h-1.701c-.227.445-.745.779-1.504.779-1.131 0-1.88-.75-1.9-2.026h5.178v-.536Zm-5.173-.643c.053-.948.759-1.75 1.808-1.75 1.006 0 1.687.739 1.692 1.75h-3.5ZM381.584 184.95v-4.375c0-.938.715-1.61 1.677-1.61.29 0 .658.054.812.102v-1.6a4.32 4.32 0 0 0-.633-.048c-.846 0-1.562.483-1.832 1.343h-.078v-1.237h-1.687v7.425h1.741ZM390.967 179.642c-.126-1.348-1.218-2.214-2.988-2.214-1.817 0-3.002.899-2.997 2.272-.005 1.064.711 1.784 2.084 2.069l1.199.252c.739.159 1.073.435 1.078.865-.005.551-.552.894-1.393.894-.812 0-1.305-.314-1.416-.942h-1.765c.174 1.416 1.291 2.257 3.186 2.257 1.939 0 3.157-.967 3.162-2.364-.005-1.058-.687-1.711-2.084-2.011l-1.262-.27c-.754-.174-1.058-.46-1.058-.851 0-.503.546-.875 1.29-.875.74 0 1.204.362 1.311.918h1.653Z" style="fill-rule:nonzero"/>
<path d="M7 38V26h278v12" style="fill:none;stroke:#7f8292;stroke-width:2px"/>
<path d="M171 21c0-2.208-1.792-4-4-4h-42c-2.208 0-4 1.792-4 4v10c0 2.208 1.792 4 4 4h42c2.208 0 4-1.792 4-4V21Z" style="fill:#fff"/>
<path d="M126.571 34.271v-10.39h1.554l.137 1.531v8.859h-1.691Zm3.675-3.007c-.526 0-.948-.124-1.267-.371-.319-.247-.51-.606-.572-1.079h-.637l.492-2.208c0 .72.122 1.254.365 1.6.244.346.636.52 1.179.52.523 0 .919-.185 1.188-.553.27-.368.404-.914.404-1.638 0-.728-.136-1.286-.41-1.672-.273-.387-.667-.581-1.182-.581-.51 0-.894.175-1.154.524-.26.349-.39.884-.39 1.604l-.451-2.217h.544c.078-.475.271-.835.582-1.08.31-.246.744-.369 1.301-.369.925 0 1.635.326 2.129.979.495.653.742 1.59.742 2.812 0 1.21-.247 2.134-.742 2.772-.494.638-1.201.957-2.121.957ZM139.193 31.195l-.133-2.146-.093-.807v-1.598c0-.426-.167-.738-.501-.936-.334-.198-.83-.306-1.489-.325l-1.807-.047.137-1.523 1.533.02c1.267.018 2.208.277 2.823.776.615.499.923 1.227.923 2.184v2.816l1.095.151v1.367l-2.488.068Zm-2.495.069c-.765 0-1.359-.187-1.782-.559-.423-.373-.634-.902-.634-1.586 0-.793.282-1.402.847-1.826.566-.423 1.366-.635 2.401-.635.411 0 .772.022 1.081.068.309.046.606.115.889.209l-.3 1.259a4.644 4.644 0 0 0-.83-.119 17.077 17.077 0 0 0-.797-.017c-1.078 0-1.616.317-1.616.951 0 .275.095.487.285.634.191.147.465.221.823.221.422 0 .773-.076 1.056-.229a1.6 1.6 0 0 0 .635-.582c.141-.236.211-.479.211-.729v-.588l.326 1.86h-.579l.237-.219c-.008.419-.105.769-.289 1.049-.184.281-.442.49-.776.629-.333.139-.729.209-1.188.209ZM145.627 28.01l-.424-2.405h.597c.077-1.241.714-1.861 1.91-1.861.712 0 1.246.238 1.601.712.355.475.532 1.19.532 2.144h-1.681c0-.467-.079-.804-.235-1.009-.157-.206-.41-.309-.759-.309-.518 0-.904.237-1.159.71s-.382 1.145-.382 2.018Zm-3.251 3.117v-1.46h4.979v1.46h-4.979Zm1.564 0v-7.246h1.413l.274 2.078v5.168h-1.687Zm-1.291-5.786v-1.46h2.609l.136 1.46h-2.745ZM153.643 31.264c-.55 0-1.031-.017-1.442-.05a8.443 8.443 0 0 1-1.103-.155l.197-1.588c.536.073.995.128 1.377.164.382.037.705.055.971.055.665 0 1.147-.054 1.446-.162.299-.108.449-.281.449-.519 0-.153-.044-.27-.132-.351-.087-.081-.224-.147-.411-.198l-2.082-.58c-.577-.158-1.005-.377-1.285-.658-.28-.282-.42-.678-.42-1.189 0-.785.318-1.363.955-1.733.637-.371 1.627-.556 2.97-.556a14.307 14.307 0 0 1 1.984.137l-.179 1.532a24.353 24.353 0 0 0-1.044-.075c-.299-.013-.566-.02-.802-.02-.754 0-1.3.052-1.639.155-.338.103-.508.273-.508.508 0 .152.05.265.15.34.1.074.254.139.463.194l1.754.468c.679.174 1.181.419 1.507.734.326.314.489.743.489 1.285 0 .774-.297 1.345-.891 1.711-.595.367-1.519.551-2.774.551ZM163.002 31.264c-1.246 0-2.209-.325-2.888-.974-.678-.65-1.018-1.583-1.018-2.8 0-1.185.288-2.105.864-2.761.577-.657 1.39-.985 2.441-.985 1.012 0 1.795.301 2.348.901.554.601.831 1.475.831 2.621 0 .33-.015.641-.043.934h-5.224v-1.214h3.65c0-.553-.136-.977-.409-1.273-.273-.295-.653-.443-1.14-.443-.536 0-.951.187-1.247.561-.296.374-.444.905-.444 1.591 0 .745.212 1.312.636 1.7.424.389 1.026.583 1.807.583.318 0 .631-.017.939-.051.307-.034.621-.081.941-.14l.178 1.558a10.3 10.3 0 0 1-1.233.157c-.372.023-.702.035-.989.035Z" style="fill-rule:nonzero"/>
<path d="M289 38V26h118v12" style="fill:none;stroke:#7f8292;stroke-width:2px"/>
<path d="M365 21c0-2.208-1.792-4-4-4h-26c-2.208 0-4 1.792-4 4v10c0 2.208 1.792 4 4 4h26c2.208 0 4-1.792 4-4V21Z" style="fill:#fff"/>
<path d="M339.424 28.01 339 25.605h.597c.077-1.241.713-1.861 1.91-1.861.712 0 1.246.238 1.601.712.355.475.532 1.19.532 2.144h-1.682c0-.467-.078-.804-.234-1.009-.157-.206-.41-.309-.76-.309-.517 0-.903.237-1.158.71-.255.473-.382 1.145-.382 2.018Zm-3.252 3.117v-1.46h4.98v1.46h-4.98Zm1.564 0v-7.246h1.414l.274 2.078v5.168h-1.688Zm-1.29-5.786v-1.46h2.609l.136 1.46h-2.745ZM347.084 31.264c-.718 0-1.274-.227-1.667-.681-.394-.453-.59-1.092-.59-1.917v-4.785h1.691v4.51c0 .415.104.735.312.961.209.225.498.338.869.338.472 0 .828-.167 1.068-.502.24-.335.36-.897.36-1.685l.369 2.229h-.528c-.113.493-.334.871-.664 1.135-.33.265-.737.397-1.22.397Zm2.166-.069-.123-1.736v-1.271h1.691v1.421l.998.151v1.367l-2.566.068Zm-.123-2.119v-5.195h1.691v4.785l-1.691.41ZM357.535 31.127v-4.442c0-.438-.1-.775-.299-1.012-.199-.237-.481-.355-.846-.355-1.012 0-1.518.67-1.518 2.01l-.424-2.135h.585c.057-.487.228-.851.513-1.09.284-.239.709-.359 1.274-.359.765 0 1.358.233 1.777.697.419.465.629 1.122.629 1.969v4.717h-1.691Zm-4.355 0v-7.246h1.518l.174 1.531v5.715h-1.692Z" style="fill-rule:nonzero"/>
<path d="M411 38V26h278v12" style="fill:none;stroke:#7f8292;stroke-width:2px"/>
<path d="M591 21c0-2.208-1.792-4-4-4h-74c-2.208 0-4 1.792-4 4v10c0 2.208 1.792 4 4 4h74c2.208 0 4-1.792 4-4V21Z" style="fill:#fff"/>
<path d="M516.627 31.264c-.55 0-1.03-.017-1.442-.05a8.426 8.426 0 0 1-1.102-.155l.196-1.588c.536.073.995.128 1.377.164.382.037.706.055.971.055.665 0 1.147-.054 1.446-.162.299-.108.449-.281.449-.519 0-.153-.044-.27-.131-.351-.088-.081-.225-.147-.412-.198l-2.082-.58c-.576-.158-1.004-.377-1.285-.658-.28-.282-.42-.678-.42-1.189 0-.785.319-1.363.956-1.733.637-.371 1.627-.556 2.969-.556a14.285 14.285 0 0 1 1.984.137l-.179 1.532a24.318 24.318 0 0 0-1.043-.075c-.299-.013-.567-.02-.803-.02-.754 0-1.3.052-1.638.155-.339.103-.508.273-.508.508 0 .152.05.265.149.34.1.074.254.139.463.194l1.754.468c.679.174 1.182.419 1.508.734.325.314.488.743.488 1.285 0 .774-.297 1.345-.891 1.711-.594.367-1.519.551-2.774.551ZM526.838 31.264c-1.187 0-2.046-.242-2.576-.725-.53-.483-.795-1.256-.795-2.319v-1.058h1.687v.924c0 .562.142.969.424 1.223.283.254.749.381 1.397.381.217 0 .448-.013.693-.038.246-.025.526-.058.841-.099l.164 1.547a10.169 10.169 0 0 1-1.835.164Zm-3.371-3.625v-5.946h1.687v5.946h-1.687Zm-1.769-2.228v-1.53h6.702v1.53h-6.702ZM533.221 28.01l-.424-2.405h.597c.077-1.241.713-1.861 1.91-1.861.712 0 1.245.238 1.6.712.355.475.533 1.19.533 2.144h-1.682c0-.467-.078-.804-.235-1.009-.156-.206-.409-.309-.759-.309-.517 0-.903.237-1.158.71-.255.473-.382 1.145-.382 2.018Zm-3.252 3.117v-1.46h4.98v1.46h-4.98Zm1.564 0v-7.246h1.414l.274 2.078v5.168h-1.688Zm-1.29-5.786v-1.46h2.608l.137 1.46h-2.745ZM541.432 31.127v-6.836h1.687v6.836h-1.687Zm-2.713 0v-1.534h2.85v1.534h-2.85Zm4.263 0v-1.534h2.316v1.534h-2.316Zm-3.853-5.712v-1.534h3.99v1.534h-3.99Zm3.078-2.58a1.078 1.078 0 0 1-1.114-1.114c0-.324.105-.59.316-.8.21-.21.476-.315.798-.315.324 0 .59.105.8.315.209.21.314.476.314.8 0 .321-.105.588-.314.798a1.08 1.08 0 0 1-.8.316ZM551.332 31.127v-4.442c0-.438-.1-.775-.299-1.012-.199-.237-.481-.355-.846-.355-1.012 0-1.519.67-1.519 2.01l-.423-2.135h.585c.057-.487.228-.851.512-1.09.285-.239.71-.359 1.275-.359.765 0 1.358.233 1.777.697.419.465.629 1.122.629 1.969v4.717h-1.691Zm-4.355 0v-7.246h1.518l.173 1.531v5.715h-1.691ZM555.346 34.395l-.069-1.499 2.325-.068c.676-.02 1.167-.207 1.472-.561.305-.355.459-.876.461-1.564v-5.291l.136-1.531h1.555v6.603c0 1.29-.299 2.242-.898 2.856-.599.614-1.553.942-2.863.986l-2.119.069Zm2.205-3.131c-.918 0-1.624-.319-2.12-.957-.495-.638-.743-1.562-.743-2.772 0-1.222.248-2.159.743-2.812.496-.653 1.205-.979 2.128-.979.557 0 .991.123 1.302.369.312.245.505.605.581 1.08h.544l-.451 2.217c0-.72-.129-1.255-.388-1.604-.258-.349-.644-.524-1.156-.524-.515 0-.909.194-1.182.581-.274.386-.411.944-.411 1.672 0 .724.135 1.27.404 1.638.27.368.666.553 1.189.553.545 0 .939-.174 1.181-.52.242-.346.363-.88.363-1.6l.492 2.208h-.637c-.062.473-.253.832-.572 1.079-.319.247-.741.371-1.267.371ZM566.041 31.127v-6.836h1.687v6.836h-1.687Zm-2.712 0v-1.534h2.849v1.534h-2.849Zm4.263 0v-1.534h2.316v1.534h-2.316Zm-3.853-5.712v-1.534h3.989v1.534h-3.989Zm3.077-2.58a1.081 1.081 0 0 1-1.114-1.114c0-.324.105-.59.316-.8.211-.21.477-.315.798-.315.324 0 .591.105.8.315.21.21.315.476.315.8a1.078 1.078 0 0 1-1.115 1.114ZM573.137 31.127v-6.631c0-2.506 1.183-3.76 3.551-3.76a8.86 8.86 0 0 1 1.573.137l-.167 1.533a11.575 11.575 0 0 0-1.448-.096c-1.214 0-1.822.706-1.822 2.118v6.699h-1.687Zm-2.234-4.281v-1.46h6.839v1.46h-6.839ZM579.154 34.408l-.068-1.483 1.204-.137c.449-.054.832-.174 1.151-.361.319-.187.592-.465.818-.835.227-.369.425-.852.593-1.449l1.772-6.262h1.779l-2.059 6.603c-.274.869-.585 1.568-.934 2.098-.349.53-.762.927-1.24 1.19-.478.263-1.05.429-1.716.499l-1.3.137Zm2.477-3.281-2.614-7.246h1.779l2.025 5.865h.284v1.381h-1.474Z" style="fill-rule:nonzero"/>
<path d="M3 38V9h690v29" style="fill:none;stroke:#7f8292;stroke-width:2px"/>
<path d="M381 4c0-2.208-1.792-4-4-4h-58c-2.208 0-4 1.792-4 4v10c0 2.208 1.792 4 4 4h58c2.208 0 4-1.792 4-4V4Z" style="fill:#fff"/>
<path d="M320.368 17.271V6.881h1.554l.137 1.531v8.859h-1.691Zm3.675-3.007c-.526 0-.949-.124-1.268-.371-.319-.247-.509-.606-.571-1.079h-.637l.492-2.208c0 .72.122 1.254.365 1.6.243.346.636.52 1.179.52.523 0 .919-.185 1.188-.553.27-.368.404-.914.404-1.638 0-.728-.136-1.286-.41-1.672-.273-.387-.667-.581-1.182-.581-.51 0-.895.175-1.154.524-.26.349-.39.884-.39 1.604l-.451-2.217h.544c.077-.475.271-.835.582-1.08.31-.246.744-.369 1.301-.369.925 0 1.635.326 2.129.979s.742 1.59.742 2.812c0 1.21-.248 2.134-.742 2.772-.494.638-1.202.957-2.121.957ZM331.221 11.01l-.424-2.405h.597c.077-1.241.713-1.861 1.91-1.861.712 0 1.245.238 1.6.712.355.475.533 1.19.533 2.144h-1.682c0-.467-.078-.804-.235-1.009-.156-.206-.409-.309-.759-.309-.517 0-.903.237-1.158.71-.255.473-.382 1.145-.382 2.018Zm-3.252 3.117v-1.46h4.98v1.46h-4.98Zm1.564 0V6.881h1.414l.274 2.078v5.168h-1.688Zm-1.29-5.786v-1.46h2.608l.137 1.46h-2.745ZM339.797 14.264c-1.027 0-1.824-.328-2.391-.985-.567-.656-.851-1.581-.851-2.775 0-1.199.284-2.125.851-2.779.567-.654 1.364-.981 2.391-.981 1.029 0 1.827.327 2.393.981.566.654.848 1.58.848 2.779 0 1.194-.282 2.119-.848 2.775-.566.657-1.364.985-2.393.985Zm.002-1.574c.48 0 .85-.19 1.111-.571.26-.381.391-.919.391-1.616 0-.7-.131-1.24-.392-1.618-.26-.378-.631-.567-1.112-.567-.479 0-.849.189-1.111.568-.262.378-.393.918-.393 1.618 0 .696.131 1.235.393 1.615.262.381.633.571 1.113.571ZM348.788 14.264c-1.285 0-2.277-.325-2.978-.974-.701-.65-1.052-1.583-1.052-2.8 0-1.185.324-2.105.972-2.761.648-.657 1.573-.985 2.776-.985.732 0 1.359.14 1.881.42.522.28.893.675 1.113 1.187l-1.25.976a2.125 2.125 0 0 0-.772-.745 2.059 2.059 0 0 0-1.027-.264c-.621 0-1.104.182-1.451.547-.347.365-.52.884-.52 1.557 0 .737.213 1.3.641 1.687.427.387 1.037.581 1.831.581.331 0 .662-.016.993-.048.331-.032.653-.075.966-.13l.18 1.547c-.37.082-.753.136-1.148.164a16.97 16.97 0 0 1-1.155.041ZM356.799 14.264c-1.247 0-2.209-.325-2.888-.974-.679-.65-1.018-1.583-1.018-2.8 0-1.185.288-2.105.864-2.761.576-.657 1.39-.985 2.441-.985 1.012 0 1.795.301 2.348.901.554.601.83 1.475.83 2.621 0 .33-.014.641-.042.934h-5.224V9.986h3.65c0-.553-.136-.977-.409-1.273-.273-.295-.653-.443-1.14-.443-.536 0-.952.187-1.247.561-.296.374-.444.905-.444 1.591 0 .745.212 1.312.636 1.7.423.389 1.026.583 1.807.583.318 0 .631-.017.938-.051.308-.034.622-.081.942-.14l.178 1.558a10.3 10.3 0 0 1-1.233.157c-.372.023-.702.035-.989.035ZM363.846 14.264c-.55 0-1.03-.017-1.442-.05a8.443 8.443 0 0 1-1.103-.155l.197-1.588c.536.073.995.128 1.377.164.382.037.705.055.971.055.665 0 1.147-.054 1.446-.162.299-.108.449-.281.449-.519 0-.153-.044-.27-.132-.351-.087-.081-.224-.147-.411-.198l-2.082-.58c-.576-.158-1.005-.377-1.285-.658-.28-.282-.42-.678-.42-1.189 0-.785.318-1.363.955-1.733.638-.371 1.627-.556 2.97-.556a14.307 14.307 0 0 1 1.984.137l-.179 1.532a24.353 24.353 0 0 0-1.044-.075c-.299-.013-.566-.02-.802-.02-.754 0-1.3.052-1.639.155-.338.103-.508.273-.508.508 0 .152.05.265.15.34.1.074.254.139.463.194l1.754.468c.679.174 1.182.419 1.507.734.326.314.489.743.489 1.285 0 .774-.297 1.345-.891 1.711-.595.367-1.519.551-2.774.551ZM372.049 14.264c-.55 0-1.03-.017-1.442-.05a8.467 8.467 0 0 1-1.103-.155l.197-1.588c.536.073.995.128 1.377.164.382.037.706.055.971.055.665 0 1.147-.054 1.446-.162.299-.108.449-.281.449-.519 0-.153-.044-.27-.131-.351-.088-.081-.225-.147-.412-.198l-2.082-.58c-.576-.158-1.004-.377-1.285-.658-.28-.282-.42-.678-.42-1.189 0-.785.318-1.363.956-1.733.637-.371 1.627-.556 2.969-.556a14.285 14.285 0 0 1 1.984.137l-.179 1.532a24.318 24.318 0 0 0-1.043-.075c-.299-.013-.567-.02-.803-.02-.754 0-1.3.052-1.639.155-.338.103-.507.273-.507.508 0 .152.049.265.149.34.1.074.254.139.463.194l1.754.468c.679.174 1.182.419 1.508.734.325.314.488.743.488 1.285 0 .774-.297 1.345-.891 1.711-.594.367-1.519.551-2.774.551Z" style="fill-rule:nonzero"/>
</g>
</svg>
