<svg xmlns="http://www.w3.org/2000/svg" xml:space="preserve" width="696" height="418" style="fill-rule:evenodd;clip-rule:evenodd;stroke-linejoin:round;stroke-miterlimit:1.5">
<path d="M0 0h696v418H0z" style="fill:none"/>
<clipPath id="a">
<path d="M0 0h696v418H0z"/>
</clipPath>
<g clip-path="url(#a)">
<path d="m96 254-7.5 15-7.5-15h15Z" style="fill:#7f8292"/>
<path d="M88.5 149v108" style="fill:none;stroke:#7f8292;stroke-width:5px"/>
<path d="m600 164 7.5-15 7.5 15h-15Z" style="fill:#7f8292"/>
<path d="M607.5 269V161" style="fill:none;stroke:#7f8292;stroke-width:5px"/>
<path d="M304.2 237.761 318.5 229l-1.572 16.697-12.728-7.936Z" style="fill:#7f8292"/>
<path d="M176 343.5c67.71 0 102.697-50.851 136.151-104.317" style="fill:none;stroke:#7f8292;stroke-width:5px"/>
<path d="M504.371 335.299 519 343.5l-15.338 6.783.709-14.984Z" style="fill:#7f8292"/>
<path d="M377.5 228c32.503 54.642 66.336 108.84 129.513 114.933" style="fill:none;stroke:#7f8292;stroke-width:5px"/>
<path d="M162.95 189.85c0-4.415-3.585-8-8-8H22.05c-4.415 0-8 3.585-8 8v38.3c0 4.415 3.585 8 8 8h132.9c4.415 0 8-3.585 8-8v-38.3ZM454.3 268.95c0-4.415-3.585-8-8-8H249.7c-4.415 0-8 3.585-8 8v38.3c0 4.415 3.585 8 8 8h196.6c4.415 0 8-3.585 8-8v-38.3ZM684.1 190.25c0-4.415-3.585-8-8-8H538.9c-4.415 0-8 3.585-8 8v37.5c0 4.415 3.585 8 8 8h137.2c4.415 0 8-3.585 8-8v-37.5Z" style="fill:#fff;fill-opacity:.8"/>
<path d="M177 8c0-4.415-3.585-8-8-8H8C3.585 0 0 3.585 0 8v133c0 4.415 3.585 8 8 8h161c4.415 0 8-3.585 8-8V8Z" style="fill:#fff"/>
<path d="M177 8c0-4.415-3.585-8-8-8H8C3.585 0 0 3.585 0 8v133c0 4.415 3.585 8 8 8h161c4.415 0 8-3.585 8-8V8Zm-2 0v133c0 3.311-2.689 6-6 6H8c-3.311 0-6-2.689-6-6V8c0-3.311 2.689-6 6-6h161c3.311 0 6 2.689 6 6Z" style="fill:#7f8292"/>
<path d="M48.5 79h96v54h-96z" style="fill:#c0c2ca"/>
<path d="M144.5 79h-96v54h96V79Zm-1 1v52h-94V80h94Z" style="fill:#4d4f5a"/>
<path d="M40.5 71h96v54h-96z" style="fill:#c0c2ca"/>
<path d="M136.5 71h-96v54h96V71Zm-1 1v52h-94V72h94Z" style="fill:#4d4f5a"/>
<path d="M32.5 63h96v54h-96z" style="fill:#c0c2ca"/>
<path d="M128.5 63h-96v54h96V63Zm-1 1v52h-94V64h94Z" style="fill:#4d4f5a"/>
<path d="M.253-.6V0h.126v-.6h.219v-.107H.035V-.6h.218Z" style="fill:#191a1e;fill-rule:nonzero" transform="matrix(24 0 0 24 55.562 33.461)"/>
<path d="M.388-.27h.164c-.002.101-.07.165-.177.165-.118 0-.2-.089-.2-.249s.083-.249.198-.249c.085 0 .143.046.166.122h.13C.647-.62.527-.717.371-.717c-.185 0-.323.137-.323.364 0 .224.132.363.327.363.175 0 .3-.113.3-.295V-.37H.388v.1Z" style="fill:#191a1e;fill-rule:nonzero" transform="matrix(24 0 0 24 69.999 33.461)"/>
<path d="M.674 0 .425-.707H.268L.019 0h.136l.059-.175H.48L.539 0h.135Zm-.33-.563h.005l.096.286H.248l.096-.286Z" style="fill:#191a1e;fill-rule:nonzero" transform="matrix(24 0 0 24 86.864 33.461)"/>
<path d="M.352.15V.055h-.13v-.687h.13v-.096H.103V.15h.249Z" style="fill:#191a1e;fill-rule:nonzero" transform="matrix(24 0 0 24 103.505 33.461)"/>
<path d="M.021-.728v.096H.15v.687H.021V.15H.27v-.878H.021Z" style="fill:#191a1e;fill-rule:nonzero" transform="matrix(24 0 0 24 112.47 33.461)"/>
<path d="M.096-.298c0 .174.047.319.132.442h.074a.85.85 0 0 1-.119-.442c0-.164.053-.35.119-.442H.228a.755.755 0 0 0-.132.442Z" style="fill:#191a1e;fill-rule:nonzero" transform="matrix(16 0 0 16 42.279 52.661)"/>
<path d="M.228-.707.052-.59v.089l.172-.114h.004V0h.088v-.707H.228Z" style="fill:#191a1e;fill-rule:nonzero" transform="matrix(16 0 0 16 47.727 52.661)"/>
<path d="M.302-.717C.151-.718.055-.611.055-.48a.229.229 0 0 0 .412.14h.01C.476-.168.405-.068.29-.068a.139.139 0 0 1-.143-.111H.06C.078-.066.166.01.29.01c.166 0 .269-.141.269-.392 0-.26-.136-.333-.257-.335Zm0 .077a.16.16 0 0 1 .161.158.164.164 0 0 1-.164.159.155.155 0 0 1-.159-.158c0-.087.069-.159.162-.159Z" style="fill:#191a1e;fill-rule:nonzero" transform="matrix(16 0 0 16 54.743 52.661)"/>
<path d="M.526 0v-.078H.189v-.006L.35-.251C.476-.38.512-.441.513-.52.512-.631.421-.717.293-.717s-.225.084-.224.209h.084c0-.079.053-.132.137-.132.079 0 .14.047.141.12C.43-.455.39-.407.307-.318l-.241.254V0h.46Z" style="fill:#191a1e;fill-rule:nonzero" transform="matrix(16 0 0 16 64.555 52.661)"/>
<path d="M.298.01c.156 0 .247-.132.247-.364 0-.229-.092-.363-.247-.363-.156 0-.248.134-.248.363 0 .232.091.364.248.364Zm0-.078c-.103 0-.162-.103-.162-.286S.196-.64.298-.64c.101 0 .161.103.161.286S.4-.068.298-.068Z" style="fill:#191a1e;fill-rule:nonzero" transform="matrix(16 0 0 16 73.947 52.661)"/>
<path d="m.314-.295.168.169.055-.054-.169-.169.169-.168L.482-.57l-.168.167L.146-.57l-.054.053.168.168-.168.169.054.054.168-.169Z" style="fill:#191a1e;fill-rule:nonzero" transform="matrix(16 0 0 16 83.473 52.661)"/>
<path d="M.228-.707.052-.59v.089l.172-.114h.004V0h.088v-.707H.228Z" style="fill:#191a1e;fill-rule:nonzero" transform="matrix(16 0 0 16 93.506 52.661)"/>
<path d="M.298.01c.156 0 .247-.132.247-.364 0-.229-.092-.363-.247-.363-.156 0-.248.134-.248.363 0 .232.091.364.248.364Zm0-.078c-.103 0-.162-.103-.162-.286S.196-.64.298-.64c.101 0 .161.103.161.286S.4-.068.298-.068Z" style="fill:#191a1e;fill-rule:nonzero" transform="matrix(16 0 0 16 100.523 52.661)"/>
<path d="M.303.01C.45.01.554-.073.555-.188A.18.18 0 0 0 .41-.367v-.004c.069-.016.116-.081.117-.158C.526-.637.432-.717.303-.717c-.13 0-.224.08-.224.188 0 .077.046.142.116.158v.004a.177.177 0 0 0-.143.179C.051-.073.154.01.303.01Zm0-.413c-.081 0-.139-.048-.139-.12 0-.07.055-.118.139-.118.082 0 .138.048.138.118 0 .072-.058.12-.138.12Zm0 .335c-.102 0-.165-.05-.163-.125-.002-.078.068-.135.163-.135s.164.057.164.135c0 .075-.063.125-.164.125Z" style="fill:#191a1e;fill-rule:nonzero" transform="matrix(16 0 0 16 110.047 52.661)"/>
<path d="M.298.01c.156 0 .247-.132.247-.364 0-.229-.092-.363-.247-.363-.156 0-.248.134-.248.363 0 .232.091.364.248.364Zm0-.078c-.103 0-.162-.103-.162-.286S.196-.64.298-.64c.101 0 .161.103.161.286S.4-.068.298-.068Z" style="fill:#191a1e;fill-rule:nonzero" transform="matrix(16 0 0 16 119.749 52.661)"/>
<path d="M.244-.298A.755.755 0 0 0 .113-.74H.038a.857.857 0 0 1 .119.442.85.85 0 0 1-.119.442h.075a.755.755 0 0 0 .131-.442Z" style="fill:#191a1e;fill-rule:nonzero" transform="matrix(16 0 0 16 129.274 52.661)"/>
<path d="M436.5 88c0-4.415-3.585-8-8-8h-161c-4.415 0-8 3.585-8 8v133c0 4.415 3.585 8 8 8h161c4.415 0 8-3.585 8-8V88Z" style="fill:#fff"/>
<path d="M436.5 88c0-4.415-3.585-8-8-8h-161c-4.415 0-8 3.585-8 8v133c0 4.415 3.585 8 8 8h161c4.415 0 8-3.585 8-8V88Zm-2 0v133c0 3.311-2.689 6-6 6h-161c-3.311 0-6-2.689-6-6V88c0-3.311 2.689-6 6-6h161c3.311 0 6 2.689 6 6Z" style="fill:#7f8292"/>
<path d="M332 172.5h48v27h-48z" style="fill:#c0c2ca"/>
<path d="M380 172.5h-48v27h48v-27Zm-1 1v25h-46v-25h46Z" style="fill:#4d4f5a"/>
<path d="M324 164.5h48v27h-48z" style="fill:#c0c2ca"/>
<path d="M372 164.5h-48v27h48v-27Zm-1 1v25h-46v-25h46Z" style="fill:#4d4f5a"/>
<path d="M316 156.5h48v27h-48z" style="fill:#c0c2ca"/>
<path d="M364 156.5h-48v27h48v-27Zm-1 1v25h-46v-25h46Z" style="fill:#4d4f5a"/>
<path d="M.066-.707V0h.127v-.239h.136c.163 0 .251-.098.251-.234 0-.135-.087-.234-.25-.234H.066Zm.127.363v-.257h.118c.096 0 .139.053.139.128 0 .075-.043.129-.138.129H.193Z" style="fill:#191a1e;fill-rule:nonzero" transform="matrix(24 0 0 24 314.387 126.961)"/>
<path d="M.52-.707v.483H.514L.18-.707H.066V0h.127v-.483h.006L.533 0h.113v-.707H.52Z" style="fill:#191a1e;fill-rule:nonzero" transform="matrix(24 0 0 24 329.197 126.961)"/>
<path d="M.388-.27h.164c-.002.101-.07.165-.177.165-.118 0-.2-.089-.2-.249s.083-.249.198-.249c.085 0 .143.046.166.122h.13C.647-.62.527-.717.371-.717c-.185 0-.323.137-.323.364 0 .224.132.363.327.363.175 0 .3-.113.3-.295V-.37H.388v.1Z" style="fill:#191a1e;fill-rule:nonzero" transform="matrix(24 0 0 24 346.285 126.961)"/>
<path d="M.352.15V.055h-.13v-.687h.13v-.096H.103V.15h.249Z" style="fill:#191a1e;fill-rule:nonzero" transform="matrix(24 0 0 24 363.68 126.961)"/>
<path d="M.021-.728v.096H.15v.687H.021V.15H.27v-.878H.021Z" style="fill:#191a1e;fill-rule:nonzero" transform="matrix(24 0 0 24 372.647 126.961)"/>
<path d="M.096-.298c0 .174.047.319.132.442h.074a.85.85 0 0 1-.119-.442c0-.164.053-.35.119-.442H.228a.755.755 0 0 0-.132.442Z" style="fill:#191a1e;fill-rule:nonzero" transform="matrix(16 0 0 16 308.437 146.161)"/>
<path d="M.302-.717C.151-.718.055-.611.055-.48a.229.229 0 0 0 .412.14h.01C.476-.168.405-.068.29-.068a.139.139 0 0 1-.143-.111H.06C.078-.066.166.01.29.01c.166 0 .269-.141.269-.392 0-.26-.136-.333-.257-.335Zm0 .077a.16.16 0 0 1 .161.158.164.164 0 0 1-.164.159.155.155 0 0 1-.159-.158c0-.087.069-.159.162-.159Z" style="fill:#191a1e;fill-rule:nonzero" transform="matrix(16 0 0 16 313.884 146.161)"/>
<path d="M.312.01a.234.234 0 0 0 .247-.239.23.23 0 0 0-.413-.14H.137c0-.17.07-.27.186-.27.079 0 .127.047.142.109h.087C.535-.64.448-.717.323-.717c-.166 0-.268.14-.268.39 0 .263.135.335.257.337Zm0-.078A.16.16 0 0 1 .15-.227a.164.164 0 0 1 .165-.158c.092 0 .158.071.159.157a.16.16 0 0 1-.162.16Z" style="fill:#191a1e;fill-rule:nonzero" transform="matrix(16 0 0 16 323.697 146.161)"/>
<path d="M.298.01c.156 0 .247-.132.247-.364 0-.229-.092-.363-.247-.363-.156 0-.248.134-.248.363 0 .232.091.364.248.364Zm0-.078c-.103 0-.162-.103-.162-.286S.196-.64.298-.64c.101 0 .161.103.161.286S.4-.068.298-.068Z" style="fill:#191a1e;fill-rule:nonzero" transform="matrix(16 0 0 16 333.509 146.161)"/>
<path d="m.314-.295.168.169.055-.054-.169-.169.169-.168L.482-.57l-.168.167L.146-.57l-.054.053.168.168-.168.169.054.054.168-.169Z" style="fill:#191a1e;fill-rule:nonzero" transform="matrix(16 0 0 16 343.034 146.161)"/>
<path d="M.297.01c.141 0 .244-.099.244-.236 0-.137-.1-.237-.234-.237a.218.218 0 0 0-.129.041H.171l.026-.207h.31v-.078H.124l-.05.387h.085c.026-.046.072-.065.132-.064.095.001.164.068.164.16a.152.152 0 0 1-.158.156C.22-.068.159-.115.153-.177H.067c.006.108.102.187.23.187Z" style="fill:#191a1e;fill-rule:nonzero" transform="matrix(16 0 0 16 353.067 146.161)"/>
<path d="M.475-.222v-.485H.367l-.318.49v.073h.343V0h.083v-.144h.1v-.078h-.1ZM.383-.596h.009v.374H.144v-.005l.239-.369Z" style="fill:#191a1e;fill-rule:nonzero" transform="matrix(16 0 0 16 362.614 146.161)"/>
<path d="M.298.01c.156 0 .247-.132.247-.364 0-.229-.092-.363-.247-.363-.156 0-.248.134-.248.363 0 .232.091.364.248.364Zm0-.078c-.103 0-.162-.103-.162-.286S.196-.64.298-.64c.101 0 .161.103.161.286S.4-.068.298-.068Z" style="fill:#191a1e;fill-rule:nonzero" transform="matrix(16 0 0 16 372.592 146.161)"/>
<path d="M.244-.298A.755.755 0 0 0 .113-.74H.038a.857.857 0 0 1 .119.442.85.85 0 0 1-.119.442h.075a.755.755 0 0 0 .131-.442Z" style="fill:#191a1e;fill-rule:nonzero" transform="matrix(16 0 0 16 382.116 146.161)"/>
<path d="M696 8c0-4.415-3.585-8-8-8H527c-4.415 0-8 3.585-8 8v133c0 4.415 3.585 8 8 8h161c4.415 0 8-3.585 8-8V8Z" style="fill:#fff"/>
<path d="M696 8c0-4.415-3.585-8-8-8H527c-4.415 0-8 3.585-8 8v133c0 4.415 3.585 8 8 8h161c4.415 0 8-3.585 8-8V8Zm-2 0v133c0 3.311-2.689 6-6 6H527c-3.311 0-6-2.689-6-6V8c0-3.311 2.689-6 6-6h161c3.311 0 6 2.689 6 6Z" style="fill:#7f8292"/>
<path d="M587.232 30v16.972h3.042v-5.743h3.265c3.92 0 6.025-2.353 6.025-5.61 0-3.241-2.08-5.619-5.983-5.619h-6.349Zm3.042 8.718v-6.166h2.842c2.304 0 3.332 1.26 3.332 3.067 0 1.806-1.028 3.099-3.315 3.099h-2.859ZM607.893 30h-5.851v16.972h5.743c5.171 0 8.221-3.199 8.221-8.502 0-5.288-3.05-8.47-8.113-8.47Zm-2.81 14.329V32.644h2.644c3.456 0 5.254 1.931 5.254 5.826 0 3.903-1.798 5.859-5.345 5.859h-2.553ZM621.774 46.972v-7.218h7.069v-2.561h-7.069v-4.624h7.815V30h-10.857v16.972h3.042Z" style="fill:#191a1e;fill-rule:nonzero"/>
<path d="m631.5 71-16-16h-32v64h48V71Z" style="fill:#c0c2ca"/>
<path d="m631.5 71-16-16h-32v64h48V71Zm-1 .414V118h-46V56h30.586L630.5 71.414Z" style="fill:#4d4f5a"/>
<path d="M615.5 56v15h15" style="fill:none;stroke:#4d4f5a;stroke-width:1px;stroke-linecap:square;stroke-linejoin:miter"/>
<path d="M177 277c0-4.415-3.585-8-8-8H8c-4.415 0-8 3.585-8 8v133c0 4.415 3.585 8 8 8h161c4.415 0 8-3.585 8-8V277Z" style="fill:#fff"/>
<path d="M177 277c0-4.415-3.585-8-8-8H8c-4.415 0-8 3.585-8 8v133c0 4.415 3.585 8 8 8h161c4.415 0 8-3.585 8-8V277Zm-2 0v133c0 3.311-2.689 6-6 6H8c-3.311 0-6-2.689-6-6V277c0-3.311 2.689-6 6-6h161c3.311 0 6 2.689 6 6Z" style="fill:#7f8292"/>
<path d="M48.5 348h96v54h-96z" style="fill:#c0c2ca"/>
<path d="M144.5 348h-96v54h96v-54Zm-1 1v52h-94v-52h94Z" style="fill:#4d4f5a"/>
<path d="M40.5 340h96v54h-96z" style="fill:#c0c2ca"/>
<path d="M136.5 340h-96v54h96v-54Zm-1 1v52h-94v-52h94Z" style="fill:#4d4f5a"/>
<path d="M32.5 332h96v54h-96z" style="fill:#c0c2ca"/>
<path d="M128.5 332h-96v54h96v-54Zm-1 1v52h-94v-52h94Z" style="fill:#4d4f5a"/>
<path d="M.066-.707V0h.127v-.239h.136c.163 0 .251-.098.251-.234 0-.135-.087-.234-.25-.234H.066Zm.127.363v-.257h.118c.096 0 .139.053.139.128 0 .075-.043.129-.138.129H.193Z" style="fill:#191a1e;fill-rule:nonzero" transform="matrix(24 0 0 24 54.887 302.461)"/>
<path d="M.52-.707v.483H.514L.18-.707H.066V0h.127v-.483h.006L.533 0h.113v-.707H.52Z" style="fill:#191a1e;fill-rule:nonzero" transform="matrix(24 0 0 24 69.696 302.461)"/>
<path d="M.388-.27h.164c-.002.101-.07.165-.177.165-.118 0-.2-.089-.2-.249s.083-.249.198-.249c.085 0 .143.046.166.122h.13C.647-.62.527-.717.371-.717c-.185 0-.323.137-.323.364 0 .224.132.363.327.363.175 0 .3-.113.3-.295V-.37H.388v.1Z" style="fill:#191a1e;fill-rule:nonzero" transform="matrix(24 0 0 24 86.785 302.461)"/>
<path d="M.352.15V.055h-.13v-.687h.13v-.096H.103V.15h.249Z" style="fill:#191a1e;fill-rule:nonzero" transform="matrix(24 0 0 24 104.18 302.461)"/>
<path d="M.021-.728v.096H.15v.687H.021V.15H.27v-.878H.021Z" style="fill:#191a1e;fill-rule:nonzero" transform="matrix(24 0 0 24 113.147 302.461)"/>
<path d="M.096-.298c0 .174.047.319.132.442h.074a.85.85 0 0 1-.119-.442c0-.164.053-.35.119-.442H.228a.755.755 0 0 0-.132.442Z" style="fill:#191a1e;fill-rule:nonzero" transform="matrix(16 0 0 16 42.279 321.661)"/>
<path d="M.228-.707.052-.59v.089l.172-.114h.004V0h.088v-.707H.228Z" style="fill:#191a1e;fill-rule:nonzero" transform="matrix(16 0 0 16 47.727 321.661)"/>
<path d="M.302-.717C.151-.718.055-.611.055-.48a.229.229 0 0 0 .412.14h.01C.476-.168.405-.068.29-.068a.139.139 0 0 1-.143-.111H.06C.078-.066.166.01.29.01c.166 0 .269-.141.269-.392 0-.26-.136-.333-.257-.335Zm0 .077a.16.16 0 0 1 .161.158.164.164 0 0 1-.164.159.155.155 0 0 1-.159-.158c0-.087.069-.159.162-.159Z" style="fill:#191a1e;fill-rule:nonzero" transform="matrix(16 0 0 16 54.743 321.661)"/>
<path d="M.526 0v-.078H.189v-.006L.35-.251C.476-.38.512-.441.513-.52.512-.631.421-.717.293-.717s-.225.084-.224.209h.084c0-.079.053-.132.137-.132.079 0 .14.047.141.12C.43-.455.39-.407.307-.318l-.241.254V0h.46Z" style="fill:#191a1e;fill-rule:nonzero" transform="matrix(16 0 0 16 64.555 321.661)"/>
<path d="M.298.01c.156 0 .247-.132.247-.364 0-.229-.092-.363-.247-.363-.156 0-.248.134-.248.363 0 .232.091.364.248.364Zm0-.078c-.103 0-.162-.103-.162-.286S.196-.64.298-.64c.101 0 .161.103.161.286S.4-.068.298-.068Z" style="fill:#191a1e;fill-rule:nonzero" transform="matrix(16 0 0 16 73.947 321.661)"/>
<path d="m.314-.295.168.169.055-.054-.169-.169.169-.168L.482-.57l-.168.167L.146-.57l-.054.053.168.168-.168.169.054.054.168-.169Z" style="fill:#191a1e;fill-rule:nonzero" transform="matrix(16 0 0 16 83.473 321.661)"/>
<path d="M.228-.707.052-.59v.089l.172-.114h.004V0h.088v-.707H.228Z" style="fill:#191a1e;fill-rule:nonzero" transform="matrix(16 0 0 16 93.506 321.661)"/>
<path d="M.298.01c.156 0 .247-.132.247-.364 0-.229-.092-.363-.247-.363-.156 0-.248.134-.248.363 0 .232.091.364.248.364Zm0-.078c-.103 0-.162-.103-.162-.286S.196-.64.298-.64c.101 0 .161.103.161.286S.4-.068.298-.068Z" style="fill:#191a1e;fill-rule:nonzero" transform="matrix(16 0 0 16 100.523 321.661)"/>
<path d="M.303.01C.45.01.554-.073.555-.188A.18.18 0 0 0 .41-.367v-.004c.069-.016.116-.081.117-.158C.526-.637.432-.717.303-.717c-.13 0-.224.08-.224.188 0 .077.046.142.116.158v.004a.177.177 0 0 0-.143.179C.051-.073.154.01.303.01Zm0-.413c-.081 0-.139-.048-.139-.12 0-.07.055-.118.139-.118.082 0 .138.048.138.118 0 .072-.058.12-.138.12Zm0 .335c-.102 0-.165-.05-.163-.125-.002-.078.068-.135.163-.135s.164.057.164.135c0 .075-.063.125-.164.125Z" style="fill:#191a1e;fill-rule:nonzero" transform="matrix(16 0 0 16 110.047 321.661)"/>
<path d="M.298.01c.156 0 .247-.132.247-.364 0-.229-.092-.363-.247-.363-.156 0-.248.134-.248.363 0 .232.091.364.248.364Zm0-.078c-.103 0-.162-.103-.162-.286S.196-.64.298-.64c.101 0 .161.103.161.286S.4-.068.298-.068Z" style="fill:#191a1e;fill-rule:nonzero" transform="matrix(16 0 0 16 119.749 321.661)"/>
<path d="M.244-.298A.755.755 0 0 0 .113-.74H.038a.857.857 0 0 1 .119.442.85.85 0 0 1-.119.442h.075a.755.755 0 0 0 .131-.442Z" style="fill:#191a1e;fill-rule:nonzero" transform="matrix(16 0 0 16 129.274 321.661)"/>
<path d="M696 277c0-4.415-3.585-8-8-8H527c-4.415 0-8 3.585-8 8v133c0 4.415 3.585 8 8 8h161c4.415 0 8-3.585 8-8V277Z" style="fill:#fff"/>
<path d="M696 277c0-4.415-3.585-8-8-8H527c-4.415 0-8 3.585-8 8v133c0 4.415 3.585 8 8 8h161c4.415 0 8-3.585 8-8V277Zm-2 0v133c0 3.311-2.689 6-6 6H527c-3.311 0-6-2.689-6-6V277c0-3.311 2.689-6 6-6h161c3.311 0 6 2.689 6 6Z" style="fill:#7f8292"/>
<path d="M591.5 362.45h48v27h-48z" style="fill:#c0c2ca"/>
<path d="M639.5 362.45h-48v27h48v-27Zm-1 1v25h-46v-25h46Z" style="fill:#4d4f5a"/>
<path d="M583.5 354.45h48v27h-48z" style="fill:#c0c2ca"/>
<path d="M631.5 354.45h-48v27h48v-27Zm-1 1v25h-46v-25h46Z" style="fill:#4d4f5a"/>
<path d="M575.5 346.45h48v27h-48z" style="fill:#c0c2ca"/>
<path d="M623.5 346.45h-48v27h48v-27Zm-1 1v25h-46v-25h46Z" style="fill:#4d4f5a"/>
<path d="M.091-.289c0 .173.046.316.137.439h.117A.806.806 0 0 1 .22-.289c0-.163.055-.347.125-.439H.228a.713.713 0 0 0-.137.439Z" style="fill:#191a1e;fill-rule:nonzero" transform="matrix(24 0 0 24 532.757 316.909)"/>
<path d="M.066-.707V0h.127v-.239h.136c.163 0 .251-.098.251-.234 0-.135-.087-.234-.25-.234H.066Zm.127.363v-.257h.118c.096 0 .139.053.139.128 0 .075-.043.129-.138.129H.193Z" style="fill:#191a1e;fill-rule:nonzero" transform="matrix(24 0 0 24 541.724 316.909)"/>
<path d="M.52-.707v.483H.514L.18-.707H.066V0h.127v-.483h.006L.533 0h.113v-.707H.52Z" style="fill:#191a1e;fill-rule:nonzero" transform="matrix(24 0 0 24 556.533 316.909)"/>
<path d="M.388-.27h.164c-.002.101-.07.165-.177.165-.118 0-.2-.089-.2-.249s.083-.249.198-.249c.085 0 .143.046.166.122h.13C.647-.62.527-.717.371-.717c-.185 0-.323.137-.323.364 0 .224.132.363.327.363.175 0 .3-.113.3-.295V-.37H.388v.1Z" style="fill:#191a1e;fill-rule:nonzero" transform="matrix(24 0 0 24 573.622 316.909)"/>
<path d="M.112-.807h.115v.906H.112z" style="fill:#191a1e;fill-rule:nonzero" transform="matrix(24 0 0 24 596.718 316.909)"/>
<path d="M.344-.21c0 .075-.034.115-.096.115-.057 0-.096-.035-.097-.092H.025C.024-.058.119.01.243.01c.136 0 .228-.083.228-.22v-.497H.344v.497Z" style="fill:#191a1e;fill-rule:nonzero" transform="matrix(24 0 0 24 610.558 316.909)"/>
<path d="M.066-.707V0h.127v-.239h.136c.163 0 .251-.098.251-.234 0-.135-.087-.234-.25-.234H.066Zm.127.363v-.257h.118c.096 0 .139.053.139.128 0 .075-.043.129-.138.129H.193Z" style="fill:#191a1e;fill-rule:nonzero" transform="matrix(24 0 0 24 623.437 316.909)"/>
<path d="M.388-.27h.164c-.002.101-.07.165-.177.165-.118 0-.2-.089-.2-.249s.083-.249.198-.249c.085 0 .143.046.166.122h.13C.647-.62.527-.717.371-.717c-.185 0-.323.137-.323.364 0 .224.132.363.327.363.175 0 .3-.113.3-.295V-.37H.388v.1Z" style="fill:#191a1e;fill-rule:nonzero" transform="matrix(24 0 0 24 638.246 316.909)"/>
<path d="M.282-.289a.712.712 0 0 0-.136-.439H.029c.07.092.124.276.124.439 0 .164-.054.348-.124.439h.117a.71.71 0 0 0 .136-.439Z" style="fill:#191a1e;fill-rule:nonzero" transform="matrix(24 0 0 24 655.641 316.909)"/>
<path d="M.352.15V.055h-.13v-.687h.13v-.096H.103V.15h.249Z" style="fill:#191a1e;fill-rule:nonzero" transform="matrix(24 0 0 24 664.608 316.909)"/>
<path d="M.021-.728v.096H.15v.687H.021V.15H.27v-.878H.021Z" style="fill:#191a1e;fill-rule:nonzero" transform="matrix(24 0 0 24 673.575 316.909)"/>
<path d="M.096-.298c0 .174.047.319.132.442h.074a.85.85 0 0 1-.119-.442c0-.164.053-.35.119-.442H.228a.755.755 0 0 0-.132.442Z" style="fill:#191a1e;fill-rule:nonzero" transform="matrix(16 0 0 16 568.086 336.109)"/>
<path d="M.302-.717C.151-.718.055-.611.055-.48a.229.229 0 0 0 .412.14h.01C.476-.168.405-.068.29-.068a.139.139 0 0 1-.143-.111H.06C.078-.066.166.01.29.01c.166 0 .269-.141.269-.392 0-.26-.136-.333-.257-.335Zm0 .077a.16.16 0 0 1 .161.158.164.164 0 0 1-.164.159.155.155 0 0 1-.159-.158c0-.087.069-.159.162-.159Z" style="fill:#191a1e;fill-rule:nonzero" transform="matrix(16 0 0 16 573.533 336.109)"/>
<path d="M.312.01a.234.234 0 0 0 .247-.239.23.23 0 0 0-.413-.14H.137c0-.17.07-.27.186-.27.079 0 .127.047.142.109h.087C.535-.64.448-.717.323-.717c-.166 0-.268.14-.268.39 0 .263.135.335.257.337Zm0-.078A.16.16 0 0 1 .15-.227a.164.164 0 0 1 .165-.158c.092 0 .158.071.159.157a.16.16 0 0 1-.162.16Z" style="fill:#191a1e;fill-rule:nonzero" transform="matrix(16 0 0 16 583.346 336.109)"/>
<path d="M.298.01c.156 0 .247-.132.247-.364 0-.229-.092-.363-.247-.363-.156 0-.248.134-.248.363 0 .232.091.364.248.364Zm0-.078c-.103 0-.162-.103-.162-.286S.196-.64.298-.64c.101 0 .161.103.161.286S.4-.068.298-.068Z" style="fill:#191a1e;fill-rule:nonzero" transform="matrix(16 0 0 16 593.158 336.109)"/>
<path d="m.314-.295.168.169.055-.054-.169-.169.169-.168L.482-.57l-.168.167L.146-.57l-.054.053.168.168-.168.169.054.054.168-.169Z" style="fill:#191a1e;fill-rule:nonzero" transform="matrix(16 0 0 16 602.683 336.109)"/>
<path d="M.297.01c.141 0 .244-.099.244-.236 0-.137-.1-.237-.234-.237a.218.218 0 0 0-.129.041H.171l.026-.207h.31v-.078H.124l-.05.387h.085c.026-.046.072-.065.132-.064.095.001.164.068.164.16a.152.152 0 0 1-.158.156C.22-.068.159-.115.153-.177H.067c.006.108.102.187.23.187Z" style="fill:#191a1e;fill-rule:nonzero" transform="matrix(16 0 0 16 612.716 336.109)"/>
<path d="M.475-.222v-.485H.367l-.318.49v.073h.343V0h.083v-.144h.1v-.078h-.1ZM.383-.596h.009v.374H.144v-.005l.239-.369Z" style="fill:#191a1e;fill-rule:nonzero" transform="matrix(16 0 0 16 622.263 336.109)"/>
<path d="M.298.01c.156 0 .247-.132.247-.364 0-.229-.092-.363-.247-.363-.156 0-.248.134-.248.363 0 .232.091.364.248.364Zm0-.078c-.103 0-.162-.103-.162-.286S.196-.64.298-.64c.101 0 .161.103.161.286S.4-.068.298-.068Z" style="fill:#191a1e;fill-rule:nonzero" transform="matrix(16 0 0 16 632.241 336.109)"/>
<path d="M.244-.298A.755.755 0 0 0 .113-.74H.038a.857.857 0 0 1 .119.442.85.85 0 0 1-.119.442h.075a.755.755 0 0 0 .131-.442Z" style="fill:#191a1e;fill-rule:nonzero" transform="matrix(16 0 0 16 641.765 336.109)"/>
<path d="M.066-.707V0h.127v-.239h.136c.163 0 .251-.098.251-.234 0-.135-.087-.234-.25-.234H.066Zm.127.363v-.257h.118c.096 0 .139.053.139.128 0 .075-.043.129-.138.129H.193Z" style="fill:#191a1e;fill-rule:nonzero" transform="matrix(24 0 0 24 20.461 207.657)"/>
<path d="M.184 0v-.312c0-.067.051-.115.12-.115.021 0 .047.003.058.007v-.115a.319.319 0 0 0-.045-.003.133.133 0 0 0-.131.096H.181V-.53H.06V0h.124Z" style="fill:#191a1e;fill-rule:nonzero" transform="matrix(24 0 0 24 35.27 207.657)"/>
<path d="M.53-.269c0-.187-.112-.268-.242-.268-.152 0-.251.111-.251.275 0 .166.098.272.258.272.123 0 .208-.06.23-.152H.404C.387-.11.35-.086.296-.086.215-.086.162-.14.161-.231H.53v-.038ZM.161-.315A.128.128 0 0 1 .29-.44c.072 0 .121.053.121.125h-.25Z" style="fill:#191a1e;fill-rule:nonzero" transform="matrix(24 0 0 24 43.898 207.657)"/>
<path d="m.401-.53-.123.394H.273L.15-.53H.018L.207 0h.137l.189-.53H.401Z" style="fill:#191a1e;fill-rule:nonzero" transform="matrix(24 0 0 24 57.149 207.657)"/>
<path d="M.123-.606c.039 0 .071-.03.071-.067a.07.07 0 0 0-.071-.068c-.04 0-.073.03-.073.068 0 .037.033.067.073.067ZM.184 0v-.53H.06V0h.124Z" style="fill:#191a1e;fill-rule:nonzero" transform="matrix(24 0 0 24 70.384 207.657)"/>
<path d="M.53-.269c0-.187-.112-.268-.242-.268-.152 0-.251.111-.251.275 0 .166.098.272.258.272.123 0 .208-.06.23-.152H.404C.387-.11.35-.086.296-.086.215-.086.162-.14.161-.231H.53v-.038ZM.161-.315A.128.128 0 0 1 .29-.44c.072 0 .121.053.121.125h-.25Z" style="fill:#191a1e;fill-rule:nonzero" transform="matrix(24 0 0 24 76.243 207.657)"/>
<path d="m.299 0 .1-.359h.007l.1.359h.129l.151-.53H.659l-.093.371H.561L.466-.53H.34l-.095.373H.24L.146-.53H.02L.17 0h.129Z" style="fill:#191a1e;fill-rule:nonzero" transform="matrix(24 0 0 24 89.8 207.657)"/>
<path d="M.136.008a.077.077 0 0 0 .076-.076.076.076 0 0 0-.076-.075.075.075 0 0 0-.075.075.075.075 0 0 0 .075.076Z" style="fill:#191a1e;fill-rule:nonzero" transform="matrix(24 0 0 24 107.403 207.657)"/>
<path d="M.276-.537c-.133 0-.214.068-.223.158h.12c.01-.038.044-.063.099-.063.063 0 .096.03.096.082v.043a22.12 22.12 0 0 0-.135.007c-.099.006-.198.041-.198.161 0 .104.077.16.178.16.083 0 .133-.04.156-.084h.004V0h.119v-.355c0-.141-.116-.182-.216-.182Zm-.031.456c-.052 0-.09-.024-.09-.07 0-.046.038-.071.097-.075.025-.003.094-.007.116-.008l.001.044c0 .059-.049.109-.124.109Z" style="fill:#191a1e;fill-rule:nonzero" transform="matrix(24 0 0 24 113.95 207.657)"/>
<path d="M.184.199v-.283H.19c.019.039.06.093.152.093C.467.009.56-.09.56-.265c0-.176-.096-.272-.218-.272a.158.158 0 0 0-.152.094H.182V-.53H.06v.729h.124ZM.182-.265c0-.103.044-.17.125-.17.084 0 .127.071.127.17 0 .1-.044.172-.127.172-.08 0-.125-.069-.125-.172Z" style="fill:#191a1e;fill-rule:nonzero" transform="matrix(24 0 0 24 127.152 207.657)"/>
<path d="M.184.199v-.283H.19c.019.039.06.093.152.093C.467.009.56-.09.56-.265c0-.176-.096-.272-.218-.272a.158.158 0 0 0-.152.094H.182V-.53H.06v.729h.124ZM.182-.265c0-.103.044-.17.125-.17.084 0 .127.071.127.17 0 .1-.044.172-.127.172-.08 0-.125-.069-.125-.172Z" style="fill:#191a1e;fill-rule:nonzero" transform="matrix(24 0 0 24 141.514 207.657)"/>
<path d="m.107-.436.011.064.53-.029a1.48 1.48 0 0 1-.033.224l.076.006c.037-.176.037-.294.037-.422V-.7H.131v.064h.522v.043c0 .045 0 .089-.002.135l-.544.022Zm-.072.393h.792v-.064H.035v.064Z" style="fill:#191a1e;fill-rule:nonzero" transform="matrix(16 0 0 16 58.495 226.857)"/>
<path d="M.676.079h.077v-.868H.676v.868Zm-.59-.773v.062h.332c-.017.207-.137.374-.372.486l.042.062c.291-.14.407-.361.408-.61h-.41Z" style="fill:#191a1e;fill-rule:nonzero" transform="matrix(16 0 0 16 72.329 226.857)"/>
<path d="M.106-.278c.131-.027.27-.113.326-.233.056.119.196.204.328.23l.032-.061C.642-.366.471-.485.471-.624v-.021h.291V-.71H.101v.065h.291v.021c0 .139-.171.26-.317.286l.031.06Zm.364-.03H.394v.211H.035v.065H.83v-.065H.47v-.211Z" style="fill:#191a1e;fill-rule:nonzero" transform="matrix(16 0 0 16 90.174 226.857)"/>
<path d="M.503-.531h.175v.191h.076v-.449H.678v.194H.503v.064ZM.298-.535a.345.345 0 0 0 .213.184l.037-.061C.423-.451.336-.551.336-.654V-.68H.53v-.063H.063v.063h.196v.025c0 .112-.093.221-.22.264l.038.061a.368.368 0 0 0 .221-.205Zm-.029.446h.485v-.208H.191v.063h.487v.086H.193V.07h.594V.008H.269v-.097Z" style="fill:#191a1e;fill-rule:nonzero" transform="matrix(16 0 0 16 104.008 226.857)"/>
<path d="M249.704 269.232v16.972h3.042v-5.743h3.265c3.92 0 6.025-2.353 6.025-5.61 0-3.241-2.08-5.619-5.984-5.619h-6.348Zm3.042 8.718v-6.165h2.842c2.304 0 3.332 1.259 3.332 3.066 0 1.806-1.028 3.099-3.315 3.099h-2.859ZM267.356 278.746c0-1.848 1.152-2.909 2.76-2.909 1.583 0 2.511.994 2.511 2.718v7.649h2.983v-8.105c0-3.082-1.748-4.79-4.383-4.79-1.956 0-3.191.887-3.779 2.329h-.158v-6.406h-2.917v16.972h2.983v-7.458ZM284.014 286.453c3.721 0 6.091-2.627 6.091-6.564 0-3.944-2.37-6.58-6.091-6.58s-6.1 2.636-6.1 6.58c0 3.937 2.379 6.564 6.1 6.564Zm.008-2.387c-2.072 0-3.091-1.856-3.091-4.185 0-2.329 1.019-4.21 3.091-4.21 2.039 0 3.058 1.881 3.058 4.21 0 2.329-1.019 4.185-3.058 4.185ZM297.638 283.867c-.762-.016-1.367-.265-1.367-1.491v-6.597h2.502v-2.304h-2.502v-3.05h-2.984v3.05h-1.806v2.304h1.806v7.094c-.008 2.395 1.724 3.505 3.97 3.505.762 0 1.334-.066 1.691-.124v-2.445c-.373.025-.962.067-1.31.058ZM306.506 286.453c3.721 0 6.091-2.627 6.091-6.564 0-3.944-2.37-6.58-6.091-6.58s-6.1 2.636-6.1 6.58c0 3.937 2.379 6.564 6.1 6.564Zm.008-2.387c-2.072 0-3.091-1.856-3.091-4.185 0-2.329 1.019-4.21 3.091-4.21 2.038 0 3.058 1.881 3.058 4.21 0 2.329-1.02 4.185-3.058 4.185ZM327.232 273.898c-.058-2.868-2.503-4.898-6.108-4.898-3.563 0-6.232 1.997-6.215 4.997-.008 2.437 1.724 3.846 4.516 4.558l1.931.497c1.824.473 3.05 1.045 3.058 2.362-.008 1.459-1.392 2.437-3.406 2.437-1.922 0-3.422-.87-3.555-2.644h-3c.133 3.365 2.635 5.254 6.58 5.254 4.069 0 6.431-2.038 6.431-5.022 0-2.95-2.445-4.284-4.981-4.881l-1.591-.398c-1.4-.331-2.909-.928-2.892-2.345 0-1.285 1.152-2.221 3.083-2.221 1.84 0 3.058.845 3.207 2.304h2.942ZM335.428 286.453c3.191 0 5.229-1.898 5.437-4.583h-2.843c-.265 1.368-1.251 2.147-2.569 2.147-1.889 0-3.108-1.558-3.108-4.177 0-2.578 1.243-4.127 3.108-4.127 1.442 0 2.329.928 2.569 2.154h2.843c-.199-2.743-2.362-4.558-5.462-4.558-3.721 0-6.074 2.694-6.074 6.58 0 3.854 2.295 6.564 6.099 6.564ZM348.307 273.309c-3.191 0-5.13 1.641-5.346 3.796h2.893c.223-.912 1.036-1.517 2.37-1.517 1.5 0 2.304.73 2.304 1.981l.008 1.028c-.555.025-2.37.107-3.257.165-2.362.158-4.74.995-4.74 3.871 0 2.502 1.839 3.828 4.268 3.828 1.997 0 3.19-.944 3.737-2.005h.1v1.748h2.859v-8.511c0-3.389-2.785-4.384-5.196-4.384Zm-.738 10.956c-1.251 0-2.146-.572-2.146-1.674 0-1.11.895-1.707 2.32-1.815a87.103 87.103 0 0 1 2.793-.19l.008 1.052c0 1.426-1.16 2.627-2.975 2.627ZM359.32 290.978v-6.779h.125c.472.928 1.458 2.229 3.654 2.229 2.992 0 5.238-2.387 5.238-6.572 0-4.243-2.304-6.547-5.246-6.547-2.254 0-3.19 1.351-3.646 2.263h-.183v-2.097h-2.925v17.503h2.983Zm-.058-11.138c0-2.478 1.061-4.078 3.009-4.078 2.005 0 3.033 1.699 3.033 4.078 0 2.395-1.044 4.143-3.033 4.143-1.931 0-3.009-1.665-3.009-4.143ZM381.986 279.74c0-4.475-2.693-6.431-5.817-6.431-3.639 0-6.017 2.677-6.017 6.605 0 3.987 2.345 6.539 6.182 6.539 2.959 0 4.989-1.45 5.528-3.655h-2.917c-.39.763-1.276 1.335-2.578 1.335-1.939 0-3.223-1.285-3.257-3.473h8.876v-.92Zm-8.867-1.102c.091-1.624 1.301-3 3.099-3 1.724 0 2.892 1.268 2.901 3h-6ZM383.486 269.232l5.304 8.486-5.37 8.486h3.53l3.788-6.182h.132l3.796 6.182h3.538l-5.312-8.486 5.238-8.486h-3.489l-3.771 6.232h-.132l-3.746-6.232h-3.506ZM402.017 286.387c.977 0 1.806-.812 1.814-1.815a1.827 1.827 0 0 0-1.814-1.799c-1.003 0-1.832.804-1.815 1.799-.017 1.003.812 1.815 1.815 1.815ZM411.903 273.309c-3.19 0-5.13 1.641-5.345 3.796h2.892c.224-.912 1.036-1.517 2.37-1.517 1.5 0 2.304.73 2.304 1.981l.009 1.028c-.556.025-2.371.107-3.257.165-2.362.158-4.741.995-4.741 3.871 0 2.502 1.84 3.828 4.268 3.828 1.998 0 3.191-.944 3.738-2.005h.099v1.748h2.859v-8.511c0-3.389-2.784-4.384-5.196-4.384Zm-.737 10.956c-1.252 0-2.147-.572-2.147-1.674 0-1.11.895-1.707 2.321-1.815a86.907 86.907 0 0 1 2.793-.19l.008 1.052c0 1.426-1.16 2.627-2.975 2.627ZM422.917 290.978v-6.779h.124c.473.928 1.459 2.229 3.655 2.229 2.992 0 5.238-2.387 5.238-6.572 0-4.243-2.304-6.547-5.246-6.547-2.254 0-3.191 1.351-3.647 2.263h-.182v-2.097h-2.925v17.503h2.983Zm-.058-11.138c0-2.478 1.061-4.078 3.008-4.078 2.006 0 3.034 1.699 3.034 4.078 0 2.395-1.045 4.143-3.034 4.143-1.931 0-3.008-1.665-3.008-4.143ZM437.279 290.978v-6.779h.124c.473.928 1.459 2.229 3.655 2.229 2.992 0 5.238-2.387 5.238-6.572 0-4.243-2.304-6.547-5.246-6.547-2.254 0-3.191 1.351-3.647 2.263h-.182v-2.097h-2.925v17.503h2.983Zm-.058-11.138c0-2.478 1.061-4.078 3.008-4.078 2.006 0 3.033 1.699 3.033 4.078 0 2.395-1.044 4.143-3.033 4.143-1.931 0-3.008-1.665-3.008-4.143ZM264.092 293.41v7.127h1.226v-7.127h-1.226Zm-2.707 3.591c-.011-1.812-1.525-3.072-3.603-3.083-2.099.011-3.613 1.271-3.613 3.083 0 1.812 1.514 3.061 3.613 3.061 2.078 0 3.592-1.249 3.603-3.061Zm-6.011 0c-.011-1.204 1.016-2.055 2.408-2.044 1.382-.011 2.409.84 2.409 2.044 0 1.216-1.027 2.055-2.409 2.055-1.392 0-2.419-.839-2.408-2.055Zm2.143 7.558h7.801v-3.348h-9.038v.995h7.823v1.425h-7.779v3.481h9.492v-.995h-8.299v-1.558ZM278.567 293.41h-1.238v7.481h1.238v-3.15h2.033v-1.005h-2.033v-3.326Zm-3.547 5.005c.354-1.58.354-2.795.365-3.569v-.652h-6.929v.995h5.702c-.005.746-.05 1.746-.342 3.094l1.204.132Zm1.359.674c-1.447.188-3.039.288-4.585.343v-2.486h-1.205v2.525c-1.061.022-2.077.027-2.983.027l.121.995c2.52.011 5.834-.044 8.741-.531l-.089-.873Zm2.188 5.603v-3.183h-9.138v.94h7.911v1.337h-7.878v3.359h9.624v-.951h-8.409v-1.502h7.89ZM286.677 299.62c2.282-.243 4.332-1.083 5.177-2.497.835 1.414 2.879 2.254 5.177 2.497l.398-.939c-2.624-.26-4.818-1.332-4.906-2.917h4.375v-.984h-4.442v-1.436h-1.204v1.436h-4.42v.984h4.348c-.094 1.585-2.298 2.657-4.9 2.917l.397.939Zm11.514.784h-12.663v.995h5.724v1.591h-4.32v1.006h8.453v3.259h1.237v-4.265h-4.166v-1.591h5.735v-.995ZM305.655 297.349c.906 2 3.139 3.431 5.255 3.873l.552-1.016c-2.431-.42-5.171-2.465-5.171-4.785v-1.072h-1.282v1.072c-.011 2.331-2.718 4.365-5.149 4.785l.552 1.016c2.116-.442 4.332-1.878 5.243-3.873Zm.603 3.718h-1.205v3.393h-5.69v1.016h12.718v-1.016h-5.823v-3.393ZM393.742 293.344v7.127h1.227v-7.127h-1.227Zm-2.707 3.591c-.011-1.812-1.525-3.072-3.602-3.083-2.099.011-3.613 1.271-3.613 3.083 0 1.812 1.514 3.061 3.613 3.061 2.077 0 3.591-1.249 3.602-3.061Zm-6.011 0c-.011-1.205 1.017-2.055 2.409-2.044 1.381-.011 2.409.839 2.409 2.044 0 1.215-1.028 2.055-2.409 2.055-1.392 0-2.42-.84-2.409-2.055Zm2.144 7.558h7.801v-3.348h-9.039v.994h7.823v1.426h-7.779v3.48h9.492v-.994h-8.298v-1.558ZM408.218 293.344h-1.238v7.48h1.238v-3.149h2.033v-1.005h-2.033v-3.326Zm-3.547 5.005c.353-1.58.353-2.795.364-3.569v-.652h-6.928v.995h5.702c-.006.746-.05 1.746-.343 3.094l1.205.132Zm1.359.674c-1.448.188-3.039.287-4.586.343v-2.486h-1.204v2.524c-1.061.023-2.078.028-2.984.028l.122.995c2.519.011 5.834-.045 8.74-.531l-.088-.873Zm2.188 5.602v-3.182h-9.139v.939h7.912v1.337h-7.878v3.359h9.624v-.95h-8.409v-1.503h7.89ZM425.466 299.907v3.724h1.227v-10.276h-1.227v2.552h-3.282v-1.635h-1.215v2.475h-3.867v-2.475h-1.227v6.983h6.309v-1.348h3.282Zm0-1.016h-3.282v-1.967h3.282v1.967Zm-8.364 1.359v-2.542h3.867v2.542h-3.867Zm1.845 2.375h-1.238v4.299h9.304v-1.017h-8.066v-3.282ZM433.941 294.714v-1.415h-1.226v1.415H429.3v.928h8.045v-.928h-3.404Zm5.912-1.37h-1.227v10.862h1.227v-4.962h2.077v-1.038h-2.077v-4.862Zm-2.088 7.757c-1.21.187-2.525.309-3.824.381v-1c1.608-.166 2.619-.928 2.63-2.1-.011-1.337-1.293-2.143-3.26-2.132-1.955-.011-3.259.795-3.248 2.132-.011 1.177 1.033 1.945 2.652 2.105v1.05c-1.359.05-2.663.061-3.768.061l.143 1.005c2.431-.022 5.802-.066 8.774-.618l-.099-.884Zm-6.531-2.719c-.011-.784.796-1.27 2.077-1.27 1.282 0 2.089.486 2.089 1.27 0 .763-.807 1.249-2.089 1.249-1.281 0-2.088-.486-2.077-1.249Zm-.199 5.094v3.448h9.326v-1.017h-8.099v-2.431h-1.227Z" style="fill:#191a1e;fill-rule:nonzero"/>
<path d="M.193 0v-.211l.079-.093L.483 0h.153L.36-.39l.274-.317H.479l-.277.325H.193v-.325H.066V0h.127Z" style="fill:#191a1e;fill-rule:nonzero" transform="matrix(24 0 0 24 537.303 207.24)"/>
<path d="M.53-.269c0-.187-.112-.268-.242-.268-.152 0-.251.111-.251.275 0 .166.098.272.258.272.123 0 .208-.06.23-.152H.404C.387-.11.35-.086.296-.086.215-.086.162-.14.161-.231H.53v-.038ZM.161-.315A.128.128 0 0 1 .29-.44c.072 0 .121.053.121.125h-.25Z" style="fill:#191a1e;fill-rule:nonzero" transform="matrix(24 0 0 24 551.955 207.24)"/>
<path d="M.135.199C.234.199.29.149.321.065L.533-.53H.401l-.123.401H.272L.15-.53H.018l.193.541L.2.039C.179.096.153.098.123.098L.07.097v.099a.58.58 0 0 0 .065.003Z" style="fill:#191a1e;fill-rule:nonzero" transform="matrix(24 0 0 24 565.206 207.24)"/>
<path d="M.184-.311c0-.077.047-.121.113-.121.065 0 .104.042.104.113V0h.124v-.338c0-.127-.072-.199-.182-.199C.264-.537.21-.5.185-.44H.179v-.09H.06V0h.124v-.311Z" style="fill:#191a1e;fill-rule:nonzero" transform="matrix(24 0 0 24 578.441 207.24)"/>
<path d="M.291.01c.155 0 .254-.109.254-.273 0-.164-.099-.274-.254-.274s-.254.11-.254.274c0 .164.099.273.254.273Zm.001-.099c-.087 0-.129-.077-.129-.174 0-.097.042-.176.129-.176.085 0 .127.079.127.176 0 .097-.042.174-.127.174Z" style="fill:#191a1e;fill-rule:nonzero" transform="matrix(24 0 0 24 592.446 207.24)"/>
<path d="M.277-.097C.245-.098.22-.108.22-.16v-.274h.104V-.53H.22v-.127H.095v.127H.02v.096h.075v.295c0 .1.072.146.166.146a.51.51 0 0 0 .07-.005V-.1l-.054.003Z" style="fill:#191a1e;fill-rule:nonzero" transform="matrix(24 0 0 24 606.427 207.24)"/>
<path d="M.53-.269c0-.187-.112-.268-.242-.268-.152 0-.251.111-.251.275 0 .166.098.272.258.272.123 0 .208-.06.23-.152H.404C.387-.11.35-.086.296-.086.215-.086.162-.14.161-.231H.53v-.038ZM.161-.315A.128.128 0 0 1 .29-.44c.072 0 .121.053.121.125h-.25Z" style="fill:#191a1e;fill-rule:nonzero" transform="matrix(24 0 0 24 614.938 207.24)"/>
<path d="M.136.008a.077.077 0 0 0 .076-.076.076.076 0 0 0-.076-.075.075.075 0 0 0-.075.075.075.075 0 0 0 .075.076Z" style="fill:#191a1e;fill-rule:nonzero" transform="matrix(24 0 0 24 628.562 207.24)"/>
<path d="M.276-.537c-.133 0-.214.068-.223.158h.12c.01-.038.044-.063.099-.063.063 0 .096.03.096.082v.043a22.12 22.12 0 0 0-.135.007c-.099.006-.198.041-.198.161 0 .104.077.16.178.16.083 0 .133-.04.156-.084h.004V0h.119v-.355c0-.141-.116-.182-.216-.182Zm-.031.456c-.052 0-.09-.024-.09-.07 0-.046.038-.071.097-.075.025-.003.094-.007.116-.008l.001.044c0 .059-.049.109-.124.109Z" style="fill:#191a1e;fill-rule:nonzero" transform="matrix(24 0 0 24 635.109 207.24)"/>
<path d="M.184.199v-.283H.19c.019.039.06.093.152.093C.467.009.56-.09.56-.265c0-.176-.096-.272-.218-.272a.158.158 0 0 0-.152.094H.182V-.53H.06v.729h.124ZM.182-.265c0-.103.044-.17.125-.17.084 0 .127.071.127.17 0 .1-.044.172-.127.172-.08 0-.125-.069-.125-.172Z" style="fill:#191a1e;fill-rule:nonzero" transform="matrix(24 0 0 24 648.311 207.24)"/>
<path d="M.184.199v-.283H.19c.019.039.06.093.152.093C.467.009.56-.09.56-.265c0-.176-.096-.272-.218-.272a.158.158 0 0 0-.152.094H.182V-.53H.06v.729h.124ZM.182-.265c0-.103.044-.17.125-.17.084 0 .127.071.127.17 0 .1-.044.172-.127.172-.08 0-.125-.069-.125-.172Z" style="fill:#191a1e;fill-rule:nonzero" transform="matrix(24 0 0 24 662.673 207.24)"/>
<path d="M.674-.789v.87h.077v-.87H.674Zm-.385.067C.16-.721.068-.604.068-.419s.092.302.221.302.222-.117.222-.302S.418-.721.289-.722Zm0 .069c.087 0 .147.093.147.234 0 .141-.06.234-.147.234S.142-.278.142-.419c0-.141.06-.234.147-.234Z" style="fill:#191a1e;fill-rule:nonzero" transform="matrix(16 0 0 16 570.577 226.44)"/>
<path d="M.674-.789v.87h.077v-.87H.674Zm-.588.086v.564h.401v-.564H.086Zm.326.061v.44h-.25v-.44h.25Z" style="fill:#191a1e;fill-rule:nonzero" transform="matrix(16 0 0 16 584.412 226.44)"/>
<path d="M.674.079h.077v-.868H.674v.868ZM.346-.635h.206V-.7H.064v.065h.205v.113a.453.453 0 0 1-.234.374l.046.06a.488.488 0 0 0 .227-.287c.041.12.128.22.23.266L.581-.17a.409.409 0 0 1-.235-.352v-.113Z" style="fill:#191a1e;fill-rule:nonzero" transform="matrix(16 0 0 16 598.246 226.44)"/>
<path d="M.295-.485c.039.085.12.149.222.18l.036-.061C.425-.403.331-.496.331-.604v-.02h.196v-.062H.333v-.107H.256v.107H.059v.062h.197v.02c0 .115-.092.216-.221.255l.038.06a.354.354 0 0 0 .222-.196Zm.383-.06H.502v.064h.176v.207h.077v-.515H.678v.244Zm.077.613V-.23H.187v.298h.568ZM.68-.167v.172H.264v-.172H.68Z" style="fill:#191a1e;fill-rule:nonzero" transform="matrix(16 0 0 16 616.091 226.44)"/>
<path d="M.65-.753v.12H.212v-.12H.136v.374h.591v-.374H.65Zm-.438.312V-.57H.65v.129H.212Zm-.178.168v.062h.358v.29h.075v-.29h.362v-.062H.034Z" style="fill:#191a1e;fill-rule:nonzero" transform="matrix(16 0 0 16 629.926 226.44)"/>
<path d="M12.801 9.972 10 11.751v2.089l2.597-1.63h.066v9.077h2.354V9.972h-2.216ZM18.21 290.47v-1.929h-4.84v-.077l1.724-1.663c2.331-2.11 2.956-3.171 2.961-4.458-.005-1.962-1.613-3.343-4.044-3.343-2.376 0-4.017 1.414-4.011 3.63h2.232c-.005-1.089.696-1.757 1.762-1.757 1.028 0 1.791.619 1.796 1.619-.005.906-.575 1.53-1.624 2.541l-4.067 3.74.006 1.697h8.105ZM273.809 101.624c2.547 0 4.387-1.392 4.376-3.326.011-1.414-.906-2.425-2.575-2.629v-.089c1.277-.226 2.161-1.127 2.15-2.398.011-1.784-1.564-3.182-3.917-3.182-2.321 0-4.078 1.354-4.116 3.298h2.254c.033-.867.85-1.425 1.85-1.425s1.669.591 1.663 1.453c.006.895-.773 1.503-1.895 1.503h-1.049v1.74h1.049c1.332 0 2.15.652 2.144 1.575.006.911-.801 1.536-1.928 1.536-1.088 0-1.906-.558-1.945-1.393h-2.37c.039 1.973 1.818 3.337 4.309 3.337ZM536.74 286.425V279h-2.95l-4.79 7.459v1.85h5.497v2.006h2.243v-2.006h1.426v-1.884h-1.426Zm-2.315-4.85h.105v4.85h-3.16v-.088l3.055-4.762ZM533.133 21.442c2.541 0 4.276-1.635 4.27-3.923.006-2.171-1.536-3.723-3.613-3.723-.994 0-1.851.403-2.271.961h-.088l.309-2.856h5.028V9.972h-6.961l-.619 6.514h2.138c.326-.63.923-.945 1.768-.945 1.193.006 2.044.846 2.039 2.039.005 1.182-.829 2.011-2 2.011-.989 0-1.796-.608-1.851-1.486H529c.044 1.945 1.773 3.337 4.133 3.337Z" style="fill:#7f8292;fill-rule:nonzero"/>
</g>
</svg>
