<svg xmlns="http://www.w3.org/2000/svg" xml:space="preserve" width="696" height="388" style="fill-rule:evenodd;clip-rule:evenodd;stroke-linejoin:round;stroke-miterlimit:1.5">
<path d="M0 0h696v388H0z" style="fill:none"/>
<path d="M694 10c0-4.415-3.585-8-8-8H10c-4.415 0-8 3.585-8 8v34c0 4.415 3.585 8 8 8h676c4.415 0 8-3.585 8-8V10Z" style="fill:#fff"/>
<path d="M694 10c0-4.415-3.585-8-8-8H10c-4.415 0-8 3.585-8 8v34c0 4.415 3.585 8 8 8h676c4.415 0 8-3.585 8-8V10Zm-2 0v34c0 3.311-2.689 6-6 6H10c-3.311 0-6-2.689-6-6V10c0-3.311 2.689-6 6-6h676c3.311 0 6 2.689 6 6Z" style="fill:#8e909e"/>
<path d="M318.124 23.548v8.402h1.77v-8.402h3.055V22.05h-7.885v1.498h3.06ZM326.285 24.428c-1.862 0-2.993.957-3.119 2.214h1.688c.13-.531.604-.884 1.382-.884.875 0 1.344.425 1.344 1.155l.005.599c-.324.015-1.383.063-1.9.097-1.378.092-2.765.58-2.765 2.258 0 1.46 1.073 2.233 2.49 2.233 1.165 0 1.861-.551 2.18-1.17h.058v1.02h1.668v-4.965c0-1.977-1.625-2.557-3.031-2.557Zm-.431 6.391c-.73 0-1.252-.334-1.252-.976 0-.648.522-.996 1.354-1.059a50.36 50.36 0 0 1 1.629-.111l.005.614c0 .831-.677 1.532-1.736 1.532ZM335.702 28.827c.004 1.141-.812 1.697-1.586 1.697-.846 0-1.407-.594-1.407-1.537v-4.462h-1.74v4.728c0 1.784 1.015 2.794 2.475 2.794 1.117 0 1.895-.585 2.233-1.412h.078v1.315h1.682v-7.425h-1.735v4.302ZM340.86 31.95v-4.375c0-.938.715-1.61 1.677-1.61.29 0 .658.054.812.102v-1.6a4.309 4.309 0 0 0-.633-.048c-.846 0-1.561.483-1.832 1.343h-.077v-1.237h-1.688v7.425h1.741ZM345.264 23.466c.546 0 1.005-.42 1.005-.943 0-.526-.459-.947-1.005-.947-.561 0-1.015.421-1.015.947 0 .523.454.943 1.015.943Zm.865 8.484v-7.425h-1.74v7.425h1.74ZM359.675 25.39c-.31-2.204-2.002-3.476-4.187-3.476-2.591 0-4.529 1.886-4.529 5.086 0 3.191 1.914 5.086 4.529 5.086 2.345 0 3.911-1.518 4.187-3.409l-1.803-.009c-.233 1.16-1.18 1.817-2.364 1.817-1.605 0-2.761-1.208-2.761-3.485 0-2.238 1.146-3.485 2.77-3.485 1.204 0 2.152.686 2.355 1.875h1.803ZM364.364 32.095c2.171 0 3.553-1.532 3.553-3.828 0-2.302-1.382-3.839-3.553-3.839-2.171 0-3.558 1.537-3.558 3.839 0 2.296 1.387 3.828 3.558 3.828Zm.005-1.392c-1.209 0-1.803-1.083-1.803-2.441 0-1.359.594-2.456 1.803-2.456 1.189 0 1.784 1.097 1.784 2.456 0 1.358-.595 2.441-1.784 2.441ZM371.021 31.95v-4.375c0-.938.715-1.61 1.677-1.61.29 0 .658.054.812.102v-1.6a4.32 4.32 0 0 0-.633-.048c-.846 0-1.561.483-1.832 1.343h-.077v-1.237h-1.688v7.425h1.741ZM380.897 28.18c0-2.611-1.571-3.752-3.394-3.752-2.122 0-3.509 1.562-3.509 3.853 0 2.325 1.368 3.814 3.606 3.814 1.726 0 2.91-.846 3.225-2.132h-1.702c-.227.445-.745.779-1.504.779-1.131 0-1.88-.75-1.899-2.026h5.177v-.536Zm-5.173-.643c.054-.948.759-1.75 1.808-1.75 1.006 0 1.688.739 1.692 1.75h-3.5Z" style="fill-rule:nonzero"/>
<path d="M410 152c0-2.208-1.792-4-4-4H6c-2.208 0-4 1.792-4 4v230c0 2.208 1.792 4 4 4h400c2.208 0 4-1.792 4-4V152Z" style="fill:#fff"/>
<path d="M410 152c0-2.208-1.792-4-4-4H6c-2.208 0-4 1.792-4 4v230c0 2.208 1.792 4 4 4h400c2.208 0 4-1.792 4-4V152Zm-2 0v230a2 2 0 0 1-2 2H6a2 2 0 0 1-2-2V152a2 2 0 0 1 2-2h400a2 2 0 0 1 2 2Z" style="fill:#7f8292"/>
<path d="M8.862 161.243h1.235v-6.137h.07l2.495 6.125h1.019l2.494-6.112h.079v6.124h1.231v-8.486h-1.571l-2.689 6.576h-.099l-2.694-6.576h-1.57v8.486ZM21.612 154.796c-1.5 0-2.486.766-2.602 1.819h1.247c.128-.473.576-.808 1.309-.808.854 0 1.297.414 1.297 1.131v.518a72.97 72.97 0 0 0-1.674.087c-1.143.083-2.378.456-2.378 1.902 0 1.247.94 1.939 2.15 1.939 1.053 0 1.641-.53 1.882-1.011h.049v.87h1.218v-4.226c0-1.848-1.483-2.221-2.498-2.221Zm-.373 5.589c-.7 0-1.202-.31-1.202-.924 0-.625.514-.936 1.33-.994.303-.021 1.214-.083 1.5-.1v.581c0 .754-.605 1.437-1.628 1.437ZM26.257 153.901c.427 0 .783-.332.783-.742s-.356-.742-.783-.742c-.435 0-.792.332-.792.742s.357.742.792.742Zm.617 7.342v-6.365h-1.251v6.365h1.251ZM29.651 157.468c0-1.015.617-1.591 1.479-1.591.841 0 1.342.551 1.342 1.471v3.895h1.252v-4.048c0-1.571-.862-2.399-2.167-2.399-.958 0-1.583.443-1.877 1.123h-.079v-1.041h-1.202v6.365h1.252v-3.775ZM41.253 161.243l1.782-6.34h.066l1.782 6.34h1.301l2.353-8.486h-1.359l-1.649 6.563h-.075l-1.715-6.563h-1.343l-1.715 6.559h-.079l-1.649-6.559h-1.359l2.354 8.486h1.305ZM50.12 153.901c.427 0 .783-.332.783-.742s-.356-.742-.783-.742c-.435 0-.791.332-.791.742s.356.742.791.742Zm.618 7.342v-6.365h-1.252v6.365h1.252ZM53.514 157.468c0-1.015.617-1.591 1.479-1.591.841 0 1.343.551 1.343 1.471v3.895h1.251v-4.048c0-1.571-.862-2.399-2.167-2.399-.957 0-1.583.443-1.877 1.123h-.079v-1.041h-1.202v6.365h1.252v-3.775ZM61.486 161.367c1.16 0 1.612-.704 1.844-1.114h.095v.99h1.223v-8.486h-1.252v3.153h-.066c-.224-.398-.65-1.114-1.831-1.114-1.538 0-2.677 1.21-2.677 3.277 0 2.06 1.123 3.294 2.664 3.294Zm.282-1.065c-1.102 0-1.674-.965-1.674-2.241 0-1.26.559-2.2 1.674-2.2 1.073 0 1.657.874 1.657 2.2 0 1.33-.596 2.241-1.657 2.241ZM68.961 161.372c1.795 0 2.967-1.314 2.967-3.282 0-1.981-1.172-3.294-2.967-3.294-1.798 0-2.975 1.313-2.975 3.294 0 1.968 1.177 3.282 2.975 3.282Zm.004-1.045c-1.164 0-1.719-1.023-1.719-2.241 0-1.214.555-2.25 1.719-2.25 1.152 0 1.704 1.036 1.704 2.25 0 1.218-.552 2.241-1.704 2.241ZM75.628 161.243l1.285-4.583h.091l1.293 4.583h1.272l1.869-6.365h-1.293l-1.235 4.645h-.062l-1.235-4.645H76.32l-1.243 4.666h-.066l-1.239-4.666h-1.293l1.869 6.365h1.28Z" style="fill-rule:nonzero"/>
<path d="M4 165h404" style="fill:none;stroke:#7f8292;stroke-width:2px"/>
<path d="M370 160h6" style="fill:none;stroke:#c0c2ca;stroke-width:1.5px;stroke-linecap:round"/>
<path d="M384 154h6v6h-6z" style="fill:none;stroke:#c0c2ca;stroke-width:1.5px"/>
<path d="m398 154 6 6M398 160l6-6" style="fill:none;stroke:#c0c2ca;stroke-width:1.5px;stroke-linecap:round"/>
<path d="M694 152c0-2.208-1.792-4-4-4H430c-2.208 0-4 1.792-4 4v194c0 2.208 1.792 4 4 4h260c2.208 0 4-1.792 4-4V152Z" style="fill:#fff"/>
<path d="M694 152c0-2.208-1.792-4-4-4H430c-2.208 0-4 1.792-4 4v194c0 2.208 1.792 4 4 4h260c2.208 0 4-1.792 4-4V152Zm-2 0v194a2 2 0 0 1-2 2H430a2 2 0 0 1-2-2V152a2 2 0 0 1 2-2h260a2 2 0 0 1 2 2Z" style="fill:#7f8292"/>
<path d="M440.238 157c0-2.714-1.629-4.359-3.825-4.359-2.209 0-3.825 1.645-3.825 4.359 0 2.71 1.616 4.359 3.825 4.359 2.196 0 3.825-1.645 3.825-4.359Zm-1.281 0c0 2.064-1.085 3.182-2.544 3.182s-2.544-1.118-2.544-3.182 1.085-3.182 2.544-3.182 2.544 1.118 2.544 3.182ZM442.84 157.468c0-1.015.617-1.591 1.479-1.591.841 0 1.343.551 1.343 1.471v3.895h1.251v-4.048c0-1.571-.862-2.399-2.167-2.399-.957 0-1.583.443-1.877 1.123h-.079v-1.041h-1.202v6.365h1.252v-3.775ZM448.413 157.12h3.771v1.077h-3.771zM460.74 161.243l-3.049-8.486h-1.496l-3.05 8.486h1.367l.775-2.242h3.307l.775 2.242h1.371Zm-3.833-6.936h.067l1.247 3.613h-2.561l1.247-3.613ZM462.406 153.901c.427 0 .783-.332.783-.742s-.356-.742-.783-.742c-.435 0-.791.332-.791.742s.356.742.791.742Zm.617 7.342v-6.365h-1.251v6.365h1.251ZM465.8 161.243v-3.878c0-.833.646-1.434 1.52-1.434.253 0 .547.05.651.075v-1.194a5.431 5.431 0 0 0-.535-.029c-.741 0-1.379.423-1.611 1.111h-.067v-1.016h-1.21v6.365h1.252ZM474.916 161.243l1.782-6.34h.066l1.782 6.34h1.301l2.353-8.486h-1.359l-1.649 6.563h-.075l-1.715-6.563h-1.343l-1.715 6.559h-.079l-1.649-6.559h-1.359l2.353 8.486h1.306ZM483.783 153.901c.427 0 .783-.332.783-.742s-.356-.742-.783-.742c-.435 0-.791.332-.791.742s.356.742.791.742Zm.618 7.342v-6.365h-1.252v6.365h1.252ZM487.177 157.468c0-1.015.617-1.591 1.479-1.591.841 0 1.343.551 1.343 1.471v3.895h1.251v-4.048c0-1.571-.862-2.399-2.167-2.399-.957 0-1.583.443-1.877 1.123h-.079v-1.041h-1.202v6.365h1.252v-3.775ZM495.149 161.367c1.16 0 1.612-.704 1.844-1.114h.095v.99h1.223v-8.486h-1.252v3.153h-.066c-.224-.398-.65-1.114-1.831-1.114-1.538 0-2.677 1.21-2.677 3.277 0 2.06 1.123 3.294 2.664 3.294Zm.282-1.065c-1.102 0-1.674-.965-1.674-2.241 0-1.26.559-2.2 1.674-2.2 1.073 0 1.657.874 1.657 2.2 0 1.33-.596 2.241-1.657 2.241ZM502.624 161.372c1.795 0 2.967-1.314 2.967-3.282 0-1.981-1.172-3.294-2.967-3.294-1.798 0-2.975 1.313-2.975 3.294 0 1.968 1.177 3.282 2.975 3.282Zm.004-1.045c-1.164 0-1.719-1.023-1.719-2.241 0-1.214.555-2.25 1.719-2.25 1.152 0 1.703 1.036 1.703 2.25 0 1.218-.551 2.241-1.703 2.241ZM509.291 161.243l1.285-4.583h.091l1.293 4.583h1.272l1.869-6.365h-1.293l-1.235 4.645h-.062l-1.235-4.645h-1.293l-1.243 4.666h-.066l-1.239-4.666h-1.293l1.869 6.365h1.28Z" style="fill-rule:nonzero"/>
<path d="M428 165h264" style="fill:none;stroke:#7f8292;stroke-width:2px"/>
<path d="M654 160h6" style="fill:none;stroke:#c0c2ca;stroke-width:1.5px;stroke-linecap:round"/>
<path d="M668 154h6v6h-6z" style="fill:none;stroke:#c0c2ca;stroke-width:1.5px"/>
<path d="m682 154 6 6M682 160l6-6" style="fill:none;stroke:#c0c2ca;stroke-width:1.5px;stroke-linecap:round"/>
<path d="M132 230c0-4.415-3.585-8-8-8H20c-4.415 0-8 3.585-8 8v36c0 4.415 3.585 8 8 8h104c4.415 0 8-3.585 8-8v-36Z" style="fill:#c0c2ca;fill-opacity:.3"/>
<path d="M16.431 273.16A7.958 7.958 0 0 0 20 274h.3v-2c-.108 0-.208.007-.3.02V272a5.96 5.96 0 0 1-2.675-.629l-.894 1.789Zm9.869.84v-2h-4v2h4Zm6 0v-2h-4v2h4Zm6 0v-2h-4v2h4Zm6 0v-2h-4v2h4Zm6 0v-2h-4v2h4Zm5.999 0v-2H52.3v2h3.999Zm6 0v-2h-4v2h4Zm6 0v-2h-4v2h4Zm6 0v-2h-4v2h4Zm6 0v-2h-4v2h4Zm6 0v-2h-4v2h4Zm6 0v-2h-4v2h4Zm2 0h4v-2h-4v2Zm10 0v-2h-4v2h4Zm6 0v-2h-4v2h4Zm6 0v-2h-4v2h4Zm6 0v-2h-4v2h4Zm5.796-1.128-1.026-1.716c-.838.5-1.807.802-2.844.84l.074 1.998a7.934 7.934 0 0 0 3.796-1.122Zm-115.588-4.066a8.022 8.022 0 0 0 2.264 3.247l1.308-1.513a6.025 6.025 0 0 1-1.7-2.437l-1.872.703Zm119.175-.568-1.92-.559a5.999 5.999 0 0 1-1.512 2.554l1.417 1.411a8 8 0 0 0 2.015-3.406ZM12 262.866V266c0 .292.016.581.047.865l1.988-.214A6.088 6.088 0 0 1 14 266v-3.134h-2Zm120-.598h-2V266c0 .068-.001.135-.003.202l1.998.066c.004-.089.005-.178.005-.268v-3.732Zm-120-5.402v4h2v-4h-2Zm120-.598h-2v4h2v-4Zm-120-5.402v4h2v-4h-2Zm120-.598h-2v4h2v-4Zm-120-5.401v4h2v-4h-2Zm120-.599h-2v4h2v-4Zm-120-5.402v4h2v-4h-2Zm120-.598h-2v4h2v-4Zm-120-5.402v4h2v-4h-2Zm120-.598h-2v4h2v-4Zm-119.395-5.322A7.96 7.96 0 0 0 12 230v.866h.638C12.284 231.45 12 232 12 232l1.134-1.134H14V230c0-.811.161-1.584.453-2.289l-1.848-.765ZM132 230.268V232l-1.735-1.732H132Zm-1.735 0H130v-.265l.265.265Zm.756-4.103A7.958 7.958 0 0 1 132 230h-2a5.958 5.958 0 0 0-.733-2.874l1.754-.961Zm-114.35-3.44a8.03 8.03 0 0 0-3.079 2.488l1.601 1.198a6.034 6.034 0 0 1 2.312-1.869l-.834-1.817Zm109.852-.318-.631 1.898c.964.32 1.82.88 2.498 1.607l1.462-1.363a7.999 7.999 0 0 0-3.329-2.142ZM22.567 222H20c-.487 0-.963.044-1.426.127l.355 1.968A6.095 6.095 0 0 1 20 224h2.567v-2Zm98 0v2H124c.143 0 .286.005.427.015l.139-1.995A8.165 8.165 0 0 0 124 222h-3.433Zm-62 0h-4v2h4v-2Zm6 0h-4v2h4v-2Zm-30 0h-4v2h4v-2Zm6 0h-4v2h4v-2Zm12 0h-4v2h4v-2Zm18 0h-4v2h4v-2Zm6 0h-4v2h4v-2Zm30 0h-4v2h4v-2Zm6 0h-4v2h4v-2Zm6 0h-4v2h4v-2Zm-90 0h-4v2h4v-2Zm18 0h-4v2h4v-2Zm36 0h-4v2h4v-2Zm6 0h-4v2h4v-2Zm6 0h-4v2h4v-2Zm6 0h-4v2h4v-2Z" style="fill:#7f8292"/>
<path d="M.67-.469C.648-.626.527-.717.371-.717c-.185 0-.323.135-.323.363 0 .228.136.364.323.364.168 0 .28-.109.299-.244H.541c-.016.082-.084.129-.168.129-.115 0-.198-.086-.198-.249 0-.159.082-.249.198-.249.086 0 .154.049.168.134H.67Z" style="fill-rule:nonzero" transform="matrix(14 0 0 14 42.668 238.95)"/>
<path d="M.291.01c.155 0 .254-.109.254-.273 0-.164-.099-.274-.254-.274s-.254.11-.254.274c0 .164.099.273.254.273Zm.001-.099c-.087 0-.129-.077-.129-.174 0-.097.042-.176.129-.176.085 0 .127.079.127.176 0 .097-.042.174-.127.174Z" style="fill-rule:nonzero" transform="matrix(14 0 0 14 52.661 238.95)"/>
<path d="M.184 0v-.323c0-.065.044-.11.098-.11.053 0 .09.036.09.091V0h.121v-.331c0-.06.036-.102.097-.102.051 0 .091.03.091.096V0h.124v-.356c0-.118-.068-.181-.165-.181-.078 0-.136.038-.16.097H.474C.454-.5.403-.537.331-.537a.147.147 0 0 0-.146.097H.179v-.09H.06V0h.124Z" style="fill-rule:nonzero" transform="matrix(14 0 0 14 60.816 238.95)"/>
<path d="M.184 0v-.323c0-.065.044-.11.098-.11.053 0 .09.036.09.091V0h.121v-.331c0-.06.036-.102.097-.102.051 0 .091.03.091.096V0h.124v-.356c0-.118-.068-.181-.165-.181-.078 0-.136.038-.16.097H.474C.454-.5.403-.537.331-.537a.147.147 0 0 0-.146.097H.179v-.09H.06V0h.124Z" style="fill-rule:nonzero" transform="matrix(14 0 0 14 72.911 238.95)"/>
<path d="M.291.01c.155 0 .254-.109.254-.273 0-.164-.099-.274-.254-.274s-.254.11-.254.274c0 .164.099.273.254.273Zm.001-.099c-.087 0-.129-.077-.129-.174 0-.097.042-.176.129-.176.085 0 .127.079.127.176 0 .097-.042.174-.127.174Z" style="fill-rule:nonzero" transform="matrix(14 0 0 14 85.007 238.95)"/>
<path d="M.184-.311c0-.077.047-.121.113-.121.065 0 .104.042.104.113V0h.124v-.338c0-.127-.072-.199-.182-.199C.264-.537.21-.5.185-.44H.179v-.09H.06V0h.124v-.311Z" style="fill-rule:nonzero" transform="matrix(14 0 0 14 93.162 238.95)"/>
<path d="M.573-.513C.57-.632.468-.717.318-.717c-.148 0-.26.083-.259.208 0 .102.072.161.188.19l.081.021c.076.02.127.044.127.098 0 .061-.058.102-.142.102-.08 0-.142-.036-.148-.11H.04c.006.14.11.219.274.219.17 0 .268-.085.268-.21 0-.122-.102-.178-.207-.203L.308-.419C.25-.432.187-.457.188-.516c0-.054.048-.093.128-.093.077 0 .128.035.134.096h.123Z" style="fill-rule:nonzero" transform="matrix(14 0 0 14 43.674 252.95)"/>
<path d="M.184-.311c0-.077.048-.121.115-.121.066 0 .105.041.105.113V0h.124v-.338c0-.128-.073-.199-.182-.199-.082 0-.133.037-.158.097H.182v-.267H.06V0h.124v-.311Z" style="fill-rule:nonzero" transform="matrix(14 0 0 14 52.39 252.95)"/>
<path d="M.291.01c.155 0 .254-.109.254-.273 0-.164-.099-.274-.254-.274s-.254.11-.254.274c0 .164.099.273.254.273Zm.001-.099c-.087 0-.129-.077-.129-.174 0-.097.042-.176.129-.176.085 0 .127.079.127.176 0 .097-.042.174-.127.174Z" style="fill-rule:nonzero" transform="matrix(14 0 0 14 60.608 252.95)"/>
<path d="M.184 0v-.312c0-.067.051-.115.12-.115.021 0 .047.003.058.007v-.115a.319.319 0 0 0-.045-.003.133.133 0 0 0-.131.096H.181V-.53H.06V0h.124Z" style="fill-rule:nonzero" transform="matrix(14 0 0 14 68.763 252.95)"/>
<path d="M.277-.097C.245-.098.22-.108.22-.16v-.274h.104V-.53H.22v-.127H.095v.127H.02v.096h.075v.295c0 .1.072.146.166.146a.51.51 0 0 0 .07-.005V-.1l-.054.003Z" style="fill-rule:nonzero" transform="matrix(14 0 0 14 74.434 252.95)"/>
<path d="M.291.01c.133 0 .218-.079.227-.191H.4c-.012.057-.053.09-.108.09-.078 0-.129-.065-.129-.174 0-.108.052-.172.129-.172.061 0 .098.039.108.09h.118C.51-.462.42-.537.29-.537c-.155 0-.253.112-.253.274 0 .16.096.273.254.273Z" style="fill-rule:nonzero" transform="matrix(14 0 0 14 79.399 252.95)"/>
<path d="M.398-.223c0 .081-.058.121-.113.121-.061 0-.101-.042-.101-.11V-.53H.06v.337c0 .128.073.2.177.2.08 0 .135-.042.159-.101h.006V0h.12v-.53H.398v.307Z" style="fill-rule:nonzero" transform="matrix(14 0 0 14 87.134 252.95)"/>
<path d="M.277-.097C.245-.098.22-.108.22-.16v-.274h.104V-.53H.22v-.127H.095v.127H.02v.096h.075v.295c0 .1.072.146.166.146a.51.51 0 0 0 .07-.005V-.1l-.054.003Z" style="fill-rule:nonzero" transform="matrix(14 0 0 14 95.284 252.95)"/>
<path d="M.528 0v-.107H.193v-.194h.308v-.106H.193V-.6h.332v-.107H.066V0h.462Z" style="fill-rule:nonzero" transform="matrix(14 0 0 14 48.559 266.95)"/>
<path d="M.184 0v-.323c0-.065.044-.11.098-.11.053 0 .09.036.09.091V0h.121v-.331c0-.06.036-.102.097-.102.051 0 .091.03.091.096V0h.124v-.356c0-.118-.068-.181-.165-.181-.078 0-.136.038-.16.097H.474C.454-.5.403-.537.331-.537a.147.147 0 0 0-.146.097H.179v-.09H.06V0h.124Z" style="fill-rule:nonzero" transform="matrix(14 0 0 14 56.704 266.95)"/>
<path d="M.123-.606c.039 0 .071-.03.071-.067a.07.07 0 0 0-.071-.068c-.04 0-.073.03-.073.068 0 .037.033.067.073.067ZM.184 0v-.53H.06V0h.124Z" style="fill-rule:nonzero" transform="matrix(14 0 0 14 68.8 266.95)"/>
<path d="M.277-.097C.245-.098.22-.108.22-.16v-.274h.104V-.53H.22v-.127H.095v.127H.02v.096h.075v.295c0 .1.072.146.166.146a.51.51 0 0 0 .07-.005V-.1l-.054.003Z" style="fill-rule:nonzero" transform="matrix(14 0 0 14 72.218 266.95)"/>
<path d="M.277-.097C.245-.098.22-.108.22-.16v-.274h.104V-.53H.22v-.127H.095v.127H.02v.096h.075v.295c0 .1.072.146.166.146a.51.51 0 0 0 .07-.005V-.1l-.054.003Z" style="fill-rule:nonzero" transform="matrix(14 0 0 14 77.26 266.95)"/>
<path d="M.53-.269c0-.187-.112-.268-.242-.268-.152 0-.251.111-.251.275 0 .166.098.272.258.272.123 0 .208-.06.23-.152H.404C.387-.11.35-.086.296-.086.215-.086.162-.14.161-.231H.53v-.038ZM.161-.315A.128.128 0 0 1 .29-.44c.072 0 .121.053.121.125h-.25Z" style="fill-rule:nonzero" transform="matrix(14 0 0 14 82.224 266.95)"/>
<path d="M.184 0v-.312c0-.067.051-.115.12-.115.021 0 .047.003.058.007v-.115a.319.319 0 0 0-.045-.003.133.133 0 0 0-.131.096H.181V-.53H.06V0h.124Z" style="fill-rule:nonzero" transform="matrix(14 0 0 14 90.172 266.95)"/>
<path d="M266 332c0-4.415-3.585-8-8-8H154c-4.415 0-8 3.585-8 8v36c0 4.415 3.585 8 8 8h104c4.415 0 8-3.585 8-8v-36Z" style="fill:#c0c2ca;fill-opacity:.3"/>
<path d="M150.431 375.16A7.958 7.958 0 0 0 154 376h.3v-2c-.108 0-.208.007-.3.02V374a5.96 5.96 0 0 1-2.675-.629l-.894 1.789Zm9.869.84v-2h-4v2h4Zm6 0v-2h-4v2h4Zm6 0v-2h-4v2h4Zm6 0v-2h-4v2h4Zm6 0v-2h-4v2h4Zm5.999 0v-2H186.3v2h3.999Zm6 0v-2h-4v2h4Zm6 0v-2h-4v2h4Zm6 0v-2h-4v2h4Zm6 0v-2h-4v2h4Zm6 0v-2h-4v2h4Zm6 0v-2h-4v2h4Zm6 0v-2h-4v2h4Zm6 0v-2h-4v2h4Zm2 0h4v-2h-4v2Zm10 0v-2h-4v2h4Zm6 0v-2h-4v2h4Zm5.796-1.128-1.026-1.716c-.838.5-1.807.802-2.844.84l.074 1.998a7.934 7.934 0 0 0 3.796-1.122Zm-115.588-4.066a8.022 8.022 0 0 0 2.264 3.247l1.308-1.513a6.025 6.025 0 0 1-1.7-2.437l-1.872.703Zm119.175-.568-1.92-.559a5.999 5.999 0 0 1-1.512 2.554l1.417 1.411a8 8 0 0 0 2.015-3.406ZM146 364.866V368c0 .292.016.581.047.865l1.988-.214A6.088 6.088 0 0 1 148 368v-3.134h-2Zm120-.598h-2V368c0 .068-.001.135-.003.202l1.998.066c.004-.089.005-.178.005-.268v-3.732Zm-120-5.402v4h2v-4h-2Zm120-.598h-2v4h2v-4Zm-120-5.402v4h2v-4h-2Zm120-.598h-2v4h2v-4Zm-120-5.401v4h2v-4h-2Zm120-.599h-2v4h2v-4Zm-120-5.402v4h2v-4h-2Zm120-.598h-2v4h2v-4Zm-120-5.402v4h2v-4h-2Zm120-.598h-2v4h2v-4Zm-119.395-5.322A7.96 7.96 0 0 0 146 332v.866h.638A21.522 21.522 0 0 0 146 334a2 2 0 0 0 1.803-1.134H148V332c0-.811.161-1.584.453-2.289l-1.848-.765ZM266 332.268V334l-1.735-1.732H266Zm-1.735 0H264v-.265l.265.265Zm.756-4.103A7.958 7.958 0 0 1 266 332h-2a5.958 5.958 0 0 0-.733-2.874l1.754-.961Zm-114.35-3.44a8.03 8.03 0 0 0-3.079 2.488l1.601 1.198a6.034 6.034 0 0 1 2.312-1.869l-.834-1.817Zm109.852-.318-.631 1.898c.964.32 1.82.88 2.498 1.607l1.462-1.363a7.999 7.999 0 0 0-3.329-2.142ZM156.567 324H154c-.487 0-.963.044-1.426.127l.355 1.968A6.095 6.095 0 0 1 154 326h2.567v-2Zm98 0v2H258c.143 0 .286.005.427.015l.139-1.995A8.165 8.165 0 0 0 258 324h-3.433Zm-86 0h-4v2h4v-2Zm-6 0h-4v2h4v-2Zm12 0h-4v2h4v-2Zm6 0h-4v2h4v-2Zm12 0h-4v2h4v-2Zm6 0h-4v2h4v-2Zm30 0h-4v2h4v-2Zm6 0h-4v2h4v-2Zm12 0h-4v2h4v-2Zm6 0h-4v2h4v-2Zm-66 0h-4v2h4v-2Zm18 0h-4v2h4v-2Zm6 0h-4v2h4v-2Zm6 0h-4v2h4v-2Zm6 0h-4v2h4v-2Zm18 0h-4v2h4v-2Z" style="fill:#7f8292"/>
<path d="M.67-.469C.648-.626.527-.717.371-.717c-.185 0-.323.135-.323.363 0 .228.136.364.323.364.168 0 .28-.109.299-.244H.541c-.016.082-.084.129-.168.129-.115 0-.198-.086-.198-.249 0-.159.082-.249.198-.249.086 0 .154.049.168.134H.67Z" style="fill-rule:nonzero" transform="matrix(14 0 0 14 176.668 340.95)"/>
<path d="M.291.01c.155 0 .254-.109.254-.273 0-.164-.099-.274-.254-.274s-.254.11-.254.274c0 .164.099.273.254.273Zm.001-.099c-.087 0-.129-.077-.129-.174 0-.097.042-.176.129-.176.085 0 .127.079.127.176 0 .097-.042.174-.127.174Z" style="fill-rule:nonzero" transform="matrix(14 0 0 14 186.661 340.95)"/>
<path d="M.184 0v-.323c0-.065.044-.11.098-.11.053 0 .09.036.09.091V0h.121v-.331c0-.06.036-.102.097-.102.051 0 .091.03.091.096V0h.124v-.356c0-.118-.068-.181-.165-.181-.078 0-.136.038-.16.097H.474C.454-.5.403-.537.331-.537a.147.147 0 0 0-.146.097H.179v-.09H.06V0h.124Z" style="fill-rule:nonzero" transform="matrix(14 0 0 14 194.816 340.95)"/>
<path d="M.184 0v-.323c0-.065.044-.11.098-.11.053 0 .09.036.09.091V0h.121v-.331c0-.06.036-.102.097-.102.051 0 .091.03.091.096V0h.124v-.356c0-.118-.068-.181-.165-.181-.078 0-.136.038-.16.097H.474C.454-.5.403-.537.331-.537a.147.147 0 0 0-.146.097H.179v-.09H.06V0h.124Z" style="fill-rule:nonzero" transform="matrix(14 0 0 14 206.911 340.95)"/>
<path d="M.291.01c.155 0 .254-.109.254-.273 0-.164-.099-.274-.254-.274s-.254.11-.254.274c0 .164.099.273.254.273Zm.001-.099c-.087 0-.129-.077-.129-.174 0-.097.042-.176.129-.176.085 0 .127.079.127.176 0 .097-.042.174-.127.174Z" style="fill-rule:nonzero" transform="matrix(14 0 0 14 219.007 340.95)"/>
<path d="M.184-.311c0-.077.047-.121.113-.121.065 0 .104.042.104.113V0h.124v-.338c0-.127-.072-.199-.182-.199C.264-.537.21-.5.185-.44H.179v-.09H.06V0h.124v-.311Z" style="fill-rule:nonzero" transform="matrix(14 0 0 14 227.162 340.95)"/>
<path d="M.573-.513C.57-.632.468-.717.318-.717c-.148 0-.26.083-.259.208 0 .102.072.161.188.19l.081.021c.076.02.127.044.127.098 0 .061-.058.102-.142.102-.08 0-.142-.036-.148-.11H.04c.006.14.11.219.274.219.17 0 .268-.085.268-.21 0-.122-.102-.178-.207-.203L.308-.419C.25-.432.187-.457.188-.516c0-.054.048-.093.128-.093.077 0 .128.035.134.096h.123Z" style="fill-rule:nonzero" transform="matrix(14 0 0 14 177.674 354.95)"/>
<path d="M.184-.311c0-.077.048-.121.115-.121.066 0 .105.041.105.113V0h.124v-.338c0-.128-.073-.199-.182-.199-.082 0-.133.037-.158.097H.182v-.267H.06V0h.124v-.311Z" style="fill-rule:nonzero" transform="matrix(14 0 0 14 186.39 354.95)"/>
<path d="M.291.01c.155 0 .254-.109.254-.273 0-.164-.099-.274-.254-.274s-.254.11-.254.274c0 .164.099.273.254.273Zm.001-.099c-.087 0-.129-.077-.129-.174 0-.097.042-.176.129-.176.085 0 .127.079.127.176 0 .097-.042.174-.127.174Z" style="fill-rule:nonzero" transform="matrix(14 0 0 14 194.608 354.95)"/>
<path d="M.184 0v-.312c0-.067.051-.115.12-.115.021 0 .047.003.058.007v-.115a.319.319 0 0 0-.045-.003.133.133 0 0 0-.131.096H.181V-.53H.06V0h.124Z" style="fill-rule:nonzero" transform="matrix(14 0 0 14 202.763 354.95)"/>
<path d="M.277-.097C.245-.098.22-.108.22-.16v-.274h.104V-.53H.22v-.127H.095v.127H.02v.096h.075v.295c0 .1.072.146.166.146a.51.51 0 0 0 .07-.005V-.1l-.054.003Z" style="fill-rule:nonzero" transform="matrix(14 0 0 14 208.434 354.95)"/>
<path d="M.291.01c.133 0 .218-.079.227-.191H.4c-.012.057-.053.09-.108.09-.078 0-.129-.065-.129-.174 0-.108.052-.172.129-.172.061 0 .098.039.108.09h.118C.51-.462.42-.537.29-.537c-.155 0-.253.112-.253.274 0 .16.096.273.254.273Z" style="fill-rule:nonzero" transform="matrix(14 0 0 14 213.399 354.95)"/>
<path d="M.398-.223c0 .081-.058.121-.113.121-.061 0-.101-.042-.101-.11V-.53H.06v.337c0 .128.073.2.177.2.08 0 .135-.042.159-.101h.006V0h.12v-.53H.398v.307Z" style="fill-rule:nonzero" transform="matrix(14 0 0 14 221.134 354.95)"/>
<path d="M.277-.097C.245-.098.22-.108.22-.16v-.274h.104V-.53H.22v-.127H.095v.127H.02v.096h.075v.295c0 .1.072.146.166.146a.51.51 0 0 0 .07-.005V-.1l-.054.003Z" style="fill-rule:nonzero" transform="matrix(14 0 0 14 229.284 354.95)"/>
<path d="M.505 0v-.107H.193v-.6H.066V0h.439Z" style="fill-rule:nonzero" transform="matrix(14 0 0 14 179.68 368.95)"/>
<path d="M.123-.606c.039 0 .071-.03.071-.067a.07.07 0 0 0-.071-.068c-.04 0-.073.03-.073.068 0 .037.033.067.073.067ZM.184 0v-.53H.06V0h.124Z" style="fill-rule:nonzero" transform="matrix(14 0 0 14 187.26 368.95)"/>
<path d="M.478-.379C.469-.475.391-.537.265-.537c-.13 0-.215.064-.214.162-.001.076.051.127.149.148l.085.018c.053.011.077.031.077.062 0 .039-.039.063-.099.063-.058 0-.093-.022-.101-.067H.036C.048-.05.128.01.263.01c.139 0 .226-.069.226-.168C.489-.234.44-.281.34-.302L.25-.321C.196-.334.174-.354.174-.382c0-.036.039-.063.093-.063.052 0 .086.026.093.066h.118Z" style="fill-rule:nonzero" transform="matrix(14 0 0 14 190.678 368.95)"/>
<path d="M.277-.097C.245-.098.22-.108.22-.16v-.274h.104V-.53H.22v-.127H.095v.127H.02v.096h.075v.295c0 .1.072.146.166.146a.51.51 0 0 0 .07-.005V-.1l-.054.003Z" style="fill-rule:nonzero" transform="matrix(14 0 0 14 198.021 368.95)"/>
<path d="M.53-.269c0-.187-.112-.268-.242-.268-.152 0-.251.111-.251.275 0 .166.098.272.258.272.123 0 .208-.06.23-.152H.404C.387-.11.35-.086.296-.086.215-.086.162-.14.161-.231H.53v-.038ZM.161-.315A.128.128 0 0 1 .29-.44c.072 0 .121.053.121.125h-.25Z" style="fill-rule:nonzero" transform="matrix(14 0 0 14 202.986 368.95)"/>
<path d="M.184-.311c0-.077.047-.121.113-.121.065 0 .104.042.104.113V0h.124v-.338c0-.127-.072-.199-.182-.199C.264-.537.21-.5.185-.44H.179v-.09H.06V0h.124v-.311Z" style="fill-rule:nonzero" transform="matrix(14 0 0 14 210.933 368.95)"/>
<path d="M.53-.269c0-.187-.112-.268-.242-.268-.152 0-.251.111-.251.275 0 .166.098.272.258.272.123 0 .208-.06.23-.152H.404C.387-.11.35-.086.296-.086.215-.086.162-.14.161-.231H.53v-.038ZM.161-.315A.128.128 0 0 1 .29-.44c.072 0 .121.053.121.125h-.25Z" style="fill-rule:nonzero" transform="matrix(14 0 0 14 219.103 368.95)"/>
<path d="M.184 0v-.312c0-.067.051-.115.12-.115.021 0 .047.003.058.007v-.115a.319.319 0 0 0-.045-.003.133.133 0 0 0-.131.096H.181V-.53H.06V0h.124Z" style="fill-rule:nonzero" transform="matrix(14 0 0 14 227.051 368.95)"/>
<path d="M400 292c0-4.415-3.585-8-8-8H288c-4.415 0-8 3.585-8 8v36c0 4.415 3.585 8 8 8h104c4.415 0 8-3.585 8-8v-36Z" style="fill:#c0c2ca;fill-opacity:.3"/>
<path d="M284.431 335.16A7.958 7.958 0 0 0 288 336h.3v-2c-.108 0-.208.007-.3.02V334a5.96 5.96 0 0 1-2.675-.629l-.894 1.789Zm9.869.84v-2h-4v2h4Zm6 0v-2h-4v2h4Zm6 0v-2h-4v2h4Zm6 0v-2h-4v2h4Zm2 0h4v-2h-4v2Zm6 0h3.999v-2H320.3v2Zm9.999 0v-2h-4v2h4Zm6 0v-2h-4v2h4Zm6 0v-2h-4v2h4Zm6 0v-2h-4v2h4Zm6 0v-2h-4v2h4Zm6 0v-2h-4v2h4Zm2 0h4v-2h-4v2Zm10 0v-2h-4v2h4Zm2 0h4v-2h-4v2Zm10 0v-2h-4v2h4Zm6 0v-2h-4v2h4Zm5.796-1.128-1.026-1.716c-.838.5-1.807.802-2.844.84l.074 1.998a7.934 7.934 0 0 0 3.796-1.122Zm-115.588-4.066a8.022 8.022 0 0 0 2.264 3.247l1.308-1.513a6.025 6.025 0 0 1-1.7-2.437l-1.872.703Zm119.175-.568-1.92-.559a5.999 5.999 0 0 1-1.512 2.554l1.417 1.411a8 8 0 0 0 2.015-3.406ZM280 324.866V328c0 .292.016.581.047.865l1.988-.214A6.088 6.088 0 0 1 282 328v-3.134h-2Zm120-.598h-2V328c0 .068-.001.135-.003.202l1.998.066c.004-.089.005-.178.005-.268v-3.732Zm-120-5.402v4h2v-4h-2Zm120-.598h-2v4h2v-4Zm-120-5.402v4h2v-4h-2Zm120-.598h-2v4h2v-4Zm-120-5.401v4h2v-4h-2Zm120-.599h-2v4h2v-4Zm-120-5.402v4h2v-4h-2Zm120-.598h-2v4h2v-4Zm-120-5.402v4h2v-4h-2Zm120-.598h-2v4h2v-4Zm-119.395-5.322A7.96 7.96 0 0 0 280 292v.866h.638C280.284 293.45 280 294 280 294l1.134-1.134H282V292c0-.811.161-1.584.453-2.289l-1.848-.765ZM400 292.268V294l-1.735-1.732H400Zm-1.735 0H398v-.265l.265.265Zm.756-4.103A7.958 7.958 0 0 1 400 292h-2a5.958 5.958 0 0 0-.733-2.874l1.754-.961Zm-114.35-3.44a8.03 8.03 0 0 0-3.079 2.488l1.601 1.198a6.034 6.034 0 0 1 2.312-1.869l-.834-1.817Zm109.852-.318-.631 1.898c.964.32 1.82.88 2.498 1.607l1.462-1.363a7.999 7.999 0 0 0-3.329-2.142ZM290.567 284H288c-.487 0-.963.044-1.426.127l.355 1.968A6.095 6.095 0 0 1 288 286h2.567v-2Zm98 0v2H392c.143 0 .286.005.427.015l.139-1.995A8.165 8.165 0 0 0 392 284h-3.433Zm-50 0h-4v2h4v-2Zm-42 0h-4v2h4v-2Zm6 0h-4v2h4v-2Zm6 0h-4v2h4v-2Zm18 0h-4v2h4v-2Zm6 0h-4v2h4v-2Zm12 0h-4v2h4v-2Zm36 0h-4v2h4v-2Zm6 0h-4v2h4v-2Zm-72 0h-4v2h4v-2Zm6 0h-4v2h4v-2Zm30 0h-4v2h4v-2Zm6 0h-4v2h4v-2Zm6 0h-4v2h4v-2Zm6 0h-4v2h4v-2Zm6 0h-4v2h4v-2Z" style="fill:#7f8292"/>
<path d="M.67-.469C.648-.626.527-.717.371-.717c-.185 0-.323.135-.323.363 0 .228.136.364.323.364.168 0 .28-.109.299-.244H.541c-.016.082-.084.129-.168.129-.115 0-.198-.086-.198-.249 0-.159.082-.249.198-.249.086 0 .154.049.168.134H.67Z" style="fill-rule:nonzero" transform="matrix(14 0 0 14 310.668 300.95)"/>
<path d="M.291.01c.155 0 .254-.109.254-.273 0-.164-.099-.274-.254-.274s-.254.11-.254.274c0 .164.099.273.254.273Zm.001-.099c-.087 0-.129-.077-.129-.174 0-.097.042-.176.129-.176.085 0 .127.079.127.176 0 .097-.042.174-.127.174Z" style="fill-rule:nonzero" transform="matrix(14 0 0 14 320.661 300.95)"/>
<path d="M.184 0v-.323c0-.065.044-.11.098-.11.053 0 .09.036.09.091V0h.121v-.331c0-.06.036-.102.097-.102.051 0 .091.03.091.096V0h.124v-.356c0-.118-.068-.181-.165-.181-.078 0-.136.038-.16.097H.474C.454-.5.403-.537.331-.537a.147.147 0 0 0-.146.097H.179v-.09H.06V0h.124Z" style="fill-rule:nonzero" transform="matrix(14 0 0 14 328.816 300.95)"/>
<path d="M.184 0v-.323c0-.065.044-.11.098-.11.053 0 .09.036.09.091V0h.121v-.331c0-.06.036-.102.097-.102.051 0 .091.03.091.096V0h.124v-.356c0-.118-.068-.181-.165-.181-.078 0-.136.038-.16.097H.474C.454-.5.403-.537.331-.537a.147.147 0 0 0-.146.097H.179v-.09H.06V0h.124Z" style="fill-rule:nonzero" transform="matrix(14 0 0 14 340.911 300.95)"/>
<path d="M.291.01c.155 0 .254-.109.254-.273 0-.164-.099-.274-.254-.274s-.254.11-.254.274c0 .164.099.273.254.273Zm.001-.099c-.087 0-.129-.077-.129-.174 0-.097.042-.176.129-.176.085 0 .127.079.127.176 0 .097-.042.174-.127.174Z" style="fill-rule:nonzero" transform="matrix(14 0 0 14 353.007 300.95)"/>
<path d="M.184-.311c0-.077.047-.121.113-.121.065 0 .104.042.104.113V0h.124v-.338c0-.127-.072-.199-.182-.199C.264-.537.21-.5.185-.44H.179v-.09H.06V0h.124v-.311Z" style="fill-rule:nonzero" transform="matrix(14 0 0 14 361.162 300.95)"/>
<path d="M.573-.513C.57-.632.468-.717.318-.717c-.148 0-.26.083-.259.208 0 .102.072.161.188.19l.081.021c.076.02.127.044.127.098 0 .061-.058.102-.142.102-.08 0-.142-.036-.148-.11H.04c.006.14.11.219.274.219.17 0 .268-.085.268-.21 0-.122-.102-.178-.207-.203L.308-.419C.25-.432.187-.457.188-.516c0-.054.048-.093.128-.093.077 0 .128.035.134.096h.123Z" style="fill-rule:nonzero" transform="matrix(14 0 0 14 311.674 314.95)"/>
<path d="M.184-.311c0-.077.048-.121.115-.121.066 0 .105.041.105.113V0h.124v-.338c0-.128-.073-.199-.182-.199-.082 0-.133.037-.158.097H.182v-.267H.06V0h.124v-.311Z" style="fill-rule:nonzero" transform="matrix(14 0 0 14 320.39 314.95)"/>
<path d="M.291.01c.155 0 .254-.109.254-.273 0-.164-.099-.274-.254-.274s-.254.11-.254.274c0 .164.099.273.254.273Zm.001-.099c-.087 0-.129-.077-.129-.174 0-.097.042-.176.129-.176.085 0 .127.079.127.176 0 .097-.042.174-.127.174Z" style="fill-rule:nonzero" transform="matrix(14 0 0 14 328.608 314.95)"/>
<path d="M.184 0v-.312c0-.067.051-.115.12-.115.021 0 .047.003.058.007v-.115a.319.319 0 0 0-.045-.003.133.133 0 0 0-.131.096H.181V-.53H.06V0h.124Z" style="fill-rule:nonzero" transform="matrix(14 0 0 14 336.763 314.95)"/>
<path d="M.277-.097C.245-.098.22-.108.22-.16v-.274h.104V-.53H.22v-.127H.095v.127H.02v.096h.075v.295c0 .1.072.146.166.146a.51.51 0 0 0 .07-.005V-.1l-.054.003Z" style="fill-rule:nonzero" transform="matrix(14 0 0 14 342.434 314.95)"/>
<path d="M.291.01c.133 0 .218-.079.227-.191H.4c-.012.057-.053.09-.108.09-.078 0-.129-.065-.129-.174 0-.108.052-.172.129-.172.061 0 .098.039.108.09h.118C.51-.462.42-.537.29-.537c-.155 0-.253.112-.253.274 0 .16.096.273.254.273Z" style="fill-rule:nonzero" transform="matrix(14 0 0 14 347.399 314.95)"/>
<path d="M.398-.223c0 .081-.058.121-.113.121-.061 0-.101-.042-.101-.11V-.53H.06v.337c0 .128.073.2.177.2.08 0 .135-.042.159-.101h.006V0h.12v-.53H.398v.307Z" style="fill-rule:nonzero" transform="matrix(14 0 0 14 355.134 314.95)"/>
<path d="M.277-.097C.245-.098.22-.108.22-.16v-.274h.104V-.53H.22v-.127H.095v.127H.02v.096h.075v.295c0 .1.072.146.166.146a.51.51 0 0 0 .07-.005V-.1l-.054.003Z" style="fill-rule:nonzero" transform="matrix(14 0 0 14 363.284 314.95)"/>
<path d="M.505 0v-.107H.193v-.6H.066V0h.439Z" style="fill-rule:nonzero" transform="matrix(14 0 0 14 313.68 328.95)"/>
<path d="M.123-.606c.039 0 .071-.03.071-.067a.07.07 0 0 0-.071-.068c-.04 0-.073.03-.073.068 0 .037.033.067.073.067ZM.184 0v-.53H.06V0h.124Z" style="fill-rule:nonzero" transform="matrix(14 0 0 14 321.26 328.95)"/>
<path d="M.478-.379C.469-.475.391-.537.265-.537c-.13 0-.215.064-.214.162-.001.076.051.127.149.148l.085.018c.053.011.077.031.077.062 0 .039-.039.063-.099.063-.058 0-.093-.022-.101-.067H.036C.048-.05.128.01.263.01c.139 0 .226-.069.226-.168C.489-.234.44-.281.34-.302L.25-.321C.196-.334.174-.354.174-.382c0-.036.039-.063.093-.063.052 0 .086.026.093.066h.118Z" style="fill-rule:nonzero" transform="matrix(14 0 0 14 324.678 328.95)"/>
<path d="M.277-.097C.245-.098.22-.108.22-.16v-.274h.104V-.53H.22v-.127H.095v.127H.02v.096h.075v.295c0 .1.072.146.166.146a.51.51 0 0 0 .07-.005V-.1l-.054.003Z" style="fill-rule:nonzero" transform="matrix(14 0 0 14 332.021 328.95)"/>
<path d="M.53-.269c0-.187-.112-.268-.242-.268-.152 0-.251.111-.251.275 0 .166.098.272.258.272.123 0 .208-.06.23-.152H.404C.387-.11.35-.086.296-.086.215-.086.162-.14.161-.231H.53v-.038ZM.161-.315A.128.128 0 0 1 .29-.44c.072 0 .121.053.121.125h-.25Z" style="fill-rule:nonzero" transform="matrix(14 0 0 14 336.986 328.95)"/>
<path d="M.184-.311c0-.077.047-.121.113-.121.065 0 .104.042.104.113V0h.124v-.338c0-.127-.072-.199-.182-.199C.264-.537.21-.5.185-.44H.179v-.09H.06V0h.124v-.311Z" style="fill-rule:nonzero" transform="matrix(14 0 0 14 344.933 328.95)"/>
<path d="M.53-.269c0-.187-.112-.268-.242-.268-.152 0-.251.111-.251.275 0 .166.098.272.258.272.123 0 .208-.06.23-.152H.404C.387-.11.35-.086.296-.086.215-.086.162-.14.161-.231H.53v-.038ZM.161-.315A.128.128 0 0 1 .29-.44c.072 0 .121.053.121.125h-.25Z" style="fill-rule:nonzero" transform="matrix(14 0 0 14 353.103 328.95)"/>
<path d="M.184 0v-.312c0-.067.051-.115.12-.115.021 0 .047.003.058.007v-.115a.319.319 0 0 0-.045-.003.133.133 0 0 0-.131.096H.181V-.53H.06V0h.124Z" style="fill-rule:nonzero" transform="matrix(14 0 0 14 361.051 328.95)"/>
<path d="M266 182c0-4.415-3.585-8-8-8H154c-4.415 0-8 3.585-8 8v8c0 4.415 3.585 8 8 8h104c4.415 0 8-3.585 8-8v-8Z" style="fill:#c0c2ca;fill-opacity:.3"/>
<path d="M266 182c0-4.415-3.585-8-8-8H154c-4.415 0-8 3.585-8 8v8c0 4.415 3.585 8 8 8h104c4.415 0 8-3.585 8-8v-8Zm-2 0v8c0 3.311-2.689 6-6 6H154c-3.311 0-6-2.689-6-6v-8c0-3.311 2.689-6 6-6h104c3.311 0 6 2.689 6 6Z" style="fill:#7f8292"/>
<path d="M172.859 181.05h1.774v9.901h-1.774zM178.138 186.599c0-1.078.652-1.696 1.576-1.696.909 0 1.45.594 1.45 1.585v4.462h1.74v-4.728c0-1.779-1.01-2.794-2.542-2.794-1.112 0-1.871.527-2.21 1.359h-.092v-1.262h-1.663v7.425h1.741v-4.351ZM187.328 191.081c1.276 0 1.846-.759 2.127-1.301h.101v1.17h1.707v-9.9h-1.741v3.698h-.067c-.266-.532-.812-1.32-2.122-1.32-1.721 0-3.07 1.344-3.07 3.819 0 2.442 1.315 3.834 3.065 3.834Zm.478-1.426c-1.155 0-1.769-1.02-1.769-2.417 0-1.388.599-2.379 1.769-2.379 1.131 0 1.76.933 1.76 2.379 0 1.445-.638 2.417-1.76 2.417ZM199.612 187.18c0-2.611-1.572-3.752-3.394-3.752-2.122 0-3.51 1.562-3.51 3.853 0 2.325 1.368 3.814 3.607 3.814 1.725 0 2.91-.846 3.224-2.132h-1.702c-.227.445-.744.779-1.503.779-1.131 0-1.881-.75-1.9-2.026h5.178v-.536Zm-5.173-.643c.053-.948.759-1.75 1.808-1.75 1.005 0 1.687.739 1.692 1.75h-3.5ZM200.4 183.525l2.209 3.713-2.258 3.712h1.847l1.556-2.678 1.576 2.678h1.828l-2.272-3.712 2.238-3.713h-1.842l-1.528 2.746-1.503-2.746H200.4ZM208.444 181.05v9.9h1.774v-3.35h1.905c2.286 0 3.514-1.373 3.514-3.273 0-1.89-1.213-3.277-3.49-3.277h-3.703Zm1.774 5.085v-3.596h1.658c1.344 0 1.943.734 1.943 1.788s-.599 1.808-1.933 1.808h-1.668ZM219.886 183.428c-1.861 0-2.992.957-3.118 2.214h1.687c.131-.531.605-.884 1.383-.884.875 0 1.344.425 1.344 1.155l.005.599c-.324.015-1.383.063-1.9.097-1.378.092-2.765.58-2.765 2.258 0 1.46 1.073 2.233 2.489 2.233 1.165 0 1.862-.551 2.181-1.17h.058v1.02h1.667v-4.965c0-1.977-1.624-2.557-3.031-2.557Zm-.43 6.391c-.73 0-1.252-.334-1.252-.976 0-.648.522-.996 1.354-1.059a50.36 50.36 0 0 1 1.629-.111l.005.614c0 .831-.677 1.532-1.736 1.532ZM227.795 193.89c2.016 0 3.481-.919 3.481-2.819v-7.546h-1.716v1.223h-.087c-.276-.532-.827-1.32-2.137-1.32-1.721 0-3.07 1.31-3.07 3.752 0 2.417 1.344 3.664 3.065 3.664 1.276 0 1.871-.687 2.137-1.228h.087v1.412c0 1.092-.677 1.547-1.731 1.547-.884 0-1.494-.305-1.619-.962h-1.741c.121 1.402 1.369 2.277 3.331 2.277Zm.015-4.414c-1.156 0-1.77-.899-1.77-2.272 0-1.354.6-2.345 1.77-2.345 1.131 0 1.759.933 1.759 2.345 0 1.426-.638 2.272-1.759 2.272ZM239.542 187.18c0-2.611-1.571-3.752-3.393-3.752-2.122 0-3.51 1.562-3.51 3.853 0 2.325 1.368 3.814 3.607 3.814 1.725 0 2.91-.846 3.224-2.132h-1.702c-.227.445-.744.779-1.503.779-1.131 0-1.881-.75-1.9-2.026h5.177v-.536Zm-5.172-.643c.053-.948.759-1.75 1.808-1.75 1.005 0 1.687.739 1.692 1.75h-3.5Z" style="fill-rule:nonzero"/>
<path d="M333 230c0-4.415-3.585-8-8-8H221c-4.415 0-8 3.585-8 8v22c0 4.415 3.585 8 8 8h104c4.415 0 8-3.585 8-8v-22Z" style="fill:#c0c2ca;fill-opacity:.3"/>
<path d="M333 230c0-4.415-3.585-8-8-8H221c-4.415 0-8 3.585-8 8v22c0 4.415 3.585 8 8 8h104c4.415 0 8-3.585 8-8v-22Zm-2 0v22c0 3.311-2.689 6-6 6H221c-3.311 0-6-2.689-6-6v-22c0-3.311 2.689-6 6-6h104c3.311 0 6 2.689 6 6Z" style="fill:#7f8292"/>
<path d="M.573-.513C.57-.632.468-.717.318-.717c-.148 0-.26.083-.259.208 0 .102.072.161.188.19l.081.021c.076.02.127.044.127.098 0 .061-.058.102-.142.102-.08 0-.142-.036-.148-.11H.04c.006.14.11.219.274.219.17 0 .268-.085.268-.21 0-.122-.102-.178-.207-.203L.308-.419C.25-.432.187-.457.188-.516c0-.054.048-.093.128-.093.077 0 .128.035.134.096h.123Z" style="fill-rule:nonzero" transform="matrix(14 0 0 14 254.543 238.95)"/>
<path d="M.291.01c.155 0 .254-.109.254-.273 0-.164-.099-.274-.254-.274s-.254.11-.254.274c0 .164.099.273.254.273Zm.001-.099c-.087 0-.129-.077-.129-.174 0-.097.042-.176.129-.176.085 0 .127.079.127.176 0 .097-.042.174-.127.174Z" style="fill-rule:nonzero" transform="matrix(14 0 0 14 263.259 238.95)"/>
<path d="M.184 0v-.323c0-.065.044-.11.098-.11.053 0 .09.036.09.091V0h.121v-.331c0-.06.036-.102.097-.102.051 0 .091.03.091.096V0h.124v-.356c0-.118-.068-.181-.165-.181-.078 0-.136.038-.16.097H.474C.454-.5.403-.537.331-.537a.147.147 0 0 0-.146.097H.179v-.09H.06V0h.124Z" style="fill-rule:nonzero" transform="matrix(14 0 0 14 271.414 238.95)"/>
<path d="M.53-.269c0-.187-.112-.268-.242-.268-.152 0-.251.111-.251.275 0 .166.098.272.258.272.123 0 .208-.06.23-.152H.404C.387-.11.35-.086.296-.086.215-.086.162-.14.161-.231H.53v-.038ZM.161-.315A.128.128 0 0 1 .29-.44c.072 0 .121.053.121.125h-.25Z" style="fill-rule:nonzero" transform="matrix(14 0 0 14 283.51 238.95)"/>
<path d="M.67-.469C.648-.626.527-.717.371-.717c-.185 0-.323.135-.323.363 0 .228.136.364.323.364.168 0 .28-.109.299-.244H.541c-.016.082-.084.129-.168.129-.115 0-.198-.086-.198-.249 0-.159.082-.249.198-.249.086 0 .154.049.168.134H.67Z" style="fill-rule:nonzero" transform="matrix(14 0 0 14 231.331 252.95)"/>
<path d="M.291.01c.155 0 .254-.109.254-.273 0-.164-.099-.274-.254-.274s-.254.11-.254.274c0 .164.099.273.254.273Zm.001-.099c-.087 0-.129-.077-.129-.174 0-.097.042-.176.129-.176.085 0 .127.079.127.176 0 .097-.042.174-.127.174Z" style="fill-rule:nonzero" transform="matrix(14 0 0 14 241.324 252.95)"/>
<path d="M.184 0v-.323c0-.065.044-.11.098-.11.053 0 .09.036.09.091V0h.121v-.331c0-.06.036-.102.097-.102.051 0 .091.03.091.096V0h.124v-.356c0-.118-.068-.181-.165-.181-.078 0-.136.038-.16.097H.474C.454-.5.403-.537.331-.537a.147.147 0 0 0-.146.097H.179v-.09H.06V0h.124Z" style="fill-rule:nonzero" transform="matrix(14 0 0 14 249.479 252.95)"/>
<path d="M.184.199v-.283H.19c.019.039.06.093.152.093C.467.009.56-.09.56-.265c0-.176-.096-.272-.218-.272a.158.158 0 0 0-.152.094H.182V-.53H.06v.729h.124ZM.182-.265c0-.103.044-.17.125-.17.084 0 .127.071.127.17 0 .1-.044.172-.127.172-.08 0-.125-.069-.125-.172Z" style="fill-rule:nonzero" transform="matrix(14 0 0 14 261.574 252.95)"/>
<path d="M.291.01c.155 0 .254-.109.254-.273 0-.164-.099-.274-.254-.274s-.254.11-.254.274c0 .164.099.273.254.273Zm.001-.099c-.087 0-.129-.077-.129-.174 0-.097.042-.176.129-.176.085 0 .127.079.127.176 0 .097-.042.174-.127.174Z" style="fill-rule:nonzero" transform="matrix(14 0 0 14 269.952 252.95)"/>
<path d="M.184-.311c0-.077.047-.121.113-.121.065 0 .104.042.104.113V0h.124v-.338c0-.127-.072-.199-.182-.199C.264-.537.21-.5.185-.44H.179v-.09H.06V0h.124v-.311Z" style="fill-rule:nonzero" transform="matrix(14 0 0 14 278.107 252.95)"/>
<path d="M.53-.269c0-.187-.112-.268-.242-.268-.152 0-.251.111-.251.275 0 .166.098.272.258.272.123 0 .208-.06.23-.152H.404C.387-.11.35-.086.296-.086.215-.086.162-.14.161-.231H.53v-.038ZM.161-.315A.128.128 0 0 1 .29-.44c.072 0 .121.053.121.125h-.25Z" style="fill-rule:nonzero" transform="matrix(14 0 0 14 286.277 252.95)"/>
<path d="M.184-.311c0-.077.047-.121.113-.121.065 0 .104.042.104.113V0h.124v-.338c0-.127-.072-.199-.182-.199C.264-.537.21-.5.185-.44H.179v-.09H.06V0h.124v-.311Z" style="fill-rule:nonzero" transform="matrix(14 0 0 14 294.225 252.95)"/>
<path d="M.277-.097C.245-.098.22-.108.22-.16v-.274h.104V-.53H.22v-.127H.095v.127H.02v.096h.075v.295c0 .1.072.146.166.146a.51.51 0 0 0 .07-.005V-.1l-.054.003Z" style="fill-rule:nonzero" transform="matrix(14 0 0 14 302.395 252.95)"/>
<path d="M.478-.379C.469-.475.391-.537.265-.537c-.13 0-.215.064-.214.162-.001.076.051.127.149.148l.085.018c.053.011.077.031.077.062 0 .039-.039.063-.099.063-.058 0-.093-.022-.101-.067H.036C.048-.05.128.01.263.01c.139 0 .226-.069.226-.168C.489-.234.44-.281.34-.302L.25-.321C.196-.334.174-.354.174-.382c0-.036.039-.063.093-.063.052 0 .086.026.093.066h.118Z" style="fill-rule:nonzero" transform="matrix(14 0 0 14 307.326 252.95)"/>
<path d="M206 197 72 223M206 197l67 26M273 259l-67 66M273 259l67 26" style="fill:none;stroke:#7f8292;stroke-width:1.5px;stroke-linecap:round"/>
<path d="M556 236c0-4.415-3.585-8-8-8H444c-4.415 0-8 3.585-8 8v30c0 4.415 3.585 8 8 8h104c4.415 0 8-3.585 8-8v-30Z" style="fill:#c0c2ca;fill-opacity:.3"/>
<path d="M440.431 273.16A7.958 7.958 0 0 0 444 274h.3v-2c-.108 0-.208.007-.3.02V272a5.96 5.96 0 0 1-2.675-.629l-.894 1.789Zm5.869.84h4v-2h-4v2Zm10 0v-2h-4v2h4Zm2 0h4v-2h-4v2Zm10 0v-2h-4v2h4Zm6 0v-2h-4v2h4Zm5.999 0v-2H476.3v2h3.999Zm6 0v-2h-4v2h4Zm6 0v-2h-4v2h4Zm6 0v-2h-4v2h4Zm6 0v-2h-4v2h4Zm6 0v-2h-4v2h4Zm6 0v-2h-4v2h4Zm2 0h4v-2h-4v2Zm10 0v-2h-4v2h4Zm2 0h4v-2h-4v2Zm10 0v-2h-4v2h4Zm6 0v-2h-4v2h4Zm5.796-1.128-1.026-1.716c-.838.5-1.807.802-2.844.84l.074 1.998a7.934 7.934 0 0 0 3.796-1.122Zm-115.588-4.066a8.022 8.022 0 0 0 2.264 3.247l1.308-1.513a6.025 6.025 0 0 1-1.7-2.437l-1.872.703Zm119.175-.568-1.92-.559a5.999 5.999 0 0 1-1.512 2.554l1.417 1.411a8 8 0 0 0 2.015-3.406ZM436 262.866V266c0 .292.016.581.047.865l1.988-.214A6.088 6.088 0 0 1 438 266v-3.134h-2Zm120-.598h-2V266c0 .068-.001.135-.003.202l1.998.066c.004-.089.005-.178.005-.268v-3.732Zm-120-5.402v4h2v-4h-2Zm120-.598h-2v4h2v-4Zm-120-5.402v4h2v-4h-2Zm120-.598h-2v4h2v-4Zm-120-5.402v4h2v-4h-2Zm120-.598h-2v4h2v-4Zm-120-5.402v4h2v-4h-2Zm120-.598h-2v4h2v-4Zm-119.395-5.322A7.96 7.96 0 0 0 436 236v.866h.639c-.355.585-.639 1.134-.639 1.134l1.134-1.134H438V236c0-.811.161-1.584.453-2.289l-1.848-.765ZM556 236.268V238l-1.735-1.732H556Zm-1.735 0H554v-.265l.265.265Zm.756-4.103A7.958 7.958 0 0 1 556 236h-2a5.958 5.958 0 0 0-.733-2.874l1.754-.961Zm-114.35-3.44a8.03 8.03 0 0 0-3.079 2.488l1.601 1.198a6.034 6.034 0 0 1 2.312-1.869l-.834-1.817Zm109.852-.318-.631 1.898c.964.32 1.82.88 2.498 1.607l1.462-1.363a7.999 7.999 0 0 0-3.329-2.142ZM446.567 228H444c-.487 0-.963.044-1.426.127l.355 1.968A6.095 6.095 0 0 1 444 230h2.567v-2Zm98 0v2H548c.143 0 .286.005.427.015l.139-1.995A8.165 8.165 0 0 0 548 228h-3.433Zm-92 0h-4v2h4v-2Zm6 0h-4v2h4v-2Zm6 0h-4v2h4v-2Zm18 0h-4v2h4v-2Zm6 0h-4v2h4v-2Zm6 0h-4v2h4v-2Zm6 0h-4v2h4v-2Zm6 0h-4v2h4v-2Zm6 0h-4v2h4v-2Zm6 0h-4v2h4v-2Zm6 0h-4v2h4v-2Zm6 0h-4v2h4v-2Zm6 0h-4v2h4v-2Zm6 0h-4v2h4v-2Zm-72 0h-4v2h4v-2Zm6 0h-4v2h4v-2Z" style="fill:#7f8292"/>
<path d="M.67-.469C.648-.626.527-.717.371-.717c-.185 0-.323.135-.323.363 0 .228.136.364.323.364.168 0 .28-.109.299-.244H.541c-.016.082-.084.129-.168.129-.115 0-.198-.086-.198-.249 0-.159.082-.249.198-.249.086 0 .154.049.168.134H.67Z" style="fill-rule:nonzero" transform="matrix(12 0 0 12 470.858 243.24)"/>
<path d="M.291.01c.155 0 .254-.109.254-.273 0-.164-.099-.274-.254-.274s-.254.11-.254.274c0 .164.099.273.254.273Zm.001-.099c-.087 0-.129-.077-.129-.174 0-.097.042-.176.129-.176.085 0 .127.079.127.176 0 .097-.042.174-.127.174Z" style="fill-rule:nonzero" transform="matrix(12 0 0 12 479.423 243.24)"/>
<path d="M.184 0v-.323c0-.065.044-.11.098-.11.053 0 .09.036.09.091V0h.121v-.331c0-.06.036-.102.097-.102.051 0 .091.03.091.096V0h.124v-.356c0-.118-.068-.181-.165-.181-.078 0-.136.038-.16.097H.474C.454-.5.403-.537.331-.537a.147.147 0 0 0-.146.097H.179v-.09H.06V0h.124Z" style="fill-rule:nonzero" transform="matrix(12 0 0 12 486.414 243.24)"/>
<path d="M.184 0v-.323c0-.065.044-.11.098-.11.053 0 .09.036.09.091V0h.121v-.331c0-.06.036-.102.097-.102.051 0 .091.03.091.096V0h.124v-.356c0-.118-.068-.181-.165-.181-.078 0-.136.038-.16.097H.474C.454-.5.403-.537.331-.537a.147.147 0 0 0-.146.097H.179v-.09H.06V0h.124Z" style="fill-rule:nonzero" transform="matrix(12 0 0 12 496.781 243.24)"/>
<path d="M.291.01c.155 0 .254-.109.254-.273 0-.164-.099-.274-.254-.274s-.254.11-.254.274c0 .164.099.273.254.273Zm.001-.099c-.087 0-.129-.077-.129-.174 0-.097.042-.176.129-.176.085 0 .127.079.127.176 0 .097-.042.174-.127.174Z" style="fill-rule:nonzero" transform="matrix(12 0 0 12 507.148 243.24)"/>
<path d="M.184-.311c0-.077.047-.121.113-.121.065 0 .104.042.104.113V0h.124v-.338c0-.127-.072-.199-.182-.199C.264-.537.21-.5.185-.44H.179v-.09H.06V0h.124v-.311Z" style="fill-rule:nonzero" transform="matrix(12 0 0 12 514.139 243.24)"/>
<path d="M.573-.513C.57-.632.468-.717.318-.717c-.148 0-.26.083-.259.208 0 .102.072.161.188.19l.081.021c.076.02.127.044.127.098 0 .061-.058.102-.142.102-.08 0-.142-.036-.148-.11H.04c.006.14.11.219.274.219.17 0 .268-.085.268-.21 0-.122-.102-.178-.207-.203L.308-.419C.25-.432.187-.457.188-.516c0-.054.048-.093.128-.093.077 0 .128.035.134.096h.123Z" style="fill-rule:nonzero" transform="matrix(12 0 0 12 471.72 255.24)"/>
<path d="M.184-.311c0-.077.048-.121.115-.121.066 0 .105.041.105.113V0h.124v-.338c0-.128-.073-.199-.182-.199-.082 0-.133.037-.158.097H.182v-.267H.06V0h.124v-.311Z" style="fill-rule:nonzero" transform="matrix(12 0 0 12 479.191 255.24)"/>
<path d="M.291.01c.155 0 .254-.109.254-.273 0-.164-.099-.274-.254-.274s-.254.11-.254.274c0 .164.099.273.254.273Zm.001-.099c-.087 0-.129-.077-.129-.174 0-.097.042-.176.129-.176.085 0 .127.079.127.176 0 .097-.042.174-.127.174Z" style="fill-rule:nonzero" transform="matrix(12 0 0 12 486.235 255.24)"/>
<path d="M.184 0v-.312c0-.067.051-.115.12-.115.021 0 .047.003.058.007v-.115a.319.319 0 0 0-.045-.003.133.133 0 0 0-.131.096H.181V-.53H.06V0h.124Z" style="fill-rule:nonzero" transform="matrix(12 0 0 12 493.226 255.24)"/>
<path d="M.277-.097C.245-.098.22-.108.22-.16v-.274h.104V-.53H.22v-.127H.095v.127H.02v.096h.075v.295c0 .1.072.146.166.146a.51.51 0 0 0 .07-.005V-.1l-.054.003Z" style="fill-rule:nonzero" transform="matrix(12 0 0 12 498.086 255.24)"/>
<path d="M.291.01c.133 0 .218-.079.227-.191H.4c-.012.057-.053.09-.108.09-.078 0-.129-.065-.129-.174 0-.108.052-.172.129-.172.061 0 .098.039.108.09h.118C.51-.462.42-.537.29-.537c-.155 0-.253.112-.253.274 0 .16.096.273.254.273Z" style="fill-rule:nonzero" transform="matrix(12 0 0 12 502.342 255.24)"/>
<path d="M.398-.223c0 .081-.058.121-.113.121-.061 0-.101-.042-.101-.11V-.53H.06v.337c0 .128.073.2.177.2.08 0 .135-.042.159-.101h.006V0h.12v-.53H.398v.307Z" style="fill-rule:nonzero" transform="matrix(12 0 0 12 508.972 255.24)"/>
<path d="M.277-.097C.245-.098.22-.108.22-.16v-.274h.104V-.53H.22v-.127H.095v.127H.02v.096h.075v.295c0 .1.072.146.166.146a.51.51 0 0 0 .07-.005V-.1l-.054.003Z" style="fill-rule:nonzero" transform="matrix(12 0 0 12 515.958 255.24)"/>
<path d="M.528 0v-.107H.193v-.194h.308v-.106H.193V-.6h.332v-.107H.066V0h.462Z" style="fill-rule:nonzero" transform="matrix(12 0 0 12 475.907 267.24)"/>
<path d="M.184 0v-.323c0-.065.044-.11.098-.11.053 0 .09.036.09.091V0h.121v-.331c0-.06.036-.102.097-.102.051 0 .091.03.091.096V0h.124v-.356c0-.118-.068-.181-.165-.181-.078 0-.136.038-.16.097H.474C.454-.5.403-.537.331-.537a.147.147 0 0 0-.146.097H.179v-.09H.06V0h.124Z" style="fill-rule:nonzero" transform="matrix(12 0 0 12 482.89 267.24)"/>
<path d="M.123-.606c.039 0 .071-.03.071-.067a.07.07 0 0 0-.071-.068c-.04 0-.073.03-.073.068 0 .037.033.067.073.067ZM.184 0v-.53H.06V0h.124Z" style="fill-rule:nonzero" transform="matrix(12 0 0 12 493.257 267.24)"/>
<path d="M.277-.097C.245-.098.22-.108.22-.16v-.274h.104V-.53H.22v-.127H.095v.127H.02v.096h.075v.295c0 .1.072.146.166.146a.51.51 0 0 0 .07-.005V-.1l-.054.003Z" style="fill-rule:nonzero" transform="matrix(12 0 0 12 496.186 267.24)"/>
<path d="M.277-.097C.245-.098.22-.108.22-.16v-.274h.104V-.53H.22v-.127H.095v.127H.02v.096h.075v.295c0 .1.072.146.166.146a.51.51 0 0 0 .07-.005V-.1l-.054.003Z" style="fill-rule:nonzero" transform="matrix(12 0 0 12 500.508 267.24)"/>
<path d="M.53-.269c0-.187-.112-.268-.242-.268-.152 0-.251.111-.251.275 0 .166.098.272.258.272.123 0 .208-.06.23-.152H.404C.387-.11.35-.086.296-.086.215-.086.162-.14.161-.231H.53v-.038ZM.161-.315A.128.128 0 0 1 .29-.44c.072 0 .121.053.121.125h-.25Z" style="fill-rule:nonzero" transform="matrix(12 0 0 12 504.764 267.24)"/>
<path d="M.184 0v-.312c0-.067.051-.115.12-.115.021 0 .047.003.058.007v-.115a.319.319 0 0 0-.045-.003.133.133 0 0 0-.131.096H.181V-.53H.06V0h.124Z" style="fill-rule:nonzero" transform="matrix(12 0 0 12 511.576 267.24)"/>
<path d="M684 302c0-4.415-3.585-8-8-8H572c-4.415 0-8 3.585-8 8v30c0 4.415 3.585 8 8 8h104c4.415 0 8-3.585 8-8v-30Z" style="fill:#c0c2ca;fill-opacity:.3"/>
<path d="M568.431 339.16A7.958 7.958 0 0 0 572 340h.3v-2c-.108 0-.208.007-.3.02V338a5.96 5.96 0 0 1-2.675-.629l-.894 1.789Zm9.869.84v-2h-4v2h4Zm6 0v-2h-4v2h4Zm6 0v-2h-4v2h4Zm6 0v-2h-4v2h4Zm6 0v-2h-4v2h4Zm5.999 0v-2H604.3v2h3.999Zm6 0v-2h-4v2h4Zm6 0v-2h-4v2h4Zm6 0v-2h-4v2h4Zm6 0v-2h-4v2h4Zm6 0v-2h-4v2h4Zm6 0v-2h-4v2h4Zm2 0h4v-2h-4v2Zm10 0v-2h-4v2h4Zm6 0v-2h-4v2h4Zm6 0v-2h-4v2h4Zm6 0v-2h-4v2h4Zm5.796-1.128-1.026-1.716c-.838.5-1.807.802-2.844.84l.074 1.998a7.934 7.934 0 0 0 3.796-1.122Zm-115.588-4.066a8.022 8.022 0 0 0 2.264 3.247l1.308-1.513a6.025 6.025 0 0 1-1.7-2.437l-1.872.703Zm119.175-.568-1.92-.559a5.999 5.999 0 0 1-1.512 2.554l1.417 1.411a8 8 0 0 0 2.015-3.406ZM564 328.866V332c0 .292.016.581.047.865l1.988-.214A6.088 6.088 0 0 1 566 332v-3.134h-2Zm120-.598h-2V332c0 .068-.001.135-.003.202l1.998.066c.004-.089.005-.178.005-.268v-3.732Zm-120-5.402v4h2v-4h-2Zm120-.598h-2v4h2v-4Zm-120-5.402v4h2v-4h-2Zm120-.598h-2v4h2v-4Zm-120-5.402v4h2v-4h-2Zm120-.598h-2v4h2v-4Zm-120-5.402v4h2v-4h-2Zm120-.598h-2v4h2v-4Zm-119.395-5.322A7.96 7.96 0 0 0 564 302v.866h.639c-.355.585-.639 1.134-.639 1.134a2 2 0 0 0 1.803-1.134H566V302c0-.811.161-1.584.453-2.289l-1.848-.765ZM684 302.268V304l-1.735-1.732H684Zm-1.735 0H682v-.265l.265.265Zm.756-4.103A7.958 7.958 0 0 1 684 302h-2a5.958 5.958 0 0 0-.733-2.874l1.754-.961Zm-114.35-3.44a8.03 8.03 0 0 0-3.079 2.488l1.601 1.198a6.034 6.034 0 0 1 2.312-1.869l-.834-1.817Zm109.852-.318-.631 1.898c.964.32 1.82.88 2.498 1.607l1.462-1.363a7.999 7.999 0 0 0-3.329-2.142ZM574.567 294H572c-.487 0-.963.044-1.426.127l.355 1.968A6.095 6.095 0 0 1 572 296h2.567v-2Zm98 0v2H676c.143 0 .286.005.427.015l.139-1.995A8.165 8.165 0 0 0 676 294h-3.433Zm-62 0h-4v2h4v-2Zm6 0h-4v2h4v-2Zm6 0h-4v2h4v-2Zm6 0h-4v2h4v-2Zm12 0h-4v2h4v-2Zm24 0h-4v2h4v-2Zm6 0h-4v2h4v-2Zm-90 0h-4v2h4v-2Zm6 0h-4v2h4v-2Zm6 0h-4v2h4v-2Zm12 0h-4v2h4v-2Zm30 0h-4v2h4v-2Zm12 0h-4v2h4v-2Zm12 0h-4v2h4v-2Zm-60 0h-4v2h4v-2Zm54 0h-4v2h4v-2Z" style="fill:#7f8292"/>
<path d="M.67-.469C.648-.626.527-.717.371-.717c-.185 0-.323.135-.323.363 0 .228.136.364.323.364.168 0 .28-.109.299-.244H.541c-.016.082-.084.129-.168.129-.115 0-.198-.086-.198-.249 0-.159.082-.249.198-.249.086 0 .154.049.168.134H.67Z" style="fill-rule:nonzero" transform="matrix(12 0 0 12 598.858 309.24)"/>
<path d="M.291.01c.155 0 .254-.109.254-.273 0-.164-.099-.274-.254-.274s-.254.11-.254.274c0 .164.099.273.254.273Zm.001-.099c-.087 0-.129-.077-.129-.174 0-.097.042-.176.129-.176.085 0 .127.079.127.176 0 .097-.042.174-.127.174Z" style="fill-rule:nonzero" transform="matrix(12 0 0 12 607.423 309.24)"/>
<path d="M.184 0v-.323c0-.065.044-.11.098-.11.053 0 .09.036.09.091V0h.121v-.331c0-.06.036-.102.097-.102.051 0 .091.03.091.096V0h.124v-.356c0-.118-.068-.181-.165-.181-.078 0-.136.038-.16.097H.474C.454-.5.403-.537.331-.537a.147.147 0 0 0-.146.097H.179v-.09H.06V0h.124Z" style="fill-rule:nonzero" transform="matrix(12 0 0 12 614.414 309.24)"/>
<path d="M.184 0v-.323c0-.065.044-.11.098-.11.053 0 .09.036.09.091V0h.121v-.331c0-.06.036-.102.097-.102.051 0 .091.03.091.096V0h.124v-.356c0-.118-.068-.181-.165-.181-.078 0-.136.038-.16.097H.474C.454-.5.403-.537.331-.537a.147.147 0 0 0-.146.097H.179v-.09H.06V0h.124Z" style="fill-rule:nonzero" transform="matrix(12 0 0 12 624.781 309.24)"/>
<path d="M.291.01c.155 0 .254-.109.254-.273 0-.164-.099-.274-.254-.274s-.254.11-.254.274c0 .164.099.273.254.273Zm.001-.099c-.087 0-.129-.077-.129-.174 0-.097.042-.176.129-.176.085 0 .127.079.127.176 0 .097-.042.174-.127.174Z" style="fill-rule:nonzero" transform="matrix(12 0 0 12 635.148 309.24)"/>
<path d="M.184-.311c0-.077.047-.121.113-.121.065 0 .104.042.104.113V0h.124v-.338c0-.127-.072-.199-.182-.199C.264-.537.21-.5.185-.44H.179v-.09H.06V0h.124v-.311Z" style="fill-rule:nonzero" transform="matrix(12 0 0 12 642.139 309.24)"/>
<path d="M.573-.513C.57-.632.468-.717.318-.717c-.148 0-.26.083-.259.208 0 .102.072.161.188.19l.081.021c.076.02.127.044.127.098 0 .061-.058.102-.142.102-.08 0-.142-.036-.148-.11H.04c.006.14.11.219.274.219.17 0 .268-.085.268-.21 0-.122-.102-.178-.207-.203L.308-.419C.25-.432.187-.457.188-.516c0-.054.048-.093.128-.093.077 0 .128.035.134.096h.123Z" style="fill-rule:nonzero" transform="matrix(12 0 0 12 599.72 321.24)"/>
<path d="M.184-.311c0-.077.048-.121.115-.121.066 0 .105.041.105.113V0h.124v-.338c0-.128-.073-.199-.182-.199-.082 0-.133.037-.158.097H.182v-.267H.06V0h.124v-.311Z" style="fill-rule:nonzero" transform="matrix(12 0 0 12 607.191 321.24)"/>
<path d="M.291.01c.155 0 .254-.109.254-.273 0-.164-.099-.274-.254-.274s-.254.11-.254.274c0 .164.099.273.254.273Zm.001-.099c-.087 0-.129-.077-.129-.174 0-.097.042-.176.129-.176.085 0 .127.079.127.176 0 .097-.042.174-.127.174Z" style="fill-rule:nonzero" transform="matrix(12 0 0 12 614.235 321.24)"/>
<path d="M.184 0v-.312c0-.067.051-.115.12-.115.021 0 .047.003.058.007v-.115a.319.319 0 0 0-.045-.003.133.133 0 0 0-.131.096H.181V-.53H.06V0h.124Z" style="fill-rule:nonzero" transform="matrix(12 0 0 12 621.226 321.24)"/>
<path d="M.277-.097C.245-.098.22-.108.22-.16v-.274h.104V-.53H.22v-.127H.095v.127H.02v.096h.075v.295c0 .1.072.146.166.146a.51.51 0 0 0 .07-.005V-.1l-.054.003Z" style="fill-rule:nonzero" transform="matrix(12 0 0 12 626.086 321.24)"/>
<path d="M.291.01c.133 0 .218-.079.227-.191H.4c-.012.057-.053.09-.108.09-.078 0-.129-.065-.129-.174 0-.108.052-.172.129-.172.061 0 .098.039.108.09h.118C.51-.462.42-.537.29-.537c-.155 0-.253.112-.253.274 0 .16.096.273.254.273Z" style="fill-rule:nonzero" transform="matrix(12 0 0 12 630.342 321.24)"/>
<path d="M.398-.223c0 .081-.058.121-.113.121-.061 0-.101-.042-.101-.11V-.53H.06v.337c0 .128.073.2.177.2.08 0 .135-.042.159-.101h.006V0h.12v-.53H.398v.307Z" style="fill-rule:nonzero" transform="matrix(12 0 0 12 636.972 321.24)"/>
<path d="M.277-.097C.245-.098.22-.108.22-.16v-.274h.104V-.53H.22v-.127H.095v.127H.02v.096h.075v.295c0 .1.072.146.166.146a.51.51 0 0 0 .07-.005V-.1l-.054.003Z" style="fill-rule:nonzero" transform="matrix(12 0 0 12 643.958 321.24)"/>
<path d="M.505 0v-.107H.193v-.6H.066V0h.439Z" style="fill-rule:nonzero" transform="matrix(12 0 0 12 601.44 333.24)"/>
<path d="M.123-.606c.039 0 .071-.03.071-.067a.07.07 0 0 0-.071-.068c-.04 0-.073.03-.073.068 0 .037.033.067.073.067ZM.184 0v-.53H.06V0h.124Z" style="fill-rule:nonzero" transform="matrix(12 0 0 12 607.937 333.24)"/>
<path d="M.478-.379C.469-.475.391-.537.265-.537c-.13 0-.215.064-.214.162-.001.076.051.127.149.148l.085.018c.053.011.077.031.077.062 0 .039-.039.063-.099.063-.058 0-.093-.022-.101-.067H.036C.048-.05.128.01.263.01c.139 0 .226-.069.226-.168C.489-.234.44-.281.34-.302L.25-.321C.196-.334.174-.354.174-.382c0-.036.039-.063.093-.063.052 0 .086.026.093.066h.118Z" style="fill-rule:nonzero" transform="matrix(12 0 0 12 610.867 333.24)"/>
<path d="M.277-.097C.245-.098.22-.108.22-.16v-.274h.104V-.53H.22v-.127H.095v.127H.02v.096h.075v.295c0 .1.072.146.166.146a.51.51 0 0 0 .07-.005V-.1l-.054.003Z" style="fill-rule:nonzero" transform="matrix(12 0 0 12 617.161 333.24)"/>
<path d="M.53-.269c0-.187-.112-.268-.242-.268-.152 0-.251.111-.251.275 0 .166.098.272.258.272.123 0 .208-.06.23-.152H.404C.387-.11.35-.086.296-.086.215-.086.162-.14.161-.231H.53v-.038ZM.161-.315A.128.128 0 0 1 .29-.44c.072 0 .121.053.121.125h-.25Z" style="fill-rule:nonzero" transform="matrix(12 0 0 12 621.416 333.24)"/>
<path d="M.184-.311c0-.077.047-.121.113-.121.065 0 .104.042.104.113V0h.124v-.338c0-.127-.072-.199-.182-.199C.264-.537.21-.5.185-.44H.179v-.09H.06V0h.124v-.311Z" style="fill-rule:nonzero" transform="matrix(12 0 0 12 628.229 333.24)"/>
<path d="M.53-.269c0-.187-.112-.268-.242-.268-.152 0-.251.111-.251.275 0 .166.098.272.258.272.123 0 .208-.06.23-.152H.404C.387-.11.35-.086.296-.086.215-.086.162-.14.161-.231H.53v-.038ZM.161-.315A.128.128 0 0 1 .29-.44c.072 0 .121.053.121.125h-.25Z" style="fill-rule:nonzero" transform="matrix(12 0 0 12 635.231 333.24)"/>
<path d="M.184 0v-.312c0-.067.051-.115.12-.115.021 0 .047.003.058.007v-.115a.319.319 0 0 0-.045-.003.133.133 0 0 0-.131.096H.181V-.53H.06V0h.124Z" style="fill-rule:nonzero" transform="matrix(12 0 0 12 642.044 333.24)"/>
<path d="M620 182c0-4.415-3.585-8-8-8H508c-4.415 0-8 3.585-8 8v6c0 4.415 3.585 8 8 8h104c4.415 0 8-3.585 8-8v-6Z" style="fill:#c0c2ca;fill-opacity:.3"/>
<path d="M620 182c0-4.415-3.585-8-8-8H508c-4.415 0-8 3.585-8 8v6c0 4.415 3.585 8 8 8h104c4.415 0 8-3.585 8-8v-6Zm-2 0v6c0 3.311-2.689 6-6 6H508c-3.311 0-6-2.689-6-6v-6c0-3.311 2.689-6 6-6h104c3.311 0 6 2.688 6 6Z" style="fill:#7f8292"/>
<path d="M539.425 185c0-2.743-1.674-4.359-3.895-4.359-2.234 0-3.895 1.616-3.895 4.359 0 2.735 1.661 4.359 3.895 4.359 2.221 0 3.895-1.616 3.895-4.359Zm-1.538 0c0 1.939-.973 2.988-2.357 2.988-1.388 0-2.362-1.049-2.362-2.988s.974-2.988 2.362-2.988c1.384 0 2.357 1.049 2.357 2.988ZM542.205 185.514c0-.924.56-1.455 1.351-1.455.779 0 1.243.51 1.243 1.36v3.824h1.492v-4.052c0-1.525-.866-2.395-2.18-2.395-.953 0-1.603.451-1.893 1.164h-.079v-1.082h-1.426v6.365h1.492v-3.729ZM550.302 182.796c-1.596 0-2.565.82-2.673 1.897h1.446c.112-.455.518-.758 1.185-.758.75 0 1.152.365 1.152.99l.004.514c-.277.013-1.185.054-1.628.083-1.181.079-2.37.497-2.37 1.935 0 1.252.92 1.915 2.134 1.915.998 0 1.595-.473 1.869-1.003h.049v.874h1.43v-4.255c0-1.695-1.392-2.192-2.598-2.192Zm-.369 5.477c-.626 0-1.073-.285-1.073-.837 0-.555.447-.853 1.16-.907a43.523 43.523 0 0 1 1.396-.095l.005.526c0 .713-.581 1.313-1.488 1.313ZM555.067 181.971c.468 0 .862-.36.862-.808 0-.452-.394-.812-.862-.812-.481 0-.87.36-.87.812 0 .448.389.808.87.808Zm.742 7.272v-6.365h-1.492v6.365h1.492ZM558.738 189.243v-3.75c0-.804.614-1.38 1.438-1.38.249 0 .564.046.696.087v-1.371a3.683 3.683 0 0 0-.543-.042c-.725 0-1.338.415-1.57 1.152h-.066v-1.061h-1.446v6.365h1.491ZM561.834 180.757v8.486h1.52v-2.871h1.633c1.96 0 3.012-1.177 3.012-2.806 0-1.62-1.04-2.809-2.991-2.809h-3.174Zm1.52 4.359v-3.083h1.422c1.151 0 1.665.63 1.665 1.533 0 .904-.514 1.55-1.657 1.55h-1.43ZM571.642 182.796c-1.596 0-2.565.82-2.673 1.897h1.446c.112-.455.518-.758 1.185-.758.75 0 1.152.365 1.152.99l.004.514c-.277.013-1.185.054-1.628.083-1.181.079-2.37.497-2.37 1.935 0 1.252.919 1.915 2.134 1.915.998 0 1.595-.473 1.868-1.003h.05v.874h1.43v-4.255c0-1.695-1.393-2.192-2.598-2.192Zm-.369 5.477c-.626 0-1.073-.285-1.073-.837 0-.555.447-.853 1.16-.907a43.523 43.523 0 0 1 1.396-.095l.004.526c0 .713-.58 1.313-1.487 1.313ZM578.421 191.762c1.727 0 2.983-.787 2.983-2.415v-6.469h-1.471v1.049h-.075c-.236-.456-.708-1.131-1.831-1.131-1.475 0-2.631 1.123-2.631 3.215 0 2.072 1.152 3.141 2.627 3.141 1.094 0 1.603-.588 1.831-1.053h.075v1.21c0 .937-.58 1.326-1.484 1.326-.758 0-1.28-.261-1.388-.824h-1.491c.103 1.201 1.172 1.951 2.855 1.951Zm.012-3.783c-.99 0-1.517-.77-1.517-1.947 0-1.16.514-2.01 1.517-2.01.97 0 1.508.8 1.508 2.01 0 1.222-.547 1.947-1.508 1.947ZM588.49 186.011c0-2.238-1.347-3.215-2.909-3.215-1.819 0-3.008 1.338-3.008 3.302 0 1.993 1.172 3.269 3.091 3.269 1.479 0 2.494-.725 2.763-1.827h-1.458c-.195.381-.638.667-1.289.667-.969 0-1.612-.642-1.628-1.736h4.438v-.46Zm-4.434-.551c.046-.812.65-1.5 1.55-1.5.862 0 1.446.634 1.45 1.5h-3Z" style="fill-rule:nonzero"/>
<path d="M684 236c0-4.415-3.585-8-8-8H572c-4.415 0-8 3.585-8 8v18c0 4.415 3.585 8 8 8h104c4.415 0 8-3.585 8-8v-18Z" style="fill:#c0c2ca;fill-opacity:.3"/>
<path d="M684 236c0-4.415-3.585-8-8-8H572c-4.415 0-8 3.585-8 8v18c0 4.415 3.585 8 8 8h104c4.415 0 8-3.585 8-8v-18Zm-2 0v18c0 3.311-2.689 6-6 6H572c-3.311 0-6-2.689-6-6v-18c0-3.311 2.689-6 6-6h104c3.311 0 6 2.688 6 6Z" style="fill:#7f8292"/>
<path d="M.573-.513C.57-.632.468-.717.318-.717c-.148 0-.26.083-.259.208 0 .102.072.161.188.19l.081.021c.076.02.127.044.127.098 0 .061-.058.102-.142.102-.08 0-.142-.036-.148-.11H.04c.006.14.11.219.274.219.17 0 .268-.085.268-.21 0-.122-.102-.178-.207-.203L.308-.419C.25-.432.187-.457.188-.516c0-.054.048-.093.128-.093.077 0 .128.035.134.096h.123Z" style="fill-rule:nonzero" transform="matrix(12 0 0 12 609.18 243.24)"/>
<path d="M.291.01c.155 0 .254-.109.254-.273 0-.164-.099-.274-.254-.274s-.254.11-.254.274c0 .164.099.273.254.273Zm.001-.099c-.087 0-.129-.077-.129-.174 0-.097.042-.176.129-.176.085 0 .127.079.127.176 0 .097-.042.174-.127.174Z" style="fill-rule:nonzero" transform="matrix(12 0 0 12 616.651 243.24)"/>
<path d="M.184 0v-.323c0-.065.044-.11.098-.11.053 0 .09.036.09.091V0h.121v-.331c0-.06.036-.102.097-.102.051 0 .091.03.091.096V0h.124v-.356c0-.118-.068-.181-.165-.181-.078 0-.136.038-.16.097H.474C.454-.5.403-.537.331-.537a.147.147 0 0 0-.146.097H.179v-.09H.06V0h.124Z" style="fill-rule:nonzero" transform="matrix(12 0 0 12 623.641 243.24)"/>
<path d="M.53-.269c0-.187-.112-.268-.242-.268-.152 0-.251.111-.251.275 0 .166.098.272.258.272.123 0 .208-.06.23-.152H.404C.387-.11.35-.086.296-.086.215-.086.162-.14.161-.231H.53v-.038ZM.161-.315A.128.128 0 0 1 .29-.44c.072 0 .121.053.121.125h-.25Z" style="fill-rule:nonzero" transform="matrix(12 0 0 12 634.008 243.24)"/>
<path d="M.67-.469C.648-.626.527-.717.371-.717c-.185 0-.323.135-.323.363 0 .228.136.364.323.364.168 0 .28-.109.299-.244H.541c-.016.082-.084.129-.168.129-.115 0-.198-.086-.198-.249 0-.159.082-.249.198-.249.086 0 .154.049.168.134H.67Z" style="fill-rule:nonzero" transform="matrix(12 0 0 12 589.284 255.24)"/>
<path d="M.291.01c.155 0 .254-.109.254-.273 0-.164-.099-.274-.254-.274s-.254.11-.254.274c0 .164.099.273.254.273Zm.001-.099c-.087 0-.129-.077-.129-.174 0-.097.042-.176.129-.176.085 0 .127.079.127.176 0 .097-.042.174-.127.174Z" style="fill-rule:nonzero" transform="matrix(12 0 0 12 597.849 255.24)"/>
<path d="M.184 0v-.323c0-.065.044-.11.098-.11.053 0 .09.036.09.091V0h.121v-.331c0-.06.036-.102.097-.102.051 0 .091.03.091.096V0h.124v-.356c0-.118-.068-.181-.165-.181-.078 0-.136.038-.16.097H.474C.454-.5.403-.537.331-.537a.147.147 0 0 0-.146.097H.179v-.09H.06V0h.124Z" style="fill-rule:nonzero" transform="matrix(12 0 0 12 604.839 255.24)"/>
<path d="M.184.199v-.283H.19c.019.039.06.093.152.093C.467.009.56-.09.56-.265c0-.176-.096-.272-.218-.272a.158.158 0 0 0-.152.094H.182V-.53H.06v.729h.124ZM.182-.265c0-.103.044-.17.125-.17.084 0 .127.071.127.17 0 .1-.044.172-.127.172-.08 0-.125-.069-.125-.172Z" style="fill-rule:nonzero" transform="matrix(12 0 0 12 615.206 255.24)"/>
<path d="M.291.01c.155 0 .254-.109.254-.273 0-.164-.099-.274-.254-.274s-.254.11-.254.274c0 .164.099.273.254.273Zm.001-.099c-.087 0-.129-.077-.129-.174 0-.097.042-.176.129-.176.085 0 .127.079.127.176 0 .097-.042.174-.127.174Z" style="fill-rule:nonzero" transform="matrix(12 0 0 12 622.387 255.24)"/>
<path d="M.184-.311c0-.077.047-.121.113-.121.065 0 .104.042.104.113V0h.124v-.338c0-.127-.072-.199-.182-.199C.264-.537.21-.5.185-.44H.179v-.09H.06V0h.124v-.311Z" style="fill-rule:nonzero" transform="matrix(12 0 0 12 629.378 255.24)"/>
<path d="M.53-.269c0-.187-.112-.268-.242-.268-.152 0-.251.111-.251.275 0 .166.098.272.258.272.123 0 .208-.06.23-.152H.404C.387-.11.35-.086.296-.086.215-.086.162-.14.161-.231H.53v-.038ZM.161-.315A.128.128 0 0 1 .29-.44c.072 0 .121.053.121.125h-.25Z" style="fill-rule:nonzero" transform="matrix(12 0 0 12 636.381 255.24)"/>
<path d="M.184-.311c0-.077.047-.121.113-.121.065 0 .104.042.104.113V0h.124v-.338c0-.127-.072-.199-.182-.199C.264-.537.21-.5.185-.44H.179v-.09H.06V0h.124v-.311Z" style="fill-rule:nonzero" transform="matrix(12 0 0 12 643.193 255.24)"/>
<path d="M.277-.097C.245-.098.22-.108.22-.16v-.274h.104V-.53H.22v-.127H.095v.127H.02v.096h.075v.295c0 .1.072.146.166.146a.51.51 0 0 0 .07-.005V-.1l-.054.003Z" style="fill-rule:nonzero" transform="matrix(12 0 0 12 650.195 255.24)"/>
<path d="M.478-.379C.469-.475.391-.537.265-.537c-.13 0-.215.064-.214.162-.001.076.051.127.149.148l.085.018c.053.011.077.031.077.062 0 .039-.039.063-.099.063-.058 0-.093-.022-.101-.067H.036C.048-.05.128.01.263.01c.139 0 .226-.069.226-.168C.489-.234.44-.281.34-.302L.25-.321C.196-.334.174-.354.174-.382c0-.036.039-.063.093-.063.052 0 .086.026.093.066h.118Z" style="fill-rule:nonzero" transform="matrix(12 0 0 12 654.422 255.24)"/>
<path d="m560 195-65 34M560 195l64 34M624 261v34" style="fill:none;stroke:#7f8292;stroke-width:1.5px;stroke-linecap:round"/>
<path d="m223.933 28.935-.634-4.143L242 28l-16.885 8.654-.575-3.757c-39.162 8.678-71.966 31.668-87.684 70.848-17.753 44.253-23.338 98.308-25.859 143.367a2.001 2.001 0 0 1-3.994-.224c2.543-45.46 8.23-99.986 26.141-144.633 16.273-40.564 50.217-64.402 90.789-73.32ZM249.756 26.015c.101-.013.204-.018.307-.014h.021c.047.002.093.006.14.011 142.247 13.257 247.364 119.836 332.97 275.208l3.544-1.911L590 318l-13.824-12.996 3.497-1.885-.012-.021c-8.995-16.316-18.374-32.423-28.23-48.234-7.501-12.032-15.276-23.893-23.367-35.536a729.192 729.192 0 0 0-19.234-26.42 646.78 646.78 0 0 0-15.218-19.177 588.677 588.677 0 0 0-12.939-15.154 551.915 551.915 0 0 0-10.194-11.218c-21.12-22.596-44.268-43.398-69.697-61.053a359.202 359.202 0 0 0-10.9-7.282 345.667 345.667 0 0 0-14.583-8.866 327.791 327.791 0 0 0-22.113-11.617 310.573 310.573 0 0 0-31.875-13.105 301.21 301.21 0 0 0-50.152-12.709l-.358-.059c31.921 13.509 56.337 39.914 73.83 78.188 20.516 44.887 31.505 106.192 33.952 182.106l4.031-.086L377 311l-6.383-17.868 3.966-.084c-2.428-75.254-13.253-136.033-33.59-180.529-16.973-37.136-40.574-62.864-71.488-76.049 45.831 29.719 75.893 85.241 68.981 158.61-4.13 43.834-22.632 91.458-79.716 144.454l2.697 3.055L244 350l9.527-16.408 2.596 2.941c56.04-52.057 74.324-98.77 78.381-141.828 7.621-80.892-30.644-139.643-85.309-164.874a1.476 1.476 0 0 1-.058-.026l-.023-.011-.016-.009a1.828 1.828 0 0 1-.262-.159l-.017-.012a1.976 1.976 0 0 1-.548-.609l-.007-.012a2.01 2.01 0 0 1-.244-.706l-.003-.024-.002-.019a1.847 1.847 0 0 1-.014-.307v-.021c.006-.142.027-.284.065-.425l.005-.02c.032-.116.074-.228.124-.334l.011-.023.009-.016c.046-.092.099-.18.159-.262l.012-.017c.165-.227.374-.412.609-.548l.012-.007a2.01 2.01 0 0 1 .706-.244l.024-.003.019-.002Z" style="fill:#0934e0;fill-opacity:.4"/>
<path d="M394 68c0-4.415-3.585-8-8-8H148c-4.415 0-8 3.585-8 8v64c0 4.415 3.585 8 8 8h238c4.415 0 8-3.585 8-8V68Z" style="fill:#fff;fill-opacity:.8"/>
<path d="M394 68c0-4.415-3.585-8-8-8H148c-4.415 0-8 3.585-8 8v64c0 4.415 3.585 8 8 8h238c4.415 0 8-3.585 8-8V68Zm-2 0v64c0 3.311-2.689 6-6 6H148c-3.311 0-6-2.689-6-6V68c0-3.311 2.689-6 6-6h238c3.311 0 6 2.688 6 6Z" style="fill:#7f8292"/>
<path d="M201.805 102.648V91.82h1.218v10.828h-1.218Zm1.101 0v-1.113h2.567v1.113h-2.567Zm0-9.714V91.82h2.567v1.114h-2.567ZM209.609 96.824l-.117-3.75h1.36l-.118 3.75h-1.125ZM214.672 104.09v-8.906h1.125l.117 1.312v7.594h-1.242Zm3.006-2.578c-.477 0-.861-.11-1.152-.328-.291-.219-.456-.524-.495-.914h-.539l.422-1.77c0 .641.126 1.127.378 1.459.252.332.622.498 1.11.498.5 0 .879-.178 1.137-.533.258-.356.387-.881.387-1.576 0-.735-.129-1.289-.387-1.664s-.637-.563-1.137-.563c-.488 0-.858.166-1.11.498-.252.332-.378.818-.378 1.459l-.422-1.769h.481c.054-.391.231-.696.53-.914.299-.219.69-.329 1.175-.329.816 0 1.433.278 1.851.832.418.555.627 1.372.627 2.45 0 1.039-.209 1.826-.627 2.361-.418.535-1.035.803-1.851.803ZM225.16 101.512c-.719 0-1.238-.196-1.558-.586-.321-.391-.481-1.016-.481-1.875v-6.446h1.242v6.387c0 .328.032.596.094.803a.743.743 0 0 0 .366.457c.182.098.45.146.806.146.324 0 .738-.074 1.242-.222l.141 1.09c-.317.086-.62.148-.911.187a7.099 7.099 0 0 1-.941.059Zm-3.867-7.817v-1.09h1.934v1.09h-1.934ZM232.543 101.453l-.082-1.84-.164-.515v-1.606c0-.414-.146-.718-.437-.911-.291-.193-.723-.298-1.297-.313l-1.489-.041.117-1.102 1.254.018c1.028.015 1.79.237 2.288.665.498.427.747 1.051.747 1.872v2.59l1.055.128v.997l-1.992.058Zm-2.191.059c-.649 0-1.151-.157-1.506-.469-.356-.313-.533-.754-.533-1.324 0-.657.245-1.16.735-1.512.49-.352 1.182-.527 2.077-.527.371 0 .702.022.993.067.291.045.55.112.777.202l-.258.844a4.269 4.269 0 0 0-.768-.103c-.25-.009-.506-.014-.767-.014-1.079 0-1.618.328-1.618.984 0 .274.093.485.279.633.185.148.448.223.788.223.387 0 .71-.067.97-.2a1.43 1.43 0 0 0 .583-.509c.128-.207.193-.42.193-.639v-.68l.363 1.594h-.492l.199-.187c0 .359-.083.659-.249.899-.166.24-.399.42-.7.539a2.891 2.891 0 0 1-1.066.179ZM235.221 104.207l-.059-1.113.973-.117c.41-.051.761-.163 1.052-.334.291-.172.54-.427.747-.765.207-.338.388-.78.545-1.327l1.546-5.367h1.289l-1.793 5.66c-.234.742-.497 1.34-.788 1.793-.291.453-.634.793-1.031 1.019-.396.227-.872.371-1.427.434l-1.054.117Zm2.355-2.812-2.472-6.211h1.289l2.027 5.273h.187v.938h-1.031ZM244.432 101.512c-.282 0-.559-.011-.832-.033a17.625 17.625 0 0 1-.832-.084l.48-1.137c.207.097.436.155.686.173.25.017.498.026.744.026.746 0 1.323-.225 1.731-.674.408-.449.612-1.084.612-1.904 0-.563-.124-.996-.372-1.301-.248-.305-.6-.457-1.057-.457-1.055 0-1.582.594-1.582 1.781l-.364-1.593h.481c.059-.829.566-1.243 1.523-1.243.829 0 1.469.245 1.922.733.453.488.68 1.181.68 2.08 0 1.152-.333 2.046-.999 2.681-.666.634-1.607.952-2.821.952Zm-1.664-.117v-8.79h1.242v8.684l-1.242.106ZM253.637 101.453l-.082-1.84-.164-.515v-1.606c0-.414-.146-.718-.437-.911-.291-.193-.724-.298-1.298-.313l-1.488-.041.117-1.102 1.254.018c1.027.015 1.79.237 2.288.665.498.427.747 1.051.747 1.872v2.59l1.055.128v.997l-1.992.058Zm-2.192.059c-.648 0-1.15-.157-1.506-.469-.355-.313-.533-.754-.533-1.324 0-.657.245-1.16.736-1.512.49-.352 1.182-.527 2.077-.527.371 0 .702.022.993.067.291.045.55.112.776.202l-.258.844a4.246 4.246 0 0 0-.767-.103c-.25-.009-.506-.014-.768-.014-1.078 0-1.617.328-1.617.984 0 .274.093.485.278.633.186.148.449.223.789.223.386 0 .709-.067.969-.2.26-.132.454-.302.583-.509.129-.207.194-.42.194-.639v-.68l.363 1.594h-.492l.199-.187c0 .359-.083.659-.249.899-.166.24-.399.42-.7.539a2.897 2.897 0 0 1-1.067.179ZM259.988 101.512c-1.058 0-1.876-.279-2.452-.835-.576-.557-.864-1.357-.864-2.4 0-1.015.272-1.804.817-2.367.545-.562 1.324-.844 2.335-.844.606 0 1.124.113 1.556.337.432.225.739.542.923.952l-.955.721a1.889 1.889 0 0 0-.674-.662 1.78 1.78 0 0 0-.897-.234c-.586 0-1.041.176-1.365.53-.324.353-.486.856-.486 1.509 0 .707.19 1.247.571 1.62.381.373.925.559 1.632.559.289 0 .578-.013.867-.041.289-.027.57-.064.844-.111l.14 1.09c-.32.07-.651.117-.993.141-.341.023-.674.035-.999.035ZM264.723 99.039v-1.113h.703c.515 0 .939-.089 1.271-.267.332-.178.593-.468.782-.87.19-.402.33-.937.419-1.605h1.29c-.165 1.293-.533 2.258-1.105 2.897-.572.639-1.36.958-2.364.958h-.996Zm-.879 2.356v-8.79h1.242v8.79h-1.242Zm4.207 0-1.77-3.024 1.172-.48 2.133 3.504h-1.535ZM272.891 96.824l-.118-3.75h1.36l-.117 3.75h-1.125ZM279.383 103.949l.469-4.043h1.359l-.703 4.043h-1.125ZM293.984 96.824l-.117-3.75h1.36l-.118 3.75h-1.125ZM301.104 101.512c-.813 0-1.429-.268-1.849-.803-.42-.535-.63-1.322-.63-2.361 0-1.078.21-1.895.63-2.45.42-.554 1.036-.832 1.849-.832.464 0 .842.11 1.133.329.291.218.462.523.513.914h.48l-.363 1.769c0-.641-.126-1.127-.378-1.459-.252-.332-.622-.498-1.11-.498-.5 0-.879.188-1.137.563-.258.375-.387.929-.387 1.664 0 .695.129 1.22.387 1.576.258.355.637.533 1.137.533.488 0 .858-.166 1.11-.498.252-.332.378-.818.378-1.459l.422 1.77h-.539c-.039.39-.204.695-.495.914-.291.218-.675.328-1.151.328Zm1.892-.059-.129-1.219v-7.629h1.242v8.79l-1.113.058ZM308.398 101.395v-5.86h1.243v5.86h-1.243Zm-2.367 0v-1.09h2.485v1.09h-2.485Zm3.492 0v-1.09h2.028v1.09h-2.028Zm-3.14-5.122v-1.089h3.258v1.089h-3.258Zm2.596-2.074a.835.835 0 0 1-.613-.255.835.835 0 0 1-.255-.612c0-.242.085-.447.255-.615a.84.84 0 0 1 .613-.252c.242 0 .447.084.615.252a.837.837 0 0 1 .252.615.84.84 0 0 1-.252.612.832.832 0 0 1-.615.255ZM313.191 104.195l-.058-1.136 1.992-.059c.629-.02 1.086-.193 1.371-.521.285-.329.43-.811.434-1.448v-4.535l.117-1.312h1.125v5.66c0 1.105-.252 1.922-.756 2.449-.504.527-1.307.809-2.408.844l-1.817.058Zm1.975-2.683c-.812 0-1.429-.268-1.849-.803-.42-.535-.629-1.322-.629-2.361 0-1.078.209-1.895.629-2.45.42-.554 1.037-.832 1.849-.832.484 0 .877.11 1.178.329.301.218.476.523.527.914h.481l-.422 1.769c0-.641-.126-1.127-.378-1.459-.252-.332-.622-.498-1.111-.498-.5 0-.878.188-1.136.563-.258.375-.387.929-.387 1.664 0 .695.129 1.22.387 1.576.258.355.636.533 1.136.533.489 0 .859-.166 1.111-.498.252-.332.378-.818.378-1.459l.422 1.77h-.539c-.04.39-.205.695-.496.914-.291.218-.674.328-1.151.328ZM322.461 101.395v-5.86h1.242v5.86h-1.242Zm-2.367 0v-1.09h2.484v1.09h-2.484Zm3.492 0v-1.09h2.027v1.09h-2.027Zm-3.141-5.122v-1.089h3.258v1.089h-3.258Zm2.596-2.074a.835.835 0 0 1-.612-.255.835.835 0 0 1-.255-.612c0-.242.085-.447.255-.615a.84.84 0 0 1 .612-.252c.242 0 .447.084.615.252a.837.837 0 0 1 .252.615.84.84 0 0 1-.252.612.832.832 0 0 1-.615.255ZM330.828 101.512c-.941 0-1.622-.196-2.042-.586-.42-.391-.63-1.016-.63-1.875v-1.055h1.242v.996c0 .492.121.85.361 1.072.24.223.636.334 1.186.334.196 0 .403-.01.621-.032.219-.021.469-.05.75-.085l.141 1.09a9.413 9.413 0 0 1-1.629.141Zm-2.672-3.047v-5.156h1.242v5.156h-1.242Zm-1.558-2.192v-1.089h5.625v1.089h-5.625ZM336.172 96.824l-.117-3.75h1.359l-.117 3.75h-1.125ZM342.664 103.949l.469-4.043h1.359l-.703 4.043h-1.125ZM357.324 101.512c-.429 0-.823-.026-1.18-.076a6.191 6.191 0 0 1-.953-.206l.147-1.119c.238.067.507.137.806.211.298.074.676.112 1.133.112.61 0 1.082-.122 1.418-.364.336-.242.504-.582.504-1.019 0-.313-.096-.578-.29-.797-.193-.219-.473-.385-.841-.498-.367-.113-.814-.17-1.341-.17h-.188l-.141-.762 1.793.141c.664.051 1.204.266 1.618.647.414.381.621.9.621 1.556 0 .742-.271 1.318-.812 1.728-.541.411-1.305.616-2.294.616Zm-.785-3.926-.141-.762c.618-.082 1.119-.203 1.503-.363.385-.16.668-.355.85-.583.182-.229.272-.483.272-.765 0-.34-.11-.604-.331-.794-.22-.189-.536-.284-.946-.284-.297 0-.612.074-.946.223-.334.148-.65.371-.946.668l-.809-.803a3.233 3.233 0 0 1 1.248-.888 4.31 4.31 0 0 1 1.582-.278c.758 0 1.344.161 1.758.483.414.323.621.783.621 1.38 0 .5-.16.935-.481 1.304-.32.369-.738.622-1.253.759v.703h-1.981ZM364.977 102.648V91.82h1.218v10.828h-1.218Zm-2.45 0v-1.113h2.567v1.113h-2.567Zm0-9.714V91.82h2.567v1.114h-2.567Z" style="fill-rule:nonzero"/>
<path d="M208 106h68M229 106v12M326 106v12M292 106h70" style="fill:none;stroke:#0934e0;stroke-width:1.5px"/>
<path d="M198.926 127.76c-2.155 0-3.233-1.192-3.233-3.574 0-1.13.272-2.005.816-2.625.543-.62 1.31-.93 2.3-.93.478 0 .895.076 1.25.227.354.151.613.367.776.647l-.723.718a1.509 1.509 0 0 0-.559-.513 1.544 1.544 0 0 0-.735-.181c-.628 0-1.132.227-1.511.679-.379.452-.569 1.095-.569 1.929 0 1.816.785 2.724 2.354 2.724.472 0 .937-.097 1.396-.293l.225.86a4.875 4.875 0 0 1-1.787.332ZM204.063 127.76c-.717 0-1.273-.235-1.67-.703-.398-.469-.596-1.13-.596-1.983 0-.856.198-1.518.596-1.985.397-.467.953-.7 1.67-.7.719 0 1.276.233 1.672.7.395.467.593 1.129.593 1.985 0 .853-.198 1.514-.593 1.983-.396.468-.953.703-1.672.703Zm0-.928c.38 0 .674-.153.881-.459.207-.306.31-.739.31-1.299 0-.563-.103-.997-.31-1.301a1.005 1.005 0 0 0-.881-.457c-.381 0-.675.153-.882.457-.207.304-.31.738-.31 1.301 0 .56.103.993.31 1.299.207.306.501.459.882.459ZM211.27 127.662v-3.955c0-.358-.134-.537-.401-.537-.338 0-.508.234-.508.703l-.351-.742h.4a.816.816 0 0 1 .242-.523c.145-.146.354-.219.627-.219.358 0 .619.096.782.288.162.192.244.503.244.932v4.053h-1.035Zm-3.731 0v-5.176h.918l.117 1.094v4.082h-1.035Zm1.943 0v-4.053c0-.293-.136-.439-.41-.439-.332 0-.498.234-.498.703l-.303-.742h.333c.039-.495.335-.742.888-.742.27 0 .483.092.637.278.155.186.232.467.232.845v4.15h-.879ZM217.129 127.662v-3.955c0-.358-.134-.537-.4-.537-.339 0-.508.234-.508.703l-.352-.742h.401a.815.815 0 0 1 .241-.523c.145-.146.354-.219.628-.219.358 0 .618.096.781.288.163.192.244.503.244.932v4.053h-1.035Zm-3.731 0v-5.176h.918l.118 1.094v4.082h-1.036Zm1.944 0v-4.053c0-.293-.137-.439-.41-.439-.332 0-.498.234-.498.703l-.303-.742h.332c.039-.495.335-.742.889-.742.27 0 .482.092.637.278.154.186.232.467.232.845v4.15h-.879ZM222.705 127.711l-.068-1.533-.137-.43v-1.338c0-.345-.121-.598-.364-.759-.242-.161-.603-.248-1.081-.261l-1.241-.035.098-.918 1.045.015c.856.013 1.492.198 1.907.554.415.357.622.877.622 1.56v2.159l.879.107v.83l-1.66.049Zm-1.826.049c-.54 0-.959-.13-1.255-.391-.296-.26-.444-.628-.444-1.103 0-.547.204-.967.612-1.26.409-.293.986-.44 1.731-.44.31 0 .586.019.828.057.243.037.458.093.647.168l-.215.703a3.529 3.529 0 0 0-.639-.085 16.695 16.695 0 0 0-.64-.013c-.899 0-1.348.274-1.348.821 0 .228.078.403.232.527.155.124.374.186.657.186.322 0 .592-.056.808-.166.216-.111.378-.253.486-.425a1 1 0 0 0 .161-.532v-.567l.303 1.328h-.41l.166-.156c0 .3-.07.549-.208.75-.138.2-.333.35-.583.449a2.416 2.416 0 0 1-.889.149ZM228.574 127.662v-3.369c0-.313-.081-.553-.244-.723-.163-.169-.391-.254-.684-.254-.813 0-1.22.479-1.22 1.436l-.303-1.328h.4c.03-.348.157-.608.381-.779.225-.171.554-.256.987-.256.547 0 .97.166 1.269.498.3.332.449.8.449 1.406v3.369h-1.035Zm-3.183 0v-5.176h.937l.098 1.094v4.082h-1.035ZM232.964 127.76c-.677 0-1.191-.223-1.541-.669-.35-.446-.525-1.102-.525-1.968 0-.898.175-1.579.525-2.041.35-.462.864-.693 1.541-.693.387 0 .702.091.945.273.242.182.385.436.427.762h.4l-.302 1.474c0-.533-.105-.939-.315-1.215-.21-.277-.519-.415-.926-.415-.416 0-.732.156-.947.468-.215.313-.322.775-.322 1.387 0 .579.107 1.017.322 1.314.215.296.531.444.947.444.407 0 .716-.138.926-.415.21-.277.315-.682.315-1.216l.351 1.475h-.449c-.033.325-.17.579-.413.761-.242.183-.562.274-.959.274Zm1.577-.049-.107-1.016v-6.357h1.035v7.324l-.928.049ZM240.117 127.662l-1.992-5.273h-.449v-1.66h.644l1.993 5.273h.244v1.66h-.44Zm-3.105 0v-6.933h1.015v6.933h-1.015Zm3.398 0v-6.933h1.016v6.933h-1.016ZM246.143 127.711l-.069-1.533-.136-.43v-1.338c0-.345-.122-.598-.364-.759-.243-.161-.603-.248-1.082-.261l-1.24-.035.098-.918 1.045.015c.856.013 1.491.198 1.906.554.415.357.623.877.623 1.56v2.159l.879.107v.83l-1.66.049Zm-1.827.049c-.54 0-.958-.13-1.254-.391-.297-.26-.445-.628-.445-1.103 0-.547.204-.967.613-1.26.409-.293.985-.44 1.731-.44a5.4 5.4 0 0 1 .828.057c.242.037.458.093.647.168l-.215.703a3.54 3.54 0 0 0-.64-.085 16.612 16.612 0 0 0-.64-.013c-.898 0-1.347.274-1.347.821 0 .228.077.403.232.527.154.124.373.186.656.186.323 0 .592-.056.809-.166.216-.111.378-.253.485-.425a.992.992 0 0 0 .162-.532v-.567l.302 1.328h-.41l.166-.156c0 .3-.069.549-.207.75-.139.2-.333.35-.584.449a2.416 2.416 0 0 1-.889.149ZM252.285 127.662v-3.955c0-.358-.133-.537-.4-.537-.339 0-.508.234-.508.703l-.352-.742h.401a.82.82 0 0 1 .241-.523c.145-.146.354-.219.628-.219.358 0 .618.096.781.288.163.192.244.503.244.932v4.053h-1.035Zm-3.73 0v-5.176h.918l.117 1.094v4.082h-1.035Zm1.943 0v-4.053c0-.293-.137-.439-.41-.439-.332 0-.498.234-.498.703l-.303-.742h.332c.039-.495.335-.742.889-.742.27 0 .482.092.637.278.155.186.232.467.232.845v4.15h-.879ZM257.246 127.76c-.882 0-1.563-.232-2.043-.696-.481-.464-.721-1.13-.721-2 0-.846.204-1.503.611-1.972.407-.469.981-.703 1.723-.703.7 0 1.241.211 1.624.634.382.424.574 1.039.574 1.846 0 .238-.01.459-.03.664h-3.632v-.791h2.724c0-.465-.111-.823-.332-1.072-.221-.249-.527-.373-.918-.373-.439 0-.78.15-1.023.449-.242.3-.364.723-.364 1.27 0 .599.167 1.054.501 1.367.334.312.808.469 1.423.469.215 0 .427-.013.635-.037.208-.024.42-.058.635-.1l.127.908a6.685 6.685 0 0 1-.84.112c-.254.017-.479.025-.674.025ZM150.014 102.63v-3.377h.074c.224.41.684 1.114 1.84 1.114 1.542 0 2.656-1.234 2.656-3.294 0-2.067-1.131-3.277-2.668-3.277-1.177 0-1.608.716-1.828 1.114h-.103v-1.032h-1.223v8.752h1.252Zm-.025-5.569c0-1.326.576-2.2 1.657-2.2 1.115 0 1.674.94 1.674 2.2 0 1.276-.571 2.241-1.674 2.241-1.065 0-1.657-.911-1.657-2.241ZM158.334 93.796c-1.5 0-2.486.766-2.602 1.819h1.247c.129-.473.576-.808 1.31-.808.853 0 1.297.414 1.297 1.131v.518c-.274.008-1.243.058-1.674.087-1.144.083-2.379.456-2.379 1.902 0 1.247.941 1.939 2.151 1.939 1.052 0 1.641-.53 1.881-1.011h.05v.87h1.218v-4.226c0-1.848-1.484-2.221-2.499-2.221Zm-.373 5.589c-.7 0-1.201-.31-1.201-.924 0-.625.513-.936 1.33-.994.302-.021 1.214-.083 1.5-.1v.581c0 .754-.605 1.437-1.629 1.437ZM162.884 102.63c1.048 0 1.695-.535 2.064-1.542l2.622-7.21h-1.338l-1.612 4.936h-.066l-1.604-4.936h-1.338l2.333 6.452-.158.414c-.294.804-.621.829-1.007.829a7.97 7.97 0 0 1-.559-.016l-.008 1.048c.165.017.414.025.671.025ZM168.594 91.757h1.251v8.486h-1.251zM174.059 100.372c1.795 0 2.967-1.314 2.967-3.282 0-1.981-1.172-3.294-2.967-3.294-1.798 0-2.975 1.313-2.975 3.294 0 1.968 1.177 3.282 2.975 3.282Zm.005-1.045c-1.165 0-1.72-1.023-1.72-2.241 0-1.214.555-2.25 1.72-2.25 1.151 0 1.703 1.036 1.703 2.25 0 1.218-.552 2.241-1.703 2.241ZM180.768 93.796c-1.5 0-2.486.766-2.602 1.819h1.247c.128-.473.576-.808 1.309-.808.854 0 1.297.414 1.297 1.131v.518a72.97 72.97 0 0 0-1.674.087c-1.143.083-2.378.456-2.378 1.902 0 1.247.94 1.939 2.15 1.939 1.053 0 1.641-.53 1.882-1.011h.049v.87h1.219v-4.226c0-1.848-1.484-2.221-2.499-2.221Zm-.373 5.589c-.7 0-1.202-.31-1.202-.924 0-.625.514-.936 1.33-.994.303-.021 1.215-.083 1.5-.1v.581c0 .754-.604 1.437-1.628 1.437ZM187.162 100.367c1.16 0 1.611-.704 1.844-1.114h.095v.99h1.222v-8.486h-1.251v3.153h-.066c-.224-.398-.651-1.114-1.832-1.114-1.537 0-2.677 1.21-2.677 3.277 0 2.06 1.123 3.294 2.665 3.294Zm.281-1.065c-1.102 0-1.674-.965-1.674-2.241 0-1.26.56-2.2 1.674-2.2 1.074 0 1.658.874 1.658 2.2 0 1.33-.597 2.241-1.658 2.241ZM192.772 95.689a.84.84 0 0 0 .833-.828.84.84 0 0 0-.833-.829.826.826 0 0 0-.829.829.826.826 0 0 0 .829.828Zm-.004 4.633a.837.837 0 0 0 .829-.829.837.837 0 0 0-.829-.829.827.827 0 0 0-.833.829.827.827 0 0 0 .833.829ZM271.336 127.76a.693.693 0 0 1-.51-.213.693.693 0 0 1-.213-.51c0-.202.071-.373.213-.513a.698.698 0 0 1 .51-.21c.202 0 .373.07.513.21.14.14.21.311.21.513 0 .199-.07.369-.21.51a.693.693 0 0 1-.513.213ZM277.195 127.76a.696.696 0 0 1-.51-.213.692.692 0 0 1-.212-.51c0-.202.07-.373.212-.513a.7.7 0 0 1 .51-.21c.202 0 .373.07.513.21.14.14.21.311.21.513 0 .199-.07.369-.21.51a.693.693 0 0 1-.513.213ZM283.055 127.76a.696.696 0 0 1-.511-.213.696.696 0 0 1-.212-.51c0-.202.071-.373.212-.513a.701.701 0 0 1 .511-.21c.202 0 .372.07.512.21.14.14.21.311.21.513 0 .199-.07.369-.21.51a.69.69 0 0 1-.512.213ZM289.637 127.76c-2.155 0-3.233-1.192-3.233-3.574 0-1.13.272-2.005.816-2.625.543-.62 1.31-.93 2.3-.93.478 0 .895.076 1.25.227.354.151.613.367.776.647l-.723.718a1.509 1.509 0 0 0-.559-.513 1.544 1.544 0 0 0-.735-.181c-.628 0-1.132.227-1.511.679-.379.452-.569 1.095-.569 1.929 0 1.816.785 2.724 2.354 2.724.472 0 .937-.097 1.396-.293l.225.86a4.875 4.875 0 0 1-1.787.332ZM294.773 127.76c-.716 0-1.272-.235-1.669-.703-.398-.469-.596-1.13-.596-1.983 0-.856.198-1.518.596-1.985.397-.467.953-.7 1.669-.7.72 0 1.277.233 1.673.7.395.467.593 1.129.593 1.985 0 .853-.198 1.514-.593 1.983-.396.468-.953.703-1.673.703Zm0-.928c.381 0 .675-.153.882-.459.206-.306.31-.739.31-1.299 0-.563-.104-.997-.31-1.301-.207-.304-.501-.457-.882-.457-.38 0-.674.153-.881.457-.207.304-.31.738-.31 1.301 0 .56.103.993.31 1.299.207.306.501.459.881.459ZM301.98 127.662v-3.955c0-.358-.133-.537-.4-.537-.338 0-.508.234-.508.703l-.351-.742h.4a.816.816 0 0 1 .242-.523c.145-.146.354-.219.627-.219.358 0 .619.096.781.288.163.192.245.503.245.932v4.053h-1.036Zm-3.73 0v-5.176h.918l.117 1.094v4.082h-1.035Zm1.943 0v-4.053c0-.293-.136-.439-.41-.439-.332 0-.498.234-.498.703l-.303-.742h.332c.04-.495.336-.742.889-.742.27 0 .483.092.637.278.155.186.232.467.232.845v4.15h-.879ZM307.84 127.662v-3.955c0-.358-.134-.537-.401-.537-.338 0-.507.234-.507.703l-.352-.742h.4a.821.821 0 0 1 .242-.523c.145-.146.354-.219.628-.219.358 0 .618.096.781.288.163.192.244.503.244.932v4.053h-1.035Zm-3.731 0v-5.176h.918l.118 1.094v4.082h-1.036Zm1.944 0v-4.053c0-.293-.137-.439-.41-.439-.332 0-.498.234-.498.703l-.303-.742h.332c.039-.495.335-.742.889-.742.27 0 .482.092.637.278.154.186.232.467.232.845v4.15h-.879ZM313.416 127.711l-.068-1.533-.137-.43v-1.338c0-.345-.121-.598-.364-.759-.242-.161-.603-.248-1.081-.261l-1.241-.035.098-.918 1.045.015c.856.013 1.492.198 1.907.554.415.357.622.877.622 1.56v2.159l.879.107v.83l-1.66.049Zm-1.826.049c-.541 0-.959-.13-1.255-.391-.296-.26-.444-.628-.444-1.103 0-.547.204-.967.612-1.26.409-.293.986-.44 1.731-.44.31 0 .585.019.828.057.243.037.458.093.647.168l-.215.703a3.528 3.528 0 0 0-.64-.085 16.601 16.601 0 0 0-.639-.013c-.899 0-1.348.274-1.348.821 0 .228.077.403.232.527.155.124.374.186.657.186.322 0 .591-.056.808-.166.216-.111.378-.253.486-.425a1 1 0 0 0 .161-.532v-.567l.303 1.328h-.41l.166-.156c0 .3-.07.549-.208.75-.138.2-.333.35-.583.449a2.416 2.416 0 0 1-.889.149ZM319.285 127.662v-3.369c0-.313-.081-.553-.244-.723-.163-.169-.391-.254-.684-.254-.813 0-1.22.479-1.22 1.436l-.303-1.328h.4c.03-.348.157-.608.381-.779.225-.171.554-.256.987-.256.546 0 .97.166 1.269.498.3.332.449.8.449 1.406v3.369h-1.035Zm-3.183 0v-5.176h.937l.098 1.094v4.082h-1.035ZM323.675 127.76c-.677 0-1.191-.223-1.541-.669-.35-.446-.525-1.102-.525-1.968 0-.898.175-1.579.525-2.041.35-.462.864-.693 1.541-.693.387 0 .702.091.945.273.242.182.385.436.427.762h.4l-.302 1.474c0-.533-.105-.939-.315-1.215-.21-.277-.519-.415-.926-.415-.416 0-.732.156-.947.468-.215.313-.322.775-.322 1.387 0 .579.107 1.017.322 1.314.215.296.531.444.947.444.407 0 .716-.138.926-.415.21-.277.315-.682.315-1.216l.351 1.475h-.449c-.033.325-.17.579-.413.761-.242.183-.562.274-.959.274Zm1.577-.049-.107-1.016v-6.357h1.035v7.324l-.928.049ZM327.22 127.662l2.002-6.933h1.416l2.002 6.933h-1.026l-1.64-6.094h-.088l-1.641 6.094h-1.025Zm.927-1.689v-.928h3.516v.928h-3.516ZM335.438 125.436l-.303-1.622h.4c.059-.95.534-1.425 1.426-1.425.534 0 .921.153 1.162.459.241.306.361.8.361 1.484h-1.025c0-.378-.056-.649-.168-.815-.113-.166-.294-.249-.545-.249-.439 0-.767.188-.984.564-.216.376-.324.91-.324 1.604Zm-2.188 2.226v-.908h3.457v.908h-3.457Zm1.152 0v-5.176h.84l.196 1.485v3.691h-1.036Zm-.957-4.267v-.909h1.729l.097.909h-1.826ZM339.607 129.996l-.048-.947 1.66-.049c.524-.016.905-.161 1.142-.435.238-.273.358-.675.362-1.206v-3.779l.097-1.094h.938v4.717c0 .921-.21 1.602-.63 2.041-.42.44-1.089.674-2.007.703l-1.514.049Zm1.646-2.236c-.677 0-1.191-.223-1.541-.669-.35-.446-.524-1.102-.524-1.968 0-.898.174-1.579.524-2.041.35-.462.864-.693 1.541-.693.404 0 .731.091.981.273.251.182.398.436.44.762h.4l-.351 1.474c0-.533-.105-.939-.315-1.215-.21-.277-.519-.415-.926-.415-.416 0-.732.156-.947.468-.215.313-.322.775-.322 1.387 0 .579.107 1.017.322 1.314.215.296.531.444.947.444.407 0 .716-.138.926-.415.21-.277.315-.682.315-1.216l.351 1.475h-.449c-.033.325-.17.579-.413.761-.242.183-.562.274-.959.274ZM347 127.76c-.544 0-.964-.162-1.262-.486-.298-.324-.447-.781-.447-1.37v-3.418h1.035v3.418c0 .297.085.525.254.686.169.161.407.242.713.242.378 0 .662-.12.854-.359.193-.239.289-.64.289-1.203l.263 1.396h-.342c-.081.352-.24.622-.478.811-.238.188-.531.283-.879.283Zm1.523-.049-.087-1.24v-.909h1.035v1.163l.713.107v.83l-1.661.049Zm-.087-1.514v-3.711h1.035v3.418l-1.035.293ZM354.715 127.662v-3.955c0-.358-.134-.537-.401-.537-.338 0-.507.234-.507.703l-.352-.742h.4a.821.821 0 0 1 .242-.523c.145-.146.354-.219.628-.219.358 0 .618.096.781.288.163.192.244.503.244.932v4.053h-1.035Zm-3.731 0v-5.176h.918l.118 1.094v4.082h-1.036Zm1.944 0v-4.053c0-.293-.137-.439-.41-.439-.332 0-.498.234-.498.703l-.303-.742h.332c.039-.495.335-.742.889-.742.27 0 .482.092.637.278.154.186.232.467.232.845v4.15h-.879ZM359.676 127.76c-.882 0-1.564-.232-2.044-.696-.48-.464-.72-1.13-.72-2 0-.846.204-1.503.61-1.972.407-.469.982-.703 1.724-.703.7 0 1.241.211 1.624.634.382.424.573 1.039.573 1.846 0 .238-.009.459-.029.664h-3.633v-.791h2.725c0-.465-.111-.823-.332-1.072-.222-.249-.528-.373-.918-.373-.44 0-.781.15-1.023.449-.243.3-.364.723-.364 1.27 0 .599.167 1.054.501 1.367.333.312.808.469 1.423.469.215 0 .426-.013.635-.037.208-.024.42-.058.635-.1l.126.908a6.671 6.671 0 0 1-.839.112c-.254.017-.479.025-.674.025ZM366.16 127.662v-3.369c0-.313-.081-.553-.244-.723-.163-.169-.391-.254-.684-.254-.813 0-1.22.479-1.22 1.436l-.303-1.328h.4c.03-.348.157-.608.381-.779.225-.171.554-.256.987-.256.546 0 .97.166 1.269.498.3.332.449.8.449 1.406v3.369h-1.035Zm-3.183 0v-5.176h.937l.098 1.094v4.082h-1.035ZM371.883 127.76c-.785 0-1.352-.163-1.702-.489-.35-.325-.525-.846-.525-1.562v-.879h1.035v.83c0 .41.101.708.301.894.2.185.529.278.988.278.163 0 .336-.009.518-.027a21.7 21.7 0 0 0 .625-.071l.117.909c-.228.039-.45.068-.666.087-.217.02-.447.03-.691.03Zm-2.227-2.539v-4.297h1.035v4.297h-1.035Zm-1.299-1.826v-.909h4.688v.909h-4.688ZM375.691 128.707v-9.023h1.016v9.023h-1.016Zm.918 0v-.928h2.139v.928h-2.139Zm0-8.096v-.927h2.139v.927h-2.139ZM382.762 128.707v-9.023h1.015v9.023h-1.015Zm-2.041 0v-.928h2.138v.928h-2.138Zm0-8.096v-.927h2.138v.927h-2.138Z" style="fill-rule:nonzero"/>
<path d="M.253-.6V0h.126v-.6h.219v-.107H.035V-.6h.218Z" style="fill-rule:nonzero" transform="matrix(14 0 0 14 175.608 77.95)"/>
<path d="M.276-.537c-.133 0-.214.068-.223.158h.12c.01-.038.044-.063.099-.063.063 0 .096.03.096.082v.043a22.12 22.12 0 0 0-.135.007c-.099.006-.198.041-.198.161 0 .104.077.16.178.16.083 0 .133-.04.156-.084h.004V0h.119v-.355c0-.141-.116-.182-.216-.182Zm-.031.456c-.052 0-.09-.024-.09-.07 0-.046.038-.071.097-.075.025-.003.094-.007.116-.008l.001.044c0 .059-.049.109-.124.109Z" style="fill-rule:nonzero" transform="matrix(14 0 0 14 183.454 77.95)"/>
<path d="M.398-.223c0 .081-.058.121-.113.121-.061 0-.101-.042-.101-.11V-.53H.06v.337c0 .128.073.2.177.2.08 0 .135-.042.159-.101h.006V0h.12v-.53H.398v.307Z" style="fill-rule:nonzero" transform="matrix(14 0 0 14 191.155 77.95)"/>
<path d="M.184 0v-.312c0-.067.051-.115.12-.115.021 0 .047.003.058.007v-.115a.319.319 0 0 0-.045-.003.133.133 0 0 0-.131.096H.181V-.53H.06V0h.124Z" style="fill-rule:nonzero" transform="matrix(14 0 0 14 199.306 77.95)"/>
<path d="M.123-.606c.039 0 .071-.03.071-.067a.07.07 0 0 0-.071-.068c-.04 0-.073.03-.073.068 0 .037.033.067.073.067ZM.184 0v-.53H.06V0h.124Z" style="fill-rule:nonzero" transform="matrix(14 0 0 14 204.575 77.95)"/>
<path d="M.528 0v-.107H.193v-.194h.308v-.106H.193V-.6h.332v-.107H.066V0h.462Z" style="fill-rule:nonzero" transform="matrix(14 0 0 14 211.319 77.95)"/>
<path d="m.401-.53-.123.394H.273L.15-.53H.018L.207 0h.137l.189-.53H.401Z" style="fill-rule:nonzero" transform="matrix(14 0 0 14 219.465 77.95)"/>
<path d="M.53-.269c0-.187-.112-.268-.242-.268-.152 0-.251.111-.251.275 0 .166.098.272.258.272.123 0 .208-.06.23-.152H.404C.387-.11.35-.086.296-.086.215-.086.162-.14.161-.231H.53v-.038ZM.161-.315A.128.128 0 0 1 .29-.44c.072 0 .121.053.121.125h-.25Z" style="fill-rule:nonzero" transform="matrix(14 0 0 14 226.929 77.95)"/>
<path d="M.184-.311c0-.077.047-.121.113-.121.065 0 .104.042.104.113V0h.124v-.338c0-.127-.072-.199-.182-.199C.264-.537.21-.5.185-.44H.179v-.09H.06V0h.124v-.311Z" style="fill-rule:nonzero" transform="matrix(14 0 0 14 234.876 77.95)"/>
<path d="M.277-.097C.245-.098.22-.108.22-.16v-.274h.104V-.53H.22v-.127H.095v.127H.02v.096h.075v.295c0 .1.072.146.166.146a.51.51 0 0 0 .07-.005V-.1l-.054.003Z" style="fill-rule:nonzero" transform="matrix(14 0 0 14 243.046 77.95)"/>
<path d="M.094-.293a.73.73 0 0 0 .134.44h.096a.827.827 0 0 1-.122-.44c0-.164.054-.349.122-.44H.228a.73.73 0 0 0-.134.44Z" style="fill-rule:nonzero" transform="matrix(14 0 0 14 251.414 77.95)"/>
<path d="M.064-.707h.104V0H.064z" style="fill-rule:nonzero" transform="matrix(14 0 0 14 256.413 77.95)"/>
<path d="M.272-.537c-.125 0-.207.064-.217.151h.104C.17-.425.207-.453.268-.453c.071 0 .108.034.108.094v.043a5.389 5.389 0 0 0-.139.008C.142-.301.039-.27.039-.15c0 .104.078.162.179.162.088 0 .137-.044.157-.085h.004V0H.48v-.352c0-.154-.123-.185-.208-.185Zm-.031.466c-.058 0-.1-.026-.1-.077 0-.053.043-.079.111-.083L.377-.24v.049c0 .063-.051.12-.136.12Z" style="fill-rule:nonzero" transform="matrix(14 0 0 14 259.652 77.95)"/>
<path d="M.174 0v-.083h.008A.16.16 0 0 0 .335.01c.129 0 .222-.103.222-.274 0-.172-.095-.273-.223-.273-.098 0-.133.059-.152.093H.176v-.263H.072V0h.102Zm0-.265c0-.111.048-.184.138-.184.093 0 .139.079.139.184 0 .106-.047.187-.139.187-.089 0-.138-.076-.138-.187Z" style="fill-rule:nonzero" transform="matrix(14 0 0 14 267.251 77.95)"/>
<path d="M.521-.271c0-.191-.115-.266-.236-.266-.148 0-.245.112-.245.275 0 .165.096.273.252.273.117 0 .198-.058.222-.144H.408C.391-.1.352-.075.293-.075c-.088 0-.147-.058-.15-.159h.378v-.037ZM.144-.312c.004-.074.059-.14.142-.14.08 0 .132.06.132.14H.144Z" style="fill-rule:nonzero" transform="matrix(14 0 0 14 275.615 77.95)"/>
<path d="M.064-.707h.104V0H.064z" style="fill-rule:nonzero" transform="matrix(14 0 0 14 283.461 77.95)"/>
<path d="M.132-.379a.072.072 0 0 0 .07-.07.07.07 0 0 0-.07-.069.069.069 0 0 0-.069.069.07.07 0 0 0 .069.07Zm0 .386a.07.07 0 0 0 .069-.069.07.07 0 0 0-.069-.07.07.07 0 0 0-.07.07.07.07 0 0 0 .07.069Z" style="fill-rule:nonzero" transform="matrix(14 0 0 14 286.7 77.95)"/>
<path d="M.056-.707h.086v.252H.056z" style="fill-rule:nonzero" transform="matrix(14 0 0 14 293.806 77.95)"/>
<path d="M.461-.386C.452-.477.378-.537.26-.537c-.123 0-.205.065-.205.159 0 .073.05.125.145.145l.083.019c.056.012.082.034.082.069 0 .044-.044.072-.112.072-.062 0-.098-.024-.107-.072H.039c.013.099.088.156.215.156.136 0 .217-.069.217-.165 0-.074-.047-.121-.144-.143l-.085-.02C.184-.33.158-.353.159-.384c-.001-.04.042-.071.102-.071.057 0 .091.027.1.069h.1Z" style="fill-rule:nonzero" transform="matrix(14 0 0 14 296.61 77.95)"/>
<path d="M.168-.315c0-.084.053-.132.127-.132.07 0 .112.045.112.122V0h.105v-.337c0-.133-.073-.2-.182-.2-.083 0-.132.036-.157.093H.166v-.263H.064V0h.104v-.315Z" style="fill-rule:nonzero" transform="matrix(14 0 0 14 303.755 77.95)"/>
<path d="M.288.011c.149 0 .247-.11.247-.274 0-.165-.098-.274-.247-.274-.15 0-.248.109-.248.274 0 .164.098.274.248.274Zm0-.087c-.097 0-.143-.086-.143-.187s.046-.188.143-.188c.096 0 .142.087.142.188s-.046.187-.142.187Z" style="fill-rule:nonzero" transform="matrix(14 0 0 14 311.799 77.95)"/>
<path d="M.168 0v-.323c0-.07.054-.12.127-.12.021 0 .045.004.054.007v-.1a.621.621 0 0 0-.045-.002.137.137 0 0 0-.134.092H.164V-.53h-.1V0h.104Z" style="fill-rule:nonzero" transform="matrix(14 0 0 14 319.843 77.95)"/>
<path d="M.267-.085C.233-.086.203-.096.203-.156v-.291h.108V-.53H.203v-.127H.099v.127H.021v.083h.078v.312c0 .097.073.142.155.142A.34.34 0 0 0 .319.002v-.089l-.052.002Z" style="fill-rule:nonzero" transform="matrix(14 0 0 14 325.354 77.95)"/>
<path d="M.288.011c.125 0 .206-.076.218-.179H.404c-.013.057-.057.09-.116.09-.087 0-.143-.072-.143-.187 0-.113.057-.185.143-.185.066 0 .105.042.116.091h.102C.495-.466.407-.537.287-.537c-.15 0-.247.112-.247.274 0 .16.093.274.248.274Z" style="fill-rule:nonzero" transform="matrix(14 0 0 14 330.174 77.95)"/>
<path d="M.4-.22c0 .09-.067.132-.124.132-.064 0-.108-.046-.108-.118V-.53H.064v.337c0 .131.072.2.174.2.08 0 .134-.042.158-.099h.006V0h.102v-.53H.4v.31Z" style="fill-rule:nonzero" transform="matrix(14 0 0 14 337.749 77.95)"/>
<path d="M.267-.085C.233-.086.203-.096.203-.156v-.291h.108V-.53H.203v-.127H.099v.127H.021v.083h.078v.312c0 .097.073.142.155.142A.34.34 0 0 0 .319.002v-.089l-.052.002Z" style="fill-rule:nonzero" transform="matrix(14 0 0 14 345.692 77.95)"/>
<path d="M.056-.707h.086v.252H.056z" style="fill-rule:nonzero" transform="matrix(14 0 0 14 350.589 77.95)"/>
<path d="M.263-.293a.73.73 0 0 0-.134-.44H.033c.069.091.122.276.122.44 0 .164-.053.349-.122.44h.096a.73.73 0 0 0 .134-.44Z" style="fill-rule:nonzero" transform="matrix(14 0 0 14 353.393 77.95)"/>
<path d="M146 84.5h242" style="fill:none;stroke:#7f8292;stroke-width:1px"/>
</svg>
