<svg xmlns="http://www.w3.org/2000/svg" xml:space="preserve" width="696" height="512" style="fill-rule:evenodd;clip-rule:evenodd;stroke-linejoin:round;stroke-miterlimit:1.5">
<path d="M0 0h696v512H0z" style="fill:none"/>
<path d="M12 9H3v104h9" style="fill:none;stroke:#7f8292;stroke-width:2px"/>
<path d="M20.079 17.271V6.881h1.554l.137 1.531v8.859h-1.691Zm3.675-3.007c-.526 0-.949-.124-1.268-.371-.319-.247-.509-.606-.571-1.079h-.637l.492-2.208c0 .72.122 1.254.365 1.6.243.346.636.52 1.178.52.524 0 .92-.185 1.189-.553.27-.368.404-.914.404-1.638 0-.728-.136-1.286-.41-1.672-.273-.387-.668-.581-1.183-.581-.509 0-.894.175-1.153.524-.26.349-.39.884-.39 1.604l-.451-2.217h.544c.077-.475.271-.835.582-1.08.31-.246.744-.369 1.301-.369.925 0 1.634.326 2.129.979.494.653.742 1.59.742 2.812 0 1.21-.248 2.134-.742 2.772-.495.638-1.202.957-2.121.957ZM32.701 14.195l-.133-2.146-.093-.807V9.644c0-.426-.167-.738-.501-.936-.334-.198-.831-.306-1.49-.325l-1.806-.047.137-1.524 1.533.021c1.267.018 2.208.277 2.823.776.615.499.923 1.227.923 2.184v2.816l1.095.151v1.367l-2.488.068Zm-2.496.069c-.764 0-1.358-.187-1.781-.559-.423-.373-.634-.902-.634-1.586 0-.793.282-1.402.847-1.826.565-.423 1.366-.635 2.401-.635.411 0 .771.022 1.081.068.309.046.606.115.889.209l-.301 1.259a4.622 4.622 0 0 0-.829-.119 17.12 17.12 0 0 0-.798-.017c-1.077 0-1.616.317-1.616.951 0 .275.096.487.286.634.191.147.465.221.823.221.421 0 .773-.076 1.056-.229a1.6 1.6 0 0 0 .635-.582c.141-.236.211-.479.211-.729v-.588l.325 1.86h-.578l.237-.219c-.009.419-.105.769-.289 1.049-.184.281-.443.49-.776.629s-.729.209-1.189.209ZM39.135 11.01l-.424-2.405h.597c.077-1.241.713-1.861 1.91-1.861.712 0 1.245.238 1.6.712.355.475.533 1.19.533 2.144h-1.682c0-.467-.078-.804-.235-1.009-.156-.206-.409-.309-.759-.309-.517 0-.903.237-1.158.71-.255.473-.382 1.145-.382 2.018Zm-3.252 3.117v-1.46h4.98v1.46h-4.98Zm1.564 0V6.881h1.414l.274 2.078v5.168h-1.688Zm-1.29-5.786v-1.46h2.608l.137 1.46h-2.745ZM47.15 14.264c-.549 0-1.03-.017-1.441-.05a8.443 8.443 0 0 1-1.103-.155l.197-1.588c.536.073.995.128 1.377.164.382.037.705.055.97.055.666 0 1.148-.054 1.447-.162.299-.108.448-.281.448-.519 0-.153-.043-.27-.131-.351-.087-.081-.225-.147-.411-.198l-2.083-.58c-.576-.158-1.004-.377-1.284-.658-.28-.282-.421-.678-.421-1.189 0-.785.319-1.363.956-1.733.637-.371 1.627-.556 2.97-.556a14.256 14.256 0 0 1 1.983.137l-.179 1.532a24.204 24.204 0 0 0-1.043-.075c-.299-.013-.566-.02-.802-.02-.754 0-1.3.052-1.639.155-.339.103-.508.273-.508.508 0 .152.05.265.15.34.1.074.254.139.463.194l1.754.468c.679.174 1.181.419 1.507.734.326.314.489.743.489 1.285 0 .774-.297 1.345-.892 1.711-.594.367-1.519.551-2.774.551ZM56.51 14.264c-1.247 0-2.209-.325-2.888-.974-.679-.65-1.018-1.583-1.018-2.8 0-1.185.288-2.105.864-2.761.576-.657 1.39-.985 2.441-.985 1.012 0 1.795.301 2.348.901.554.601.83 1.475.83 2.621 0 .33-.014.641-.042.934h-5.224V9.986h3.65c0-.553-.136-.977-.409-1.273-.273-.295-.653-.443-1.14-.443-.536 0-.952.187-1.247.561-.296.374-.444.905-.444 1.591 0 .745.212 1.312.636 1.7.423.389 1.026.583 1.807.583.318 0 .63-.017.938-.051.308-.034.622-.081.942-.14l.178 1.558a10.3 10.3 0 0 1-1.233.157c-.372.023-.702.035-.989.035Z" style="fill-rule:nonzero"/>
<path d="M96 32c0-4.415-3.585-8-8-8H20c-4.415 0-8 3.585-8 8v64c0 4.415 3.585 8 8 8h68c4.415 0 8-3.585 8-8V32Z" style="fill:#fff"/>
<path d="M96 32c0-4.415-3.585-8-8-8H20c-4.415 0-8 3.585-8 8v64c0 4.415 3.585 8 8 8h68c4.415 0 8-3.585 8-8V32Zm-2 0v64c0 3.311-2.689 6-6 6H20c-3.311 0-6-2.689-6-6V32c0-3.311 2.689-6 6-6h68c3.311 0 6 2.689 6 6Z" style="fill:#7f8292"/>
<path d="m23.423 75.295-.103-4.375h1.299l-.102 4.375h-1.094Zm2.666 0-.103-4.375h1.299l-.102 4.375h-1.094ZM32.932 80.764c-.54 0-1-.016-1.381-.048a7.19 7.19 0 0 1-1.039-.157l.136-1.092c.474.075.892.13 1.254.166.361.037.705.055 1.03.055.812 0 1.402-.083 1.769-.248.367-.166.55-.431.55-.795 0-.254-.075-.453-.226-.597-.152-.145-.39-.257-.715-.338l-1.647-.417c-.711-.179-1.229-.41-1.554-.692-.325-.283-.488-.681-.488-1.194 0-.762.3-1.312.899-1.652.599-.341 1.567-.511 2.902-.511a11.212 11.212 0 0 1 1.859.137l-.125 1.034a21.282 21.282 0 0 0-.974-.075c-.279-.014-.546-.02-.801-.02-.892 0-1.538.082-1.938.246-.4.164-.601.43-.601.797 0 .231.093.413.277.546.185.133.477.249.876.348l1.32.321c.753.181 1.301.427 1.644.74.342.313.514.749.514 1.308 0 .749-.28 1.293-.84 1.631-.56.338-1.46.507-2.701.507ZM43.008 80.764c-1.016 0-1.759-.234-2.226-.701-.468-.467-.702-1.198-.702-2.193v-1.208h1.18v1.162c0 .64.15 1.11.45 1.412.3.301.778.452 1.435.452.246 0 .495-.012.747-.037.252-.025.528-.059.827-.102l.135 1.051a10.313 10.313 0 0 1-1.846.164Zm-2.928-3.555v-6.016h1.18v6.016h-1.18Zm-1.953-2.775v-1.053h6.453v1.053h-6.453ZM49.272 77.51l-.424-2.27h.533c.125-1.33.814-1.996 2.067-1.996.76 0 1.312.214 1.655.643.343.428.514 1.121.514 2.078h-1.176c0-.599-.094-1.03-.284-1.294-.189-.265-.496-.397-.919-.397-.66 0-1.153.281-1.478.842-.326.561-.488 1.359-.488 2.394Zm-2.874 3.117v-1.053h4.786v1.053h-4.786Zm1.694 0v-7.246h.952l.228 2.078v5.168h-1.18Zm-1.42-6.193v-1.053h2.231l.091 1.053h-2.322ZM57.99 80.627v-6.863h1.18v6.863h-1.18Zm-2.842 0v-1.053h2.981v1.053h-2.981Zm3.883 0v-1.053h2.448v1.053h-2.448Zm-3.472-6.193v-1.053h3.611v1.053h-3.611Zm2.961-2.418a.87.87 0 0 1-.636-.264.866.866 0 0 1-.266-.635c0-.251.089-.465.266-.64a.868.868 0 0 1 .637-.263c.25 0 .464.087.639.263a.872.872 0 0 1 .263.64.87.87 0 0 1-.263.635.87.87 0 0 1-.64.264ZM68.023 80.627v-4.726c0-.506-.133-.896-.399-1.17-.266-.274-.637-.411-1.114-.411-1.282 0-1.923.741-1.923 2.224l-.429-1.851h.538c.071-.487.274-.851.607-1.09.334-.239.805-.359 1.414-.359.792 0 1.404.233 1.837.697.433.465.649 1.121.649 1.969v4.717h-1.18Zm-4.617 0v-7.246h1.071l.11 1.531v5.715h-1.181ZM71.705 83.895l-.055-1.085 2.256-.073c.807-.027 1.394-.251 1.763-.672.368-.421.554-1.042.557-1.862v-5.245l.114-1.577h1.066v6.603c0 1.29-.29 2.242-.869 2.857-.58.614-1.502.943-2.767.985l-2.065.069Zm2.304-3.131c-.948 0-1.667-.313-2.157-.937-.49-.624-.735-1.542-.735-2.755 0-1.258.246-2.21.738-2.857.493-.647 1.215-.971 2.167-.971.607 0 1.095.135 1.467.403.371.269.596.653.673 1.151h.533l-.469 2.03c0-.838-.166-1.473-.498-1.906-.332-.432-.82-.648-1.464-.648-.647 0-1.137.236-1.471.708-.333.471-.5 1.168-.5 2.09 0 .875.167 1.538.501 1.987.335.45.826.675 1.475.675.642 0 1.129-.216 1.46-.649.331-.432.497-1.066.497-1.903l.492 2h-.604c-.068.494-.282.881-.642 1.161-.36.281-.848.421-1.463.421ZM80.845 75.295l-.103-4.375h1.299l-.103 4.375h-1.093Zm2.666 0-.103-4.375h1.299l-.103 4.375h-1.093Z" style="fill:#4d4f5a;fill-rule:nonzero"/>
<path d="M20.748 41.95h1.711v-6.835h.082l2.751 6.806h1.276l2.746-6.782h.092v6.811h1.711v-9.9h-2.18l-2.949 7.193h-.116l-2.944-7.193h-2.18v9.9ZM35.898 34.428c-1.861 0-2.992.957-3.118 2.214h1.687c.131-.531.604-.884 1.383-.884.875 0 1.344.425 1.344 1.155l.005.599c-.324.015-1.383.063-1.9.097-1.378.092-2.766.58-2.766 2.258 0 1.46 1.074 2.233 2.49 2.233 1.165 0 1.861-.551 2.18-1.17h.058v1.02h1.668v-4.965c0-1.977-1.624-2.557-3.031-2.557Zm-.43 6.391c-.73 0-1.252-.334-1.252-.976 0-.648.522-.996 1.353-1.059a50.225 50.225 0 0 1 1.63-.111l.004.614c0 .831-.676 1.532-1.735 1.532ZM42.323 41.95v-4.375c0-.938.715-1.61 1.677-1.61.29 0 .658.054.812.102v-1.6a4.309 4.309 0 0 0-.633-.048c-.846 0-1.561.483-1.832 1.343h-.077v-1.237h-1.687v7.425h1.74ZM52.596 41.95l-3.056-4.225 2.882-3.2h-2.031l-2.678 2.987h-.121V32.05h-1.74v9.9h1.74v-2.499l.638-.682 2.287 3.181h2.079ZM55.922 42.081c1.276 0 1.846-.759 2.127-1.301h.101v1.17h1.707v-9.9h-1.741v3.698h-.067c-.266-.532-.812-1.32-2.123-1.32-1.721 0-3.069 1.344-3.069 3.819 0 2.442 1.315 3.834 3.065 3.834Zm.478-1.426c-1.155 0-1.769-1.02-1.769-2.417 0-1.388.599-2.379 1.769-2.379 1.131 0 1.76.933 1.76 2.379 0 1.445-.638 2.417-1.76 2.417ZM64.86 42.095c2.171 0 3.553-1.532 3.553-3.828 0-2.302-1.382-3.839-3.553-3.839-2.17 0-3.558 1.537-3.558 3.839 0 2.296 1.388 3.828 3.558 3.828Zm.005-1.392c-1.209 0-1.803-1.083-1.803-2.441 0-1.359.594-2.456 1.803-2.456 1.189 0 1.784 1.097 1.784 2.456 0 1.358-.595 2.441-1.784 2.441ZM72.924 41.95l1.397-5.032h.096l1.402 5.032h1.808l2.103-7.425h-1.774l-1.295 5.202h-.068l-1.339-5.202h-1.76l-1.334 5.231h-.068l-1.31-5.231h-1.774l2.103 7.425h1.813ZM82.587 37.599c0-1.078.653-1.696 1.576-1.696.909 0 1.451.594 1.451 1.585v4.462h1.74v-4.728c0-1.779-1.01-2.794-2.543-2.794-1.112 0-1.871.527-2.209 1.359h-.092v-1.262h-1.663v7.425h1.74v-4.351Z" style="fill-rule:nonzero"/>
<path d="M18 48.5h72" style="fill:none;stroke:#7f8292;stroke-width:1px"/>
<path d="M368 32c0-4.415-3.585-8-8-8h-68c-4.415 0-8 3.585-8 8v64c0 4.415 3.585 8 8 8h68c4.415 0 8-3.585 8-8V32Z" style="fill:#fff"/>
<path d="M368 32c0-4.415-3.585-8-8-8h-68c-4.415 0-8 3.585-8 8v64c0 4.415 3.585 8 8 8h68c4.415 0 8-3.585 8-8V32Zm-2 0v64c0 3.311-2.689 6-6 6h-68c-3.311 0-6-2.689-6-6V32c0-3.311 2.689-6 6-6h68c3.311 0 6 2.689 6 6Z" style="fill:#7f8292"/>
<path d="m332 60-25 14M326 60l26 14M312 76l-18 14M310 76v14M308 76l18 14M350 76l-9 14M348 76l9 14" style="fill:none;stroke:#a0a0a0;stroke-width:1px"/>
<path d="m332 60-25 14M326 60l26 14M312 76l-18 14M310 76v14M308 76l18 14M350 76l-9 14M348 76l9 14" style="fill:none;stroke:#d80303;stroke-opacity:.5;stroke-width:1px"/>
<path d="M335 57a2 2 0 0 0-2-2h-8a2 2 0 0 0-2 2v4a2 2 0 0 0 2 2h8a2 2 0 0 0 2-2v-4ZM316 73a2 2 0 0 0-2-2h-8a2 2 0 0 0-2 2v4a2 2 0 0 0 2 2h8a2 2 0 0 0 2-2v-4ZM302 89a2 2 0 0 0-2-2h-8a2 2 0 0 0-2 2v4a2 2 0 0 0 2 2h8a2 2 0 0 0 2-2v-4ZM316 89a2 2 0 0 0-2-2h-8a2 2 0 0 0-2 2v4a2 2 0 0 0 2 2h8a2 2 0 0 0 2-2v-4ZM330 89a2 2 0 0 0-2-2h-8a2 2 0 0 0-2 2v4a2 2 0 0 0 2 2h8a2 2 0 0 0 2-2v-4ZM348 89a2 2 0 0 0-2-2h-8a2 2 0 0 0-2 2v4a2 2 0 0 0 2 2h8a2 2 0 0 0 2-2v-4ZM362 89a2 2 0 0 0-2-2h-8a2 2 0 0 0-2 2v4a2 2 0 0 0 2 2h8a2 2 0 0 0 2-2v-4ZM355 73a2 2 0 0 0-2-2h-8a2 2 0 0 0-2 2v4a2 2 0 0 0 2 2h8a2 2 0 0 0 2-2v-4Z" style="fill:#fff"/>
<path d="M335 57a2 2 0 0 0-2-2h-8a2 2 0 0 0-2 2v4a2 2 0 0 0 2 2h8a2 2 0 0 0 2-2v-4ZM316 73a2 2 0 0 0-2-2h-8a2 2 0 0 0-2 2v4a2 2 0 0 0 2 2h8a2 2 0 0 0 2-2v-4ZM302 89a2 2 0 0 0-2-2h-8a2 2 0 0 0-2 2v4a2 2 0 0 0 2 2h8a2 2 0 0 0 2-2v-4ZM316 89a2 2 0 0 0-2-2h-8a2 2 0 0 0-2 2v4a2 2 0 0 0 2 2h8a2 2 0 0 0 2-2v-4ZM330 89a2 2 0 0 0-2-2h-8a2 2 0 0 0-2 2v4a2 2 0 0 0 2 2h8a2 2 0 0 0 2-2v-4ZM348 89a2 2 0 0 0-2-2h-8a2 2 0 0 0-2 2v4a2 2 0 0 0 2 2h8a2 2 0 0 0 2-2v-4ZM362 89a2 2 0 0 0-2-2h-8a2 2 0 0 0-2 2v4a2 2 0 0 0 2 2h8a2 2 0 0 0 2-2v-4ZM355 73a2 2 0 0 0-2-2h-8a2 2 0 0 0-2 2v4a2 2 0 0 0 2 2h8a2 2 0 0 0 2-2v-4Z" style="fill:#d80303;fill-opacity:.3"/>
<path d="M308.261 41.95v-4.52c0-.918.614-1.537 1.368-1.537.744 0 1.252.498 1.252 1.267v4.79h1.706v-4.641c0-.831.493-1.416 1.349-1.416.711 0 1.272.416 1.272 1.339v4.718h1.745v-4.984c0-1.658-.962-2.538-2.321-2.538-1.078 0-1.9.532-2.233 1.359h-.078c-.28-.842-1-1.359-2.006-1.359-.991 0-1.73.508-2.04 1.359h-.092v-1.262h-1.663v7.425h1.741ZM321.376 42.081c1.276 0 1.847-.759 2.127-1.301h.102v1.17h1.706v-9.9h-1.74v3.698h-.068c-.266-.532-.812-1.32-2.122-1.32-1.721 0-3.07 1.344-3.07 3.819 0 2.442 1.315 3.834 3.065 3.834Zm.479-1.426c-1.156 0-1.77-1.02-1.77-2.417 0-1.388.6-2.379 1.77-2.379 1.131 0 1.759.933 1.759 2.379 0 1.445-.638 2.417-1.759 2.417ZM330.092 34.428c-1.861 0-2.992.957-3.118 2.214h1.687c.131-.531.605-.884 1.383-.884.875 0 1.344.425 1.344 1.155l.005.599c-.324.015-1.383.063-1.9.097-1.378.092-2.765.58-2.765 2.258 0 1.46 1.073 2.233 2.489 2.233 1.165 0 1.861-.551 2.18-1.17h.058v1.02h1.668v-4.965c0-1.977-1.624-2.557-3.031-2.557Zm-.43 6.391c-.73 0-1.252-.334-1.252-.976 0-.648.522-.996 1.353-1.059a50.418 50.418 0 0 1 1.63-.111l.004.614c0 .831-.676 1.532-1.735 1.532ZM340.631 36.642c-.126-1.348-1.218-2.214-2.988-2.214-1.817 0-3.002.899-2.997 2.272-.005 1.064.711 1.784 2.084 2.069l1.199.252c.739.159 1.073.435 1.078.865-.005.551-.552.894-1.393.894-.812 0-1.305-.314-1.416-.942h-1.765c.174 1.416 1.291 2.257 3.186 2.257 1.939 0 3.157-.967 3.162-2.364-.005-1.058-.687-1.711-2.084-2.011l-1.262-.27c-.754-.174-1.058-.46-1.058-.851 0-.503.546-.875 1.29-.875.74 0 1.204.362 1.311.918h1.653ZM345.151 40.587c-.445-.01-.798-.155-.798-.87v-3.848h1.46v-1.344h-1.46v-1.779h-1.74v1.779h-1.054v1.344h1.054v4.138c-.005 1.397 1.005 2.045 2.316 2.045.444 0 .778-.039.986-.073v-1.426c-.218.015-.561.039-.764.034Z" style="fill-rule:nonzero"/>
<path d="M290 48.5h72" style="fill:none;stroke:#7f8292;stroke-width:1px"/>
<path d="m266 58 18 6-18 6V58Z" style="fill:#7f8292"/>
<path d="M96 64h173.6" style="fill:none;stroke:#7f8292;stroke-width:4px"/>
<path d="M240 54c0-3.863-3.137-7-7-7H129c-3.863 0-7 3.137-7 7v20c0 3.863 3.137 7 7 7h104c3.863 0 7-3.137 7-7V54Z" style="fill:#fff"/>
<path d="M241 54c0-4.415-3.585-8-8-8H129c-4.415 0-8 3.585-8 8v20c0 4.415 3.585 8 8 8h104c4.415 0 8-3.585 8-8V54Z" style="fill:#c0c2ca;fill-opacity:.3"/>
<path d="M241 54c0-4.415-3.585-8-8-8H129c-4.415 0-8 3.585-8 8v20c0 4.415 3.585 8 8 8h104c4.415 0 8-3.585 8-8V54Zm-2 0v20c0 3.311-2.689 6-6 6H129c-3.311 0-6-2.689-6-6V54c0-3.311 2.689-6 6-6h104c3.311 0 6 2.689 6 6Z" style="fill:#7f8292"/>
<path d="M.184 0v-.312c0-.067.051-.115.12-.115.021 0 .047.003.058.007v-.115a.319.319 0 0 0-.045-.003.133.133 0 0 0-.131.096H.181V-.53H.06V0h.124Z" style="fill-rule:nonzero" transform="matrix(14 0 0 14 136.931 61.95)"/>
<path d="M.53-.269c0-.187-.112-.268-.242-.268-.152 0-.251.111-.251.275 0 .166.098.272.258.272.123 0 .208-.06.23-.152H.404C.387-.11.35-.086.296-.086.215-.086.162-.14.161-.231H.53v-.038ZM.161-.315A.128.128 0 0 1 .29-.44c.072 0 .121.053.121.125h-.25Z" style="fill-rule:nonzero" transform="matrix(14 0 0 14 141.963 61.95)"/>
<path d="M.184 0v-.323c0-.065.044-.11.098-.11.053 0 .09.036.09.091V0h.121v-.331c0-.06.036-.102.097-.102.051 0 .091.03.091.096V0h.124v-.356c0-.118-.068-.181-.165-.181-.078 0-.136.038-.16.097H.474C.454-.5.403-.537.331-.537a.147.147 0 0 0-.146.097H.179v-.09H.06V0h.124Z" style="fill-rule:nonzero" transform="matrix(14 0 0 14 149.911 61.95)"/>
<path d="M.276-.537c-.133 0-.214.068-.223.158h.12c.01-.038.044-.063.099-.063.063 0 .096.03.096.082v.043a22.12 22.12 0 0 0-.135.007c-.099.006-.198.041-.198.161 0 .104.077.16.178.16.083 0 .133-.04.156-.084h.004V0h.119v-.355c0-.141-.116-.182-.216-.182Zm-.031.456c-.052 0-.09-.024-.09-.07 0-.046.038-.071.097-.075.025-.003.094-.007.116-.008l.001.044c0 .059-.049.109-.124.109Z" style="fill-rule:nonzero" transform="matrix(14 0 0 14 162.006 61.95)"/>
<path d="M.184 0v-.312c0-.067.051-.115.12-.115.021 0 .047.003.058.007v-.115a.319.319 0 0 0-.045-.003.133.133 0 0 0-.131.096H.181V-.53H.06V0h.124Z" style="fill-rule:nonzero" transform="matrix(14 0 0 14 169.707 61.95)"/>
<path d="M.542 0 .324-.302.529-.53H.384l-.191.213H.184v-.39H.06V0h.124v-.179L.23-.227.393 0h.149Z" style="fill-rule:nonzero" transform="matrix(14 0 0 14 174.977 61.95)"/>
<path d="M.063-.346h.318v.103H.063z" style="fill-rule:nonzero" transform="matrix(14 0 0 14 182.218 61.95)"/>
<path d="M.184.199v-.283H.19c.019.039.06.093.152.093C.467.009.56-.09.56-.265c0-.176-.096-.272-.218-.272a.158.158 0 0 0-.152.094H.182V-.53H.06v.729h.124ZM.182-.265c0-.103.044-.17.125-.17.084 0 .127.071.127.17 0 .1-.044.172-.127.172-.08 0-.125-.069-.125-.172Z" style="fill-rule:nonzero" transform="matrix(14 0 0 14 188.43 61.95)"/>
<path d="M.276-.537c-.133 0-.214.068-.223.158h.12c.01-.038.044-.063.099-.063.063 0 .096.03.096.082v.043a22.12 22.12 0 0 0-.135.007c-.099.006-.198.041-.198.161 0 .104.077.16.178.16.083 0 .133-.04.156-.084h.004V0h.119v-.355c0-.141-.116-.182-.216-.182Zm-.031.456c-.052 0-.09-.024-.09-.07 0-.046.038-.071.097-.075.025-.003.094-.007.116-.008l.001.044c0 .059-.049.109-.124.109Z" style="fill-rule:nonzero" transform="matrix(14 0 0 14 196.808 61.95)"/>
<path d="M.184 0v-.312c0-.067.051-.115.12-.115.021 0 .047.003.058.007v-.115a.319.319 0 0 0-.045-.003.133.133 0 0 0-.131.096H.181V-.53H.06V0h.124Z" style="fill-rule:nonzero" transform="matrix(14 0 0 14 204.509 61.95)"/>
<path d="M.478-.379C.469-.475.391-.537.265-.537c-.13 0-.215.064-.214.162-.001.076.051.127.149.148l.085.018c.053.011.077.031.077.062 0 .039-.039.063-.099.063-.058 0-.093-.022-.101-.067H.036C.048-.05.128.01.263.01c.139 0 .226-.069.226-.168C.489-.234.44-.281.34-.302L.25-.321C.196-.334.174-.354.174-.382c0-.036.039-.063.093-.063.052 0 .086.026.093.066h.118Z" style="fill-rule:nonzero" transform="matrix(14 0 0 14 209.778 61.95)"/>
<path d="M.53-.269c0-.187-.112-.268-.242-.268-.152 0-.251.111-.251.275 0 .166.098.272.258.272.123 0 .208-.06.23-.152H.404C.387-.11.35-.086.296-.086.215-.086.162-.14.161-.231H.53v-.038ZM.161-.315A.128.128 0 0 1 .29-.44c.072 0 .121.053.121.125h-.25Z" style="fill-rule:nonzero" transform="matrix(14 0 0 14 217.122 61.95)"/>
<path d="M.184 0v-.312c0-.067.051-.115.12-.115.021 0 .047.003.058.007v-.115a.319.319 0 0 0-.045-.003.133.133 0 0 0-.131.096H.181V-.53H.06V0h.124Z" style="fill-rule:nonzero" transform="matrix(14 0 0 14 142.507 75.95)"/>
<path d="M.53-.269c0-.187-.112-.268-.242-.268-.152 0-.251.111-.251.275 0 .166.098.272.258.272.123 0 .208-.06.23-.152H.404C.387-.11.35-.086.296-.086.215-.086.162-.14.161-.231H.53v-.038ZM.161-.315A.128.128 0 0 1 .29-.44c.072 0 .121.053.121.125h-.25Z" style="fill-rule:nonzero" transform="matrix(14 0 0 14 147.54 75.95)"/>
<path d="M.184 0v-.323c0-.065.044-.11.098-.11.053 0 .09.036.09.091V0h.121v-.331c0-.06.036-.102.097-.102.051 0 .091.03.091.096V0h.124v-.356c0-.118-.068-.181-.165-.181-.078 0-.136.038-.16.097H.474C.454-.5.403-.537.331-.537a.147.147 0 0 0-.146.097H.179v-.09H.06V0h.124Z" style="fill-rule:nonzero" transform="matrix(14 0 0 14 155.487 75.95)"/>
<path d="M.276-.537c-.133 0-.214.068-.223.158h.12c.01-.038.044-.063.099-.063.063 0 .096.03.096.082v.043a22.12 22.12 0 0 0-.135.007c-.099.006-.198.041-.198.161 0 .104.077.16.178.16.083 0 .133-.04.156-.084h.004V0h.119v-.355c0-.141-.116-.182-.216-.182Zm-.031.456c-.052 0-.09-.024-.09-.07 0-.046.038-.071.097-.075.025-.003.094-.007.116-.008l.001.044c0 .059-.049.109-.124.109Z" style="fill-rule:nonzero" transform="matrix(14 0 0 14 167.583 75.95)"/>
<path d="M.184 0v-.312c0-.067.051-.115.12-.115.021 0 .047.003.058.007v-.115a.319.319 0 0 0-.045-.003.133.133 0 0 0-.131.096H.181V-.53H.06V0h.124Z" style="fill-rule:nonzero" transform="matrix(14 0 0 14 175.283 75.95)"/>
<path d="M.542 0 .324-.302.529-.53H.384l-.191.213H.184v-.39H.06V0h.124v-.179L.23-.227.393 0h.149Z" style="fill-rule:nonzero" transform="matrix(14 0 0 14 180.553 75.95)"/>
<path d="M.063-.346h.318v.103H.063z" style="fill-rule:nonzero" transform="matrix(14 0 0 14 187.795 75.95)"/>
<path d="M.29.21C.434.21.539.144.539.009V-.53H.416v.087H.41a.159.159 0 0 0-.152-.094c-.123 0-.22.093-.22.268 0 .172.096.261.219.261.091 0 .134-.049.153-.087h.006v.101c0 .078-.048.11-.124.11C.229.116.186.094.177.047H.052C.061.147.15.21.29.21Zm.001-.315C.209-.105.165-.17.165-.268c0-.096.043-.167.126-.167.081 0 .126.067.126.167 0 .102-.045.163-.126.163Z" style="fill-rule:nonzero" transform="matrix(14 0 0 14 194.007 75.95)"/>
<path d="M.294-.637c.009 0 .024 0 .044.003v-.098A.363.363 0 0 0 .259-.74c-.102 0-.165.056-.165.159v.051H.015v.096h.079V0h.124v-.434h.11V-.53h-.11v-.04c0-.047.025-.067.076-.067Z" style="fill-rule:nonzero" transform="matrix(14 0 0 14 202.394 75.95)"/>
<path d="M.184 0v-.323c0-.065.044-.11.098-.11.053 0 .09.036.09.091V0h.121v-.331c0-.06.036-.102.097-.102.051 0 .091.03.091.096V0h.124v-.356c0-.118-.068-.181-.165-.181-.078 0-.136.038-.16.097H.474C.454-.5.403-.537.331-.537a.147.147 0 0 0-.146.097H.179v-.09H.06V0h.124Z" style="fill-rule:nonzero" transform="matrix(14 0 0 14 207.397 75.95)"/>
<path d="M284 159h-9v240h9" style="fill:none;stroke:#7f8292;stroke-width:2px"/>
<path d="M296.549 164.264c-1.187 0-2.046-.242-2.576-.725-.53-.483-.795-1.256-.795-2.319v-1.058h1.687v.924c0 .562.141.969.424 1.223.283.254.749.381 1.397.381.217 0 .448-.013.693-.038.246-.025.526-.058.841-.099l.164 1.547a10.169 10.169 0 0 1-1.835.164Zm-3.371-3.625v-5.946h1.687v5.946h-1.687Zm-1.769-2.228v-1.53h6.702v1.53h-6.702ZM302.931 161.01l-.423-2.405h.597c.077-1.241.713-1.861 1.91-1.861.712 0 1.245.238 1.6.712.355.475.533 1.19.533 2.144h-1.682c0-.467-.078-.804-.235-1.009-.156-.206-.409-.309-.759-.309-.517 0-.903.237-1.158.71-.255.473-.383 1.145-.383 2.018Zm-3.251 3.117v-1.46h4.98v1.46h-4.98Zm1.564 0v-7.246h1.414l.273 2.078v5.168h-1.687Zm-1.29-5.786v-1.46h2.608l.137 1.46h-2.745ZM312.904 164.195l-.133-2.146-.093-.807v-1.598c0-.426-.167-.738-.501-.936-.334-.198-.831-.306-1.489-.325l-1.807-.047.137-1.524 1.533.021c1.267.018 2.208.277 2.823.776.615.499.923 1.227.923 2.184v2.816l1.095.151v1.367l-2.488.068Zm-2.495.069c-.765 0-1.359-.187-1.782-.559-.423-.373-.634-.902-.634-1.586 0-.793.282-1.402.847-1.826.566-.423 1.366-.635 2.401-.635.411 0 .772.022 1.081.068.309.046.606.115.889.209l-.3 1.259a4.644 4.644 0 0 0-.83-.119 17.077 17.077 0 0 0-.797-.017c-1.078 0-1.616.317-1.616.951 0 .275.095.487.285.634.191.147.465.221.823.221.421 0 .773-.076 1.056-.229a1.6 1.6 0 0 0 .635-.582c.141-.236.211-.479.211-.729v-.588l.325 1.86h-.578l.237-.219c-.008.419-.105.769-.289 1.049-.184.281-.442.49-.776.629-.333.139-.729.209-1.188.209ZM321.043 164.127v-4.442c0-.438-.1-.775-.299-1.012-.199-.237-.481-.355-.846-.355-1.012 0-1.519.67-1.519 2.01l-.424-2.135h.586c.057-.487.228-.851.512-1.09.285-.239.709-.359 1.275-.359.765 0 1.358.233 1.777.697.419.465.629 1.121.629 1.969v4.717h-1.691Zm-4.355 0v-7.246h1.518l.173 1.531v5.715h-1.691ZM327.354 164.264c-.55 0-1.031-.017-1.442-.05a8.443 8.443 0 0 1-1.103-.155l.197-1.588c.536.073.995.128 1.377.164.382.037.705.055.971.055.665 0 1.147-.054 1.446-.162.299-.108.448-.281.448-.519 0-.153-.043-.27-.131-.351-.087-.081-.225-.147-.411-.198l-2.083-.58c-.576-.158-1.004-.377-1.284-.658-.28-.282-.42-.678-.42-1.189 0-.785.318-1.363.955-1.733.637-.371 1.627-.556 2.97-.556a14.256 14.256 0 0 1 1.984.137l-.18 1.532a24.204 24.204 0 0 0-1.043-.075c-.299-.013-.566-.02-.802-.02-.754 0-1.3.052-1.639.155-.338.103-.508.273-.508.508 0 .152.05.265.15.34.1.074.254.139.463.194l1.754.468c.679.174 1.181.419 1.507.734.326.314.489.743.489 1.285 0 .774-.297 1.345-.891 1.711-.595.367-1.519.551-2.774.551ZM334.645 164.127v-6.631c0-2.506 1.183-3.76 3.55-3.76.544 0 1.068.046 1.574.137l-.167 1.533a11.575 11.575 0 0 0-1.448-.096c-1.215 0-1.822.706-1.822 2.118v6.699h-1.687Zm-2.234-4.281v-1.46h6.838v1.46h-6.838ZM344.32 164.264c-1.027 0-1.824-.328-2.391-.985-.567-.656-.85-1.581-.85-2.775 0-1.199.283-2.125.85-2.779.567-.654 1.364-.981 2.391-.981 1.03 0 1.827.327 2.393.981.566.654.849 1.58.849 2.779 0 1.194-.283 2.119-.849 2.775-.566.657-1.363.985-2.393.985Zm.002-1.574c.48 0 .85-.19 1.111-.571.261-.381.391-.919.391-1.616 0-.7-.13-1.24-.391-1.618-.261-.378-.632-.567-1.113-.567-.478 0-.848.189-1.111.568-.262.378-.393.918-.393 1.618 0 .696.131 1.235.393 1.615.263.381.633.571 1.113.571ZM352.15 161.01l-.424-2.405h.598c.076-1.241.713-1.861 1.91-1.861.712 0 1.245.238 1.6.712.355.475.533 1.19.533 2.144h-1.682c0-.467-.078-.804-.235-1.009-.156-.206-.41-.309-.759-.309-.517 0-.904.237-1.158.71-.255.473-.383 1.145-.383 2.018Zm-3.251 3.117v-1.46h4.979v1.46h-4.979Zm1.564 0v-7.246h1.414l.273 2.078v5.168h-1.687Zm-1.291-5.786v-1.46h2.609l.137 1.46h-2.746ZM362.462 164.127v-5.16c0-.501-.163-.752-.487-.752-.387 0-.58.294-.58.882l-.492-1.314h.593a1.16 1.16 0 0 1 .363-.75c.209-.192.493-.289.854-.289.493 0 .853.135 1.079.403.227.269.34.705.34 1.306v5.674h-1.67Zm-5.141 0v-7.246h1.511l.164 1.531v5.715h-1.675Zm2.758 0v-5.297c0-.41-.165-.615-.493-.615-.393 0-.59.294-.59.882l-.424-1.314h.497c.083-.693.469-1.039 1.159-1.039.362 0 .648.13.856.39.207.26.311.654.311 1.182v5.811h-1.316Z" style="fill-rule:nonzero"/>
<path d="M368 182c0-4.415-3.585-8-8-8h-68c-4.415 0-8 3.585-8 8v64c0 4.415 3.585 8 8 8h68c4.415 0 8-3.585 8-8v-64Z" style="fill:#fff"/>
<path d="M368 182c0-4.415-3.585-8-8-8h-68c-4.415 0-8 3.585-8 8v64c0 4.415 3.585 8 8 8h68c4.415 0 8-3.585 8-8v-64Zm-2 0v64c0 3.311-2.689 6-6 6h-68c-3.311 0-6-2.689-6-6v-64c0-3.311 2.689-6 6-6h68c3.311 0 6 2.689 6 6Z" style="fill:#7f8292"/>
<path d="m332 210-25 14M326 210l26 14M312 226l-18 14M310 226v14M308 226l18 14M350 226l-9 14M348 226l9 14" style="fill:none;stroke:#a0a0a0;stroke-width:1px"/>
<path d="m332 210-25 14M326 210l26 14M312 226l-18 14M310 226v14M308 226l18 14M350 226l-9 14M348 226l9 14" style="fill:none;stroke:#d80303;stroke-opacity:.5;stroke-width:1px"/>
<path d="M335 207a2 2 0 0 0-2-2h-8a2 2 0 0 0-2 2v4a2 2 0 0 0 2 2h8a2 2 0 0 0 2-2v-4ZM316 223a2 2 0 0 0-2-2h-8a2 2 0 0 0-2 2v4a2 2 0 0 0 2 2h8a2 2 0 0 0 2-2v-4ZM302 239a2 2 0 0 0-2-2h-8a2 2 0 0 0-2 2v4a2 2 0 0 0 2 2h8a2 2 0 0 0 2-2v-4ZM316 239a2 2 0 0 0-2-2h-8a2 2 0 0 0-2 2v4a2 2 0 0 0 2 2h8a2 2 0 0 0 2-2v-4ZM330 239a2 2 0 0 0-2-2h-8a2 2 0 0 0-2 2v4a2 2 0 0 0 2 2h8a2 2 0 0 0 2-2v-4ZM348 239a2 2 0 0 0-2-2h-8a2 2 0 0 0-2 2v4a2 2 0 0 0 2 2h8a2 2 0 0 0 2-2v-4ZM362 239a2 2 0 0 0-2-2h-8a2 2 0 0 0-2 2v4a2 2 0 0 0 2 2h8a2 2 0 0 0 2-2v-4ZM355 223a2 2 0 0 0-2-2h-8a2 2 0 0 0-2 2v4a2 2 0 0 0 2 2h8a2 2 0 0 0 2-2v-4Z" style="fill:#fff"/>
<path d="M335 207a2 2 0 0 0-2-2h-8a2 2 0 0 0-2 2v4a2 2 0 0 0 2 2h8a2 2 0 0 0 2-2v-4ZM316 223a2 2 0 0 0-2-2h-8a2 2 0 0 0-2 2v4a2 2 0 0 0 2 2h8a2 2 0 0 0 2-2v-4ZM302 239a2 2 0 0 0-2-2h-8a2 2 0 0 0-2 2v4a2 2 0 0 0 2 2h8a2 2 0 0 0 2-2v-4ZM316 239a2 2 0 0 0-2-2h-8a2 2 0 0 0-2 2v4a2 2 0 0 0 2 2h8a2 2 0 0 0 2-2v-4ZM330 239a2 2 0 0 0-2-2h-8a2 2 0 0 0-2 2v4a2 2 0 0 0 2 2h8a2 2 0 0 0 2-2v-4ZM348 239a2 2 0 0 0-2-2h-8a2 2 0 0 0-2 2v4a2 2 0 0 0 2 2h8a2 2 0 0 0 2-2v-4ZM362 239a2 2 0 0 0-2-2h-8a2 2 0 0 0-2 2v4a2 2 0 0 0 2 2h8a2 2 0 0 0 2-2v-4ZM355 223a2 2 0 0 0-2-2h-8a2 2 0 0 0-2 2v4a2 2 0 0 0 2 2h8a2 2 0 0 0 2-2v-4Z" style="fill:#d80303;fill-opacity:.3"/>
<path d="M308.261 191.95v-4.52c0-.918.614-1.537 1.368-1.537.744 0 1.252.498 1.252 1.267v4.79h1.706v-4.641c0-.831.493-1.416 1.349-1.416.711 0 1.272.416 1.272 1.339v4.718h1.745v-4.984c0-1.658-.962-2.538-2.321-2.538-1.078 0-1.9.532-2.233 1.359h-.078c-.28-.842-1-1.359-2.006-1.359-.991 0-1.73.508-2.04 1.359h-.092v-1.262h-1.663v7.425h1.741ZM321.376 192.081c1.276 0 1.847-.759 2.127-1.301h.102v1.17h1.706v-9.9h-1.74v3.698h-.068c-.266-.532-.812-1.32-2.122-1.32-1.721 0-3.07 1.344-3.07 3.819 0 2.442 1.315 3.834 3.065 3.834Zm.479-1.426c-1.156 0-1.77-1.02-1.77-2.417 0-1.388.6-2.379 1.77-2.379 1.131 0 1.759.933 1.759 2.379 0 1.445-.638 2.417-1.759 2.417ZM330.092 184.428c-1.861 0-2.992.957-3.118 2.214h1.687c.131-.531.605-.884 1.383-.884.875 0 1.344.425 1.344 1.155l.005.599c-.324.015-1.383.063-1.9.097-1.378.092-2.765.58-2.765 2.258 0 1.46 1.073 2.233 2.489 2.233 1.165 0 1.861-.551 2.18-1.17h.058v1.02h1.668v-4.965c0-1.977-1.624-2.557-3.031-2.557Zm-.43 6.391c-.73 0-1.252-.334-1.252-.976 0-.648.522-.996 1.353-1.059a50.418 50.418 0 0 1 1.63-.111l.004.614c0 .831-.676 1.532-1.735 1.532ZM340.631 186.642c-.126-1.348-1.218-2.214-2.988-2.214-1.817 0-3.002.899-2.997 2.272-.005 1.064.711 1.784 2.084 2.069l1.199.252c.739.159 1.073.435 1.078.865-.005.551-.552.894-1.393.894-.812 0-1.305-.314-1.416-.942h-1.765c.174 1.416 1.291 2.257 3.186 2.257 1.939 0 3.157-.967 3.162-2.364-.005-1.058-.687-1.711-2.084-2.011l-1.262-.27c-.754-.174-1.058-.46-1.058-.851 0-.503.546-.875 1.29-.875.74 0 1.204.362 1.311.918h1.653ZM345.151 190.587c-.445-.01-.798-.155-.798-.87v-3.848h1.46v-1.344h-1.46v-1.779h-1.74v1.779h-1.054v1.344h1.054v4.138c-.005 1.397 1.005 2.045 2.316 2.045.444 0 .778-.039.986-.073v-1.426c-.218.015-.561.039-.764.034Z" style="fill-rule:nonzero"/>
<path d="M290 198.5h72" style="fill:none;stroke:#7f8292;stroke-width:1px"/>
<path d="M694 182c0-4.415-3.585-8-8-8h-68c-4.415 0-8 3.585-8 8v64c0 4.415 3.585 8 8 8h68c4.415 0 8-3.585 8-8v-64Z" style="fill:#fff"/>
<path d="M694 182c0-4.415-3.585-8-8-8h-68c-4.415 0-8 3.585-8 8v64c0 4.415 3.585 8 8 8h68c4.415 0 8-3.585 8-8v-64Zm-2 0v64c0 3.311-2.689 6-6 6h-68c-3.311 0-6-2.689-6-6v-64c0-3.311 2.689-6 6-6h68c3.311 0 6 2.689 6 6Z" style="fill:#7f8292"/>
<path d="m658 210-25 14M652 210l26 14M638 226l-18 14M636 226v14M634 226l18 14M676 226l-9 14M674 226l9 14" style="fill:none;stroke:#a0a0a0;stroke-width:1px"/>
<path d="m658 210-25 14M652 210l26 14M638 226l-18 14M636 226v14M634 226l18 14M676 226l-9 14M674 226l9 14" style="fill:none;stroke:#d80303;stroke-opacity:.5;stroke-width:1px"/>
<path d="M661 207a2 2 0 0 0-2-2h-8a2 2 0 0 0-2 2v4a2 2 0 0 0 2 2h8a2 2 0 0 0 2-2v-4ZM642 223a2 2 0 0 0-2-2h-8a2 2 0 0 0-2 2v4a2 2 0 0 0 2 2h8a2 2 0 0 0 2-2v-4ZM628 239a2 2 0 0 0-2-2h-8a2 2 0 0 0-2 2v4a2 2 0 0 0 2 2h8a2 2 0 0 0 2-2v-4ZM642 239a2 2 0 0 0-2-2h-8a2 2 0 0 0-2 2v4a2 2 0 0 0 2 2h8a2 2 0 0 0 2-2v-4ZM656 239a2 2 0 0 0-2-2h-8a2 2 0 0 0-2 2v4a2 2 0 0 0 2 2h8a2 2 0 0 0 2-2v-4ZM674 239a2 2 0 0 0-2-2h-8a2 2 0 0 0-2 2v4a2 2 0 0 0 2 2h8a2 2 0 0 0 2-2v-4ZM688 239a2 2 0 0 0-2-2h-8a2 2 0 0 0-2 2v4a2 2 0 0 0 2 2h8a2 2 0 0 0 2-2v-4ZM681 223a2 2 0 0 0-2-2h-8a2 2 0 0 0-2 2v4a2 2 0 0 0 2 2h8a2 2 0 0 0 2-2v-4Z" style="fill:#fff"/>
<path d="M661 207a2 2 0 0 0-2-2h-8a2 2 0 0 0-2 2v4a2 2 0 0 0 2 2h8a2 2 0 0 0 2-2v-4ZM642 223a2 2 0 0 0-2-2h-8a2 2 0 0 0-2 2v4a2 2 0 0 0 2 2h8a2 2 0 0 0 2-2v-4ZM628 239a2 2 0 0 0-2-2h-8a2 2 0 0 0-2 2v4a2 2 0 0 0 2 2h8a2 2 0 0 0 2-2v-4ZM642 239a2 2 0 0 0-2-2h-8a2 2 0 0 0-2 2v4a2 2 0 0 0 2 2h8a2 2 0 0 0 2-2v-4ZM656 239a2 2 0 0 0-2-2h-8a2 2 0 0 0-2 2v4a2 2 0 0 0 2 2h8a2 2 0 0 0 2-2v-4ZM674 239a2 2 0 0 0-2-2h-8a2 2 0 0 0-2 2v4a2 2 0 0 0 2 2h8a2 2 0 0 0 2-2v-4ZM688 239a2 2 0 0 0-2-2h-8a2 2 0 0 0-2 2v4a2 2 0 0 0 2 2h8a2 2 0 0 0 2-2v-4ZM681 223a2 2 0 0 0-2-2h-8a2 2 0 0 0-2 2v4a2 2 0 0 0 2 2h8a2 2 0 0 0 2-2v-4Z" style="fill:#d80303;fill-opacity:.3"/>
<path d="M634.261 191.95v-4.52c0-.918.614-1.537 1.368-1.537.744 0 1.252.498 1.252 1.267v4.79h1.706v-4.641c0-.831.493-1.416 1.349-1.416.711 0 1.272.416 1.272 1.339v4.718h1.745v-4.984c0-1.658-.962-2.538-2.321-2.538-1.078 0-1.9.532-2.233 1.359h-.078c-.28-.842-1-1.359-2.006-1.359-.991 0-1.73.508-2.04 1.359h-.092v-1.262h-1.663v7.425h1.741ZM647.376 192.081c1.276 0 1.847-.759 2.127-1.301h.102v1.17h1.706v-9.9h-1.74v3.698h-.068c-.266-.532-.812-1.32-2.122-1.32-1.721 0-3.07 1.344-3.07 3.819 0 2.442 1.315 3.834 3.065 3.834Zm.479-1.426c-1.156 0-1.77-1.02-1.77-2.417 0-1.388.6-2.379 1.77-2.379 1.131 0 1.759.933 1.759 2.379 0 1.445-.638 2.417-1.759 2.417ZM656.092 184.428c-1.861 0-2.992.957-3.118 2.214h1.687c.131-.531.605-.884 1.383-.884.875 0 1.344.425 1.344 1.155l.005.599c-.324.015-1.383.063-1.9.097-1.378.092-2.765.58-2.765 2.258 0 1.46 1.073 2.233 2.489 2.233 1.165 0 1.861-.551 2.18-1.17h.058v1.02h1.668v-4.965c0-1.977-1.624-2.557-3.031-2.557Zm-.43 6.391c-.73 0-1.252-.334-1.252-.976 0-.648.522-.996 1.353-1.059a50.418 50.418 0 0 1 1.63-.111l.004.614c0 .831-.676 1.532-1.735 1.532ZM666.631 186.642c-.126-1.348-1.218-2.214-2.988-2.214-1.817 0-3.002.899-2.997 2.272-.005 1.064.711 1.784 2.084 2.069l1.199.252c.739.159 1.073.435 1.078.865-.005.551-.552.894-1.393.894-.812 0-1.305-.314-1.416-.942h-1.765c.174 1.416 1.291 2.257 3.186 2.257 1.939 0 3.157-.967 3.162-2.364-.005-1.058-.687-1.711-2.084-2.011l-1.262-.27c-.754-.174-1.058-.46-1.058-.851 0-.503.546-.875 1.29-.875.74 0 1.204.362 1.311.918h1.653ZM671.151 190.587c-.445-.01-.798-.155-.798-.87v-3.848h1.46v-1.344h-1.46v-1.779h-1.74v1.779h-1.054v1.344h1.054v4.138c-.005 1.397 1.005 2.045 2.316 2.045.444 0 .778-.039.986-.073v-1.426c-.218.015-.561.039-.764.034Z" style="fill-rule:nonzero"/>
<path d="M616 198.5h72" style="fill:none;stroke:#7f8292;stroke-width:1px"/>
<path d="M368 318c0-4.415-3.585-8-8-8h-68c-4.415 0-8 3.585-8 8v64c0 4.415 3.585 8 8 8h68c4.415 0 8-3.585 8-8v-64Z" style="fill:#fff"/>
<path d="M368 318c0-4.415-3.585-8-8-8h-68c-4.415 0-8 3.585-8 8v64c0 4.415 3.585 8 8 8h68c4.415 0 8-3.585 8-8v-64Zm-2 0v64c0 3.311-2.689 6-6 6h-68c-3.311 0-6-2.689-6-6v-64c0-3.311 2.689-6 6-6h68c3.311 0 6 2.689 6 6Z" style="fill:#7f8292"/>
<path d="m332 346-25 14M326 346l26 14M312 362l-18 14M310 362v14M308 362l18 14M350 362l-9 14M348 362l9 14" style="fill:none;stroke:gray;stroke-width:1px"/>
<path d="m332 346-25 14M326 346l26 14M312 362l-18 14M310 362v14M308 362l18 14M350 362l-9 14M348 362l9 14" style="fill:none;stroke:#d8a303;stroke-opacity:.5;stroke-width:1px"/>
<path d="M335 343a2 2 0 0 0-2-2h-8a2 2 0 0 0-2 2v4a2 2 0 0 0 2 2h8a2 2 0 0 0 2-2v-4ZM316 359a2 2 0 0 0-2-2h-8a2 2 0 0 0-2 2v4a2 2 0 0 0 2 2h8a2 2 0 0 0 2-2v-4ZM302 375a2 2 0 0 0-2-2h-8a2 2 0 0 0-2 2v4a2 2 0 0 0 2 2h8a2 2 0 0 0 2-2v-4ZM316 375a2 2 0 0 0-2-2h-8a2 2 0 0 0-2 2v4a2 2 0 0 0 2 2h8a2 2 0 0 0 2-2v-4ZM330 375a2 2 0 0 0-2-2h-8a2 2 0 0 0-2 2v4a2 2 0 0 0 2 2h8a2 2 0 0 0 2-2v-4ZM348 375a2 2 0 0 0-2-2h-8a2 2 0 0 0-2 2v4a2 2 0 0 0 2 2h8a2 2 0 0 0 2-2v-4ZM362 375a2 2 0 0 0-2-2h-8a2 2 0 0 0-2 2v4a2 2 0 0 0 2 2h8a2 2 0 0 0 2-2v-4ZM355 359a2 2 0 0 0-2-2h-8a2 2 0 0 0-2 2v4a2 2 0 0 0 2 2h8a2 2 0 0 0 2-2v-4Z" style="fill:#fff"/>
<path d="M335 343a2 2 0 0 0-2-2h-8a2 2 0 0 0-2 2v4a2 2 0 0 0 2 2h8a2 2 0 0 0 2-2v-4ZM316 359a2 2 0 0 0-2-2h-8a2 2 0 0 0-2 2v4a2 2 0 0 0 2 2h8a2 2 0 0 0 2-2v-4ZM302 375a2 2 0 0 0-2-2h-8a2 2 0 0 0-2 2v4a2 2 0 0 0 2 2h8a2 2 0 0 0 2-2v-4ZM316 375a2 2 0 0 0-2-2h-8a2 2 0 0 0-2 2v4a2 2 0 0 0 2 2h8a2 2 0 0 0 2-2v-4ZM330 375a2 2 0 0 0-2-2h-8a2 2 0 0 0-2 2v4a2 2 0 0 0 2 2h8a2 2 0 0 0 2-2v-4ZM348 375a2 2 0 0 0-2-2h-8a2 2 0 0 0-2 2v4a2 2 0 0 0 2 2h8a2 2 0 0 0 2-2v-4ZM362 375a2 2 0 0 0-2-2h-8a2 2 0 0 0-2 2v4a2 2 0 0 0 2 2h8a2 2 0 0 0 2-2v-4ZM355 359a2 2 0 0 0-2-2h-8a2 2 0 0 0-2 2v4a2 2 0 0 0 2 2h8a2 2 0 0 0 2-2v-4Z" style="fill:#d8a303;fill-opacity:.4"/>
<path d="M314.429 323.599c0-1.078.672-1.696 1.61-1.696.923 0 1.465.58 1.465 1.585v4.462h1.74v-4.728c0-1.798-1.02-2.794-2.557-2.794-1.141 0-1.861.517-2.205 1.359h-.091v-3.737h-1.702v9.9h1.74v-4.351ZM323.924 320.428c-1.862 0-2.993.957-3.118 2.214h1.687c.13-.531.604-.884 1.382-.884.875 0 1.344.425 1.344 1.155l.005.599c-.324.015-1.382.063-1.9.097-1.378.092-2.765.58-2.765 2.258 0 1.46 1.073 2.233 2.49 2.233 1.165 0 1.861-.551 2.18-1.17h.058v1.02h1.668v-4.965c0-1.977-1.625-2.557-3.031-2.557Zm-.431 6.391c-.73 0-1.252-.334-1.252-.976 0-.648.522-.996 1.354-1.059a50.36 50.36 0 0 1 1.629-.111l.005.614c0 .831-.677 1.532-1.736 1.532ZM334.462 322.642c-.125-1.348-1.218-2.214-2.987-2.214-1.818 0-3.002.899-2.997 2.272-.005 1.064.71 1.784 2.083 2.069l1.199.252c.74.159 1.073.435 1.078.865-.005.551-.551.894-1.392.894-.812 0-1.305-.314-1.417-.942h-1.764c.174 1.416 1.291 2.257 3.186 2.257 1.938 0 3.156-.967 3.161-2.364-.005-1.058-.686-1.711-2.083-2.011l-1.262-.27c-.754-.174-1.059-.46-1.059-.851 0-.503.546-.875 1.291-.875.74 0 1.204.362 1.31.918h1.653ZM338.982 326.587c-.444-.01-.797-.155-.797-.87v-3.848h1.46v-1.344h-1.46v-1.779h-1.741v1.779h-1.053v1.344h1.053v4.138c-.004 1.397 1.006 2.045 2.316 2.045.445 0 .778-.039.986-.073v-1.426c-.217.015-.561.039-.764.034Z" style="fill-rule:nonzero"/>
<path d="M290 334.5h72" style="fill:none;stroke:#7f8292;stroke-width:1px"/>
<path d="M694 318c0-4.415-3.585-8-8-8h-68c-4.415 0-8 3.585-8 8v64c0 4.415 3.585 8 8 8h68c4.415 0 8-3.585 8-8v-64Z" style="fill:#fff"/>
<path d="M694 318c0-4.415-3.585-8-8-8h-68c-4.415 0-8 3.585-8 8v64c0 4.415 3.585 8 8 8h68c4.415 0 8-3.585 8-8v-64Zm-2 0v64c0 3.311-2.689 6-6 6h-68c-3.311 0-6-2.689-6-6v-64c0-3.311 2.689-6 6-6h68c3.311 0 6 2.689 6 6Z" style="fill:#7f8292"/>
<path d="m658 346-25 14M652 346l26 14M638 362l-18 14M636 362v14M634 362l18 14M676 362l-9 14M674 362l9 14" style="fill:none;stroke:gray;stroke-width:1px"/>
<path d="m658 346-25 14M652 346l26 14M638 362l-18 14M636 362v14M634 362l18 14M676 362l-9 14M674 362l9 14" style="fill:none;stroke:#d8a303;stroke-opacity:.5;stroke-width:1px"/>
<path d="M661 343a2 2 0 0 0-2-2h-8a2 2 0 0 0-2 2v4a2 2 0 0 0 2 2h8a2 2 0 0 0 2-2v-4ZM642 359a2 2 0 0 0-2-2h-8a2 2 0 0 0-2 2v4a2 2 0 0 0 2 2h8a2 2 0 0 0 2-2v-4ZM628 375a2 2 0 0 0-2-2h-8a2 2 0 0 0-2 2v4a2 2 0 0 0 2 2h8a2 2 0 0 0 2-2v-4ZM642 375a2 2 0 0 0-2-2h-8a2 2 0 0 0-2 2v4a2 2 0 0 0 2 2h8a2 2 0 0 0 2-2v-4ZM656 375a2 2 0 0 0-2-2h-8a2 2 0 0 0-2 2v4a2 2 0 0 0 2 2h8a2 2 0 0 0 2-2v-4ZM674 375a2 2 0 0 0-2-2h-8a2 2 0 0 0-2 2v4a2 2 0 0 0 2 2h8a2 2 0 0 0 2-2v-4ZM688 375a2 2 0 0 0-2-2h-8a2 2 0 0 0-2 2v4a2 2 0 0 0 2 2h8a2 2 0 0 0 2-2v-4ZM681 359a2 2 0 0 0-2-2h-8a2 2 0 0 0-2 2v4a2 2 0 0 0 2 2h8a2 2 0 0 0 2-2v-4Z" style="fill:#fff"/>
<path d="M661 343a2 2 0 0 0-2-2h-8a2 2 0 0 0-2 2v4a2 2 0 0 0 2 2h8a2 2 0 0 0 2-2v-4ZM642 359a2 2 0 0 0-2-2h-8a2 2 0 0 0-2 2v4a2 2 0 0 0 2 2h8a2 2 0 0 0 2-2v-4ZM628 375a2 2 0 0 0-2-2h-8a2 2 0 0 0-2 2v4a2 2 0 0 0 2 2h8a2 2 0 0 0 2-2v-4ZM642 375a2 2 0 0 0-2-2h-8a2 2 0 0 0-2 2v4a2 2 0 0 0 2 2h8a2 2 0 0 0 2-2v-4ZM656 375a2 2 0 0 0-2-2h-8a2 2 0 0 0-2 2v4a2 2 0 0 0 2 2h8a2 2 0 0 0 2-2v-4ZM674 375a2 2 0 0 0-2-2h-8a2 2 0 0 0-2 2v4a2 2 0 0 0 2 2h8a2 2 0 0 0 2-2v-4ZM688 375a2 2 0 0 0-2-2h-8a2 2 0 0 0-2 2v4a2 2 0 0 0 2 2h8a2 2 0 0 0 2-2v-4ZM681 359a2 2 0 0 0-2-2h-8a2 2 0 0 0-2 2v4a2 2 0 0 0 2 2h8a2 2 0 0 0 2-2v-4Z" style="fill:#d8a303;fill-opacity:.4"/>
<path d="M640.429 323.599c0-1.078.672-1.696 1.61-1.696.923 0 1.465.58 1.465 1.585v4.462h1.74v-4.728c0-1.798-1.02-2.794-2.557-2.794-1.141 0-1.861.517-2.205 1.359h-.091v-3.737h-1.702v9.9h1.74v-4.351ZM649.924 320.428c-1.862 0-2.993.957-3.118 2.214h1.687c.13-.531.604-.884 1.382-.884.875 0 1.344.425 1.344 1.155l.005.599c-.324.015-1.382.063-1.9.097-1.378.092-2.765.58-2.765 2.258 0 1.46 1.073 2.233 2.49 2.233 1.165 0 1.861-.551 2.18-1.17h.058v1.02h1.668v-4.965c0-1.977-1.625-2.557-3.031-2.557Zm-.431 6.391c-.73 0-1.252-.334-1.252-.976 0-.648.522-.996 1.354-1.059a50.36 50.36 0 0 1 1.629-.111l.005.614c0 .831-.677 1.532-1.736 1.532ZM660.462 322.642c-.125-1.348-1.218-2.214-2.987-2.214-1.818 0-3.002.899-2.997 2.272-.005 1.064.71 1.784 2.083 2.069l1.199.252c.74.159 1.073.435 1.078.865-.005.551-.551.894-1.392.894-.812 0-1.305-.314-1.417-.942h-1.764c.174 1.416 1.291 2.257 3.186 2.257 1.938 0 3.156-.967 3.161-2.364-.005-1.058-.686-1.711-2.083-2.011l-1.262-.27c-.754-.174-1.059-.46-1.059-.851 0-.503.546-.875 1.291-.875.74 0 1.204.362 1.31.918h1.653ZM664.982 326.587c-.444-.01-.797-.155-.797-.87v-3.848h1.46v-1.344h-1.46v-1.779h-1.741v1.779h-1.053v1.344h1.053v4.138c-.004 1.397 1.006 2.045 2.316 2.045.445 0 .778-.039.986-.073v-1.426c-.217.015-.561.039-.764.034Z" style="fill-rule:nonzero"/>
<path d="M616 334.5h72" style="fill:none;stroke:#7f8292;stroke-width:1px"/>
<path d="m592 208 18 6-18 6v-12Z" style="fill:#7f8292"/>
<path d="M368 214h227.6" style="fill:none;stroke:#7f8292;stroke-width:4px"/>
<path d="m332 292-6 18-6-18h12Z" style="fill:#7f8292"/>
<path d="M652 254v20H326v21.6" style="fill:none;stroke:#7f8292;stroke-width:4px"/>
<path d="m592 344 18 6-18 6v-12Z" style="fill:#7f8292"/>
<path d="M368 350h227.6" style="fill:none;stroke:#7f8292;stroke-width:4px"/>
<path d="M539 204c0-3.863-3.137-7-7-7H428c-3.863 0-7 3.137-7 7v20c0 3.863 3.137 7 7 7h104c3.863 0 7-3.137 7-7v-20Z" style="fill:#fff"/>
<path d="M540 204c0-4.415-3.585-8-8-8H428c-4.415 0-8 3.585-8 8v20c0 4.415 3.585 8 8 8h104c4.415 0 8-3.585 8-8v-20Z" style="fill:#c0c2ca;fill-opacity:.3"/>
<path d="M540 204c0-4.415-3.585-8-8-8H428c-4.415 0-8 3.585-8 8v20c0 4.415 3.585 8 8 8h104c4.415 0 8-3.585 8-8v-20Zm-2 0v20c0 3.311-2.689 6-6 6H428c-3.311 0-6-2.689-6-6v-20c0-3.311 2.689-6 6-6h104c3.311 0 6 2.689 6 6Z" style="fill:#7f8292"/>
<path d="M434.78 218.95v-4.375c0-.938.716-1.61 1.678-1.61.29 0 .657.054.812.102v-1.6a4.32 4.32 0 0 0-.633-.048c-.846 0-1.562.483-1.832 1.343h-.078v-1.237h-1.687v7.425h1.74ZM444.657 215.18c0-2.611-1.571-3.752-3.394-3.752-2.122 0-3.51 1.562-3.51 3.853 0 2.325 1.369 3.814 3.607 3.814 1.726 0 2.91-.846 3.224-2.132h-1.701c-.228.445-.745.779-1.504.779-1.131 0-1.88-.75-1.9-2.026h5.178v-.536Zm-5.173-.643c.053-.948.759-1.75 1.808-1.75 1.006 0 1.687.739 1.692 1.75h-3.5ZM447.76 218.95v-4.52c0-.918.614-1.537 1.368-1.537.745 0 1.253.498 1.253 1.267v4.79h1.706v-4.641c0-.831.493-1.416 1.349-1.416.71 0 1.271.416 1.271 1.339v4.718h1.745v-4.984c0-1.658-.962-2.538-2.32-2.538-1.078 0-1.9.532-2.234 1.359h-.077c-.28-.842-1.001-1.359-2.006-1.359-.991 0-1.731.508-2.04 1.359h-.092v-1.262h-1.663v7.425h1.74ZM461.132 211.428c-1.861 0-2.992.957-3.118 2.214h1.687c.13-.531.604-.884 1.383-.884.875 0 1.343.425 1.343 1.155l.005.599c-.324.015-1.382.063-1.9.097-1.377.092-2.765.58-2.765 2.258 0 1.46 1.073 2.233 2.49 2.233 1.165 0 1.861-.551 2.18-1.17h.058v1.02h1.668v-4.965c0-1.977-1.624-2.557-3.031-2.557Zm-.43 6.391c-.73 0-1.252-.334-1.252-.976 0-.648.522-.996 1.353-1.059a50.36 50.36 0 0 1 1.629-.111l.005.614c0 .831-.677 1.532-1.735 1.532ZM467.557 218.95v-4.375c0-.938.715-1.61 1.677-1.61.29 0 .658.054.812.102v-1.6a4.32 4.32 0 0 0-.633-.048c-.846 0-1.561.483-1.832 1.343h-.078v-1.237h-1.687v7.425h1.741ZM477.829 218.95l-3.055-4.225 2.881-3.2h-2.03l-2.678 2.987h-.121v-5.462h-1.74v9.9h1.74v-2.499l.638-.682 2.287 3.181h2.078ZM478.366 214.106h4.452v1.436h-4.452zM486.328 218.95v-1.17h.102c.28.542.85 1.301 2.127 1.301 1.75 0 3.065-1.392 3.065-3.834 0-2.475-1.349-3.819-3.07-3.819-1.31 0-1.852.788-2.122 1.32h-.068v-3.698h-1.74v9.9h1.706Zm-.01-3.712c0-1.446.629-2.379 1.76-2.379 1.17 0 1.769.991 1.769 2.379 0 1.397-.614 2.417-1.769 2.417-1.122 0-1.76-.972-1.76-2.417ZM494.74 218.95v-4.375c0-.938.715-1.61 1.677-1.61.29 0 .658.054.812.102v-1.6a4.32 4.32 0 0 0-.633-.048c-.846 0-1.561.483-1.832 1.343h-.078v-1.237h-1.687v7.425h1.741ZM504.616 215.18c0-2.611-1.571-3.752-3.394-3.752-2.122 0-3.509 1.562-3.509 3.853 0 2.325 1.368 3.814 3.606 3.814 1.726 0 2.91-.846 3.225-2.132h-1.702c-.227.445-.745.779-1.504.779-1.131 0-1.88-.75-1.899-2.026h5.177v-.536Zm-5.173-.643c.054-.948.759-1.75 1.808-1.75 1.006 0 1.688.739 1.692 1.75h-3.5ZM508.996 211.428c-1.861 0-2.993.957-3.118 2.214h1.687c.13-.531.604-.884 1.383-.884.875 0 1.343.425 1.343 1.155l.005.599c-.324.015-1.382.063-1.9.097-1.377.092-2.765.58-2.765 2.258 0 1.46 1.073 2.233 2.49 2.233 1.165 0 1.861-.551 2.18-1.17h.058v1.02h1.668v-4.965c0-1.977-1.624-2.557-3.031-2.557Zm-.43 6.391c-.73 0-1.252-.334-1.252-.976 0-.648.522-.996 1.353-1.059a50.36 50.36 0 0 1 1.629-.111l.005.614c0 .831-.677 1.532-1.735 1.532ZM520.424 218.95l-3.055-4.225 2.881-3.2h-2.03l-2.679 2.987h-.12v-5.462h-1.741v9.9h1.741v-2.499l.638-.682 2.286 3.181h2.079ZM527.153 213.642c-.125-1.348-1.218-2.214-2.987-2.214-1.818 0-3.002.899-2.997 2.272-.005 1.064.71 1.784 2.083 2.069l1.199.252c.74.159 1.073.435 1.078.865-.005.551-.551.894-1.392.894-.812 0-1.306-.314-1.417-.942h-1.764c.174 1.416 1.291 2.257 3.186 2.257 1.938 0 3.156-.967 3.161-2.364-.005-1.058-.686-1.711-2.083-2.011l-1.262-.27c-.754-.174-1.059-.46-1.059-.851 0-.503.546-.875 1.291-.875.74 0 1.204.362 1.31.918h1.653Z" style="fill-rule:nonzero"/>
<path d="M539 264c0-3.863-3.137-7-7-7H428c-3.863 0-7 3.137-7 7v20c0 3.863 3.137 7 7 7h104c3.863 0 7-3.137 7-7v-20Z" style="fill:#fff"/>
<path d="M540 264c0-4.415-3.585-8-8-8H428c-4.415 0-8 3.585-8 8v20c0 4.415 3.585 8 8 8h104c4.415 0 8-3.585 8-8v-20Z" style="fill:#c0c2ca;fill-opacity:.3"/>
<path d="M540 264c0-4.415-3.585-8-8-8H428c-4.415 0-8 3.585-8 8v20c0 4.415 3.585 8 8 8h104c4.415 0 8-3.585 8-8v-20Zm-2 0v20c0 3.311-2.689 6-6 6H428c-3.311 0-6-2.689-6-6v-20c0-3.311 2.689-6 6-6h104c3.311 0 6 2.689 6 6Z" style="fill:#7f8292"/>
<path d="M434.345 278.95v-4.375c0-.938.716-1.61 1.678-1.61.29 0 .657.054.812.102v-1.6a4.32 4.32 0 0 0-.633-.048c-.846 0-1.562.483-1.833 1.343h-.077v-1.237h-1.687v7.425h1.74ZM444.222 275.18c0-2.611-1.571-3.752-3.394-3.752-2.122 0-3.51 1.562-3.51 3.853 0 2.325 1.368 3.814 3.607 3.814 1.726 0 2.91-.846 3.224-2.132h-1.701c-.228.445-.745.779-1.504.779-1.131 0-1.88-.75-1.9-2.026h5.178v-.536Zm-5.173-.643c.053-.948.759-1.75 1.808-1.75 1.006 0 1.687.739 1.692 1.75h-3.5ZM447.325 278.95v-4.52c0-.918.614-1.537 1.368-1.537.745 0 1.252.498 1.252 1.267v4.79h1.707v-4.641c0-.831.493-1.416 1.349-1.416.71 0 1.271.416 1.271 1.339v4.718h1.745v-4.984c0-1.658-.962-2.538-2.32-2.538-1.078 0-1.9.532-2.234 1.359h-.077c-.28-.842-1.001-1.359-2.006-1.359-.991 0-1.731.508-2.04 1.359h-.092v-1.262h-1.663v7.425h1.74ZM460.697 271.428c-1.861 0-2.993.957-3.118 2.214h1.687c.13-.531.604-.884 1.382-.884.875 0 1.344.425 1.344 1.155l.005.599c-.324.015-1.382.063-1.9.097-1.377.092-2.765.58-2.765 2.258 0 1.46 1.073 2.233 2.49 2.233 1.165 0 1.861-.551 2.18-1.17h.058v1.02h1.668v-4.965c0-1.977-1.624-2.557-3.031-2.557Zm-.43 6.391c-.73 0-1.252-.334-1.252-.976 0-.648.522-.996 1.353-1.059a50.36 50.36 0 0 1 1.629-.111l.005.614c0 .831-.677 1.532-1.735 1.532ZM467.122 278.95v-4.375c0-.938.715-1.61 1.677-1.61.29 0 .657.054.812.102v-1.6a4.32 4.32 0 0 0-.633-.048c-.846 0-1.562.483-1.832 1.343h-.078v-1.237h-1.687v7.425h1.741ZM477.394 278.95l-3.055-4.225 2.881-3.2h-2.03l-2.678 2.987h-.121v-5.462h-1.74v9.9h1.74v-2.499l.638-.682 2.287 3.181h2.078ZM477.931 274.106h4.452v1.436h-4.452zM485.845 278.95v-4.375c0-.938.715-1.61 1.677-1.61.29 0 .658.054.812.102v-1.6a4.32 4.32 0 0 0-.633-.048c-.846 0-1.561.483-1.832 1.343h-.078v-1.237h-1.687v7.425h1.741ZM495.721 275.18c0-2.611-1.571-3.752-3.394-3.752-2.122 0-3.509 1.562-3.509 3.853 0 2.325 1.368 3.814 3.606 3.814 1.726 0 2.91-.846 3.224-2.132h-1.701c-.227.445-.745.779-1.504.779-1.131 0-1.88-.75-1.899-2.026h5.177v-.536Zm-5.173-.643c.054-.948.759-1.75 1.808-1.75 1.006 0 1.688.739 1.692 1.75h-3.5ZM498.825 274.599c0-1.078.672-1.696 1.609-1.696.924 0 1.465.58 1.465 1.585v4.462h1.74v-4.728c0-1.798-1.02-2.794-2.557-2.794-1.141 0-1.861.517-2.204 1.359h-.092v-3.737h-1.702v9.9h1.741v-4.351ZM506.076 281.735c1.397 0 2.18-.696 2.606-1.881l2.978-8.329h-1.852l-1.726 5.612h-.077l-1.716-5.612h-1.847l2.698 7.58-.155.396c-.295.793-.648.827-1.073.827-.228 0-.522-.005-.735-.024l-.005 1.397c.227.024.556.034.904.034ZM514.492 281.735v-3.955h.073c.275.542.851 1.301 2.132 1.301 1.745 0 3.055-1.392 3.055-3.834 0-2.475-1.344-3.819-3.06-3.819-1.315 0-1.861.788-2.127 1.32h-.106v-1.223h-1.707v10.21h1.74Zm-.033-6.497c0-1.446.618-2.379 1.754-2.379 1.17 0 1.77.991 1.77 2.379 0 1.397-.609 2.417-1.77 2.417-1.126 0-1.754-.972-1.754-2.417ZM527.714 275.18c0-2.611-1.571-3.752-3.394-3.752-2.122 0-3.509 1.562-3.509 3.853 0 2.325 1.368 3.814 3.606 3.814 1.726 0 2.91-.846 3.225-2.132h-1.702c-.227.445-.745.779-1.504.779-1.131 0-1.88-.75-1.899-2.026h5.177v-.536Zm-5.173-.643c.054-.948.759-1.75 1.808-1.75 1.006 0 1.688.739 1.692 1.75h-3.5Z" style="fill-rule:nonzero"/>
<path d="M575 333c0-3.863-3.137-7-7-7H392c-3.863 0-7 3.137-7 7v34c0 3.863 3.137 7 7 7h176c3.863 0 7-3.137 7-7v-34Z" style="fill:#fff"/>
<path d="M576 333c0-4.415-3.585-8-8-8H392c-4.415 0-8 3.585-8 8v34c0 4.415 3.585 8 8 8h176c4.415 0 8-3.585 8-8v-34Z" style="fill:#c0c2ca;fill-opacity:.3"/>
<path d="M576 333c0-4.415-3.585-8-8-8H392c-4.415 0-8 3.585-8 8v34c0 4.415 3.585 8 8 8h176c4.415 0 8-3.585 8-8v-34Zm-2 0v34c0 3.311-2.689 6-6 6H392c-3.311 0-6-2.689-6-6v-34c0-3.311 2.689-6 6-6h176c3.311 0 6 2.689 6 6Z" style="fill:#7f8292"/>
<path d="M.184 0v-.312c0-.067.051-.115.12-.115.021 0 .047.003.058.007v-.115a.319.319 0 0 0-.045-.003.133.133 0 0 0-.131.096H.181V-.53H.06V0h.124Z" style="fill-rule:nonzero" transform="matrix(14 0 0 14 442.353 340.95)"/>
<path d="M.53-.269c0-.187-.112-.268-.242-.268-.152 0-.251.111-.251.275 0 .166.098.272.258.272.123 0 .208-.06.23-.152H.404C.387-.11.35-.086.296-.086.215-.086.162-.14.161-.231H.53v-.038ZM.161-.315A.128.128 0 0 1 .29-.44c.072 0 .121.053.121.125h-.25Z" style="fill-rule:nonzero" transform="matrix(14 0 0 14 447.386 340.95)"/>
<path d="M.184-.311c0-.077.048-.121.115-.121.066 0 .105.041.105.113V0h.124v-.338c0-.128-.073-.199-.182-.199-.082 0-.133.037-.158.097H.182v-.267H.06V0h.124v-.311Z" style="fill-rule:nonzero" transform="matrix(14 0 0 14 455.333 340.95)"/>
<path d="M.135.199C.234.199.29.149.321.065L.533-.53H.401l-.123.401H.272L.15-.53H.018l.193.541L.2.039C.179.096.153.098.123.098L.07.097v.099a.58.58 0 0 0 .065.003Z" style="fill-rule:nonzero" transform="matrix(14 0 0 14 463.281 340.95)"/>
<path d="M.184.199v-.283H.19c.019.039.06.093.152.093C.467.009.56-.09.56-.265c0-.176-.096-.272-.218-.272a.158.158 0 0 0-.152.094H.182V-.53H.06v.729h.124ZM.182-.265c0-.103.044-.17.125-.17.084 0 .127.071.127.17 0 .1-.044.172-.127.172-.08 0-.125-.069-.125-.172Z" style="fill-rule:nonzero" transform="matrix(14 0 0 14 471.001 340.95)"/>
<path d="M.53-.269c0-.187-.112-.268-.242-.268-.152 0-.251.111-.251.275 0 .166.098.272.258.272.123 0 .208-.06.23-.152H.404C.387-.11.35-.086.296-.086.215-.086.162-.14.161-.231H.53v-.038ZM.161-.315A.128.128 0 0 1 .29-.44c.072 0 .121.053.121.125h-.25Z" style="fill-rule:nonzero" transform="matrix(14 0 0 14 479.379 340.95)"/>
<path d="M.063-.346h.318v.103H.063z" style="fill-rule:nonzero" transform="matrix(14 0 0 14 487.326 340.95)"/>
<path d="M.184 0v-.312c0-.067.051-.115.12-.115.021 0 .047.003.058.007v-.115a.319.319 0 0 0-.045-.003.133.133 0 0 0-.131.096H.181V-.53H.06V0h.124Z" style="fill-rule:nonzero" transform="matrix(14 0 0 14 493.538 340.95)"/>
<path d="M.276-.537c-.133 0-.214.068-.223.158h.12c.01-.038.044-.063.099-.063.063 0 .096.03.096.082v.043a22.12 22.12 0 0 0-.135.007c-.099.006-.198.041-.198.161 0 .104.077.16.178.16.083 0 .133-.04.156-.084h.004V0h.119v-.355c0-.141-.116-.182-.216-.182Zm-.031.456c-.052 0-.09-.024-.09-.07 0-.046.038-.071.097-.075.025-.003.094-.007.116-.008l.001.044c0 .059-.049.109-.124.109Z" style="fill-rule:nonzero" transform="matrix(14 0 0 14 498.672 340.95)"/>
<path d="m.299 0 .1-.359h.007l.1.359h.129l.151-.53H.659l-.093.371H.561L.466-.53H.34l-.095.373H.24L.146-.53H.02L.17 0h.129Z" style="fill-rule:nonzero" transform="matrix(14 0 0 14 506.373 340.95)"/>
<path d="M.184 0v-.312c0-.067.051-.115.12-.115.021 0 .047.003.058.007v-.115a.319.319 0 0 0-.045-.003.133.133 0 0 0-.131.096H.181V-.53H.06V0h.124Z" style="fill-rule:nonzero" transform="matrix(14 0 0 14 393.926 354.95)"/>
<path d="M.53-.269c0-.187-.112-.268-.242-.268-.152 0-.251.111-.251.275 0 .166.098.272.258.272.123 0 .208-.06.23-.152H.404C.387-.11.35-.086.296-.086.215-.086.162-.14.161-.231H.53v-.038ZM.161-.315A.128.128 0 0 1 .29-.44c.072 0 .121.053.121.125h-.25Z" style="fill-rule:nonzero" transform="matrix(14 0 0 14 398.959 354.95)"/>
<path d="M.184-.311c0-.077.048-.121.115-.121.066 0 .105.041.105.113V0h.124v-.338c0-.128-.073-.199-.182-.199-.082 0-.133.037-.158.097H.182v-.267H.06V0h.124v-.311Z" style="fill-rule:nonzero" transform="matrix(14 0 0 14 406.906 354.95)"/>
<path d="M.135.199C.234.199.29.149.321.065L.533-.53H.401l-.123.401H.272L.15-.53H.018l.193.541L.2.039C.179.096.153.098.123.098L.07.097v.099a.58.58 0 0 0 .065.003Z" style="fill-rule:nonzero" transform="matrix(14 0 0 14 414.854 354.95)"/>
<path d="M.184.199v-.283H.19c.019.039.06.093.152.093C.467.009.56-.09.56-.265c0-.176-.096-.272-.218-.272a.158.158 0 0 0-.152.094H.182V-.53H.06v.729h.124ZM.182-.265c0-.103.044-.17.125-.17.084 0 .127.071.127.17 0 .1-.044.172-.127.172-.08 0-.125-.069-.125-.172Z" style="fill-rule:nonzero" transform="matrix(14 0 0 14 422.574 354.95)"/>
<path d="M.53-.269c0-.187-.112-.268-.242-.268-.152 0-.251.111-.251.275 0 .166.098.272.258.272.123 0 .208-.06.23-.152H.404C.387-.11.35-.086.296-.086.215-.086.162-.14.161-.231H.53v-.038ZM.161-.315A.128.128 0 0 1 .29-.44c.072 0 .121.053.121.125h-.25Z" style="fill-rule:nonzero" transform="matrix(14 0 0 14 430.952 354.95)"/>
<path d="M.063-.346h.318v.103H.063z" style="fill-rule:nonzero" transform="matrix(14 0 0 14 438.899 354.95)"/>
<path d="M.184 0v-.323c0-.065.044-.11.098-.11.053 0 .09.036.09.091V0h.121v-.331c0-.06.036-.102.097-.102.051 0 .091.03.091.096V0h.124v-.356c0-.118-.068-.181-.165-.181-.078 0-.136.038-.16.097H.474C.454-.5.403-.537.331-.537a.147.147 0 0 0-.146.097H.179v-.09H.06V0h.124Z" style="fill-rule:nonzero" transform="matrix(14 0 0 14 445.111 354.95)"/>
<path d="M.123-.606c.039 0 .071-.03.071-.067a.07.07 0 0 0-.071-.068c-.04 0-.073.03-.073.068 0 .037.033.067.073.067ZM.184 0v-.53H.06V0h.124Z" style="fill-rule:nonzero" transform="matrix(14 0 0 14 457.206 354.95)"/>
<path d="M.184-.311c0-.077.047-.121.113-.121.065 0 .104.042.104.113V0h.124v-.338c0-.127-.072-.199-.182-.199C.264-.537.21-.5.185-.44H.179v-.09H.06V0h.124v-.311Z" style="fill-rule:nonzero" transform="matrix(14 0 0 14 460.624 354.95)"/>
<path d="M.123-.606c.039 0 .071-.03.071-.067a.07.07 0 0 0-.071-.068c-.04 0-.073.03-.073.068 0 .037.033.067.073.067ZM.184 0v-.53H.06V0h.124Z" style="fill-rule:nonzero" transform="matrix(14 0 0 14 468.794 354.95)"/>
<path d="M.294-.637c.009 0 .024 0 .044.003v-.098A.363.363 0 0 0 .259-.74c-.102 0-.165.056-.165.159v.051H.015v.096h.079V0h.124v-.434h.11V-.53h-.11v-.04c0-.047.025-.067.076-.067Z" style="fill-rule:nonzero" transform="matrix(14 0 0 14 472.212 354.95)"/>
<path d="M.135.199C.234.199.29.149.321.065L.533-.53H.401l-.123.401H.272L.15-.53H.018l.193.541L.2.039C.179.096.153.098.123.098L.07.097v.099a.58.58 0 0 0 .065.003Z" style="fill-rule:nonzero" transform="matrix(14 0 0 14 477.215 354.95)"/>
<path d="M.063-.346h.318v.103H.063z" style="fill-rule:nonzero" transform="matrix(14 0 0 14 484.936 354.95)"/>
<path d="m.299 0 .1-.359h.007l.1.359h.129l.151-.53H.659l-.093.371H.561L.466-.53H.34l-.095.373H.24L.146-.53H.02L.17 0h.129Z" style="fill-rule:nonzero" transform="matrix(14 0 0 14 491.148 354.95)"/>
<path d="M.184-.311c0-.077.048-.121.115-.121.066 0 .105.041.105.113V0h.124v-.338c0-.128-.073-.199-.182-.199-.082 0-.133.037-.158.097H.182v-.267H.06V0h.124v-.311Z" style="fill-rule:nonzero" transform="matrix(14 0 0 14 502.421 354.95)"/>
<path d="M.123-.606c.039 0 .071-.03.071-.067a.07.07 0 0 0-.071-.068c-.04 0-.073.03-.073.068 0 .037.033.067.073.067ZM.184 0v-.53H.06V0h.124Z" style="fill-rule:nonzero" transform="matrix(14 0 0 14 510.64 354.95)"/>
<path d="M.277-.097C.245-.098.22-.108.22-.16v-.274h.104V-.53H.22v-.127H.095v.127H.02v.096h.075v.295c0 .1.072.146.166.146a.51.51 0 0 0 .07-.005V-.1l-.054.003Z" style="fill-rule:nonzero" transform="matrix(14 0 0 14 514.057 354.95)"/>
<path d="M.53-.269c0-.187-.112-.268-.242-.268-.152 0-.251.111-.251.275 0 .166.098.272.258.272.123 0 .208-.06.23-.152H.404C.387-.11.35-.086.296-.086.215-.086.162-.14.161-.231H.53v-.038ZM.161-.315A.128.128 0 0 1 .29-.44c.072 0 .121.053.121.125h-.25Z" style="fill-rule:nonzero" transform="matrix(14 0 0 14 519.022 354.95)"/>
<path d="M.478-.379C.469-.475.391-.537.265-.537c-.13 0-.215.064-.214.162-.001.076.051.127.149.148l.085.018c.053.011.077.031.077.062 0 .039-.039.063-.099.063-.058 0-.093-.022-.101-.067H.036C.048-.05.128.01.263.01c.139 0 .226-.069.226-.168C.489-.234.44-.281.34-.302L.25-.321C.196-.334.174-.354.174-.382c0-.036.039-.063.093-.063.052 0 .086.026.093.066h.118Z" style="fill-rule:nonzero" transform="matrix(14 0 0 14 526.97 354.95)"/>
<path d="M.184.199v-.283H.19c.019.039.06.093.152.093C.467.009.56-.09.56-.265c0-.176-.096-.272-.218-.272a.158.158 0 0 0-.152.094H.182V-.53H.06v.729h.124ZM.182-.265c0-.103.044-.17.125-.17.084 0 .127.071.127.17 0 .1-.044.172-.127.172-.08 0-.125-.069-.125-.172Z" style="fill-rule:nonzero" transform="matrix(14 0 0 14 534.313 354.95)"/>
<path d="M.276-.537c-.133 0-.214.068-.223.158h.12c.01-.038.044-.063.099-.063.063 0 .096.03.096.082v.043a22.12 22.12 0 0 0-.135.007c-.099.006-.198.041-.198.161 0 .104.077.16.178.16.083 0 .133-.04.156-.084h.004V0h.119v-.355c0-.141-.116-.182-.216-.182Zm-.031.456c-.052 0-.09-.024-.09-.07 0-.046.038-.071.097-.075.025-.003.094-.007.116-.008l.001.044c0 .059-.049.109-.124.109Z" style="fill-rule:nonzero" transform="matrix(14 0 0 14 542.691 354.95)"/>
<path d="M.291.01c.133 0 .218-.079.227-.191H.4c-.012.057-.053.09-.108.09-.078 0-.129-.065-.129-.174 0-.108.052-.172.129-.172.061 0 .098.039.108.09h.118C.51-.462.42-.537.29-.537c-.155 0-.253.112-.253.274 0 .16.096.273.254.273Z" style="fill-rule:nonzero" transform="matrix(14 0 0 14 550.392 354.95)"/>
<path d="M.53-.269c0-.187-.112-.268-.242-.268-.152 0-.251.111-.251.275 0 .166.098.272.258.272.123 0 .208-.06.23-.152H.404C.387-.11.35-.086.296-.086.215-.086.162-.14.161-.231H.53v-.038ZM.161-.315A.128.128 0 0 1 .29-.44c.072 0 .121.053.121.125h-.25Z" style="fill-rule:nonzero" transform="matrix(14 0 0 14 558.126 354.95)"/>
<path d="M.184 0v-.312c0-.067.051-.115.12-.115.021 0 .047.003.058.007v-.115a.319.319 0 0 0-.045-.003.133.133 0 0 0-.131.096H.181V-.53H.06V0h.124Z" style="fill-rule:nonzero" transform="matrix(14 0 0 14 429.24 368.95)"/>
<path d="M.53-.269c0-.187-.112-.268-.242-.268-.152 0-.251.111-.251.275 0 .166.098.272.258.272.123 0 .208-.06.23-.152H.404C.387-.11.35-.086.296-.086.215-.086.162-.14.161-.231H.53v-.038ZM.161-.315A.128.128 0 0 1 .29-.44c.072 0 .121.053.121.125h-.25Z" style="fill-rule:nonzero" transform="matrix(14 0 0 14 434.273 368.95)"/>
<path d="M.184-.311c0-.077.048-.121.115-.121.066 0 .105.041.105.113V0h.124v-.338c0-.128-.073-.199-.182-.199-.082 0-.133.037-.158.097H.182v-.267H.06V0h.124v-.311Z" style="fill-rule:nonzero" transform="matrix(14 0 0 14 442.22 368.95)"/>
<path d="M.135.199C.234.199.29.149.321.065L.533-.53H.401l-.123.401H.272L.15-.53H.018l.193.541L.2.039C.179.096.153.098.123.098L.07.097v.099a.58.58 0 0 0 .065.003Z" style="fill-rule:nonzero" transform="matrix(14 0 0 14 450.168 368.95)"/>
<path d="M.184.199v-.283H.19c.019.039.06.093.152.093C.467.009.56-.09.56-.265c0-.176-.096-.272-.218-.272a.158.158 0 0 0-.152.094H.182V-.53H.06v.729h.124ZM.182-.265c0-.103.044-.17.125-.17.084 0 .127.071.127.17 0 .1-.044.172-.127.172-.08 0-.125-.069-.125-.172Z" style="fill-rule:nonzero" transform="matrix(14 0 0 14 457.888 368.95)"/>
<path d="M.53-.269c0-.187-.112-.268-.242-.268-.152 0-.251.111-.251.275 0 .166.098.272.258.272.123 0 .208-.06.23-.152H.404C.387-.11.35-.086.296-.086.215-.086.162-.14.161-.231H.53v-.038ZM.161-.315A.128.128 0 0 1 .29-.44c.072 0 .121.053.121.125h-.25Z" style="fill-rule:nonzero" transform="matrix(14 0 0 14 466.266 368.95)"/>
<path d="M.063-.346h.318v.103H.063z" style="fill-rule:nonzero" transform="matrix(14 0 0 14 474.213 368.95)"/>
<path d="M.478-.379C.469-.475.391-.537.265-.537c-.13 0-.215.064-.214.162-.001.076.051.127.149.148l.085.018c.053.011.077.031.077.062 0 .039-.039.063-.099.063-.058 0-.093-.022-.101-.067H.036C.048-.05.128.01.263.01c.139 0 .226-.069.226-.168C.489-.234.44-.281.34-.302L.25-.321C.196-.334.174-.354.174-.382c0-.036.039-.063.093-.063.052 0 .086.026.093.066h.118Z" style="fill-rule:nonzero" transform="matrix(14 0 0 14 480.425 368.95)"/>
<path d="M.276-.537c-.133 0-.214.068-.223.158h.12c.01-.038.044-.063.099-.063.063 0 .096.03.096.082v.043a22.12 22.12 0 0 0-.135.007c-.099.006-.198.041-.198.161 0 .104.077.16.178.16.083 0 .133-.04.156-.084h.004V0h.119v-.355c0-.141-.116-.182-.216-.182Zm-.031.456c-.052 0-.09-.024-.09-.07 0-.046.038-.071.097-.075.025-.003.094-.007.116-.008l.001.044c0 .059-.049.109-.124.109Z" style="fill-rule:nonzero" transform="matrix(14 0 0 14 487.769 368.95)"/>
<path d="M.184-.311c0-.077.047-.121.113-.121.065 0 .104.042.104.113V0h.124v-.338c0-.127-.072-.199-.182-.199C.264-.537.21-.5.185-.44H.179v-.09H.06V0h.124v-.311Z" style="fill-rule:nonzero" transform="matrix(14 0 0 14 495.47 368.95)"/>
<path d="M.123-.606c.039 0 .071-.03.071-.067a.07.07 0 0 0-.071-.068c-.04 0-.073.03-.073.068 0 .037.033.067.073.067ZM.184 0v-.53H.06V0h.124Z" style="fill-rule:nonzero" transform="matrix(14 0 0 14 503.64 368.95)"/>
<path d="M.277-.097C.245-.098.22-.108.22-.16v-.274h.104V-.53H.22v-.127H.095v.127H.02v.096h.075v.295c0 .1.072.146.166.146a.51.51 0 0 0 .07-.005V-.1l-.054.003Z" style="fill-rule:nonzero" transform="matrix(14 0 0 14 507.057 368.95)"/>
<path d="M.123-.606c.039 0 .071-.03.071-.067a.07.07 0 0 0-.071-.068c-.04 0-.073.03-.073.068 0 .037.033.067.073.067ZM.184 0v-.53H.06V0h.124Z" style="fill-rule:nonzero" transform="matrix(14 0 0 14 512.099 368.95)"/>
<path d="M.488 0v-.103h-.27v-.004l.261-.338V-.53H.062v.103h.264v.004l-.274.344V0h.436Z" style="fill-rule:nonzero" transform="matrix(14 0 0 14 515.517 368.95)"/>
<path d="M.53-.269c0-.187-.112-.268-.242-.268-.152 0-.251.111-.251.275 0 .166.098.272.258.272.123 0 .208-.06.23-.152H.404C.387-.11.35-.086.296-.086.215-.086.162-.14.161-.231H.53v-.038ZM.161-.315A.128.128 0 0 1 .29-.44c.072 0 .121.053.121.125h-.25Z" style="fill-rule:nonzero" transform="matrix(14 0 0 14 522.812 368.95)"/>
<path d="M694 438c0-4.415-3.585-8-8-8h-68c-4.415 0-8 3.585-8 8v64c0 4.415 3.585 8 8 8h68c4.415 0 8-3.585 8-8v-64Z" style="fill:#fff"/>
<path d="M694 438c0-4.415-3.585-8-8-8h-68c-4.415 0-8 3.585-8 8v64c0 4.415 3.585 8 8 8h68c4.415 0 8-3.585 8-8v-64Zm-2 0v64c0 3.311-2.689 6-6 6h-68c-3.311 0-6-2.689-6-6v-64c0-3.311 2.689-6 6-6h68c3.311 0 6 2.689 6 6Z" style="fill:#7f8292"/>
<path d="m660 469-25 14M654 469l26 14M640 485l-18 14M638 485v14M636 485l18 14M678 485l-9 14M676 485l9 14" style="fill:none;stroke:gray;stroke-width:1px"/>
<path d="m660 469-25 14M654 469l26 14M640 485l-18 14M638 485v14M636 485l18 14M678 485l-9 14M676 485l9 14" style="fill:none;stroke:#d8a303;stroke-opacity:.5;stroke-width:1px"/>
<path d="M663 466a2 2 0 0 0-2-2h-8a2 2 0 0 0-2 2v4a2 2 0 0 0 2 2h8a2 2 0 0 0 2-2v-4ZM644 482a2 2 0 0 0-2-2h-8a2 2 0 0 0-2 2v4a2 2 0 0 0 2 2h8a2 2 0 0 0 2-2v-4ZM630 498a2 2 0 0 0-2-2h-8a2 2 0 0 0-2 2v4a2 2 0 0 0 2 2h8a2 2 0 0 0 2-2v-4ZM644 498a2 2 0 0 0-2-2h-8a2 2 0 0 0-2 2v4a2 2 0 0 0 2 2h8a2 2 0 0 0 2-2v-4ZM658 498a2 2 0 0 0-2-2h-8a2 2 0 0 0-2 2v4a2 2 0 0 0 2 2h8a2 2 0 0 0 2-2v-4ZM676 498a2 2 0 0 0-2-2h-8a2 2 0 0 0-2 2v4a2 2 0 0 0 2 2h8a2 2 0 0 0 2-2v-4ZM690 498a2 2 0 0 0-2-2h-8a2 2 0 0 0-2 2v4a2 2 0 0 0 2 2h8a2 2 0 0 0 2-2v-4ZM683 482a2 2 0 0 0-2-2h-8a2 2 0 0 0-2 2v4a2 2 0 0 0 2 2h8a2 2 0 0 0 2-2v-4Z" style="fill:#fff"/>
<path d="M663 466a2 2 0 0 0-2-2h-8a2 2 0 0 0-2 2v4a2 2 0 0 0 2 2h8a2 2 0 0 0 2-2v-4ZM644 482a2 2 0 0 0-2-2h-8a2 2 0 0 0-2 2v4a2 2 0 0 0 2 2h8a2 2 0 0 0 2-2v-4ZM630 498a2 2 0 0 0-2-2h-8a2 2 0 0 0-2 2v4a2 2 0 0 0 2 2h8a2 2 0 0 0 2-2v-4ZM644 498a2 2 0 0 0-2-2h-8a2 2 0 0 0-2 2v4a2 2 0 0 0 2 2h8a2 2 0 0 0 2-2v-4ZM658 498a2 2 0 0 0-2-2h-8a2 2 0 0 0-2 2v4a2 2 0 0 0 2 2h8a2 2 0 0 0 2-2v-4ZM676 498a2 2 0 0 0-2-2h-8a2 2 0 0 0-2 2v4a2 2 0 0 0 2 2h8a2 2 0 0 0 2-2v-4ZM690 498a2 2 0 0 0-2-2h-8a2 2 0 0 0-2 2v4a2 2 0 0 0 2 2h8a2 2 0 0 0 2-2v-4ZM683 482a2 2 0 0 0-2-2h-8a2 2 0 0 0-2 2v4a2 2 0 0 0 2 2h8a2 2 0 0 0 2-2v-4Z" style="fill:#d8a303;fill-opacity:.4"/>
<path d="m660 469-25 14M654 469l26 14M640 485l-18 14M638 485v14M636 485l18 14M678 485l-9 14M676 485l9 14" style="fill:none;stroke:gray;stroke-width:1px"/>
<path d="m660 469-25 14M654 469l26 14M640 485l-18 14M638 485v14M636 485l18 14M678 485l-9 14M676 485l9 14" style="fill:none;stroke:#d8a303;stroke-opacity:.5;stroke-width:1px"/>
<path d="M663 466a2 2 0 0 0-2-2h-8a2 2 0 0 0-2 2v4a2 2 0 0 0 2 2h8a2 2 0 0 0 2-2v-4ZM644 482a2 2 0 0 0-2-2h-8a2 2 0 0 0-2 2v4a2 2 0 0 0 2 2h8a2 2 0 0 0 2-2v-4ZM630 498a2 2 0 0 0-2-2h-8a2 2 0 0 0-2 2v4a2 2 0 0 0 2 2h8a2 2 0 0 0 2-2v-4ZM644 498a2 2 0 0 0-2-2h-8a2 2 0 0 0-2 2v4a2 2 0 0 0 2 2h8a2 2 0 0 0 2-2v-4ZM658 498a2 2 0 0 0-2-2h-8a2 2 0 0 0-2 2v4a2 2 0 0 0 2 2h8a2 2 0 0 0 2-2v-4ZM676 498a2 2 0 0 0-2-2h-8a2 2 0 0 0-2 2v4a2 2 0 0 0 2 2h8a2 2 0 0 0 2-2v-4ZM690 498a2 2 0 0 0-2-2h-8a2 2 0 0 0-2 2v4a2 2 0 0 0 2 2h8a2 2 0 0 0 2-2v-4ZM683 482a2 2 0 0 0-2-2h-8a2 2 0 0 0-2 2v4a2 2 0 0 0 2 2h8a2 2 0 0 0 2-2v-4Z" style="fill:#fff"/>
<path d="M663 466a2 2 0 0 0-2-2h-8a2 2 0 0 0-2 2v4a2 2 0 0 0 2 2h8a2 2 0 0 0 2-2v-4ZM644 482a2 2 0 0 0-2-2h-8a2 2 0 0 0-2 2v4a2 2 0 0 0 2 2h8a2 2 0 0 0 2-2v-4ZM630 498a2 2 0 0 0-2-2h-8a2 2 0 0 0-2 2v4a2 2 0 0 0 2 2h8a2 2 0 0 0 2-2v-4ZM644 498a2 2 0 0 0-2-2h-8a2 2 0 0 0-2 2v4a2 2 0 0 0 2 2h8a2 2 0 0 0 2-2v-4ZM658 498a2 2 0 0 0-2-2h-8a2 2 0 0 0-2 2v4a2 2 0 0 0 2 2h8a2 2 0 0 0 2-2v-4ZM676 498a2 2 0 0 0-2-2h-8a2 2 0 0 0-2 2v4a2 2 0 0 0 2 2h8a2 2 0 0 0 2-2v-4ZM690 498a2 2 0 0 0-2-2h-8a2 2 0 0 0-2 2v4a2 2 0 0 0 2 2h8a2 2 0 0 0 2-2v-4ZM683 482a2 2 0 0 0-2-2h-8a2 2 0 0 0-2 2v4a2 2 0 0 0 2 2h8a2 2 0 0 0 2-2v-4Z" style="fill:#d8a303;fill-opacity:.4"/>
<path d="m658 466-25 14M652 466l26 14M638 482l-18 14M636 482v14M634 482l18 14M676 482l-9 14M674 482l9 14" style="fill:none;stroke:gray;stroke-width:1px"/>
<path d="m658 466-25 14M652 466l26 14M638 482l-18 14M636 482v14M634 482l18 14M676 482l-9 14M674 482l9 14" style="fill:none;stroke:#d8a303;stroke-opacity:.5;stroke-width:1px"/>
<path d="M661 463a2 2 0 0 0-2-2h-8a2 2 0 0 0-2 2v4a2 2 0 0 0 2 2h8a2 2 0 0 0 2-2v-4ZM642 479a2 2 0 0 0-2-2h-8a2 2 0 0 0-2 2v4a2 2 0 0 0 2 2h8a2 2 0 0 0 2-2v-4ZM628 495a2 2 0 0 0-2-2h-8a2 2 0 0 0-2 2v4a2 2 0 0 0 2 2h8a2 2 0 0 0 2-2v-4ZM642 495a2 2 0 0 0-2-2h-8a2 2 0 0 0-2 2v4a2 2 0 0 0 2 2h8a2 2 0 0 0 2-2v-4ZM656 495a2 2 0 0 0-2-2h-8a2 2 0 0 0-2 2v4a2 2 0 0 0 2 2h8a2 2 0 0 0 2-2v-4ZM674 495a2 2 0 0 0-2-2h-8a2 2 0 0 0-2 2v4a2 2 0 0 0 2 2h8a2 2 0 0 0 2-2v-4ZM688 495a2 2 0 0 0-2-2h-8a2 2 0 0 0-2 2v4a2 2 0 0 0 2 2h8a2 2 0 0 0 2-2v-4ZM681 479a2 2 0 0 0-2-2h-8a2 2 0 0 0-2 2v4a2 2 0 0 0 2 2h8a2 2 0 0 0 2-2v-4Z" style="fill:#fff"/>
<path d="M661 463a2 2 0 0 0-2-2h-8a2 2 0 0 0-2 2v4a2 2 0 0 0 2 2h8a2 2 0 0 0 2-2v-4ZM642 479a2 2 0 0 0-2-2h-8a2 2 0 0 0-2 2v4a2 2 0 0 0 2 2h8a2 2 0 0 0 2-2v-4ZM628 495a2 2 0 0 0-2-2h-8a2 2 0 0 0-2 2v4a2 2 0 0 0 2 2h8a2 2 0 0 0 2-2v-4ZM642 495a2 2 0 0 0-2-2h-8a2 2 0 0 0-2 2v4a2 2 0 0 0 2 2h8a2 2 0 0 0 2-2v-4ZM656 495a2 2 0 0 0-2-2h-8a2 2 0 0 0-2 2v4a2 2 0 0 0 2 2h8a2 2 0 0 0 2-2v-4ZM674 495a2 2 0 0 0-2-2h-8a2 2 0 0 0-2 2v4a2 2 0 0 0 2 2h8a2 2 0 0 0 2-2v-4ZM688 495a2 2 0 0 0-2-2h-8a2 2 0 0 0-2 2v4a2 2 0 0 0 2 2h8a2 2 0 0 0 2-2v-4ZM681 479a2 2 0 0 0-2-2h-8a2 2 0 0 0-2 2v4a2 2 0 0 0 2 2h8a2 2 0 0 0 2-2v-4Z" style="fill:#d8a303;fill-opacity:.4"/>
<path d="m658 466-25 14M652 466l26 14M638 482l-18 14M636 482v14M634 482l18 14M676 482l-9 14M674 482l9 14" style="fill:none;stroke:gray;stroke-width:1px"/>
<path d="m658 466-25 14M652 466l26 14M638 482l-18 14M636 482v14M634 482l18 14M676 482l-9 14M674 482l9 14" style="fill:none;stroke:#d8a303;stroke-opacity:.5;stroke-width:1px"/>
<path d="M661 463a2 2 0 0 0-2-2h-8a2 2 0 0 0-2 2v4a2 2 0 0 0 2 2h8a2 2 0 0 0 2-2v-4ZM642 479a2 2 0 0 0-2-2h-8a2 2 0 0 0-2 2v4a2 2 0 0 0 2 2h8a2 2 0 0 0 2-2v-4ZM628 495a2 2 0 0 0-2-2h-8a2 2 0 0 0-2 2v4a2 2 0 0 0 2 2h8a2 2 0 0 0 2-2v-4ZM642 495a2 2 0 0 0-2-2h-8a2 2 0 0 0-2 2v4a2 2 0 0 0 2 2h8a2 2 0 0 0 2-2v-4ZM656 495a2 2 0 0 0-2-2h-8a2 2 0 0 0-2 2v4a2 2 0 0 0 2 2h8a2 2 0 0 0 2-2v-4ZM674 495a2 2 0 0 0-2-2h-8a2 2 0 0 0-2 2v4a2 2 0 0 0 2 2h8a2 2 0 0 0 2-2v-4ZM688 495a2 2 0 0 0-2-2h-8a2 2 0 0 0-2 2v4a2 2 0 0 0 2 2h8a2 2 0 0 0 2-2v-4ZM681 479a2 2 0 0 0-2-2h-8a2 2 0 0 0-2 2v4a2 2 0 0 0 2 2h8a2 2 0 0 0 2-2v-4Z" style="fill:#fff"/>
<path d="M661 463a2 2 0 0 0-2-2h-8a2 2 0 0 0-2 2v4a2 2 0 0 0 2 2h8a2 2 0 0 0 2-2v-4ZM642 479a2 2 0 0 0-2-2h-8a2 2 0 0 0-2 2v4a2 2 0 0 0 2 2h8a2 2 0 0 0 2-2v-4ZM628 495a2 2 0 0 0-2-2h-8a2 2 0 0 0-2 2v4a2 2 0 0 0 2 2h8a2 2 0 0 0 2-2v-4ZM642 495a2 2 0 0 0-2-2h-8a2 2 0 0 0-2 2v4a2 2 0 0 0 2 2h8a2 2 0 0 0 2-2v-4ZM656 495a2 2 0 0 0-2-2h-8a2 2 0 0 0-2 2v4a2 2 0 0 0 2 2h8a2 2 0 0 0 2-2v-4ZM674 495a2 2 0 0 0-2-2h-8a2 2 0 0 0-2 2v4a2 2 0 0 0 2 2h8a2 2 0 0 0 2-2v-4ZM688 495a2 2 0 0 0-2-2h-8a2 2 0 0 0-2 2v4a2 2 0 0 0 2 2h8a2 2 0 0 0 2-2v-4ZM681 479a2 2 0 0 0-2-2h-8a2 2 0 0 0-2 2v4a2 2 0 0 0 2 2h8a2 2 0 0 0 2-2v-4Z" style="fill:#d8a303;fill-opacity:.4"/>
<path d="m656 463-25 14M650 463l26 14M636 479l-18 14M634 479v14M632 479l18 14M674 479l-9 14M672 479l9 14" style="fill:none;stroke:gray;stroke-width:1px"/>
<path d="m656 463-25 14M650 463l26 14M636 479l-18 14M634 479v14M632 479l18 14M674 479l-9 14M672 479l9 14" style="fill:none;stroke:#d8a303;stroke-opacity:.5;stroke-width:1px"/>
<path d="M659 460a2 2 0 0 0-2-2h-8a2 2 0 0 0-2 2v4a2 2 0 0 0 2 2h8a2 2 0 0 0 2-2v-4ZM640 476a2 2 0 0 0-2-2h-8a2 2 0 0 0-2 2v4a2 2 0 0 0 2 2h8a2 2 0 0 0 2-2v-4ZM626 492a2 2 0 0 0-2-2h-8a2 2 0 0 0-2 2v4a2 2 0 0 0 2 2h8a2 2 0 0 0 2-2v-4ZM640 492a2 2 0 0 0-2-2h-8a2 2 0 0 0-2 2v4a2 2 0 0 0 2 2h8a2 2 0 0 0 2-2v-4ZM654 492a2 2 0 0 0-2-2h-8a2 2 0 0 0-2 2v4a2 2 0 0 0 2 2h8a2 2 0 0 0 2-2v-4ZM672 492a2 2 0 0 0-2-2h-8a2 2 0 0 0-2 2v4a2 2 0 0 0 2 2h8a2 2 0 0 0 2-2v-4ZM686 492a2 2 0 0 0-2-2h-8a2 2 0 0 0-2 2v4a2 2 0 0 0 2 2h8a2 2 0 0 0 2-2v-4ZM679 476a2 2 0 0 0-2-2h-8a2 2 0 0 0-2 2v4a2 2 0 0 0 2 2h8a2 2 0 0 0 2-2v-4Z" style="fill:#fff"/>
<path d="M659 460a2 2 0 0 0-2-2h-8a2 2 0 0 0-2 2v4a2 2 0 0 0 2 2h8a2 2 0 0 0 2-2v-4ZM640 476a2 2 0 0 0-2-2h-8a2 2 0 0 0-2 2v4a2 2 0 0 0 2 2h8a2 2 0 0 0 2-2v-4ZM626 492a2 2 0 0 0-2-2h-8a2 2 0 0 0-2 2v4a2 2 0 0 0 2 2h8a2 2 0 0 0 2-2v-4ZM640 492a2 2 0 0 0-2-2h-8a2 2 0 0 0-2 2v4a2 2 0 0 0 2 2h8a2 2 0 0 0 2-2v-4ZM654 492a2 2 0 0 0-2-2h-8a2 2 0 0 0-2 2v4a2 2 0 0 0 2 2h8a2 2 0 0 0 2-2v-4ZM672 492a2 2 0 0 0-2-2h-8a2 2 0 0 0-2 2v4a2 2 0 0 0 2 2h8a2 2 0 0 0 2-2v-4ZM686 492a2 2 0 0 0-2-2h-8a2 2 0 0 0-2 2v4a2 2 0 0 0 2 2h8a2 2 0 0 0 2-2v-4ZM679 476a2 2 0 0 0-2-2h-8a2 2 0 0 0-2 2v4a2 2 0 0 0 2 2h8a2 2 0 0 0 2-2v-4Z" style="fill:#d8a303;fill-opacity:.4"/>
<path d="m656 463-25 14M650 463l26 14M636 479l-18 14M634 479v14M632 479l18 14M674 479l-9 14M672 479l9 14" style="fill:none;stroke:gray;stroke-width:1px"/>
<path d="m656 463-25 14M650 463l26 14M636 479l-18 14M634 479v14M632 479l18 14M674 479l-9 14M672 479l9 14" style="fill:none;stroke:#d8a303;stroke-opacity:.5;stroke-width:1px"/>
<path d="M659 460a2 2 0 0 0-2-2h-8a2 2 0 0 0-2 2v4a2 2 0 0 0 2 2h8a2 2 0 0 0 2-2v-4ZM640 476a2 2 0 0 0-2-2h-8a2 2 0 0 0-2 2v4a2 2 0 0 0 2 2h8a2 2 0 0 0 2-2v-4ZM626 492a2 2 0 0 0-2-2h-8a2 2 0 0 0-2 2v4a2 2 0 0 0 2 2h8a2 2 0 0 0 2-2v-4ZM640 492a2 2 0 0 0-2-2h-8a2 2 0 0 0-2 2v4a2 2 0 0 0 2 2h8a2 2 0 0 0 2-2v-4ZM654 492a2 2 0 0 0-2-2h-8a2 2 0 0 0-2 2v4a2 2 0 0 0 2 2h8a2 2 0 0 0 2-2v-4ZM672 492a2 2 0 0 0-2-2h-8a2 2 0 0 0-2 2v4a2 2 0 0 0 2 2h8a2 2 0 0 0 2-2v-4ZM686 492a2 2 0 0 0-2-2h-8a2 2 0 0 0-2 2v4a2 2 0 0 0 2 2h8a2 2 0 0 0 2-2v-4ZM679 476a2 2 0 0 0-2-2h-8a2 2 0 0 0-2 2v4a2 2 0 0 0 2 2h8a2 2 0 0 0 2-2v-4Z" style="fill:#fff"/>
<path d="M659 460a2 2 0 0 0-2-2h-8a2 2 0 0 0-2 2v4a2 2 0 0 0 2 2h8a2 2 0 0 0 2-2v-4ZM640 476a2 2 0 0 0-2-2h-8a2 2 0 0 0-2 2v4a2 2 0 0 0 2 2h8a2 2 0 0 0 2-2v-4ZM626 492a2 2 0 0 0-2-2h-8a2 2 0 0 0-2 2v4a2 2 0 0 0 2 2h8a2 2 0 0 0 2-2v-4ZM640 492a2 2 0 0 0-2-2h-8a2 2 0 0 0-2 2v4a2 2 0 0 0 2 2h8a2 2 0 0 0 2-2v-4ZM654 492a2 2 0 0 0-2-2h-8a2 2 0 0 0-2 2v4a2 2 0 0 0 2 2h8a2 2 0 0 0 2-2v-4ZM672 492a2 2 0 0 0-2-2h-8a2 2 0 0 0-2 2v4a2 2 0 0 0 2 2h8a2 2 0 0 0 2-2v-4ZM686 492a2 2 0 0 0-2-2h-8a2 2 0 0 0-2 2v4a2 2 0 0 0 2 2h8a2 2 0 0 0 2-2v-4ZM679 476a2 2 0 0 0-2-2h-8a2 2 0 0 0-2 2v4a2 2 0 0 0 2 2h8a2 2 0 0 0 2-2v-4Z" style="fill:#d8a303;fill-opacity:.4"/>
<path d="M635.199 443.599c0-1.078.672-1.696 1.609-1.696.924 0 1.465.58 1.465 1.585v4.462h1.74v-4.728c0-1.798-1.02-2.794-2.557-2.794-1.141 0-1.861.517-2.204 1.359h-.092v-3.737h-1.702v9.9h1.741v-4.351ZM644.693 440.428c-1.861 0-2.992.957-3.118 2.214h1.687c.131-.531.604-.884 1.383-.884.875 0 1.344.425 1.344 1.155l.004.599c-.323.015-1.382.063-1.899.097-1.378.092-2.766.58-2.766 2.258 0 1.46 1.074 2.233 2.49 2.233 1.165 0 1.861-.551 2.18-1.17h.058v1.02h1.668v-4.965c0-1.977-1.624-2.557-3.031-2.557Zm-.43 6.391c-.73 0-1.252-.334-1.252-.976 0-.648.522-.996 1.353-1.059a50.36 50.36 0 0 1 1.629-.111l.005.614c0 .831-.677 1.532-1.735 1.532ZM655.232 442.642c-.126-1.348-1.219-2.214-2.988-2.214-1.818 0-3.002.899-2.997 2.272-.005 1.064.711 1.784 2.083 2.069l1.199.252c.74.159 1.074.435 1.078.865-.004.551-.551.894-1.392.894-.812 0-1.305-.314-1.416-.942h-1.765c.174 1.416 1.291 2.257 3.186 2.257 1.938 0 3.157-.967 3.162-2.364-.005-1.058-.687-1.711-2.084-2.011l-1.262-.27c-.754-.174-1.058-.46-1.058-.851 0-.503.546-.875 1.29-.875.74 0 1.204.362 1.31.918h1.654ZM659.752 446.587c-.445-.01-.798-.155-.798-.87v-3.848h1.46v-1.344h-1.46v-1.779h-1.74v1.779h-1.054v1.344h1.054v4.138c-.005 1.397 1.005 2.045 2.315 2.045.445 0 .779-.039.987-.073v-1.426c-.218.015-.561.039-.764.034ZM665.843 450.053v-1.334h-1.808v-9.615h1.808v-1.339h-3.486v12.288h3.486ZM666.447 437.765v1.339h1.808v9.615h-1.808v1.334h3.486v-12.288h-3.486Z" style="fill-rule:nonzero"/>
<path d="M616 454.5h72" style="fill:none;stroke:#7f8292;stroke-width:1px"/>
<path d="m658 412-6 18-6-18h12Z" style="fill:#7f8292"/>
<path d="M652 390v25.6" style="fill:none;stroke:#7f8292;stroke-width:4px"/>
<path d="m266 208 18 6-18 6v-12Z" style="fill:#7f8292"/>
<path d="M308 104v24h-63v86h24.6" style="fill:none;stroke:#7f8292;stroke-width:4px"/>
</svg>
